<?xml version="1.0" encoding="utf-8"?>
<!-- Generator: Adobe Illustrator 26.5.0, SVG Export Plug-In . SVG Version: 6.00 Build 0)  -->
<svg version="1.1" id="Layer_1" xmlns="http://www.w3.org/2000/svg" xmlns:xlink="http://www.w3.org/1999/xlink" x="0px" y="0px"
	 viewBox="0 0 89 89" style="enable-background:new 0 0 89 89;" xml:space="preserve">
<g id="DuyKOq.tif">
	<g>
		<path d="M45.3,33.6c4.8,0,9.6,0,14.4,0c0.9,0,0.9,0,0.9,0.9c0,7.9,0,15.8,0,23.8c0,1.5-0.6,2.5-1.9,2.9c-0.3,0.1-0.6,0.1-0.8,0.1
			c-0.8,0-1.5,0-2.3,0c-0.6,0-0.7,0.2-0.7,0.8c0,2.2,0,4.5,0,6.7c0,1.3-0.5,2.4-1.6,3.1c-2.3,1.5-5.1-0.3-5.2-2.5
			c-0.1-1.7-0.1-3.3-0.1-5c0-0.9,0-1.7,0-2.6c0-0.3-0.1-0.5-0.5-0.5c-1.5,0-2.9,0-4.4,0c-0.5,0-0.5,0.3-0.5,0.6c0,2.4,0,4.7,0,7.1
			c0,1.4-0.7,2.4-1.9,3.1c-2.4,1.3-5-0.7-5-3.2c0-2.3,0-4.6,0-6.9c0-0.6-0.2-0.7-0.7-0.7c-0.8,0-1.6,0-2.4,0c-1.4,0-2.6-1.1-2.6-2.6
			c0-0.2,0-0.4,0-0.6c0-7.9,0-15.8,0-23.7c0-0.8,0-0.8,0.8-0.8C35.6,33.6,40.5,33.6,45.3,33.6z"/>
		<path d="M37.9,20.6c-0.9-1.3-1.7-2.5-2.5-3.7c-0.1-0.1-0.2-0.2-0.2-0.3c0-0.2,0-0.4,0.1-0.7c0.2,0,0.5,0,0.7,0.2
			c0.3,0.3,0.5,0.6,0.7,0.9c0.7,0.9,1.3,1.9,1.9,2.8c0.2,0.3,0.4,0.4,0.8,0.3c3.9-1.4,7.8-1.4,11.7,0c0.4,0.1,0.6,0,0.8-0.3
			c0.8-1.1,1.6-2.3,2.3-3.4c0.1-0.1,0.1-0.3,0.2-0.3c0.2-0.1,0.5-0.2,0.7-0.2c0,0.3,0.1,0.6,0,0.7c-0.3,0.5-0.6,0.9-0.9,1.4
			c-0.5,0.7-1,1.5-1.5,2.2c-0.3,0.4-0.2,0.6,0.2,0.8c2.8,1.4,5,3.5,6.3,6.3c0.5,1,0.8,2.1,1.1,3.3c0.2,0.9,0.1,0.9-0.8,0.9
			c-5.6,0-11.3,0-16.9,0c-4,0-8,0-12,0c-0.9,0-1-0.1-0.8-1c0.9-4.4,3.5-7.4,7.4-9.5C37.5,20.8,37.7,20.7,37.9,20.6z M38.7,27.1
			c0.9,0,1.7-0.8,1.7-1.7c0-0.9-0.8-1.7-1.7-1.7c-0.9,0-1.7,0.8-1.7,1.7C37,26.3,37.8,27.1,38.7,27.1z M53.6,25.4
			c0-0.9-0.8-1.7-1.7-1.7c-0.9,0-1.7,0.8-1.7,1.7c0,0.9,0.8,1.7,1.7,1.7C52.8,27.1,53.6,26.3,53.6,25.4z"/>
		<path d="M21,43.8c0-2.3,0-4.6,0-6.8c0-1.9,1.7-3.6,3.5-3.5c1.8,0.1,3.3,1.6,3.3,3.5c0,4.1,0,8.2,0,12.3c0,0.9,0,1.7-0.2,2.5
			c-0.3,1.4-1.7,2.4-3.1,2.4c-1.5,0-2.9-0.9-3.3-2.3C21.1,51.5,21,51,21,50.5C21,48.3,21,46.1,21,43.8z"/>
		<path d="M69.4,43.8c0,2.3,0,4.6,0,6.9c0,2.1-1.6,3.6-3.7,3.5c-1.7-0.1-3.2-1.7-3.2-3.5c0-4.5,0-9.1,0-13.6c0-0.3,0.1-0.7,0.2-1
			c0.3-1.4,1.7-2.4,3-2.5c1.6-0.1,3,0.8,3.4,2.2c0.2,0.5,0.2,1,0.2,1.5C69.5,39.4,69.4,41.6,69.4,43.8z"/>
	</g>
</g>
</svg>
