<?xml version="1.0" encoding="utf-8"?>
<!-- Generator: Adobe Illustrator 26.5.0, SVG Export Plug-In . SVG Version: 6.00 Build 0)  -->
<svg version="1.1" id="Layer_1" xmlns="http://www.w3.org/2000/svg" xmlns:xlink="http://www.w3.org/1999/xlink" x="0px" y="0px"
	 viewBox="0 0 89 89" style="enable-background:new 0 0 89 89;" xml:space="preserve">
<g id="QGmkg8.tif">
	<g>
		<path d="M63.7,33.2c-3.5,2.8-6,6-5.4,10.6c0.6,4.3,2.8,7.6,6.8,9.6c-2,4.9-4.1,9.6-8.7,12.6c-1.3,0.9-2.7,1-4.2,0.6
			c-1.3-0.4-2.5-0.8-3.8-1.3c-1.9-0.7-3.7-0.7-5.6,0c-1,0.4-2.1,0.7-3.1,1.1c-2.3,0.9-4.4,0.5-6.3-1c-3.1-2.4-5.1-5.6-6.6-9.1
			c-2.3-5.1-3.4-10.5-2.7-16.1c0.7-5.1,5-10.2,9.7-11.3c2.4-0.6,4.8-0.3,7,0.8c2.7,1.4,5.3,1.2,8-0.1c4.1-2,8.1-1.6,11.9,1
			C61.8,31.3,62.7,32.3,63.7,33.2z"/>
		<path d="M54.2,16.2c1.2,6.8-3.6,10.6-9.4,11.4C44,21.7,47.9,17.4,54.2,16.2z"/>
	</g>
</g>
</svg>
