<?xml version="1.0" encoding="utf-8"?>
<!-- Generator: Adobe Illustrator 26.5.0, SVG Export Plug-In . SVG Version: 6.00 Build 0)  -->
<svg version="1.1" id="Layer_1" xmlns="http://www.w3.org/2000/svg" xmlns:xlink="http://www.w3.org/1999/xlink" x="0px" y="0px"
	 viewBox="0 0 1419.6 141.5" style="enable-background:new 0 0 1419.6 141.5;" xml:space="preserve">
<style type="text/css">
	.st0{fill:#FFFFFF;}
</style>
<g id="HgjGkR.tif">
	<path class="st0" d="M66.8,3.9c1.1,0.4,2.1,0.7,3.2,1l11.4,3.8l11.2,3.8l11.3,3.7l11.3,3.8l11.2,3.7c2.3,0.8,4.5,1.5,6.8,2.3
		c0.2,0.1,0.4,0.4,0.4,0.6c-0.4,2.3-0.8,4.6-1.3,6.9c-0.5,2.6-1,5.2-1.5,7.9l-1.5,8c-0.5,2.6-1,5.2-1.5,7.8c-0.4,2.6-1,5.1-1.4,7.7
		l-1.5,8c-0.5,2.6-1,5.1-1.4,7.7s-1,5.2-1.5,7.9s-1,5.2-1.5,7.9s-1,5.2-1.4,7.7l-1.5,8c-0.2,0.8-0.3,1.7-0.5,2.5
		c-0.1,0.4-0.3,0.7-0.7,0.9c-3.6,1.6-7.2,3.2-10.8,4.8l-17.3,7.7l-18,8c-0.9,0.4-1.8,0.8-2.7,1.2c-0.5,0.3-1.1,0.3-1.6,0
		c-10.3-4.5-20.5-9.1-30.8-13.6l-17.7-7.8c-0.6-0.2-1-0.8-1.1-1.4c-0.5-3.2-1.2-6.3-1.8-9.5c-0.5-2.6-1-5.2-1.5-7.9s-1-5.1-1.5-7.7
		s-1-5.2-1.4-7.8s-1-5.3-1.5-7.9S7.8,68.5,7.3,66c-0.5-2.5-1-5.3-1.5-8s-1-5.1-1.4-7.7s-1-5.3-1.5-7.9s-1-5-1.4-7.6S0.5,29.6,0,27
		c-0.1-0.6,0-0.8,0.6-1c5.2-1.7,10.4-3.4,15.6-5.2c4.7-1.6,9.4-3.2,14.2-4.8c4.1-1.4,8.1-2.7,12.2-4l11.3-3.8l11.3-3.8L66.8,3.9z
		 M66.7,125.4c0.2-0.1,0.4-0.1,0.6-0.2l9-4l19.5-8.6l10.5-4.7c0.5-0.1,0.8-0.5,0.9-1c0.4-2.4,0.9-4.8,1.3-7.2c0.5-2.6,1-5.2,1.4-7.9
		c0.6-3.2,1.2-6.4,1.8-9.6s1.2-6.4,1.8-9.6c0.7-3.8,1.4-7.5,2.1-11.2c0.8-4.3,1.6-8.7,2.4-13c0.9-4.7,1.8-9.4,2.7-14.1
		c0.1-0.5,0-0.7-0.5-0.9c-4.1-1.4-8.3-2.8-12.4-4.2s-8.2-2.7-12.3-4.1c-4.7-1.6-9.4-3.2-14.2-4.8c-4.5-1.5-9-3-13.6-4.5
		c-0.5-0.2-1.1-0.3-1.7-0.1c-2.6,0.8-5.2,1.7-7.9,2.6c-4.7,1.6-9.5,3.1-14.2,4.7C39,24.9,34,26.6,28.9,28.3l-15.2,5
		c-1.1,0.4-1.1,0.4-0.9,1.5c0,0.3,0.1,0.6,0.2,1l1.5,8c0.5,2.5,1,5.1,1.4,7.7s1,5.4,1.5,8.1s1,5.1,1.5,7.7l1.5,7.8
		c0.5,2.6,1,5.2,1.5,7.8s1,5.2,1.5,7.8s1,5.2,1.4,7.8c0.5,2.8,1.1,5.5,1.5,8.2c0.1,0.6,0.4,1.1,1,1.3c3,1.3,5.9,2.6,8.9,3.9
		l28.6,12.7L66.7,125.4z"/>
	<path class="st0" d="M39,98.6l2.2-5.2l6.7-16.1c2.2-5.3,4.4-10.7,6.7-16l6-14.5l5.9-14.1c0.1-0.2,0.2-0.3,0.4-0.4
		c0.1,0.1,0.2,0.2,0.3,0.4c1.9,4.4,3.7,8.9,5.6,13.3L79,61.1l6.4,15.3c2.3,5.6,4.7,11.2,7,16.9l2,4.8c0,0.1,0.1,0.3,0.1,0.4
		c-0.3,0-0.6,0.1-0.8,0.1c-3.4,0-6.8,0-10.3,0c-0.6,0.1-1.1-0.3-1.2-0.8c-1.3-3.2-2.7-6.4-4-9.6c-0.1-0.5-0.6-0.8-1.1-0.8
		c-6.9,0-13.8,0-20.7,0c-0.5-0.1-1,0.3-1.2,0.8c-1.3,3.2-2.7,6.4-4,9.6c-0.1,0.5-0.6,0.8-1.2,0.8c-3.4,0-6.8,0-10.3,0
		C39.6,98.6,39.4,98.6,39,98.6z M60.3,76.3h12.8c-0.1-0.3-0.2-0.5-0.2-0.8c-1.9-4.6-3.8-9.2-5.8-13.8c-0.1-0.2-0.3-0.4-0.4-0.5
		c-0.1,0.2-0.3,0.3-0.3,0.5c-1.5,3.6-3,7.2-4.5,10.8C61.4,73.8,60.9,75,60.3,76.3z"/>
</g>
<g id="CD0EAu">
	<path class="st0" d="M553.1,15.8h2.2c14.9,0,29.8,0,44.8,0c1.3-0.1,2.5,0.6,3,1.8c4,6.9,8.1,13.8,12.1,20.7l1.6,2.7l4.5-7.7
		c3.1-5.4,6.2-10.7,9.2-16.1c0.3-0.9,1.2-1.4,2.1-1.4c15.7,0,31.3,0,47,0c0.2,0,0.4,0.1,0.9,0.1l-63.7,109.9L553.1,15.8z"/>
</g>
<path class="st0" d="M870,70.8c0-9.2-11.6-18-29.3-23.4c4.1-18.1,2.3-32.5-5.8-37.1c-1.9-1.1-4.1-1.6-6.4-1.6V15
	c1.1,0,2.2,0.2,3.2,0.7c3.9,2.2,5.5,10.7,4.2,21.5c-0.3,2.7-0.8,5.5-1.5,8.4c-5.9-1.4-12-2.5-18.1-3.1c-3.6-5-7.6-9.8-11.8-14.2
	c9.3-8.6,18-13.3,23.9-13.3V8.6l0,0c-7.8,0-18.1,5.6-28.4,15.2c-10.3-9.6-20.6-15.1-28.4-15.1v6.3c5.8,0,14.6,4.7,23.8,13.3
	c-4.2,4.5-8.1,9.2-11.7,14.2c-6.1,0.6-12.1,1.7-18.1,3.1c-0.7-2.8-1.1-5.6-1.5-8.2c-1.3-10.9,0.3-19.3,4.2-21.6
	c1-0.5,2.1-0.8,3.3-0.7V8.8l0,0c-2.2,0-4.5,0.5-6.4,1.6c-8,4.6-9.8,19-5.7,37c-17.7,5.5-29.2,14.2-29.2,23.4s11.6,18,29.3,23.4
	c-4.1,18.1-2.3,32.5,5.8,37.1c2,1.1,4.2,1.6,6.4,1.6c7.8,0,18-5.6,28.4-15.2c10.4,9.6,20.6,15.1,28.4,15.1c2.2,0,4.5-0.5,6.4-1.6
	c8-4.6,9.8-19,5.7-37C858.5,88.7,870,80,870,70.8z M833,51.8c-1.1,3.7-2.4,7.5-3.9,11.3c-1.2-2.3-2.4-4.6-3.7-6.8s-2.7-4.5-4.1-6.7
	C825.3,50.1,829.2,50.9,833,51.8L833,51.8z M819.9,82.1c-2.2,3.8-4.5,7.5-6.9,10.9c-4.2,0.4-8.5,0.6-12.8,0.6s-8.6-0.2-12.8-0.5
	c-2.4-3.4-4.7-7-6.9-10.8c-2.2-3.7-4.1-7.5-5.9-11.3c1.8-3.8,3.8-7.6,5.9-11.3s4.5-7.5,6.9-10.9c4.2-0.4,8.5-0.6,12.8-0.6
	s8.6,0.2,12.8,0.5c2.4,3.4,4.7,7,6.9,10.8s4.1,7.5,5.9,11.3C824,74.5,822.1,78.3,819.9,82.1z M829.1,78.4c1.5,3.8,2.8,7.6,3.9,11.3
	c-3.7,0.9-7.7,1.7-11.7,2.3c1.4-2.2,2.8-4.4,4.1-6.7S827.9,80.7,829.1,78.4L829.1,78.4z M800.3,108.7c-2.8-2.9-5.4-5.9-7.9-9.1
	c2.6,0.1,5.2,0.2,7.8,0.2s5.3-0.1,7.9-0.2C805.7,102.8,803,105.8,800.3,108.7L800.3,108.7z M779.1,92c-4-0.6-7.9-1.3-11.7-2.2
	c1-3.7,2.4-7.4,3.8-11.2c1.2,2.3,2.4,4.6,3.7,6.8S777.7,89.8,779.1,92z M800.1,32.8c2.8,2.9,5.4,5.9,7.9,9.1
	c-2.6-0.1-5.2-0.2-7.8-0.2s-5.3,0-7.9,0.2C794.7,38.7,797.4,35.7,800.1,32.8L800.1,32.8z M779.1,49.6c-1.4,2.2-2.8,4.4-4.1,6.7
	s-2.5,4.6-3.7,6.8c-1.5-3.8-2.8-7.6-3.9-11.3C771.1,50.9,775,50.1,779.1,49.6L779.1,49.6z M753.4,85.2c-10.1-4.3-16.6-9.9-16.6-14.4
	s6.5-10.1,16.6-14.4c2.4-1,5.1-2,7.9-2.9c1.7,5.9,3.8,11.7,6.3,17.3c-2.5,5.6-4.6,11.4-6.3,17.2C758.5,87.2,755.8,86.2,753.4,85.2
	L753.4,85.2z M768.7,125.8c-3.9-2.2-5.5-10.7-4.2-21.5c0.3-2.7,0.8-5.5,1.5-8.4c5.9,1.4,12,2.5,18.1,3.1c3.6,5,7.6,9.7,11.8,14.2
	c-9.3,8.6-18,13.3-23.9,13.3C770.8,126.6,769.7,126.3,768.7,125.8L768.7,125.8z M836.1,104.1c1.3,10.9-0.3,19.3-4.2,21.6
	c-1,0.5-2.1,0.8-3.3,0.7c-5.9,0-14.6-4.7-23.9-13.2c4.2-4.5,8.2-9.2,11.7-14.2c6.1-0.6,12.1-1.7,18-3.1
	C835.2,98.6,835.7,101.3,836.1,104.1L836.1,104.1z M847.1,85.1c-2.5,1-5.1,2-7.9,2.9c-1.7-5.9-3.9-11.7-6.4-17.3
	c2.5-5.6,4.6-11.3,6.3-17.2c2.8,0.9,5.5,1.8,8,2.9c10.1,4.3,16.6,9.9,16.6,14.4S857.1,80.9,847.1,85.1L847.1,85.1z"/>
<path class="st0" d="M771.7,8.7"/>
<circle class="st0" cx="800.2" cy="70.8" r="13"/>
<path class="st0" d="M828.5,8.6"/>
<g id="XPHtrc.tif">
	<path class="st0" d="M370.5,74.3v-6.7c0.2-0.6,0.4-1.2,0.5-1.8c0.5-3,0.6-6,1.3-8.9c7.5-33.3,40.5-54.4,73.9-47.3
		c34.7,7.5,55.7,40.7,48.2,75.2c-5.2,23.9-25.4,43.3-49.5,47.5c-3,0.5-6,0.9-9,1.4h-5c-0.8-0.2-1.6-0.4-2.4-0.5
		c-3-0.4-6-0.7-8.9-1.3c-24.4-5.5-43.2-24.9-47.7-49.5C371.3,79.8,370.9,77.1,370.5,74.3z M467.1,47.6c1.2-1.1,2.9-2.7,4.7-4.1
		c1.4-1.1,1.6-1.9,0.4-3.3c-12.6-14.8-28.5-21.4-47.7-17.9c-20.3,3.8-33.2,16.3-39.2,36c-0.4,1-0.1,2.1,0.7,2.8c19,19,38,38,57,57
		c0.7,0.9,1.9,1.2,3,0.8c21-5.7,35.9-24.3,36.8-46.1c0.1-1.3-0.1-2.1-1.7-2.1c-9.6,0.1-19.1,0.1-28.7,0c-1.3,0-1.7,0.5-1.7,1.7
		c0.1,2.2,0.1,4.3,0,6.5c-0.1,1.4,0.5,1.8,1.9,1.8c5.7,0,11.3,0,17,0h2.4c-0.1,0.6-0.2,1.1-0.3,1.7c-3.9,12.2-11.7,20.7-23.3,25.7
		c-1.3,0.6-1.9-0.1-2.7-0.8C429.5,91,413.2,74.7,397,58.5c-1-0.8-1.2-2.2-0.6-3.2c10.2-24.2,41.1-32.1,61.7-15.7
		C461.1,42.1,463.9,44.7,467.1,47.6z M431.5,120.3l-47.6-47.6C383.5,97.6,406.3,120.8,431.5,120.3z"/>
</g>
<g id="rRInic.tif">
	<path class="st0" d="M300.7,126.9H299c-33.6,0-67.2,0-100.8,0c-1.5,0-1.9-0.4-1.9-1.9c0-34.5,0-69,0-103.4c0-1.4,0.4-1.8,1.8-1.8
		c33.6,0,67.3,0,101,0h1.6L300.7,126.9z M280.5,79.2h-0.4c-1.2-4.1-2.5-8.1-3.7-12.2c-1.5-5-1.6-5.1-6.9-4.8h-0.3
		c-0.9-0.1-1.7,0.7-1.8,1.6c0,0.1,0,0.3,0,0.4c0,0.6,0.2,1.2,0.4,1.8c1.9,5.5,3.8,11,5.7,16.5c1,2.8,2,5.5,2.7,8.4s-0.8,4.4-3.2,3.9
		c-2-0.4-2.8,0-3.2,1.4c-0.5,1.8,0,3.3,1.9,3.7c1.8,0.4,3.7,0.5,5.6,0.3c3.8-0.5,5.4-3.4,6.3-6.8c2.4-8.9,4.8-17.9,7.1-26.9
		c1-4,0.6-4.5-3.5-4.4c-2.1,0-2.7,0.5-3.2,2.6c-0.8,3.2-1.6,6.4-2.4,9.6C281.3,76,280.9,77.6,280.5,79.2z M250.6,76.9L250.6,76.9
		c0,2.6-0.1,5.3,0,7.9c0.2,4.7,2.4,7.4,6.6,8c2.3,0.2,4.6,0.3,6.9,0.1c1.5-0.1,1.8-1.3,1.8-2.6s-0.2-2.4-1.8-2.5
		c-1-0.1-2.1-0.1-3.1-0.1c-1,0.1-1.9-0.5-2.1-1.4c-0.2-0.7-0.4-1.4-0.4-2.1c0-5.1,0-10.2-0.1-15.3c0-0.9,0.3-1.2,1.2-1.2
		c1.1,0.1,2.2,0.1,3.2,0c1.5-0.1,2-0.9,2-2.7c0-1.9-0.5-2.6-2-2.7c-1-0.1-2.1-0.1-3.1,0c-1,0.1-1.4-0.3-1.4-1.3c0-2.3,0-4.5,0-6.8
		c0-4.1-0.2-4.3-4.4-4.3c-2.2,0-2.8,0.7-2.9,2.9c-0.2,2.8-0.4,5.6-0.5,8.3c0,0.9-0.4,1.2-1.3,1.2c-2.2,0.1-2.6,0.6-2.6,2.7
		c0,2.1,0.5,2.7,2.6,2.8c1,0,1.4,0.3,1.3,1.4C250.5,71.7,250.6,74.3,250.6,76.9z M211.9,57.5v1.9c0,9.8,0,19.7,0,29.5
		c0,0.7,0,1.3,0.1,2c0,1.2,1.1,2.1,2.2,2.1c0.1,0,0.1,0,0.2,0c1.2,0,2.5,0,3.7,0c1.9,0,2.7-0.8,2.7-2.6c0-12.8,0-25.5,0-38.3
		c0-1.7-0.9-2.5-2.6-2.2c-3.1,0.5-6.3,1.2-9.4,1.8c-1,0.1-1.8,1-1.7,2.1c0,0.7,0,1.4,0,2.2c-0.1,1,0.7,1.9,1.7,2c0.2,0,0.4,0,0.5,0
		C210.2,57.8,210.9,57.7,211.9,57.5z M231.4,57.5c0,0.7,0.1,1.3,0.1,1.9c0,9.8,0,19.6,0,29.3c0,0.7,0,1.4,0.1,2.2
		c0,1.2,1,2.1,2.2,2.1c0.1,0,0.1,0,0.2,0h3.1c2.7,0,3.3-0.6,3.3-3.2c0-12.4,0-24.8,0-37.2c0-2.3-0.8-3-3.2-2.6
		c-2.6,0.5-5.3,1-7.9,1.5c-2.4,0.5-2.6,0.7-2.6,3.2c0,0.4,0,0.8,0,1.2c-0.1,1,0.6,1.9,1.6,2c0.2,0,0.4,0,0.6,0
		C229.7,57.8,230.5,57.7,231.4,57.5L231.4,57.5z"/>
</g>
<g id="jG6PK0">
	<path class="st0" d="M1409.8,71.1c0,7.6,0,15.2,0,22.8c-0.1,8.4-3.6,14.8-11.1,19l-39,21.7c-7.2,4-14.3,3.9-21.4-0.2
		c-11.9-6.9-23.8-13.8-35.5-20.8c-7.9-4.7-12-11.8-12-21.2c0-14.2,0-28.4,0-42.6c0-9.2,3.9-16.3,11.6-21.1
		c11.4-7.2,22.9-14.3,34.4-21.3c8.1-4.9,16.3-5,24.6-0.2c12.6,7.4,25.2,14.8,37.9,22.3c7.1,4.2,10.5,10.4,10.5,18.6L1409.8,71.1z
		 M1322.3,70.1c0,10.8,0.1,21.7-0.1,32.6c-0.1,3.4,1.1,4.5,4.4,4.2c2.3-0.2,4.6,0,6.9,0c4.6,0,4.6,0,4.6-4.5
		c0-7.6,0.2-15.2-0.1-22.8c-0.1-3.3,1.1-4.2,4.2-4c5.2,0.2,10.4,0.2,15.6,0c3.3-0.2,4.5,0.8,4.4,4.2c-0.2,8,0,15.9-0.1,23.9
		c0,2.3,0.7,3.4,3.2,3.3c3.2-0.2,6.5-0.2,9.7,0c2.7,0.1,3.3-1,3.3-3.5c-0.1-21.9-0.1-43.9,0-65.8c0-2.6-0.6-3.8-3.5-3.7
		c-3.1,0.2-6.2,0.2-9.3,0c-2.6-0.2-3.4,1-3.4,3.5c0.1,6.3-0.1,12.7,0.1,19c0.1,2.8-0.6,3.9-3.6,3.8c-5.7-0.2-11.3-0.2-17,0
		c-2.9,0.1-3.5-1-3.5-3.6c0.1-6.2-0.1-12.5,0.1-18.7c0.1-3.3-1.1-4.3-4.2-4c-2.3,0.2-4.6,0-6.9,0c-4.8,0-4.8,0-4.8,4.7
		C1322.3,49.1,1322.3,59.6,1322.3,70.1L1322.3,70.1z"/>
</g>
<g id="_6rv3IM">
	<path class="st0" d="M1002.4,91.3c-5.7-5.3-9.1-12.6-14.4-18.4c-4.7,6.1-9.2,11.9-13.8,17.8c-0.2,0.3-1.1,0-2.2-0.1l14.4-19.8
		l-13.2-18.5c2.8,0.1,2.8,0.1,7.8,7c2.2,3.1,4.5,6.1,6.9,9.5l17.8-23.7l1,0.7c-3.9,5.7-7.8,11.3-11.7,17c-5.5,7.9-5.5,7.9,0,15.6
		c2.9,3.9,5.7,7.9,8.5,11.8L1002.4,91.3z"/>
	<path class="st0" d="M944.7,52.1H970l0.1,1.3h-23.1v16.3h22v1.5h-22v17.6h23.7v1.4h-25.9V52.1z"/>
	<path class="st0" d="M913.5,56.4v34.3h-1.4V51.5c1.2,0.7,2.7,1,3.3,2c9.5,14,18.9,28.1,28.4,42.2l-1.1,0.8l-28-40.4L913.5,56.4z"/>
	<path class="st0" d="M1021.1,53.3v37.3l-1.7,0.1c-0.9-5.8-0.3-11.8-0.4-17.7c-0.1-6.2,0-12.4,0-19.3h-13.3v-1.4h28.9l0.1,0.9
		H1021.1z"/>
	<path class="st0" d="M1055.1,82.8c-1.7-0.5-2.4-1-3.2-1c-0.9,0.1-1.8,0.4-2.7,0.8c0.6,0.7,1.2,1.4,1.9,2c1.3,1,2.5,2.2,3.6,3.4
		c0.2,0.2-1.2,2.4-2,2.5c-1.9,0.1-3.7-0.5-5.2-1.7h5.7c-0.8-3.9-8.2-2-5.2-7.2C1049.6,79,1052.4,79.7,1055.1,82.8z"/>
	<path class="st0" d="M1038.7,88.8c8.3,1.4,2.1-5.9,6.1-8.2c-0.4,3.2-1,6.4-1.8,9.6c-0.1,0.3-2.9-0.2-4.4-0.3L1038.7,88.8z"/>
</g>
<g id="DjnVBp">
	<path class="st0" d="M1176.8,47.1c1.9-3.1,3.6-5.9,5.4-8.8c0.7-1.1,1.4-2.1,2.3-3c2.3-2.5,6.2-2.8,8.8-0.6c1.4,1.2,2.5,2.5,3.4,4.1
		c13.9,24.8,27.7,49.5,41.5,74.3c1.2,2.1,2.2,4.2,1.8,6.7c-0.6,3.7-3.9,6.1-8.3,6.2c-8.5,0-17,0-25.5,0c-20,0-39.9,0-59.9,0
		c-14.7,0-29.4,0-44.1-0.1c-4.8,0-7.9-2.4-8.3-6.6c-0.1-2.3,0.5-4.6,1.8-6.6c6.8-11.9,13.5-23.9,20.2-35.8
		c10.5-18.6,21-37.2,31.4-55.8c0.6-1.2,1.4-2.3,2.2-3.3c2.2-2.9,6.4-3.4,9.2-1.2c0.2,0.2,0.4,0.3,0.6,0.5c1.1,1.1,2.1,2.3,2.9,3.7
		c4.5,8.1,9,16.2,13.4,24.3C1176,45.8,1176.3,46.3,1176.8,47.1z M1102.8,117.3c0.2,0.1,0.4,0.2,0.7,0.2c11,0,22,0,33,0
		c0.5-0.1,0.9-0.4,1.2-0.9c0.8-1.5,1.3-3.1,2.1-4.6c10.4-18.3,20.9-36.6,31.4-54.9c0.7-1,0.7-2.3,0-3.3c-5-9-10-18-15-27
		c-0.3-0.6-0.7-1.1-1.2-2C1137.4,55.8,1120.1,86.4,1102.8,117.3L1102.8,117.3z M1207.1,117.4l-30.3-53.1l-30.3,53.1H1207.1z
		 M1231.3,117.7l-42-75c-0.5,0.8-0.8,1.2-1.1,1.7c-1.9,3.2-3.6,6.5-5.6,9.6c-0.7,1-0.7,2.4,0,3.4c9.4,16.4,18.8,32.8,28.1,49.2
		c1.9,3.4,3.6,7,5.4,10.4c0.2,0.4,0.6,0.6,1,0.7C1221.7,117.7,1226.3,117.7,1231.3,117.7L1231.3,117.7z"/>
</g>
</svg>
