<svg id="Layer_1" data-name="Layer 1" xmlns="http://www.w3.org/2000/svg" viewBox="0 0 660.81 215.21"><defs><style>.cls-1{fill:#36393d;}.cls-2{fill:none;stroke:#36393d;stroke-miterlimit:10;stroke-width:5px;}</style></defs><path class="cls-1" d="M193.91,56.52c0-11.15,7.74-17.18,18.6-17.18s18.6,6,18.6,17.18v20.3C231.11,88,223.37,94,212.51,94s-18.6-6-18.6-17.18Zm18.6,25.55c3.48,0,5.11-2.69,5.11-6.53V57.8c0-3.84-1.63-6.53-5.11-6.53S207.4,54,207.4,57.8V75.54C207.4,79.38,209,82.07,212.51,82.07Z"/><path class="cls-1" d="M244.31,40.05h18.6c10.86,0,18.6,6.39,18.6,16.82v3.91c0,10.43-7.74,16.89-18.6,16.89H257.8V93.29H244.31Zm18.6,25.7c3.48,0,5.11-3.13,5.11-6.25V58.15C268,55,266.39,52,262.91,52H257.8V65.75Z"/><path class="cls-1" d="M293.22,40.05h27.4V52H306.71v8.59h13.91V72.49H306.71v8.87h13.91V93.29h-27.4Z"/><path class="cls-1" d="M334.32,40.05h18.6c10.86,0,18.6,6,18.6,15.76v3.26c0,5.54-1.92,8.74-6.25,12.21l6.1,22H358.1l-4.83-18.46h-5.46V93.29H334.32Zm18.6,22.86A4.94,4.94,0,0,0,358,57.8v-.71A4.94,4.94,0,0,0,352.92,52h-5.11V62.91Z"/><path class="cls-1" d="M393,40.05h12.71L419,93.29H406.51l-1.56-6H393.52l-1.42,6H379.61Zm10.3,36-4-16.68L395.3,76Z"/><path class="cls-1" d="M432.42,52h-9.3V40.05h32.09V52h-9.3V93.29H432.42Z"/><path class="cls-1" d="M465.29,56.52c0-11.15,7.73-17.18,18.6-17.18s18.59,6,18.59,17.18v20.3C502.48,88,494.75,94,483.89,94s-18.6-6-18.6-17.18Zm18.6,25.55c3.47,0,5.11-2.69,5.11-6.53V57.8c0-3.84-1.64-6.53-5.11-6.53s-5.12,2.69-5.12,6.53V75.54C478.77,79.38,480.41,82.07,483.89,82.07Z"/><path class="cls-1" d="M515.69,40.05h18.59c10.86,0,18.6,6,18.6,15.76v3.26c0,5.54-1.91,8.74-6.24,12.21l6.1,22H539.47l-4.83-18.46h-5.47V93.29H515.69Zm18.59,22.86a5,5,0,0,0,5.12-5.11v-.71A5,5,0,0,0,534.28,52h-5.11V62.91Z"/><path class="cls-1" d="M194.62,121.55H222v11.93H208.11v10H222v11.92H208.11v19.38H194.62Z"/><path class="cls-1" d="M235.44,121.55H254c10.86,0,18.59,6,18.59,15.76v3.27c0,5.53-1.91,8.73-6.24,12.21l6.1,22H259.22l-4.83-18.46h-5.47v18.46H235.44ZM254,144.41a5,5,0,0,0,5.11-5.11v-.71a5,5,0,0,0-5.11-5.11h-5.12v10.93Z"/><path class="cls-1" d="M294.07,121.55h12.71l13.34,53.24H307.63l-1.56-6H294.64l-1.42,6H280.73Zm10.29,36-4-16.68-4,16.68Z"/><path class="cls-1" d="M330.91,121.55H344.4l13.42,28.54,13.48-28.54h13.49v53.24H371.3V148.1l-7,17.46H351.36l-7-17.46v26.69H330.91Z"/><path class="cls-1" d="M398.7,121.55h27.4v11.93H412.19v8.59H426.1V154H412.19v8.88H426.1v11.92H398.7Z"/><path class="cls-1" d="M436.89,121.55h13.92L456.63,151l6.1-29.46h13.49l6,29.46,5.89-29.46H502l-13.14,53.24H476.08l-6.6-29.24-6.61,29.24H450.24Z"/><path class="cls-1" d="M509.8,138c0-11.14,7.73-17.18,18.59-17.18s18.6,6,18.6,17.18v20.3c0,11.15-7.74,17.18-18.6,17.18s-18.59-6-18.59-17.18Zm18.59,25.56c3.48,0,5.12-2.7,5.12-6.54V139.3c0-3.83-1.64-6.53-5.12-6.53s-5.11,2.7-5.11,6.53V157C523.28,160.88,524.92,163.58,528.39,163.58Z"/><path class="cls-1" d="M560.2,121.55h18.59c10.86,0,18.6,6,18.6,15.76v3.27c0,5.53-1.92,8.73-6.25,12.21l6.11,22H584l-4.83-18.46h-5.47v18.46H560.2Zm18.59,22.86a4.94,4.94,0,0,0,5.11-5.11v-.71a4.94,4.94,0,0,0-5.11-5.11h-5.11v10.93Z"/><path class="cls-1" d="M610.1,121.55h13.48v18.17l10.3-18.17H648l-12.56,21.87,13.13,31.37H634.45l-7.24-17.89-3.63,5.75v12.14H610.1Z"/><rect class="cls-2" x="21.3" y="67.57" width="104.47" height="104.47" rx="23.03"/><rect class="cls-2" x="45.68" y="42.31" width="104.47" height="104.47" rx="23.03"/></svg>