<svg id="Layer_1" data-name="Layer 1" xmlns="http://www.w3.org/2000/svg" viewBox="0 0 660.81 215.21"><defs><style>.cls-1{fill:none;stroke:#000;stroke-miterlimit:10;}</style></defs><path d="M183.91,56.52c0-11.15,7.74-17.18,18.6-17.18s18.6,6,18.6,17.18v20.3C221.11,88,213.37,94,202.51,94s-18.6-6-18.6-17.18Zm18.6,25.55c3.48,0,5.11-2.69,5.11-6.53V57.8c0-3.84-1.63-6.53-5.11-6.53S197.4,54,197.4,57.8V75.54C197.4,79.38,199,82.07,202.51,82.07Z"/><path d="M234.31,40.05h18.6c10.86,0,18.6,6.39,18.6,16.82v3.91c0,10.43-7.74,16.89-18.6,16.89H247.8V93.29H234.31Zm18.6,25.7c3.48,0,5.11-3.13,5.11-6.25V58.15C258,55,256.39,52,252.91,52H247.8V65.75Z"/><path d="M283.22,40.05h27.4V52H296.71v8.59h13.91V72.49H296.71v8.87h13.91V93.29h-27.4Z"/><path d="M324.32,40.05h18.6c10.86,0,18.6,6,18.6,15.76v3.26c0,5.54-1.92,8.74-6.25,12.21l6.1,22H348.1l-4.83-18.46h-5.46V93.29H324.32Zm18.6,22.86A4.94,4.94,0,0,0,348,57.8v-.71A4.94,4.94,0,0,0,342.92,52h-5.11V62.91Z"/><path d="M383,40.05h12.71L409,93.29H396.51l-1.56-6H383.52l-1.42,6H369.61Zm10.3,36-4-16.68L385.3,76Z"/><path d="M422.42,52h-9.3V40.05h32.09V52h-9.3V93.29H422.42Z"/><path d="M455.29,56.52c0-11.15,7.73-17.18,18.6-17.18s18.59,6,18.59,17.18v20.3C492.48,88,484.75,94,473.89,94s-18.6-6-18.6-17.18Zm18.6,25.55c3.47,0,5.11-2.69,5.11-6.53V57.8c0-3.84-1.64-6.53-5.11-6.53s-5.12,2.69-5.12,6.53V75.54C468.77,79.38,470.41,82.07,473.89,82.07Z"/><path d="M505.69,40.05h18.59c10.86,0,18.6,6,18.6,15.76v3.26c0,5.54-1.91,8.74-6.24,12.21l6.1,22H529.47l-4.83-18.46h-5.47V93.29H505.69Zm18.59,22.86a5,5,0,0,0,5.12-5.11v-.71A5,5,0,0,0,524.28,52h-5.11V62.91Z"/><path d="M184.62,121.55H212v11.93H198.11v10H212v11.92H198.11v19.38H184.62Z"/><path d="M225.44,121.55H244c10.86,0,18.59,6,18.59,15.76v3.27c0,5.53-1.91,8.73-6.24,12.21l6.1,22H249.22l-4.83-18.46h-5.47v18.46H225.44ZM244,144.41a5,5,0,0,0,5.11-5.11v-.71a5,5,0,0,0-5.11-5.11h-5.12v10.93Z"/><path d="M284.07,121.55h12.71l13.34,53.24H297.63l-1.56-6H284.64l-1.42,6H270.73Zm10.29,36-4-16.68-4,16.68Z"/><path d="M320.91,121.55H334.4l13.42,28.54,13.48-28.54h13.49v53.24H361.3V148.1l-7,17.46H341.36l-7-17.46v26.69H320.91Z"/><path d="M388.7,121.55h27.4v11.93H402.19v8.59H416.1V154H402.19v8.88H416.1v11.92H388.7Z"/><path d="M426.89,121.55h13.92L446.63,151l6.1-29.46h13.49l6,29.46,5.89-29.46H492l-13.14,53.24H466.08l-6.6-29.24-6.61,29.24H440.24Z"/><path d="M499.8,138c0-11.14,7.73-17.18,18.59-17.18s18.6,6,18.6,17.18v20.3c0,11.15-7.74,17.18-18.6,17.18s-18.59-6-18.59-17.18Zm18.59,25.56c3.48,0,5.12-2.7,5.12-6.54V139.3c0-3.83-1.64-6.53-5.12-6.53s-5.11,2.7-5.11,6.53V157C513.28,160.88,514.92,163.58,518.39,163.58Z"/><path d="M550.2,121.55h18.59c10.86,0,18.6,6,18.6,15.76v3.27c0,5.53-1.92,8.73-6.25,12.21l6.11,22H574l-4.83-18.46h-5.47v18.46H550.2Zm18.59,22.86a4.94,4.94,0,0,0,5.11-5.11v-.71a4.94,4.94,0,0,0-5.11-5.11h-5.11v10.93Z"/><path d="M600.1,121.55h13.48v18.17l10.3-18.17H638l-12.56,21.87,13.13,31.37H624.45l-7.24-17.89-3.63,5.75v12.14H600.1Z"/><rect class="cls-1" x="21.85" y="64.51" width="99.96" height="99.96" rx="23.03"/><rect class="cls-1" x="35.17" y="51.34" width="99.96" height="99.96" rx="23.03"/></svg>