<svg id="Layer_1" data-name="Layer 1" xmlns="http://www.w3.org/2000/svg" viewBox="0 0 213.8 251.61"><defs><style>.cls-1{fill:none;stroke:#393c3f;stroke-linejoin:round;}</style></defs><path class="cls-1" d="M203.46,135.78l-188.72,109V120a4.94,4.94,0,0,1,2.46-4.27L203.39,8.22a0,0,0,0,1,.07,0Z"/><path class="cls-1" d="M14.74,244.74l-4.35-2a1.53,1.53,0,0,1-.89-1.39V117.57A5,5,0,0,1,12,113.29L198.23,5.75l5.23,2.43"/><polyline class="cls-1" points="117.25 185.41 117.25 209.71 99.88 219.73 99.88 195.44"/><line class="cls-1" x1="95.28" y1="217.51" x2="95.28" y2="198.1"/><polyline class="cls-1" points="95.28 217.51 76.45 228.6 95.76 239.55 150.93 206.96 131.62 196.03 117.25 205.05"/><polyline class="cls-1" points="150.93 207.18 150.93 211.5 95.76 244.09 76.45 233.14 76.45 228.6"/><line class="cls-1" x1="95.28" y1="217.51" x2="99.88" y2="219.73"/></svg>