<svg id="Layer_1" data-name="Layer 1" xmlns="http://www.w3.org/2000/svg" viewBox="0 0 246.49 251.61"><defs><style>.cls-1{fill:none;stroke:#393c3f;stroke-miterlimit:10;stroke-width:0.93px;}</style></defs><path class="cls-1" d="M102.53,238.78,13.12,187.17c-2.63-1.53-2.3-4.18.74-5.94l118.49-68.42c3-1.76,7.63-1.91,10.28-.42L232,164c2.64,1.53,2.3,4.18-.74,5.94L112.81,238.37C109.78,240.12,105.17,240.28,102.53,238.78Z"/><path class="cls-1" d="M233.82,166.69v7.78a4.44,4.44,0,0,1-2.51,3.17l-118.5,68.41c-3,1.76-7.64,1.91-10.28.43L13.12,194.86a3,3,0,0,1-1.77-2.71v-7.33"/></svg>