<svg id="Layer_1" data-name="Layer 1" xmlns="http://www.w3.org/2000/svg" viewBox="0 0 197.92 251.61"><defs><style>.cls-1{fill:none;stroke:#393c3f;stroke-miterlimit:10;}.cls-2{fill:#393c3f;}</style></defs><path class="cls-1" d="M127.81,240.32l34.11-19.67c2.51-1.45,2.2-4-.71-5.67L84.16,170.49c-2.91-1.68-7.31-1.85-9.83-.41L40.22,189.75c-2.52,1.45-2.2,4,.7,5.68L118,239.91C120.89,241.61,125.29,241.8,127.81,240.32Z"/><path class="cls-1" d="M38.53,192.24v4.57c-.05,1.14.76,2.36,2.4,3.31l77,44.5c2.92,1.68,7.32,1.85,9.84.41l34.11-19.67a2.86,2.86,0,0,0,1.68-2.73v-4.5"/><ellipse class="cls-2" cx="54.61" cy="184.91" rx="1.06" ry="0.61"/><path class="cls-2" d="M58.07,183.78,66.42,179c.27-.16.24-.43-.07-.62a1.18,1.18,0,0,0-1,0L57,183.12c-.27.16-.24.43.07.62A1.16,1.16,0,0,0,58.07,183.78Z"/></svg>