<svg id="Layer_1" data-name="Layer 1" xmlns="http://www.w3.org/2000/svg" viewBox="0 0 218.97 251.61"><defs><style>.cls-1,.cls-2,.cls-3{fill:none;stroke:#393c3f;}.cls-1,.cls-2{stroke-linejoin:round;}.cls-3{stroke-miterlimit:10;}.cls-4{fill:#393c3f;}</style></defs><path class="cls-1" d="M110.42,208.73l76.94-44.42a1.78,1.78,0,0,0,.66-2.43,1.68,1.68,0,0,0-.66-.66L110.42,116.8a4.22,4.22,0,0,0-4.26,0L29.21,161.21a1.79,1.79,0,0,0,0,3.09l77,44.43A4.27,4.27,0,0,0,110.42,208.73Z"/><path class="cls-1" d="M28.33,162.83v17.84a3.65,3.65,0,0,0,1.83,3.16l76,43.64a4.23,4.23,0,0,0,4.24,0l76-43.64a3.65,3.65,0,0,0,1.83-3.16V162.93"/><path class="cls-1" d="M28.33,181.37v17.84a3.61,3.61,0,0,0,1.83,3.16l76,43.65a4.33,4.33,0,0,0,4.24,0l76-43.65a3.67,3.67,0,0,0,1.81-3.16V181.47"/><ellipse class="cls-2" cx="161.65" cy="189.45" rx="2.77" ry="1.6" transform="translate(-83.25 234.72) rotate(-60)"/><ellipse class="cls-2" cx="161.65" cy="207.78" rx="2.77" ry="1.6" transform="translate(-99.12 243.88) rotate(-60)"/><polygon class="cls-1" points="49.43 188.69 96.92 215.1 96.92 211.32 49.43 184.91 49.43 188.69"/><ellipse class="cls-3" cx="35" cy="178.48" rx="1.34" ry="2.32" transform="translate(-84.55 41.41) rotate(-30)"/><polygon class="cls-1" points="49.43 206.73 96.92 233.14 96.92 229.36 49.43 202.95 49.43 206.73"/><ellipse class="cls-3" cx="35" cy="196.52" rx="1.34" ry="2.32" transform="translate(-93.57 43.83) rotate(-30)"/><ellipse class="cls-4" cx="172.6" cy="162.77" rx="2.74" ry="1.58"/><ellipse class="cls-4" cx="108.29" cy="125.53" rx="2.74" ry="1.58"/><ellipse class="cls-4" cx="107.67" cy="199.99" rx="2.74" ry="1.58"/><ellipse class="cls-4" cx="43.36" cy="162.75" rx="2.74" ry="1.58"/></svg>