<?xml version="1.0" encoding="utf-8"?>
<!-- Generator: Adobe Illustrator 26.5.0, SVG Export Plug-In . SVG Version: 6.00 Build 0)  -->
<svg version="1.1" id="Layer_1" xmlns="http://www.w3.org/2000/svg" xmlns:xlink="http://www.w3.org/1999/xlink" x="0px" y="0px"
	 viewBox="0 0 890.9 473.8" style="enable-background:new 0 0 890.9 473.8;" xml:space="preserve">
<style type="text/css">
	.st0{opacity:0.67;}
	.st1{fill:#B3B3B3;}
	.st2{opacity:0.88;}
	.st3{fill:#808080;}
	.st4{opacity:0.48;}
	.st5{fill:#1A1A1A;}
	.st6{opacity:0.72;}
	.st7{opacity:0.4;fill:#FFFFFF;enable-background:new    ;}
</style>
<g>
	<g class="st0">
		<path class="st1" d="M891.8,311.5c-167.4-14.1-157.7-162.1-323.5-76.9c-221.6,113.8-418,82.9-569,68.6v118.5
			c0,52.1,0.7,4.7-0.1,53.1h892.5L891.8,311.5L891.8,311.5z"/>
	</g>
	<g class="st2">
		<path class="st3" d="M891.8,316.9c-18.6-0.7-39.1-1.2-61.5-1.4c-168.1-1.3-291.8-109.9-549-23.3c-106.5,35.7-205.6,43.6-282.1,44
			v137.6h892.5L891.8,316.9L891.8,316.9z"/>
	</g>
	<g class="st4">
		<path class="st5" d="M891.8,277c-151.2,5.5-349.1,51-450.8,56.5c-146.4,7.8-315.4-19.2-441.8-29.1v169.4h892.5L891.8,277
			L891.8,277z"/>
	</g>
	<g class="st6">
		<path d="M891.8,357.9c-106.7,19-263.8,6-394.8-9.8C382.5,334.2,159.3,268.8-0.7,280v193.8h892.5V357.9z"/>
	</g>
</g>
<g>
	<path class="st7" d="M381.5,235.2c-0.4,0.2-0.8,0.3-1.1,0H381.5z"/>
	<path class="st7" d="M738,338.6c1.4-0.8,1.9-0.9,3.2-0.5c1.2,0.4,2.3,0.7,3.8,0.8c0.7,0,1.2,0.3,1.2,0.6c0.1,0.5,0.1,1.1-0.1,1.7
		c-0.2,0.6-1.9,0.8-2.5,0.3C742.2,340.4,739.6,339.7,738,338.6L738,338.6z"/>
	<path class="st7" d="M853.2,301.3c-2.2-0.2-4.2-0.2-6.3-0.1c-0.1,0-0.2,0-0.3,0c-1,0-1.6-0.2-1.8-0.5s0.4-0.6,1.6-0.7
		c0.8-0.1,1.7-0.1,2.5-0.3c2.2-0.3,4.3-0.1,6.4,0.2c0.3,0,0.7,0.3,0.8,0.5c0.1,0.3-0.2,0.5-0.8,0.6
		C854.6,301.2,853.8,301.2,853.2,301.3L853.2,301.3z"/>
	<path class="st7" d="M640,375.1c0.5,0.6,0.5,0.8-0.3,1c-1.6,0.4-3.2,0.7-5.1,0.6c-0.5,0-1-0.1-1.4,0c-1.8,0.5-4,0.4-5.9,0.8
		c-0.7,0.1-1.3,0.1-1.9,0c-0.6-0.2-1.3-0.4-1.3-0.8c0-0.3,0.8-0.4,1.9-0.2c2.3,0.4,4.4,0.2,6.5-0.2c1.2-0.2,2.4-0.4,3.7-0.7
		C637.5,375.4,638.6,375.1,640,375.1L640,375.1z"/>
	<path class="st7" d="M16.5,257.6c-0.3-0.1-1-0.1-1.4-0.4c-0.6-0.3-0.5-0.7,0-1.1c0.8-0.5,2-0.9,3.4-1c0.4,0,1,0.1,1.1,0.3
		C20.6,256.6,19.7,257.5,16.5,257.6L16.5,257.6z"/>
	<path class="st7" d="M547.6,378.6c0,0.1-0.1,0.2-0.2,0.4c-0.1,0.2-0.7,0.4-1.3,0.4c-1.1-0.1-1.9-0.3-2.6-0.7
		c-0.6-0.3-1.1-0.6-0.7-1c0.4-0.4,1.6-0.7,2.5-0.7c0.3,0,0.7,0.1,1,0.2C547.2,377.5,547.6,377.9,547.6,378.6L547.6,378.6z"/>
	<path class="st7" d="M430.4,350c0,0.7-0.9,1.1-2.2,0.9c-1.1-0.1-1.8-0.5-1.9-1c0-0.2,0-0.5,0.3-0.7c0.3-0.3,0.7-0.7,1.8-0.7
		c1,0,1.4,0.4,1.7,0.7C430.2,349.6,430.3,349.9,430.4,350L430.4,350z"/>
	<path class="st7" d="M754.3,347.2c0.2,0.1,0.2,0.1,0.2,0.2c0,1.1,0,2.1-0.1,3.2c0,0.1-0.4,0.3-0.7,0.3c-0.2,0-0.6-0.1-0.7-0.2
		c-0.3-0.4-0.6-0.7-0.7-1.1c-0.1-0.6,0-1.2,0.2-1.8C752.7,347.5,753.3,347.3,754.3,347.2L754.3,347.2z"/>
	<path class="st7" d="M829.1,436.6c-0.1,0.2-0.1,0.3-0.2,0.4c-0.1,0.2-0.9,0.4-1.4,0.3c-1.7-0.3-2.8-1.5-2.2-2.3
		c0.2-0.3,1-0.4,1.7-0.2c0.9,0.3,1.5,0.6,1.8,1.1C829,436.2,829,436.4,829.1,436.6L829.1,436.6z"/>
	<path class="st7" d="M699.9,358.9c-1.4,0.4-2.6,0.8-3.7,1.1c-0.5,0.2-1.1,0.4-1.8,0.3c-0.4,0-0.9-0.2-1.1-0.3
		c-0.2-0.1-0.1-0.4,0.2-0.6c0.5-0.2,1.1-0.5,1.7-0.6c1.3-0.3,2.7-0.3,4.1-0.2C699.5,358.6,699.6,358.8,699.9,358.9L699.9,358.9z"/>
	<path class="st7" d="M732.5,377.4c0,0.3-0.5,0.5-1.1,0.5c-1.1-0.2-2.1-0.3-3.1-0.6c-0.7-0.2-0.6-0.6,0-0.9c0.2,0,0.3-0.1,0.5-0.1
		C730.3,376,732.3,376.6,732.5,377.4L732.5,377.4z"/>
	<path class="st7" d="M458,408.9c-0.3,0.2-0.4,0.5-0.7,0.6c-1,0.4-2.2,0.6-3.5,0.6c-0.4,0-0.8-0.3-0.8-0.4c0.3-0.7,2.3-1.4,4-1.2
		C457.4,408.5,457.7,408.7,458,408.9L458,408.9z"/>
	<path class="st7" d="M556.1,464.3c-0.6-0.4-1.1-0.7-1.6-1c-0.2-0.1-0.1-0.3-0.1-0.5s0.6-0.3,1-0.2c0.1,0,0.2,0.1,0.3,0.2
		s0.2,0.1,0.5,0.2c0.5,0,1.2-0.1,1.8-0.1s1.3,0,2.2,0C559.3,463.7,558.1,464.1,556.1,464.3L556.1,464.3z"/>
	<path class="st7" d="M185.8,291.3c0,0.3-0.2,0.6-0.9,0.7c-0.8,0.1-1.7,0.2-2.4-0.1c-0.4-0.2-0.4-0.6,0-0.8c0.4-0.1,0.8-0.3,1.2-0.3
		C185.1,290.4,185.9,290.6,185.8,291.3L185.8,291.3z"/>
	<path class="st7" d="M461.6,382.9c0.3,0,0.5,0,0.7,0c1.1,0.3,1.8,0.9,1.4,1.5c-0.2,0.3-0.6,0.4-1.2,0.4c-0.4,0-0.9-0.1-1.1-0.3
		c-0.5-0.4-0.7-0.9-0.4-1.3C461.1,383.1,461.4,383,461.6,382.9L461.6,382.9z"/>
	<path class="st7" d="M478.5,338c-0.2-0.1-0.5-0.1-0.5-0.2c-0.2-0.4-0.6-0.6-1.5-0.6c-0.4,0-0.8-0.2-1-0.4c-0.2-0.2,0-0.5,0.5-0.6
		c0.2-0.1,0.5-0.1,0.7-0.2c0.6-0.1,1.5,0,1.6,0.3c0.1,0.5,0.5,0.8,1.1,1.2C479.7,337.6,479.3,337.9,478.5,338L478.5,338z"/>
	<path class="st7" d="M498.1,357.5c-1.3,0.2-2.1,0.3-3,0.4c-0.4,0-0.9-0.1-1.1-0.3c-0.4-0.2-0.2-0.4,0.2-0.6
		c0.9-0.2,1.8-0.5,2.7-0.6c0.5-0.1,1.2,0.1,1.3,0.4C498.1,357,498.1,357.2,498.1,357.5L498.1,357.5z"/>
	<path class="st7" d="M437.5,349c-1.1,0-1.7-0.3-2.1-0.6c-0.4-0.3-0.4-0.6,0.1-0.9c0.4-0.2,1.2-0.3,1.7-0.1c0.8,0.3,1.3,0.9,0.9,1.3
		C438.1,348.9,437.7,349,437.5,349L437.5,349z"/>
	<path class="st7" d="M509.5,471.8c0.1,0.5-0.5,0.9-1.3,1.1c-0.3,0-0.8,0-1-0.1c-0.9-0.4-0.8-1.1,0.3-1.4c0.2-0.1,0.8-0.1,1,0
		C508.9,471.5,509.2,471.7,509.5,471.8z"/>
	<path class="st7" d="M296.4,420.3c0-0.5,0.5-0.7,1.3-0.7c0.9,0,1.5,0.2,1.5,0.6c0,0.2-0.1,0.4-0.2,0.6c-0.1,0.3-0.4,0.5-1.1,0.5
		c-0.6,0-1-0.2-1.2-0.4C296.5,420.6,296.4,420.4,296.4,420.3L296.4,420.3z"/>
	<path class="st7" d="M355.4,434.7c0,0.1,0,0.2-0.1,0.3c-0.1,0.3-0.7,0.6-1.3,0.6c-0.6,0-1-0.2-1.2-0.5c-0.1-0.2-0.2-0.3-0.2-0.5
		c0-0.4,0.8-0.7,1.7-0.6C355.1,434,355.5,434.2,355.4,434.7L355.4,434.7z"/>
	<path class="st7" d="M255,331c-0.7,0.2-1,0.3-1.4,0.3c-0.8,0.1-1.4-0.1-2-0.3c-1.3-0.5-1.4-0.9-0.4-1.6
		C251.8,330,253.1,330.6,255,331L255,331z"/>
	<path class="st7" d="M867.8,300.6c1.2,0,2.1,0.3,2.3,0.7c0.1,0.2,0,0.5-0.3,0.6c-0.2,0.1-0.9,0.1-1.2,0c-0.6-0.1-1.1-0.3-1.5-0.6
		c-0.2-0.1-0.1-0.3,0-0.5C867.2,300.8,867.6,300.7,867.8,300.6L867.8,300.6z"/>
	<path class="st7" d="M644.7,263c0.1-0.1,0.1-0.3,0.3-0.4c0.1-0.1,0.4-0.2,0.6-0.2c0.2,0,0.6,0.1,0.7,0.1c0.3,0.4,0.7,0.8,0.8,1.2
		c0.1,0.1-0.2,0.3-0.5,0.4s-0.7,0-1-0.1C644.8,263.8,644.7,263.5,644.7,263L644.7,263z"/>
	<path class="st7" d="M326.6,284.4c0.6,0.8,1.8,1.3,3.6,1.7c-0.1,0.1-0.2,0.3-0.3,0.3c-2.3,0.2-4.3-0.6-3.9-1.7
		C326.2,284.7,326.3,284.6,326.6,284.4L326.6,284.4z"/>
	<path class="st7" d="M56.2,250.7c0-0.3,0.1-0.6,0.9-0.8c0.7-0.2,1.2-0.4,1.9-0.5c0.2,0,0.8,0,0.9,0.1c0.1,0.1-0.1,0.4-0.3,0.4
		c-1.4,0.1-1.8,0.5-2,1.1c0,0.1-0.5,0.2-0.8,0.3c-0.2-0.1-0.4-0.3-0.6-0.4C56.2,250.8,56.2,250.7,56.2,250.7L56.2,250.7z"/>
	<path class="st7" d="M806,358.6c0.3,0.1,0.8,0.1,1.2,0.3c0.5,0.2,0.6,0.5,0.2,0.7c-0.2,0.1-0.8,0.2-1.2,0.3c-0.2,0-0.5,0-0.8-0.1
		c-0.8-0.1-1.2-0.3-1.1-0.6C804.5,358.8,805,358.6,806,358.6z"/>
	<path class="st7" d="M510.8,370.1c-0.6-0.2-1.1-0.4-1.5-0.6s-0.4-0.5,0.1-0.7s1-0.2,1.6,0c0.7,0.2,1,0.5,0.8,0.9
		C511.7,369.8,511.2,369.9,510.8,370.1L510.8,370.1z"/>
	<path class="st7" d="M679.8,315.3c-0.1,0.3-0.1,0.6-0.2,0.9c0,0.1-0.4,0.2-0.7,0.2c-0.2,0-0.6-0.1-0.6-0.2c-0.1-0.5-0.2-1-0.2-1.5
		c0-0.1,0.4-0.3,0.7-0.3c0.4-0.1,0.9,0.1,0.9,0.3C679.7,314.9,679.7,315.1,679.8,315.3L679.8,315.3L679.8,315.3z"/>
	<path class="st7" d="M226.8,281.4c0.2,0.1,0.7,0.3,0.8,0.5c0.2,0.3-0.4,0.7-1.1,0.7c-0.6,0-1.4-0.2-1.4-0.5
		C224.9,281.8,225.7,281.4,226.8,281.4L226.8,281.4z"/>
	<path class="st7" d="M405.7,371.4c-0.9,0-1.5-0.3-1.5-0.6c0-0.4,0.7-0.6,1.7-0.6c0.8,0,1.3,0.3,1.2,0.7
		C406.9,371.2,406.4,371.4,405.7,371.4L405.7,371.4z"/>
	<path class="st7" d="M681.8,405.1c0,0-0.2-0.1-0.3-0.2c-0.3-0.5,0.4-1,1.5-1.1c0.4,0,0.9,0.1,1,0.3
		C684.1,404.6,683.2,405.1,681.8,405.1L681.8,405.1z"/>
	<path class="st7" d="M441.3,251.9c0,0.3-0.4,0.6-1,0.6c-0.8,0.1-1.5-0.2-1.6-0.5s0.6-0.6,1.4-0.7
		C440.7,251.4,441.3,251.6,441.3,251.9L441.3,251.9z"/>
	<path class="st7" d="M115,276.3c-0.2,0.1-0.4,0.3-0.8,0.3s-0.9,0-1.3-0.1c-0.6-0.1-0.8-0.4-0.6-0.6c0.1-0.2,0.6-0.3,1-0.3
		C114.4,275.5,115.1,275.8,115,276.3L115,276.3z"/>
	<path class="st7" d="M498.6,256.3c-0.6-0.2-1.2-0.4-1.5-0.6c-0.2-0.1-0.2-0.4,0-0.6c0.2-0.1,0.8-0.3,1.1-0.2s0.8,0.2,1,0.4
		C499.5,255.5,499.4,255.9,498.6,256.3L498.6,256.3z"/>
	<path class="st7" d="M84.6,358.6c-0.2,0.1-0.4,0.3-0.7,0.4c-0.4,0-0.9,0-1.2-0.2c-0.6-0.3-0.7-0.8-0.2-1c0.2-0.1,0.5-0.1,0.8-0.1
		C84.1,357.7,84.6,358,84.6,358.6L84.6,358.6z"/>
	<path class="st7" d="M405,350.7c-0.9,0-1.5-0.3-1.4-0.6c0.1-0.3,0.6-0.5,1.3-0.5c0.8,0,1.5,0.3,1.4,0.6
		C406.3,350.5,405.7,350.7,405,350.7L405,350.7z"/>
	<path class="st7" d="M759.9,327.5c-0.2-1,0.6-1.5,2.2-1.9C762,326.3,761.8,326.4,759.9,327.5z"/>
	<path class="st7" d="M513.8,238.5c-0.4,0-0.5,0-0.7-0.1c-0.6-0.1-1.3-0.2-1.3-0.6c0-0.1,0.4-0.3,0.7-0.3c1-0.1,1.6-0.1,2,0.3
		c0.2,0.1,0.2,0.3,0,0.5C514.4,238.4,514,238.5,513.8,238.5L513.8,238.5z"/>
	<path class="st7" d="M295.4,372.4c0,0.4-0.4,0.7-1.2,0.7c-0.6,0-1.1-0.2-1.2-0.4c-0.1-0.4,0.5-0.8,1.4-0.8
		C295,371.9,295.4,372.1,295.4,372.4L295.4,372.4z"/>
	<path class="st7" d="M139.3,442.9c-0.1,0.2-0.1,0.3-0.3,0.5c-0.2,0.1-0.6,0.2-0.9,0.2c-0.3,0-0.7-0.2-0.7-0.3
		c-0.1-0.3-0.1-0.6,0.1-0.9c0.1-0.1,0.5-0.3,0.8-0.3c0.5,0,0.8,0.2,0.9,0.4C139.3,442.6,139.2,442.8,139.3,442.9L139.3,442.9z"/>
	<path class="st7" d="M831.4,298.6c-0.9,0-1.4-0.3-1.4-0.6c0-0.3,0.5-0.6,1.2-0.5c0.8,0,1.2,0.3,1.2,0.7
		C832.4,298.4,832,298.6,831.4,298.6L831.4,298.6z"/>
	<path class="st7" d="M805.3,241c-0.2,0.1-0.5,0.3-0.9,0.4c-0.8,0.1-1.4-0.1-1.5-0.5c0-0.3,0.3-0.5,0.8-0.6
		C804.5,240.3,805.1,240.5,805.3,241L805.3,241z"/>
	<path class="st7" d="M370.2,327.2c0.7,0,1.1,0.3,1,0.6c-0.1,0.3-0.7,0.6-1.3,0.6c-0.6,0-1-0.3-1-0.7
		C369,327.4,369.5,327.1,370.2,327.2L370.2,327.2z"/>
	<path class="st7" d="M393.2,268c0,0.2,0.1,0.3,0,0.4c-0.2,0.2-0.4,0.4-0.7,0.5c-0.3,0.1-1-0.1-1.2-0.4c-0.1-0.2-0.1-0.3,0-0.5
		c0.1-0.3,0.8-0.5,1.1-0.4C392.7,267.7,392.9,267.9,393.2,268C393.2,268.1,393.2,268.1,393.2,268L393.2,268z"/>
	<path class="st7" d="M316.8,410.7c0.2-0.1,0.3-0.2,0.5-0.3c1.3-0.1,2.6-0.2,3.9-0.2c0.3,0,0.6,0.1,0.9,0.2c0.1,0,0.1,0.2,0,0.2
		c0,0.1-0.2,0.1-0.4,0.1c-0.1,0-0.2,0-0.3,0c-0.8-0.2-1.5-0.4-2.4-0.3c-0.7,0.1-1.4,0.2-2.1,0.3L316.8,410.7L316.8,410.7z"/>
	<path class="st7" d="M473.6,361.6c0.6,0,1.1,0.3,1.1,0.6c0,0.3-0.4,0.5-1,0.5c-0.8,0-1.5-0.2-1.6-0.5S472.8,361.6,473.6,361.6z"/>
	<path class="st7" d="M755.2,359.4c-0.7,0-1.4-0.3-1.5-0.6c-0.1-0.2,0.5-0.5,1-0.5c0.7,0,1.1,0.2,1.1,0.6
		C755.8,359.1,755.7,359.3,755.2,359.4L755.2,359.4z"/>
	<path class="st7" d="M274,342.6c-0.7,0-1.1-0.3-1.1-0.6c0-0.3,0.5-0.5,1.1-0.5c0.8,0,1.4,0.3,1.2,0.7
		C275.2,342.4,274.7,342.6,274,342.6L274,342.6z"/>
	<path class="st7" d="M247.8,254.5c0.5,0.1,1.1,0.2,1.5,0.3c0.2,0.1,0.3,0.3,0.2,0.5s-0.7,0.3-1.1,0.2c-0.4-0.1-0.8-0.2-1.1-0.3
		c-0.1-0.1-0.2-0.2-0.1-0.3C247.2,254.7,247.5,254.7,247.8,254.5L247.8,254.5z"/>
	<path class="st7" d="M863.5,315.1c1,0.8,1,0.9,0.7,1.4c-0.1,0.1-0.5,0.2-0.8,0.3c-0.1-0.1-0.4-0.2-0.4-0.3
		C863.1,316.1,863.3,315.6,863.5,315.1L863.5,315.1z"/>
	<path class="st7" d="M749.8,301.6c-0.2,0.1-0.3,0.4-0.6,0.5c-0.3,0.2-0.8,0.3-1.2,0.1c-0.5-0.1-0.5-0.5,0-0.8
		c0.4-0.2,1.1-0.3,1.5-0.1C749.6,301.3,749.7,301.4,749.8,301.6L749.8,301.6z"/>
	<path class="st7" d="M117.9,298c0.5,0,1,0.2,1,0.5c0.1,0.3-0.4,0.6-1,0.6s-0.9-0.1-1-0.4C116.8,298.4,117.3,298.1,117.9,298
		L117.9,298z"/>
	<path class="st7" d="M819.9,298c0.7,0.5,1.2,0.9,1.7,1.3c0.1,0.1,0.1,0.3,0,0.5c0,0.1-0.6,0.1-0.7,0.1
		C819.9,299.3,819.7,298.8,819.9,298L819.9,298z"/>
	<path class="st7" d="M350.2,297.7c-0.8,0-1.5-0.3-1.4-0.6c0.1-0.2,0.7-0.4,1.2-0.4c0.7,0,1.3,0.2,1.3,0.5
		C351.2,297.5,350.8,297.7,350.2,297.7z"/>
	<path class="st7" d="M288.3,258.4c0.5,0.1,1,0.2,1.4,0.3c0.2,0.1,0.3,0.3,0.2,0.4c-0.1,0.1-0.6,0.2-0.8,0.2c-0.5-0.1-1-0.2-1.4-0.4
		c-0.1-0.1-0.2-0.2-0.1-0.3C287.7,258.5,288,258.5,288.3,258.4L288.3,258.4z"/>
	<path class="st7" d="M765,363.6c-0.2-0.1-0.5-0.1-0.6-0.3c-0.2-0.3,0.3-0.6,1.2-0.7c0.4,0,0.7,0.1,0.8,0.3
		C766.5,363.2,766,363.5,765,363.6L765,363.6z"/>
	<path class="st7" d="M139.8,261.5c-0.1,0.5-0.8,0.8-1.5,0.7c-0.5,0-0.8-0.2-0.7-0.5s0.6-0.6,1.3-0.5
		C139.3,261.2,139.6,261.4,139.8,261.5L139.8,261.5z"/>
	<path class="st7" d="M731.5,312.6c-0.2,0.2-0.4,0.4-0.6,0.6c0,0-0.4,0-0.5,0c-0.7-0.2-0.7-0.5-0.6-0.8c0-0.1,0.2-0.2,0.3-0.3
		c0.1-0.1,0.3-0.1,0.5-0.1s0.5,0.1,0.7,0.2C731.3,312.3,731.4,312.4,731.5,312.6L731.5,312.6z"/>
	<path class="st7" d="M4.3,279.6c0.9,0,1.5,0.2,1.5,0.5c-0.1,0.2-0.4,0.4-0.7,0.5c-0.7,0.1-1.7-0.2-1.5-0.5
		C3.7,279.8,4.1,279.7,4.3,279.6L4.3,279.6z"/>
	<path class="st7" d="M378,238c0.4-0.6,0.7-1,1-1.4c0.1-0.1,0.5-0.2,0.6-0.2c0.2,0.1,0.5,0.2,0.5,0.4c0,0.1-0.2,0.3-0.4,0.4
		C379.3,237.4,378.8,237.6,378,238L378,238z"/>
	<path class="st7" d="M91.2,338.6c-0.2-0.1-0.6-0.2-0.8-0.4c-0.2-0.3,0.4-0.5,1.2-0.6c0.5,0,0.9,0.2,1,0.4
		C92.7,338.3,92.2,338.6,91.2,338.6L91.2,338.6z"/>
	<path class="st7" d="M818,448.4c-0.5-0.2-1-0.4-1.2-0.5c-0.2-0.2,0.5-0.5,1.3-0.5c0.7,0,1.2,0.2,1,0.5
		C818.9,448,818.4,448.2,818,448.4L818,448.4z"/>
	<path class="st7" d="M769.5,249.5c0,0.4-0.5,0.6-1.2,0.7c-0.6,0-1.1-0.2-1.1-0.5s0.6-0.6,1.2-0.5
		C768.9,249.2,769.3,249.4,769.5,249.5L769.5,249.5z"/>
	<path class="st7" d="M30.9,405.7c-0.3,0.1-0.6,0.3-0.9,0.3c-0.2,0-0.6-0.1-0.8-0.2c-0.1-0.1-0.1-0.2-0.1-0.4c0-0.2,0.1-0.4,0.6-0.5
		c0.5,0,0.8,0.1,1,0.3C30.7,405.3,30.8,405.5,30.9,405.7L30.9,405.7z"/>
	<path class="st7" d="M756.8,464.9c-0.4-0.1-0.8-0.2-1.1-0.4c-0.6-0.3-0.8-0.7-0.3-0.7c0.7-0.1,1.3,0,1.7,0.3
		c0.2,0.1,0.3,0.3,0.3,0.5C757.3,464.7,757,464.8,756.8,464.9L756.8,464.9z"/>
	<path class="st7" d="M317,313.2c-0.1,0.1-0.4,0.3-0.7,0.4c-0.1,0-0.6,0-0.7-0.1c-0.2-0.1-0.3-0.3-0.3-0.5s0.1-0.4,0.7-0.5
		C316.5,312.5,317,312.8,317,313.2L317,313.2z"/>
	<path class="st7" d="M136.5,249c0.1,0.4-0.3,0.7-1,0.7c-0.5,0-1-0.1-1-0.3c-0.1-0.3,0.6-0.7,1.3-0.7
		C136.1,248.8,136.4,249,136.5,249L136.5,249z"/>
	<path class="st7" d="M743.1,303.7c0-0.2,0.5-0.5,1.1-0.4c0.5,0,0.8,0.2,0.8,0.4c0,0.2-0.3,0.4-0.8,0.5
		C743.7,304.2,743.2,303.9,743.1,303.7L743.1,303.7z"/>
	<path class="st7" d="M171.5,243.2c-0.2,0.1-0.5,0.2-0.8,0.3c-0.5,0.1-1-0.2-1-0.5c0-0.2,0.4-0.4,0.9-0.4
		C171.1,242.6,171.6,242.8,171.5,243.2L171.5,243.2z"/>
	<path class="st7" d="M577,253.9c0,0.3-0.6,0.5-1.2,0.4c-0.5,0-0.9-0.2-0.8-0.4c0.1-0.3,0.4-0.5,1.1-0.5
		C576.6,253.3,577,253.6,577,253.9L577,253.9z"/>
	<path class="st7" d="M416.3,269.2c-0.6,0-1.1-0.2-1.1-0.6c0-0.2,0.2-0.4,0.7-0.5c0.6-0.1,1.2,0.2,1.3,0.5
		C417.3,268.9,416.9,269.2,416.3,269.2L416.3,269.2z"/>
	<path class="st7" d="M606.5,333.5c-0.3-0.1-0.7-0.2-0.7-0.2c0-0.1,0.2-0.3,0.4-0.4c0.3-0.1,0.7-0.1,1.1-0.1c0.2,0,0.5,0.1,0.6,0.2
		c0,0.1-0.2,0.2-0.3,0.3C607.3,333.4,606.9,333.4,606.5,333.5L606.5,333.5z"/>
	<path class="st7" d="M728.7,349.8c-0.6,0.2-0.9,0.4-1.3,0.5c-0.4,0.1-0.8-0.2-0.8-0.4c0-0.2,0.6-0.5,1.2-0.4
		C728,349.5,728.3,349.6,728.7,349.8z"/>
	<path class="st7" d="M728.8,374.6c-0.3,0.2-0.4,0.3-0.6,0.3c-0.2,0-0.5,0-0.8-0.1c-0.1,0-0.1,0-0.2-0.1c-0.5-0.3-0.6-0.5-0.2-0.7
		c0.2-0.1,0.6-0.1,0.8,0C728.2,374.2,728.5,374.4,728.8,374.6L728.8,374.6z"/>
	<path class="st7" d="M148.2,254.5c0.1,0.4-0.4,0.6-0.9,0.6s-0.8-0.2-0.9-0.4c-0.1-0.3,0.3-0.5,0.9-0.5
		C147.7,254.3,148,254.4,148.2,254.5L148.2,254.5z"/>
	<path class="st7" d="M782,421c0.3-0.1,0.8-0.2,1.2-0.2c0.6,0,0.9,0.3,0.8,0.6c-0.2,0.2-0.5,0.3-1,0.3
		C782.3,421.7,781.9,421.4,782,421L782,421z"/>
	<path class="st7" d="M531.1,467.4c-0.1,0.1-0.3,0.3-0.6,0.3c-0.5,0.1-0.8-0.1-1.1-0.3c-0.1-0.1-0.1-0.2-0.2-0.2
		c-0.1-0.2,0.2-0.4,0.7-0.5c0.5,0,0.9,0.1,1,0.3C531,467.2,531,467.3,531.1,467.4L531.1,467.4z"/>
	<path class="st7" d="M112.7,277.4c-0.6,0.1-0.9,0.3-1.3,0.3c-0.6,0-1.1-0.2-0.9-0.5c0.1-0.2,0.4-0.4,0.9-0.4
		C111.8,277,112.1,277.2,112.7,277.4L112.7,277.4z"/>
	<path class="st7" d="M676.6,356.7c0.4,0.2,0.8,0.4,0.9,0.5c0.2,0.2-0.3,0.4-0.8,0.4s-0.9-0.1-0.9-0.4
		C675.8,357.1,676.2,357,676.6,356.7L676.6,356.7z"/>
	<path class="st7" d="M298.1,278c0,0.4-0.4,0.6-1,0.6c-0.3,0-0.7-0.2-0.8-0.3c-0.2-0.3,0.2-0.6,0.8-0.5
		C297.5,277.8,297.8,278,298.1,278L298.1,278z"/>
	<path class="st7" d="M809.9,427.3c0.2,0.1,0.6,0.3,0.7,0.5c0.1,0.2-0.5,0.5-1,0.4c-0.5,0-0.8-0.2-0.8-0.4
		C808.7,427.5,809.1,427.3,809.9,427.3L809.9,427.3z"/>
	<path class="st7" d="M707.5,248.1c-0.2,0-0.6,0.2-0.8,0.1c-0.5-0.1-0.8-0.3-1.2-0.5c-0.1,0,0.1-0.3,0.3-0.3
		C706.7,247.3,707.5,247.6,707.5,248.1z"/>
	<path class="st7" d="M582.3,375.7c0.3,0,0.7-0.2,1-0.2c0.6,0,1.1,0.2,0.9,0.5c-0.1,0.1-0.4,0.3-0.7,0.3
		C582.9,376.4,582.2,376.1,582.3,375.7L582.3,375.7z"/>
	<path class="st7" d="M395.9,356.1c0.7,0.1,1,0.3,0.9,0.6c-0.1,0.2-0.5,0.4-0.9,0.4c-0.5-0.1-0.9-0.3-0.7-0.6
		C395.3,356.3,395.7,356.2,395.9,356.1L395.9,356.1z"/>
	<path class="st7" d="M286.2,345.1c-0.5,0.2-0.7,0.4-1.1,0.5c-0.5,0.1-1.1-0.2-1.2-0.4c-0.1-0.2,0.4-0.5,1-0.4
		C285.3,344.8,285.6,344.9,286.2,345.1L286.2,345.1z"/>
	<path class="st7" d="M707.2,344.4c0.3,0.3,0.6,0.5,0.6,0.6c0,0.3-0.6,0.5-1.1,0.4s-0.9-0.2-0.7-0.5
		C706.1,344.9,706.6,344.7,707.2,344.4L707.2,344.4z"/>
	<path class="st7" d="M150.9,340c-0.2,0.1-0.5,0.3-0.9,0.3c-0.5,0.1-1-0.3-0.8-0.5c0.1-0.1,0.4-0.3,0.7-0.3
		C150.4,339.4,150.9,339.6,150.9,340L150.9,340z"/>
	<path class="st7" d="M737.7,330.2c-0.5,0.1-0.8,0.3-1.1,0.3c-0.6,0-1.1-0.2-1.1-0.4c0-0.2,0.5-0.4,0.9-0.3
		C736.9,329.8,737.2,330,737.7,330.2L737.7,330.2z"/>
	<path class="st7" d="M190.2,325.3c0.4,0.3,0.7,0.5,0.9,0.7c0.1,0.2-0.4,0.4-0.8,0.4c-0.5,0-1-0.3-0.9-0.5
		C189.4,325.7,189.8,325.6,190.2,325.3L190.2,325.3z"/>
	<path class="st7" d="M111.1,317.4c0-0.4,0.5-0.6,1-0.6s0.8,0.2,0.8,0.4c0,0.3-0.4,0.6-0.9,0.5C111.6,317.6,111.3,317.4,111.1,317.4
		L111.1,317.4z"/>
	<path class="st7" d="M763.5,305.6c-0.2,0.1-0.5,0.2-0.9,0.3c-0.5,0.1-1-0.2-0.8-0.5c0.1-0.2,0.3-0.4,0.9-0.4
		C763.1,305,763.5,305.2,763.5,305.6z"/>
	<path class="st7" d="M485.3,386.1c0.2,0.2,0.4,0.3,0.4,0.4c0,0.2-0.4,0.4-0.9,0.4c-0.4,0-0.7-0.2-0.5-0.4
		C484.5,386.4,484.9,386.3,485.3,386.1L485.3,386.1z"/>
	<path class="st7" d="M516.7,336.2c0,0.3-0.2,0.5-0.8,0.5c-0.5,0-0.9-0.1-1-0.3c-0.1-0.2,0.3-0.4,0.8-0.4
		C516.1,336,516.4,336.2,516.7,336.2L516.7,336.2z"/>
	<path class="st7" d="M333.4,404.3c-0.2,0.1-0.4,0.3-0.8,0.3c-0.5,0.1-1-0.2-1.1-0.5c0-0.2,0.3-0.4,0.8-0.4
		C332.9,403.7,333.4,403.9,333.4,404.3L333.4,404.3z"/>
	<path class="st7" d="M136.6,332.4c0.5,0.1,0.8,0.1,1,0.1c0.6,0.1,0.8,0.5,0.4,0.6c-0.2,0.1-0.7,0.1-1,0.1c-0.6-0.1-1-0.3-0.8-0.6
		C136.3,332.5,136.5,332.4,136.6,332.4L136.6,332.4z"/>
	<path class="st7" d="M129.7,300.9c-0.5,0.2-0.7,0.4-1.1,0.4c-0.4,0-0.9-0.3-0.8-0.5s0.6-0.4,1-0.3
		C129.1,300.5,129.3,300.7,129.7,300.9L129.7,300.9z"/>
	<path class="st7" d="M99.1,270.8c-0.2,0.3-0.5,0.6-0.8,0.9c-0.1,0.1-0.5,0.1-0.7,0.1s-0.5-0.2-0.4-0.3c0-0.2,0.2-0.4,0.4-0.4
		C98.1,271,98.6,270.9,99.1,270.8L99.1,270.8z"/>
	<path class="st7" d="M61,341.5c0.4,0.2,0.8,0.2,0.9,0.4c0.2,0.2-0.2,0.5-0.8,0.5c-0.5,0-1-0.2-0.9-0.4
		C60.3,341.8,60.7,341.7,61,341.5L61,341.5z"/>
	<path class="st7" d="M820,296c-0.6-0.5-0.7-0.8-0.1-1.1C820.6,295.1,820.6,295.5,820,296z"/>
	<path class="st7" d="M175.6,266.2c0,0.4-0.5,0.6-1,0.6c-0.3,0-0.6-0.2-0.6-0.3c-0.1-0.3,0.4-0.5,0.9-0.5
		C175.2,266,175.4,266.1,175.6,266.2z"/>
	<path class="st7" d="M119.5,288.6c0.2-0.1,0.5-0.2,0.8-0.3c0.5-0.1,0.9,0.1,0.9,0.3c0,0.2-0.3,0.4-0.7,0.5
		C120.1,289.2,119.5,288.9,119.5,288.6z"/>
	<path class="st7" d="M865,320.5c-0.3,0-0.5,0-0.7-0.1c-0.6-0.3-0.5-0.7,0.1-0.9c0.2-0.1,0.7,0,0.7,0c0.2,0.2,0.3,0.4,0.3,0.6
		C865.5,320.2,865.2,320.4,865,320.5L865,320.5z"/>
	<path class="st7" d="M836.3,277c-0.5,0.2-0.7,0.4-1,0.5c-0.5,0.1-0.9-0.1-1-0.3c-0.1-0.2,0.3-0.4,0.8-0.4
		C835.4,276.8,835.7,276.9,836.3,277L836.3,277z"/>
	<path class="st7" d="M216.1,325.6c-0.5,0.2-0.7,0.4-1.1,0.4c-0.5,0.1-0.9-0.1-0.9-0.3c0-0.2,0.2-0.4,0.7-0.4
		C215.2,325.2,215.6,325.4,216.1,325.6L216.1,325.6z"/>
	<path class="st7" d="M234.8,288.8c0,0.2,0.1,0.3,0.1,0.3c-0.2,0.3-0.6,0.4-1.3,0.4c-0.1,0-0.4-0.1-0.4-0.1
		c-0.2-0.3,0.4-0.4,0.9-0.5C234.2,288.8,234.4,288.8,234.8,288.8L234.8,288.8z"/>
	<path class="st7" d="M726.4,348.7c-0.4,0.2-0.6,0.3-0.9,0.4c-0.4,0.1-1-0.2-0.9-0.3c0.1-0.1,0.5-0.3,0.8-0.3
		C725.7,348.4,726,348.5,726.4,348.7L726.4,348.7z"/>
	<path class="st7" d="M474.9,414.8c-0.8-0.4-0.4-0.7-0.2-1C475.1,414.1,475.2,414.4,474.9,414.8z"/>
	<path class="st7" d="M335.2,429c-0.6,0.1-0.8,0.3-1.1,0.3c-0.5,0-1-0.2-0.8-0.4c0.1-0.1,0.5-0.3,0.7-0.3
		C334.3,428.7,334.6,428.8,335.2,429L335.2,429z"/>
	<path class="st7" d="M601.4,294c0.4,0.2,0.8,0.3,0.9,0.5c0.1,0.1-0.5,0.3-1,0.3s-0.9-0.2-0.8-0.4C600.7,294.3,601,294.2,601.4,294
		L601.4,294z"/>
	<path class="st7" d="M501.9,239c-0.4,0.2-0.5,0.3-0.8,0.4c-0.4,0.1-0.7,0-0.8-0.2c-0.1-0.2,0.3-0.5,0.7-0.5
		C501.2,238.7,501.5,238.8,501.9,239L501.9,239z"/>
	<path class="st7" d="M487.5,413.3c-0.4,0.2-0.6,0.4-0.9,0.4c-0.4,0.1-0.8-0.2-0.8-0.4c0.1-0.2,0.3-0.4,0.9-0.4
		C486.9,413,487.1,413.2,487.5,413.3L487.5,413.3z"/>
	<path class="st7" d="M874.1,350.4c-0.2-0.1-0.5-0.2-0.5-0.3c0-0.1,0.1-0.3,0.3-0.4c0,0,0.4,0,0.5,0c0.4,0.1,0.5,0.3,0.3,0.5
		C874.7,350.3,874.4,350.3,874.1,350.4L874.1,350.4z"/>
	<path class="st7" d="M88.2,351c-0.3,0.2-0.5,0.3-0.7,0.4c-0.4,0.1-0.9-0.1-0.8-0.4c0.1-0.1,0.4-0.3,0.6-0.3
		C87.5,350.8,87.8,350.9,88.2,351L88.2,351z"/>
	<path class="st7" d="M239.9,268.1c-0.4-0.2-0.7-0.4-0.8-0.5c0-0.1,0.4-0.3,0.6-0.3c0.5,0,0.9,0.1,0.8,0.4
		C240.5,267.8,240.2,267.9,239.9,268.1L239.9,268.1z"/>
	<path class="st7" d="M681.2,355c-0.3,0-0.6,0-0.6-0.1c-0.1-0.1-0.3-0.3-0.2-0.4s0.4-0.2,0.7-0.3c0.1,0,0.4,0,0.5,0
		c0.1,0.1,0.3,0.3,0.2,0.4C681.7,354.8,681.4,354.9,681.2,355L681.2,355z"/>
	<path class="st7" d="M229.9,355.1c-0.5,0.1-0.9,0.3-1.3,0.4c-0.1,0-0.6-0.2-0.6-0.3c-0.1-0.3,0.7-0.5,1.4-0.4
		C229.5,354.8,229.7,354.9,229.9,355.1L229.9,355.1z"/>
	<path class="st7" d="M101,446.3c-0.6,0.2-0.9,0.3-1.2,0.3c-0.5,0-0.8-0.2-0.8-0.4c0-0.2,0.4-0.4,0.9-0.3
		C100.2,445.9,100.5,446.1,101,446.3z"/>
	<path class="st7" d="M463.8,259.1c-0.4-0.2-0.8-0.3-0.9-0.5c-0.2-0.2,0.3-0.5,1-0.5c0.6,0,0.9,0.2,0.8,0.4
		C464.5,258.7,464.2,258.9,463.8,259.1L463.8,259.1z"/>
	<path class="st7" d="M365.1,359.2c-0.4,0.2-0.6,0.4-1,0.4c-0.1,0-0.6-0.2-0.7-0.3c-0.2-0.3,0.3-0.6,0.8-0.5
		C364.6,358.9,364.8,359,365.1,359.2L365.1,359.2z"/>
	<path class="st7" d="M413.2,361.7c-0.6,0.1-0.9,0.3-1.1,0.3c-0.3,0-0.6-0.1-0.8-0.3c-0.1-0.2,0.1-0.3,0.5-0.3
		S412.5,361.6,413.2,361.7L413.2,361.7z"/>
	<path class="st7" d="M667.5,303.8c0.5,0.2,0.9,0.3,1.1,0.5c0.2,0.2-0.2,0.5-0.6,0.4c-0.5,0-0.9-0.2-0.9-0.4
		C667.1,304.2,667.3,304.1,667.5,303.8z"/>
	<path class="st7" d="M713.2,371.3c0.7,0,1.1,0.4,0.8,0.7l-0.2,0.1c-0.3-0.1-0.7-0.1-0.9-0.2s0-0.3,0-0.5
		C713,371.3,713.1,371.3,713.2,371.3z"/>
	<path class="st7" d="M865.2,284c0.3-0.2,0.5-0.4,0.8-0.5c0.5-0.1,0.8,0.1,0.9,0.3c0.1,0.3-0.3,0.6-0.8,0.5
		C865.8,284.3,865.5,284.1,865.2,284L865.2,284z"/>
	<path class="st7" d="M831.5,257.5c-0.4,0.2-0.7,0.3-1,0.3c-0.4,0-0.9-0.2-0.8-0.4c0.1-0.1,0.5-0.3,0.7-0.3
		C830.8,257.1,831.1,257.3,831.5,257.5z"/>
	<path class="st7" d="M293.3,302.8c-0.5,0.1-0.7,0.2-1,0.3c-0.5,0-0.6-0.2-0.5-0.3c0.1-0.1,0.5-0.3,0.7-0.3
		C292.7,302.4,292.9,302.6,293.3,302.8L293.3,302.8z"/>
	<path class="st7" d="M149.5,246.2c-0.4,0.2-0.6,0.3-0.9,0.4c-0.5,0.1-1.1-0.2-0.9-0.5c0.1-0.1,0.5-0.3,0.7-0.3
		C148.8,245.9,149,246.1,149.5,246.2L149.5,246.2z"/>
	<path class="st7" d="M392.3,245.8c0.8,0.1,0.9,0.3,0.8,0.5c-0.1,0.1-0.4,0.3-0.7,0.3c-0.5,0-0.9-0.3-0.7-0.5
		C391.7,246,392.1,245.9,392.3,245.8L392.3,245.8z"/>
	<path class="st7" d="M751.5,305.2c-0.5,0.2-0.8,0.3-1.2,0.4c-0.1,0-0.6-0.2-0.6-0.3c0-0.2,0.3-0.4,0.9-0.4
		C750.9,304.9,751.1,305.1,751.5,305.2L751.5,305.2z"/>
	<path class="st7" d="M505.5,240.3l-1.1,0.4c-0.2-0.1-0.5-0.2-0.6-0.4s0.4-0.5,0.8-0.4C504.9,240,505.1,240.1,505.5,240.3
		L505.5,240.3z"/>
	<path class="st7" d="M697.2,392.1c-0.5,0.1-0.8,0.3-1,0.3c-0.1,0-0.5-0.2-0.5-0.2c0.1-0.1,0.3-0.2,0.5-0.4L697.2,392.1L697.2,392.1
		z"/>
	<path class="st7" d="M890.8,270.3c-0.1,0.1-0.5,0.2-0.5,0.3c0,0.1,0.4,0.3,0.6,0.3c0.2,0,0.6-0.1,0.8-0.2v-0.2
		C891.6,270.3,891.3,270.3,890.8,270.3L890.8,270.3z"/>
	<path class="st7" d="M782,328.8c-0.5,0.1-0.8,0.3-1,0.3c-0.4,0-0.8-0.2-0.6-0.4c0.1-0.1,0.4-0.2,0.5-0.2
		C781.2,328.5,781.5,328.6,782,328.8z"/>
	<path class="st7" d="M855.3,389.5c-0.4,0.1-0.7,0.3-1,0.3c-0.4,0-0.7-0.2-0.6-0.3c0.1-0.1,0.4-0.2,0.7-0.3L855.3,389.5L855.3,389.5
		z"/>
	<path class="st7" d="M743.3,288.2c-0.4,0.1-0.6,0.3-0.9,0.3c-0.4,0-0.8-0.2-0.6-0.5c0.1-0.1,0.5-0.3,0.8-0.2
		C742.8,287.8,743,288,743.3,288.2L743.3,288.2z"/>
	<path class="st7" d="M378,290.3l-0.9,0.5c-0.2-0.1-0.5-0.2-0.5-0.3c-0.1-0.2,0.2-0.5,0.6-0.4C377.5,290.1,377.7,290.2,378,290.3
		L378,290.3z"/>
	<path class="st7" d="M578.6,266.8c0.4,0.4,0.7,0.7,1,1C578.8,267.8,578.5,267.4,578.6,266.8z"/>
	<path class="st7" d="M222.4,323.1c-0.6,0.1-1,0.2-1.4,0.2c-0.1,0-0.4-0.2-0.4-0.3c0-0.2,0.5-0.4,0.9-0.3
		C221.8,322.8,222,322.9,222.4,323.1L222.4,323.1z"/>
	<path class="st7" d="M14.7,387.1c0.2-0.1,0.3-0.1,0.4-0.1c0.4,0,0.8,0.1,1.2,0.1v0.1c-0.4,0-0.8,0-1.2,0
		C15,387.2,14.9,387.2,14.7,387.1L14.7,387.1z"/>
	<path class="st7" d="M777.4,425.8c-0.3,0.2-0.5,0.3-0.8,0.4c-0.4,0.1-0.9-0.1-0.8-0.3c0.1-0.1,0.4-0.3,0.7-0.3
		C776.7,425.5,777,425.7,777.4,425.8L777.4,425.8z"/>
	<path class="st7" d="M842.2,317c-0.4,0.2-0.7,0.3-1.1,0.4c-0.1,0-0.5-0.1-0.5-0.2c0-0.2,0.3-0.4,0.8-0.4
		C841.7,316.8,841.9,316.9,842.2,317L842.2,317z"/>
	<path class="st7" d="M770.2,260.8c-0.1,0.1-0.3,0.3-0.4,0.3c-0.3,0-0.7-0.1-0.9-0.2c-0.1-0.1-0.1-0.2-0.1-0.4
		c0-0.1,0.2-0.2,0.3-0.2c0.2,0,0.5,0,0.7,0.1C770.1,260.5,770.1,260.6,770.2,260.8L770.2,260.8z"/>
	<path class="st7" d="M693.2,294.2c-0.3-0.2-0.6-0.4-0.5-0.5s0.5-0.3,0.7-0.2c0.2,0,0.6,0.2,0.6,0.3
		C694,293.9,693.6,294,693.2,294.2L693.2,294.2z"/>
	<path class="st7" d="M368.5,261c-0.2-0.2-0.4-0.4-0.4-0.5c0-0.2,0.6-0.4,0.9-0.3c0.2,0.1,0.4,0.3,0.3,0.4
		C369.3,260.7,368.9,260.8,368.5,261z"/>
	<path class="st7" d="M476.4,261.2c-0.5,0.1-0.8,0.2-1,0.2s-0.5-0.2-0.5-0.3c0-0.2,0.3-0.3,0.7-0.2C475.8,260.9,476,261,476.4,261.2
		z"/>
	<path class="st7" d="M444.8,291.5c-0.3,0.1-0.5,0.3-0.8,0.3c-0.1,0-0.6-0.2-0.5-0.2c0.1-0.1,0.3-0.3,0.6-0.3
		C444.1,291.2,444.4,291.4,444.8,291.5L444.8,291.5z"/>
	<path class="st7" d="M15,246.6c0.2,0.2,0.4,0.3,0.5,0.4l-0.5,0.2c-0.3-0.1-0.5-0.2-0.6-0.3C14.3,246.9,14.6,246.8,15,246.6
		L15,246.6z"/>
	<path class="st7" d="M467.4,416.4c-0.1-0.1-0.3-0.3-0.2-0.4c0.1-0.1,0.5-0.2,0.7-0.3c0.2,0.1,0.6,0.2,0.6,0.3
		C468.6,416.3,468.1,416.5,467.4,416.4L467.4,416.4z"/>
	<path class="st7" d="M825.4,345.8c-0.1,0.1-0.2,0.2-0.4,0.3c-0.2,0-0.7,0-0.7,0c-0.1-0.2-0.1-0.4-0.1-0.6c0,0,0.3-0.1,0.4-0.1
		c0.2,0,0.5,0.1,0.6,0.2C825.4,345.6,825.3,345.7,825.4,345.8L825.4,345.8z"/>
	<path class="st7" d="M41,297.6c0.2,0.1,0.5,0.2,0.5,0.3c0,0.1-0.3,0.2-0.5,0.2c-0.2-0.1-0.5-0.2-0.5-0.2
		C40.5,297.8,40.8,297.7,41,297.6L41,297.6z"/>
	<path class="st7" d="M418.2,327.6l-1,0.3c-0.1-0.1-0.4-0.3-0.4-0.4s0.4-0.2,0.5-0.2C417.5,327.3,417.7,327.5,418.2,327.6
		L418.2,327.6z"/>
	<path class="st7" d="M788,312l-0.9,0.4c-0.2-0.1-0.6-0.2-0.6-0.4c0-0.1,0.4-0.2,0.6-0.3L788,312z"/>
	<path class="st7" d="M589.2,459c-0.5-0.2-0.9-0.4-1-0.5c-0.1-0.2,0.2-0.3,0.6-0.3c0.3,0,0.6,0.1,0.7,0.3
		C589.6,458.6,589.4,458.7,589.2,459L589.2,459z"/>
	<path class="st7" d="M305.7,310.1c-0.2,0.1-0.4,0.3-0.7,0.3c-0.1,0-0.5-0.1-0.6-0.1c-0.1-0.2,0.4-0.4,0.8-0.4
		C305.3,309.9,305.4,310,305.7,310.1L305.7,310.1z"/>
	<path class="st7" d="M21.4,281.6c0.7,0.1,0.8,0.3,0.7,0.5c-0.1,0.1-0.5,0.3-0.7,0.3c-0.6,0-0.6-0.3-0.5-0.5
		C20.9,281.8,21.3,281.7,21.4,281.6z"/>
	<path class="st7" d="M292,280.9l-1,0.4c-0.2-0.1-0.5-0.2-0.6-0.4c-0.1-0.2,0.3-0.5,0.7-0.4C291.4,280.6,291.6,280.7,292,280.9
		L292,280.9z"/>
	<path class="st7" d="M296.2,258.7c0.3,0.1,0.6,0.2,0.7,0.4c0.1,0.2-0.2,0.3-0.6,0.3c-0.3,0-0.5-0.2-0.6-0.3
		C295.7,259,296,258.9,296.2,258.7L296.2,258.7z"/>
	<path class="st7" d="M797.3,270.7c-0.4,0.2-0.6,0.3-0.9,0.3c-0.5,0-0.6-0.2-0.6-0.3c0-0.2,0.1-0.4,0.6-0.3
		C796.7,270.4,796.9,270.5,797.3,270.7L797.3,270.7z"/>
	<path class="st7" d="M168.3,251.3l-0.9,0.4c-0.2-0.1-0.5-0.2-0.5-0.4s0.3-0.3,0.4-0.4L168.3,251.3L168.3,251.3z"/>
	<path class="st7" d="M698.1,332.9c-0.3,0.1-0.5,0.3-0.8,0.3c-0.1,0-0.5-0.2-0.5-0.2c0.1-0.1,0.3-0.3,0.6-0.3
		C697.3,332.6,697.7,332.8,698.1,332.9L698.1,332.9z"/>
	<path class="st7" d="M710.9,373.1c0.5-0.1,0.8-0.2,1.1-0.2c0.2,0,0.5,0.2,0.5,0.2c-0.1,0.1-0.4,0.2-0.6,0.4
		C711.6,373.4,711.3,373.3,710.9,373.1z"/>
	<path class="st7" d="M361.9,300.3c-0.4,0.2-0.6,0.3-0.9,0.4c-0.4,0.1-1-0.1-0.9-0.3c0.1-0.1,0.4-0.3,0.7-0.3
		C361.1,300,361.4,300.2,361.9,300.3L361.9,300.3z"/>
	<path class="st7" d="M234.5,336.9l-0.8-0.4c0.2-0.1,0.5-0.2,0.8-0.3c0.1,0,0.5,0.1,0.5,0.2C235,336.6,234.7,336.7,234.5,336.9
		L234.5,336.9z"/>
	<path class="st7" d="M294.8,406.4c-0.4,0.1-0.6,0.3-0.8,0.3c-0.4,0-0.7-0.1-0.6-0.3c0-0.1,0.4-0.2,0.5-0.2
		C294.2,406.1,294.5,406.2,294.8,406.4L294.8,406.4z"/>
	<path class="st7" d="M613.8,464.2c-0.4,0.1-0.6,0.2-0.8,0.2c-0.4,0-0.8-0.1-0.7-0.3c0.1-0.1,0.4-0.2,0.6-0.2
		C613.1,463.9,613.3,464,613.8,464.2z"/>
	<path class="st7" d="M302.3,335.1l-0.9,0.3c-0.1-0.1-0.4-0.2-0.4-0.3c0-0.1,0.3-0.2,0.5-0.2C301.7,334.9,301.9,335,302.3,335.1
		L302.3,335.1z"/>
	<path class="st7" d="M249.8,410.7v-1C250.1,410,250.1,410.3,249.8,410.7z"/>
	<path class="st7" d="M633.9,335.1c-0.2-0.2-0.5-0.3-0.5-0.5c0-0.1,0.3-0.2,0.5-0.3c0.2,0.1,0.5,0.2,0.6,0.3
		C634.5,334.8,634.2,335,633.9,335.1L633.9,335.1z"/>
	<path class="st7" d="M89.5,300.1c0.3,0.1,0.5,0.1,0.6,0.2c0.2,0.1-0.1,0.4-0.4,0.3c-0.2,0-0.4-0.1-0.5-0.2
		C89.1,300.4,89.3,300.3,89.5,300.1L89.5,300.1z"/>
	<path class="st7" d="M19.4,375.9c-0.2-0.1-0.5-0.2-0.4-0.3c0-0.1,0.3-0.2,0.5-0.2c0.2,0.1,0.4,0.2,0.5,0.2
		C19.9,375.7,19.7,375.8,19.4,375.9z"/>
	<path class="st7" d="M220.4,278.6c0.3,0.2,0.5,0.2,0.5,0.3c0,0.2-0.2,0.3-0.6,0.3c-0.2,0-0.5-0.2-0.5-0.2
		C219.8,278.9,220.1,278.8,220.4,278.6L220.4,278.6z"/>
	<path class="st7" d="M123.9,473c0.2,0.3,0.4,0.4,0.4,0.6s-0.2,0.3-0.7,0.2c-0.2,0-0.4-0.2-0.3-0.3
		C123.4,473.4,123.6,473.3,123.9,473L123.9,473z"/>
	<path class="st7" d="M95.5,427.7c-0.3-0.2-0.6-0.3-0.5-0.3c0.2-0.1,0.5-0.2,0.7-0.3c0.1,0,0.5,0.2,0.4,0.2
		C96.1,427.5,95.8,427.6,95.5,427.7z"/>
	<path class="st7" d="M37.2,265.3c-0.4,0.1-0.7,0.2-1,0.2c-0.2,0-0.3-0.2-0.5-0.2c0.3-0.1,0.5-0.2,0.8-0.2
		C36.6,265,36.9,265.1,37.2,265.3L37.2,265.3z"/>
	<path class="st7" d="M786.9,439.2c-0.4,0.1-0.7,0.3-0.8,0.2c-0.2-0.1-0.5-0.2-0.6-0.3c0,0,0.4-0.2,0.5-0.2
		C786.4,438.9,786.6,439.1,786.9,439.2L786.9,439.2z"/>
	<path class="st7" d="M330.2,401.5c-0.5,0.1-0.9,0.2-1.1,0.2s-0.4-0.2-0.6-0.3c0.2-0.1,0.5-0.2,0.8-0.2S329.7,401.3,330.2,401.5
		L330.2,401.5z"/>
	<path class="st7" d="M137.9,278.7c-0.3,0.1-0.5,0.3-0.8,0.3c-0.1,0-0.5-0.2-0.5-0.2c0.1-0.1,0.4-0.2,0.6-0.4L137.9,278.7z"/>
	<path class="st7" d="M342.6,301.9c-0.4,0.1-0.8,0.1-0.9,0.1c-0.2-0.1-0.3-0.2-0.5-0.4c0.2,0,0.5-0.1,0.6-0.1
		C342.1,301.6,342.2,301.8,342.6,301.9z"/>
	<path class="st7" d="M863.3,276.6c-0.4,0-0.7,0.1-0.8,0c-0.2,0-0.2-0.2-0.2-0.3c0.2,0,0.5-0.1,0.7-0.1
		C863.1,276.3,863.2,276.5,863.3,276.6z"/>
	<path class="st7" d="M510.8,397.5c-0.3,0.1-0.5,0.2-0.8,0.3c-0.1,0-0.5-0.2-0.5-0.2c0.1-0.1,0.4-0.2,0.6-0.4L510.8,397.5
		L510.8,397.5z"/>
	<path class="st7" d="M467.6,396.3c0.4,0.1,0.7,0.2,0.8,0.2c0.2,0.2,0,0.3-0.4,0.4c-0.2,0-0.6-0.1-0.6-0.1
		C467.3,396.7,467.5,396.5,467.6,396.3z"/>
	<path class="st7" d="M266.6,346.7c-0.3,0.1-0.4,0.1-0.5,0.1c-0.2,0-0.5-0.1-0.7-0.2c-0.1-0.1-0.1-0.2-0.1-0.3c0.2,0,0.5,0,0.7,0
		C266.2,346.4,266.4,346.6,266.6,346.7z"/>
	<path class="st7" d="M410.1,257c0.2,0.2,0.4,0.3,0.4,0.4c0.1,0.2-0.2,0.4-0.5,0.4c-0.2,0-0.4-0.2-0.5-0.3
		C409.5,257.4,409.8,257.3,410.1,257z"/>
	<path class="st7" d="M869.3,409.9c-0.4,0.2-0.7,0.3-1,0.3c-0.2,0-0.7-0.2-0.6-0.3c0-0.1,0.4-0.3,0.7-0.3
		C868.6,409.6,868.9,409.8,869.3,409.9L869.3,409.9z"/>
	<path class="st7" d="M293.2,305.2c-0.3,0.2-0.4,0.3-0.6,0.4c-0.3,0.1-0.7-0.1-0.6-0.3c0.1-0.1,0.3-0.2,0.5-0.3
		C292.7,305.1,293,305.2,293.2,305.2L293.2,305.2z"/>
	<path class="st7" d="M790.8,425.5c-0.2-0.1-0.3-0.3-0.5-0.4c0-0.1,0.2-0.2,0.2-0.2c0.2,0,0.6,0.1,0.7,0.1c0.1,0.1,0.2,0.2,0.2,0.3
		C791.4,425.4,791.1,425.4,790.8,425.5L790.8,425.5z"/>
	<path class="st7" d="M690.2,420.7l-0.8,0.3c-0.2-0.1-0.5-0.2-0.6-0.4c0,0,0.4-0.2,0.5-0.2C689.6,420.4,689.8,420.5,690.2,420.7
		L690.2,420.7z"/>
	<path class="st7" d="M371,319.9c-0.2-0.1-0.5-0.2-0.5-0.3c0-0.1,0.3-0.2,0.5-0.2c0.2,0.1,0.5,0.2,0.5,0.3
		C371.5,319.7,371.3,319.8,371,319.9L371,319.9z"/>
	<path class="st7" d="M828.4,279c-0.2-0.1-0.5-0.1-0.5-0.1c0-0.1,0.1-0.2,0.1-0.3c0.2,0,0.5,0.1,0.5,0.1
		C828.6,278.8,828.5,278.9,828.4,279L828.4,279z"/>
	<path class="st7" d="M643.7,237.4c0.1,0.2,0.3,0.4,0.2,0.5c0,0.1-0.4,0.2-0.6,0.2c-0.4,0-0.5-0.2-0.4-0.4
		C643,237.6,643.3,237.6,643.7,237.4L643.7,237.4z"/>
	<path class="st7" d="M727.5,352.2c0.3,0.1,0.5,0.1,0.6,0.2c0.2,0.1-0.2,0.4-0.5,0.3c-0.2,0-0.5-0.1-0.5-0.2
		C727.1,352.5,727.3,352.3,727.5,352.2L727.5,352.2z"/>
	<path class="st7" d="M162.8,413.3l0.6,0.2l-0.5,0.4c-0.1,0-0.4-0.1-0.4-0.1C162.6,413.6,162.7,413.5,162.8,413.3L162.8,413.3z"/>
	<path class="st7" d="M830.2,448.4l-0.7,0.4c-0.2-0.1-0.6-0.2-0.6-0.3c0-0.1,0.3-0.2,0.5-0.4C829.6,448.2,829.8,448.3,830.2,448.4
		L830.2,448.4z"/>
	<path class="st7" d="M862,266.9l-0.9,0.1c-0.1-0.1-0.2-0.3-0.2-0.4l0.4-0.1C861.6,266.6,861.7,266.7,862,266.9L862,266.9z"/>
	<path class="st7" d="M127.7,410.6c0.2,0.3,0.5,0.4,0.5,0.5c-0.1,0.1-0.5,0.2-0.7,0.3c-0.2-0.1-0.4-0.2-0.4-0.4
		C127.1,410.9,127.4,410.8,127.7,410.6L127.7,410.6z"/>
	<path class="st7" d="M786.4,288.2c-0.5,0-0.9,0.1-1.1,0.1c-0.1,0-0.2-0.2-0.3-0.3c0.2,0,0.5-0.1,0.7-0.1
		C785.9,287.9,786,288,786.4,288.2L786.4,288.2z"/>
	<path class="st7" d="M797.1,244.5l-0.6,0.3c-0.1-0.1-0.3-0.2-0.4-0.3c0,0,0.2-0.2,0.3-0.2C796.6,244.4,796.8,244.4,797.1,244.5
		L797.1,244.5z"/>
	<path class="st7" d="M377.3,283.4c0.3,0.2,0.6,0.3,0.6,0.3c-0.1,0.1-0.4,0.2-0.6,0.3c-0.2-0.1-0.5-0.2-0.5-0.2
		C376.8,283.7,377,283.6,377.3,283.4L377.3,283.4z"/>
	<path class="st7" d="M1.2,354.4c-0.2-0.1-0.5-0.2-0.4-0.3c0-0.1,0.3-0.2,0.5-0.2c0.2,0.1,0.5,0.2,0.5,0.2
		C1.7,354.2,1.4,354.3,1.2,354.4L1.2,354.4z"/>
	<path class="st7" d="M489.2,416.2c0.3,0,0.6,0.1,0.6,0.1c0,0.1-0.1,0.2-0.2,0.3c-0.2,0-0.5,0-0.5-0.1
		C489,416.4,489.1,416.3,489.2,416.2L489.2,416.2z"/>
	<path class="st7" d="M590.9,242l-0.6,0.3c-0.1-0.1-0.3-0.2-0.4-0.3c0,0,0.2-0.2,0.3-0.2C590.4,241.9,590.6,242,590.9,242L590.9,242
		z"/>
	<path class="st7" d="M748.1,280.4c-0.2-0.1-0.5-0.2-0.5-0.3c-0.1-0.2,0.2-0.3,0.6-0.3c0.2,0,0.4,0.2,0.4,0.3
		S748.4,280.3,748.1,280.4L748.1,280.4z"/>
	<path class="st7" d="M804.5,274.2c-0.6,0.2-0.7,0.3-1,0.3s-0.8-0.2-0.6-0.3c0.1-0.1,0.4-0.2,0.7-0.2
		C803.9,274,804.1,274.1,804.5,274.2L804.5,274.2z"/>
	<path class="st7" d="M280.4,446.3c0-0.1,0.4-0.1,0.6-0.1"/>
	<path class="st7" d="M118.2,247.7c-0.2,0-0.3-0.1-0.4-0.1l0.4-0.3c0.1,0.1,0.3,0.1,0.3,0.2C118.4,247.6,118.2,247.6,118.2,247.7
		L118.2,247.7z"/>
	<path class="st7" d="M843.6,258.2c-0.3-0.2-0.5-0.3-0.5-0.4s0.3-0.2,0.5-0.3c0.2,0.1,0.5,0.2,0.6,0.3
		C844.2,257.9,843.9,258,843.6,258.2L843.6,258.2z"/>
	<path class="st7" d="M783.5,325.4c-0.7,0.2-1,0.3-1.2,0.4c-0.1,0-0.4-0.2-0.4-0.3c0-0.2,0.1-0.3,0.6-0.3
		C782.7,325.2,783,325.3,783.5,325.4z"/>
	<path class="st7" d="M235.6,249.3c-0.1-0.2-0.2-0.3-0.1-0.4c0-0.1,0.4-0.1,0.6-0.1c0.1,0.1,0.1,0.3,0.1,0.4
		C236.2,249.2,235.9,249.2,235.6,249.3L235.6,249.3z"/>
	<path class="st7" d="M616.1,346.8l-0.5,0.3c-0.2-0.1-0.4-0.1-0.5-0.2l0.2-0.2C615.6,346.7,615.8,346.8,616.1,346.8L616.1,346.8z"/>
	<path class="st7" d="M310,291.5c0.3,0.1,0.5,0.1,0.6,0.2c0.2,0.1-0.2,0.4-0.6,0.3c-0.2,0-0.5-0.1-0.5-0.2S309.8,291.6,310,291.5
		L310,291.5z"/>
	<path class="st7" d="M302.5,328.5c-0.3,0.1-0.5,0.2-0.8,0.3c-0.1,0-0.4-0.1-0.5-0.2c-0.1-0.2,0.1-0.3,0.5-0.3
		C302,328.3,302.1,328.4,302.5,328.5L302.5,328.5z"/>
	<path class="st7" d="M804.3,328.5c-0.2,0.1-0.3,0.2-0.5,0.3c-0.3,0.1-0.8-0.1-0.7-0.3c0-0.1,0.3-0.2,0.5-0.2S804,328.4,804.3,328.5
		L804.3,328.5z"/>
	<path class="st7" d="M830.1,268.8c-0.3,0.1-0.5,0.2-0.6,0.2s-0.5-0.1-0.5-0.2s0.3-0.2,0.5-0.2C829.6,268.6,829.8,268.7,830.1,268.8
		L830.1,268.8z"/>
	<path class="st7" d="M233.4,240.5c-0.1,0.1-0.2,0.1-0.3,0.2l-0.4-0.2c0.1,0,0.3-0.1,0.4-0.1S233.3,240.5,233.4,240.5z"/>
	<path class="st7" d="M466.2,467.1l-0.5,0.3c-0.2-0.1-0.4-0.1-0.5-0.2l0.2-0.2C465.7,467,465.9,467,466.2,467.1L466.2,467.1z"/>
	<path class="st7" d="M758.2,366.2c-0.2,0.1-0.3,0.2-0.5,0.3c-0.4,0-0.7,0-0.7-0.2c0-0.1,0.3-0.2,0.5-0.2
		C757.7,366,757.9,366.1,758.2,366.2L758.2,366.2z"/>
	<path class="st7" d="M529.8,338.8c-0.3,0.1-0.6,0.2-0.9,0.2c-0.1,0-0.4-0.2-0.4-0.3c0.2-0.1,0.5-0.2,0.7-0.3L529.8,338.8
		L529.8,338.8z"/>
	<path class="st7" d="M399.7,437.5c-0.1,0-0.3-0.1-0.4-0.1l0.4-0.2c0.1,0.1,0.3,0.1,0.3,0.2S399.7,437.4,399.7,437.5L399.7,437.5z"
		/>
	<path class="st7" d="M88.9,436.7h-0.5v-0.3c0.2,0,0.4,0,0.5,0C89,436.5,88.9,436.6,88.9,436.7z"/>
	<path class="st7" d="M528.4,330.8l-0.3,0.2c-0.2-0.1-0.4-0.1-0.5-0.2c0,0,0.2-0.1,0.2-0.2L528.4,330.8z"/>
	<path class="st7" d="M375.7,436.2c0.3,0.1,0.6,0.1,0.6,0.1c0,0.1-0.1,0.3-0.2,0.4c-0.1,0-0.4,0-0.4-0.1
		C375.7,436.5,375.7,436.3,375.7,436.2z"/>
	<path class="st7" d="M201.5,300c-0.4,0.1-0.6,0.2-0.8,0.2s-0.3-0.2-0.4-0.3c0,0,0.3-0.1,0.4-0.1C201,299.9,201.2,300,201.5,300
		L201.5,300z"/>
	<path class="st7" d="M291.3,246.6c-0.3,0-0.5,0-0.7,0c-0.1,0-0.1-0.1-0.2-0.2c0.2,0,0.5-0.1,0.7-0.1
		C291.2,246.3,291.2,246.5,291.3,246.6z"/>
	<path class="st7" d="M809.8,299.9c-0.2,0-0.3,0.1-0.5,0.1c-0.1-0.1-0.2-0.2-0.2-0.2s0.3-0.1,0.4-0.1
		C809.7,299.8,809.7,299.9,809.8,299.9z"/>
	<path class="st7" d="M106.3,371.7c0.1,0.1,0.3,0.1,0.3,0.2c-0.1,0.1-0.3,0.1-0.4,0.2c-0.1-0.1-0.2-0.1-0.2-0.2
		C105.9,371.8,106.1,371.8,106.3,371.7L106.3,371.7z"/>
	<path class="st7" d="M65.5,296.5l-0.6,0.2c-0.1-0.1-0.3-0.2-0.2-0.2c0.1-0.1,0.3-0.1,0.5-0.2L65.5,296.5L65.5,296.5z"/>
	<path class="st7" d="M694.4,256.6l-0.5,0.1c-0.1-0.1-0.1-0.2-0.2-0.3l0.4-0.1C694.3,256.4,694.3,256.5,694.4,256.6L694.4,256.6z"/>
	<path class="st7" d="M208.7,257.3c-0.1-0.1-0.2-0.2-0.2-0.3c0,0,0.3-0.1,0.5-0.1c0.1,0.1,0.1,0.2,0.1,0.3
		C209.2,257.2,209,257.2,208.7,257.3L208.7,257.3z"/>
	<path class="st7" d="M779.3,365.3c-0.3,0.1-0.5,0.2-0.7,0.2s-0.5-0.2-0.5-0.2c0-0.1,0.3-0.2,0.5-0.2S779.1,365.2,779.3,365.3
		L779.3,365.3z"/>
	<path class="st7" d="M377.1,438.7c-0.3,0.1-0.6,0.2-0.7,0.2c-0.2,0-0.3-0.2-0.4-0.2c0,0,0.3-0.1,0.4-0.1
		C376.6,438.5,376.8,438.6,377.1,438.7L377.1,438.7z"/>
	<path class="st7" d="M323.5,364l-0.7,0.2c-0.1-0.1-0.3-0.2-0.3-0.3c0,0,0.3-0.2,0.3-0.1C323.1,363.8,323.3,363.9,323.5,364
		L323.5,364z"/>
	<path class="st7" d="M883.7,335.2c-0.1,0.1-0.1,0.1-0.2,0.2c-0.1,0-0.3-0.1-0.4-0.1c0-0.1,0.1-0.1,0.2-0.2
		C883.4,335.1,883.6,335.1,883.7,335.2L883.7,335.2z"/>
	<path class="st7" d="M821.7,268.6c-0.1-0.1-0.2-0.1-0.3-0.2l0.6-0.2c0.1,0.1,0.2,0.2,0.2,0.2C822,268.5,821.8,268.5,821.7,268.6
		L821.7,268.6z"/>
	<path class="st7" d="M759.9,360.2c0.2,0.2,0.4,0.3,0.3,0.3c-0.1,0.1-0.4,0.1-0.6,0.2c-0.1-0.1-0.3-0.1-0.3-0.2
		C759.5,360.4,759.7,360.3,759.9,360.2L759.9,360.2z"/>
	<path class="st7" d="M879.4,252l-0.5,0.3c-0.2-0.1-0.4-0.1-0.5-0.2l0.2-0.2C878.9,251.9,879.1,252,879.4,252L879.4,252z"/>
	<path class="st7" d="M772.1,247c0,0.1-0.1,0.1-0.2,0.2l-0.6-0.2c0.1-0.1,0.2-0.1,0.3-0.2C771.8,246.9,771.9,247,772.1,247
		L772.1,247z"/>
	<path class="st7" d="M345,442.4l-1.2,0.2c-0.1-0.1-0.2-0.2-0.2-0.3c0,0,0.3-0.1,0.4-0.1C344.2,442.3,344.4,442.3,345,442.4z"/>
	<path class="st7" d="M678.9,307.9c0.1,0.1,0.2,0.2,0.2,0.2s-0.3,0.1-0.4,0.1c0-0.1-0.2-0.2-0.1-0.2
		C678.5,308,678.8,307.9,678.9,307.9z"/>
	<path class="st7" d="M818.8,418.1c0.2,0.1,0.5,0.2,0.5,0.3c0,0.1-0.3,0.2-0.5,0.3c-0.2-0.1-0.5-0.2-0.5-0.3
		C818.2,418.3,818.5,418.2,818.8,418.1L818.8,418.1z"/>
	<path class="st7" d="M849.3,251.6c0.2,0.1,0.5,0.2,0.5,0.3s-0.3,0.2-0.5,0.2c-0.2-0.1-0.5-0.2-0.5-0.2
		C848.9,251.8,849.1,251.7,849.3,251.6L849.3,251.6z"/>
	<path class="st7" d="M311.6,383.8h-0.5v-0.3c0.1,0,0.4,0,0.4,0C311.6,383.7,311.6,383.8,311.6,383.8L311.6,383.8z"/>
	<path class="st7" d="M715.2,352.9c0-0.1-0.1-0.2-0.1-0.3c0,0,0.3-0.1,0.4-0.1c0.1,0.1,0.2,0.2,0.2,0.3
		C715.8,352.8,715.5,352.9,715.2,352.9z"/>
	<path class="st7" d="M579.9,243.2c0.2,0.2,0.3,0.3,0.3,0.4s-0.3,0.1-0.5,0.2c-0.1-0.1-0.2-0.1-0.2-0.2
		C579.5,243.4,579.7,243.4,579.9,243.2L579.9,243.2z"/>
	<path class="st7" d="M517.5,315.2c0,0.1,0.1,0.2,0.1,0.3c0,0-0.3,0-0.4,0.1c-0.1-0.1-0.2-0.2-0.2-0.3
		C516.9,315.3,517.2,315.2,517.5,315.2z"/>
	<path class="st7" d="M793.6,259.4c-0.1,0-0.3,0.1-0.4,0.1s-0.2-0.1-0.3-0.2c0.1,0,0.3-0.1,0.4-0.1
		C793.4,259.3,793.5,259.4,793.6,259.4z"/>
	<path class="st7" d="M71.4,392.2l-0.3,0.2c-0.2-0.1-0.4-0.1-0.5-0.2c-0.1,0,0.2-0.1,0.2-0.2L71.4,392.2L71.4,392.2z"/>
	<path class="st7" d="M755.6,243.1c-0.1,0.1-0.2,0.1-0.2,0.2l-0.5-0.2l0.5-0.2C755.5,242.9,755.6,243,755.6,243.1L755.6,243.1z"/>
	<path class="st7" d="M133.1,261.6c0.1,0,0.2-0.1,0.4-0.1l0.3,0.3c-0.1,0-0.3,0.1-0.4,0.1C133.2,261.8,133.1,261.7,133.1,261.6
		L133.1,261.6z"/>
	<path class="st7" d="M474,325.7c-0.1,0.1-0.2,0.1-0.3,0.2c-0.1,0-0.3-0.1-0.4-0.1c0,0,0.2-0.1,0.2-0.2
		C473.8,325.6,473.9,325.6,474,325.7z"/>
	<path class="st7" d="M418.6,346c-0.2-0.1-0.5-0.2-0.5-0.3c0-0.1,0.3-0.2,0.5-0.3c0.2,0.1,0.5,0.2,0.5,0.3
		C419,345.7,418.8,345.8,418.6,346L418.6,346z"/>
	<path class="st7" d="M259.6,241.6c-0.2,0-0.4,0-0.5,0s0-0.1,0-0.2c0.2,0,0.4,0,0.5,0C259.6,241.4,259.5,241.5,259.6,241.6
		L259.6,241.6z"/>
	<path class="st7" d="M153,283.8c-0.2,0.1-0.4,0.2-0.6,0.3c-0.3,0.1-0.7-0.1-0.6-0.3c0.1-0.1,0.4-0.2,0.5-0.2
		C152.5,283.6,152.7,283.7,153,283.8L153,283.8z"/>
	<path class="st7" d="M256.4,241.4l-0.5,0.2c-0.1-0.1-0.3-0.1-0.2-0.2c0-0.1,0.2-0.2,0.3-0.2C256,241.2,256.1,241.3,256.4,241.4
		L256.4,241.4z"/>
	<path class="st7" d="M515.7,263.9c0.2,0,0.3,0,0.5,0.1l-0.3,0.3c-0.1,0-0.3-0.1-0.4-0.1C515.5,264,515.7,263.9,515.7,263.9
		L515.7,263.9z"/>
	<path class="st7" d="M706.5,336.8l-0.5,0.3c-0.2-0.1-0.4-0.1-0.5-0.2c0,0,0.2-0.2,0.3-0.2C705.9,336.7,706.2,336.8,706.5,336.8
		L706.5,336.8z"/>
	<path class="st7" d="M464.5,407.5c-0.1,0.1-0.2,0.1-0.4,0.2l-0.4-0.3c0.1,0,0.3-0.1,0.5-0.1C464.3,407.4,464.4,407.5,464.5,407.5z"
		/>
	<path class="st7" d="M404.9,391.1l-0.6,0.3c-0.1-0.1-0.4-0.2-0.4-0.2s0.2-0.2,0.3-0.2C404.4,390.9,404.6,391,404.9,391.1
		L404.9,391.1z"/>
	<path class="st7" d="M604.9,249.3c-0.1,0.1-0.1,0.1-0.2,0.2c-0.1,0-0.3-0.1-0.4-0.1c0-0.1,0.1-0.1,0.2-0.2
		C604.7,249.2,604.8,249.3,604.9,249.3L604.9,249.3z"/>
	<path class="st7" d="M133.6,405c-0.1,0-0.2,0.1-0.3,0.1l-0.1-0.1c0.1,0,0.2-0.1,0.3-0.1L133.6,405L133.6,405z"/>
	<path class="st7" d="M817.5,275.4l0.2,0.1c-0.1,0-0.2,0.1-0.3,0.1c0,0-0.1,0-0.2-0.1C817.3,275.5,817.4,275.5,817.5,275.4
		L817.5,275.4z"/>
	<path class="st7" d="M400.3,274.8c-0.1,0-0.2,0-0.2,0c-0.1,0-0.1-0.1-0.2-0.1l0.4-0.1L400.3,274.8L400.3,274.8z"/>
	<path class="st7" d="M60.5,289.7c-0.1,0-0.2-0.1-0.4-0.1c0.1,0,0.2-0.1,0.3-0.1c0,0,0.2,0,0.2,0.1L60.5,289.7L60.5,289.7z"/>
	<path class="st7" d="M500.5,294.5l0.1-0.1c0.1,0,0.2,0.1,0.3,0.1l-0.1,0.1C500.7,294.5,500.6,294.5,500.5,294.5L500.5,294.5z"/>
	<path class="st7" d="M251.4,408.6c-0.1,0-0.2,0.1-0.4,0.1c0-0.1-0.1-0.2,0-0.2c0,0,0.1,0,0.2-0.1
		C251.3,408.5,251.3,408.6,251.4,408.6L251.4,408.6z"/>
	<path class="st7" d="M683.6,295.7c-0.1,0-0.2,0.1-0.3,0.1s-0.2-0.1-0.2-0.2c0,0,0.1-0.1,0.2-0.1
		C683.4,295.6,683.5,295.6,683.6,295.7L683.6,295.7z"/>
	<path class="st7" d="M739.9,297.8c-0.1,0-0.3-0.1-0.4-0.1l0.4-0.2c0.1,0,0.3,0.1,0.3,0.2C740.1,297.7,740,297.7,739.9,297.8
		L739.9,297.8z"/>
	<path class="st7" d="M764.5,270.7l0.1-0.1c0.1,0,0.2,0.1,0.3,0.1l-0.1,0.1C764.7,270.7,764.6,270.7,764.5,270.7z"/>
	<path class="st7" d="M736.4,297.6c0.1,0,0.4,0,0.4,0.1c0,0-0.1,0.1-0.2,0.2c-0.1,0-0.4,0-0.4-0.1S736.4,297.7,736.4,297.6z"/>
	<path class="st7" d="M12.1,393.3c-0.1,0.1-0.1,0.1-0.2,0.2l-0.6-0.1c0.1,0,0.2-0.1,0.3-0.1C11.8,393.2,12,393.3,12.1,393.3
		L12.1,393.3z"/>
	<path class="st7" d="M108.6,283.1c0.1,0,0.3,0.1,0.4,0.1c-0.1,0-0.2,0.1-0.3,0.1h-0.2C108.5,283.3,108.6,283.2,108.6,283.1
		L108.6,283.1z"/>
	<path class="st7" d="M749.5,269.2c-0.1,0-0.3-0.1-0.4-0.1c0-0.1,0.1-0.1,0.1-0.2l0.6,0.1C749.6,269,749.5,269.1,749.5,269.2
		L749.5,269.2z"/>
	<path class="st7" d="M538.5,390.4c0.1,0,0.2,0,0.2,0c0.1,0,0.1,0.1,0.2,0.1l-0.4,0.1V390.4L538.5,390.4z"/>
	<path class="st7" d="M773.6,413.3l0.5-0.3c0.1,0.1,0.3,0.2,0.4,0.2c0,0-0.1,0.1-0.2,0.2L773.6,413.3L773.6,413.3z"/>
	<path class="st7" d="M203,303.3l-0.1,0.1c-0.1,0-0.2,0-0.2,0l0.1-0.1H203L203,303.3z"/>
	<path class="st7" d="M232.4,414l-0.3-0.2l0.4-0.1l0.1,0.1C232.6,413.8,232.5,413.9,232.4,414z"/>
	<path class="st7" d="M782.5,282.6L782.5,282.6c-0.2,0.1-0.3,0.1-0.3,0s0-0.1,0.1-0.1L782.5,282.6L782.5,282.6z"/>
	<path class="st7" d="M469,384.4l0.3,0.1c-0.1,0-0.2,0.1-0.4,0.1l-0.2-0.1C468.9,384.6,468.9,384.5,469,384.4L469,384.4z"/>
	<path class="st7" d="M802.3,382.6c-0.1-0.1-0.2-0.2-0.2-0.3c0-0.1,0.3-0.1,0.5-0.1c0,0.1,0.1,0.2,0.1,0.3
		C802.8,382.5,802.5,382.6,802.3,382.6z"/>
	<path class="st7" d="M854.5,381.5l-0.3,0.2c-0.2-0.1-0.4-0.1-0.5-0.2l0.2-0.2C854.2,381.4,854.3,381.4,854.5,381.5L854.5,381.5z"/>
	<path class="st7" d="M849.6,307.3l0.2,0.1c-0.1,0-0.2,0.1-0.3,0.1c0,0-0.1,0-0.2-0.1C849.4,307.4,849.5,307.4,849.6,307.3
		L849.6,307.3z"/>
	<path class="st7" d="M226.4,308.1c0.1,0,0.4,0,0.4,0.1s-0.1,0.1-0.1,0.2c-0.1,0-0.4,0-0.4-0.1C226.2,308.2,226.3,308.1,226.4,308.1
		L226.4,308.1z"/>
	<path class="st7" d="M638.5,421c0.2,0,0.4,0,0.4,0.1c0,0-0.1,0.1-0.2,0.2c-0.1,0-0.4,0-0.4-0.1C638.3,421.1,638.4,421,638.5,421
		L638.5,421z"/>
	<path class="st7" d="M536.5,378.4L536.5,378.4c0,0.1-0.1,0.1-0.1,0.1l-0.1-0.1H536.5L536.5,378.4z"/>
	<path class="st7" d="M700.3,237.2c0.1,0,0.2,0,0.2,0v0.1L700.3,237.2L700.3,237.2L700.3,237.2z"/>
	<path class="st7" d="M792.5,253.6l-0.2-0.1l0.3-0.1c0,0,0.1,0.1,0,0.1S792.6,253.6,792.5,253.6L792.5,253.6z"/>
	<path class="st7" d="M162.9,310.8l-0.1,0.1c-0.1,0-0.1,0-0.2,0l0.1-0.2L162.9,310.8L162.9,310.8z"/>
	<path class="st7" d="M286.6,375.9l-0.2,0.1c-0.1-0.1-0.2-0.1-0.3-0.2c0,0,0.1,0,0.2-0.1C286.5,375.8,286.6,375.9,286.6,375.9
		L286.6,375.9z"/>
	<path class="st7" d="M508.2,375.5c0.1,0,0.2,0.1,0.3,0.2l-0.5,0.1c-0.1-0.1-0.2-0.1-0.1-0.2C507.9,375.6,508,375.5,508.2,375.5
		L508.2,375.5z"/>
	<path class="st7" d="M542.9,254.1c0.1-0.1,0.1-0.2,0.2-0.2c0.1,0,0.3,0,0.4,0.1l-0.2,0.2C543.2,254.2,543.1,254.1,542.9,254.1
		L542.9,254.1z"/>
	<path class="st7" d="M366.8,375.3l0.1,0.1h-0.2L366.8,375.3L366.8,375.3z"/>
	<path class="st7" d="M696.7,237.8c0.1-0.1,0.1-0.2,0.2-0.2c0.1,0,0.3,0,0.4,0.1c-0.1,0.1-0.1,0.2-0.2,0.2S696.8,237.8,696.7,237.8z
		"/>
	<path class="st7" d="M331,430.3l0.1-0.1c0.1,0,0.2,0.1,0.3,0.1l-0.1,0.1C331.2,430.4,331.1,430.4,331,430.3z"/>
	<path class="st7" d="M618.8,319.7c0.1,0,0.2,0.1,0.3,0.1l-0.5,0.2c-0.1-0.1-0.2-0.1-0.2-0.2C618.5,319.8,618.7,319.7,618.8,319.7z"
		/>
	<path class="st7" d="M876.6,238.4l0.4,0.2l-0.5,0.2c-0.1-0.1-0.2-0.1-0.2-0.2C876.3,238.5,876.5,238.5,876.6,238.4z"/>
	<path class="st7" d="M851,373.5c-0.1,0.1-0.1,0.2-0.2,0.2c-0.1,0-0.3,0-0.4-0.1c0.1-0.1,0.1-0.2,0.2-0.2S850.9,373.5,851,373.5
		L851,373.5z"/>
	<path class="st7" d="M594,373.2c0.2,0,0.3,0.1,0.4,0.1c-0.1,0.1-0.1,0.2-0.2,0.2c-0.1,0-0.3,0-0.4-0.1
		C593.8,373.3,593.9,373.2,594,373.2z"/>
	<path class="st7" d="M216,265.5c0,0.1,0,0.1,0,0.2c0,0-0.1,0-0.2,0c0-0.1,0-0.1,0-0.2C215.7,265.5,215.9,265.5,216,265.5z"/>
	<path class="st7" d="M429.1,371.9c-0.1,0-0.2,0.1-0.3,0.1c-0.1-0.1-0.1-0.1-0.2-0.2l0.1-0.1C428.9,371.8,429,371.9,429.1,371.9
		L429.1,371.9z"/>
	<path class="st7" d="M754.4,329c-0.2,0-0.3,0-0.5,0c0-0.1,0-0.1,0.1-0.2h0.2C754.3,328.9,754.3,328.9,754.4,329z"/>
	<path class="st7" d="M782.6,238.6c0.2,0,0.3-0.1,0.5-0.1c0.1,0,0.1,0.1,0.2,0.2c-0.2,0-0.3,0.1-0.5,0.1S782.7,238.7,782.6,238.6
		L782.6,238.6z"/>
	<path class="st7" d="M377.4,239.6c-0.1,0-0.2,0.1-0.3,0.1c0-0.1-0.1-0.1-0.1-0.2c0,0,0.2-0.1,0.3-0.1
		C377.3,239.4,377.4,239.5,377.4,239.6z"/>
	<path class="st7" d="M32.2,263.7c-0.2,0-0.4,0-0.4-0.1c0,0,0.1-0.1,0.2-0.2c0.2,0,0.4,0,0.4,0.1C32.5,263.5,32.3,263.6,32.2,263.7z
		"/>
	<path class="st7" d="M444.4,338.5l0.1,0.1c-0.1,0-0.2,0.1-0.4,0.1l-0.1-0.1C444.1,338.5,444.3,338.5,444.4,338.5z"/>
	<path class="st7" d="M317.5,438c-0.1,0.1-0.1,0.1-0.2,0.2c-0.1,0-0.4-0.1-0.4-0.1s0.1-0.1,0.2-0.2C317.2,437.9,317.4,438,317.5,438
		L317.5,438z"/>
	<path class="st7" d="M155.8,364.7c-0.1-0.1-0.2-0.1-0.3-0.2c0.1,0,0.2-0.1,0.4-0.1c0,0,0.2,0.1,0.1,0.1
		C156,364.5,155.9,364.6,155.8,364.7L155.8,364.7z"/>
	<path class="st7" d="M669.6,344.2c0.1,0,0.1,0,0.2,0c0,0,0.1,0,0.1,0.1L669.6,344.2L669.6,344.2L669.6,344.2z"/>
	<path class="st7" d="M144.3,344.5c-0.1,0-0.3,0-0.4,0v-0.1c0.1,0,0.3,0,0.5,0L144.3,344.5L144.3,344.5z"/>
	<path class="st7" d="M147.5,280.8c-0.1-0.1-0.2-0.1-0.3-0.2l0.6-0.1c0.1,0.1,0.2,0.2,0.1,0.2C147.9,280.8,147.6,280.8,147.5,280.8
		L147.5,280.8z"/>
	<path class="st7" d="M222,280.5c-0.1,0.1-0.1,0.1-0.1,0.2l-0.5-0.2c0.1-0.1,0.2-0.1,0.3-0.2C221.8,280.4,221.9,280.4,222,280.5
		L222,280.5z"/>
	<path class="st7" d="M655,362.2c0.1,0,0.2-0.1,0.4-0.1c0.1,0.1,0.2,0.1,0.2,0.2c0,0-0.1,0.1-0.2,0.1
		C655.2,362.3,655.1,362.3,655,362.2L655,362.2z"/>
	<path class="st7" d="M528.9,346.4c0.1-0.1,0.1-0.1,0.2-0.2c0.1,0,0.3,0.1,0.4,0.1c0,0.1-0.1,0.1-0.2,0.2
		C529.2,346.5,529,346.5,528.9,346.4L528.9,346.4z"/>
	<path class="st7" d="M216.6,347.6c0.1,0,0.2-0.1,0.3-0.2c0.1,0.1,0.2,0.1,0.3,0.2c0,0-0.1,0.1-0.2,0.1
		C216.9,347.6,216.7,347.6,216.6,347.6L216.6,347.6z"/>
	<path class="st7" d="M547.9,257.6c0.1,0,0.3,0.1,0.3,0.1c0,0.1-0.1,0.1-0.2,0.2l-0.5-0.2C547.6,257.7,547.8,257.7,547.9,257.6
		L547.9,257.6z"/>
	<path class="st7" d="M665.3,241.3l-0.7,0.2c-0.1-0.1-0.3-0.2-0.4-0.3c0,0,0.2-0.1,0.3-0.1C664.8,241.1,665,241.2,665.3,241.3z"/>
	<path class="st7" d="M840,347.4c0.1,0,0.2,0.1,0.3,0.2c-0.1,0-0.3,0.1-0.4,0.1c0,0-0.2-0.1-0.1-0.1
		C839.8,347.5,839.9,347.5,840,347.4L840,347.4z"/>
	<path class="st7" d="M814.8,449.7c-0.1,0.1-0.1,0.2-0.2,0.2c-0.1,0-0.3,0-0.4-0.1c0.1-0.1,0.1-0.2,0.2-0.2S814.7,449.7,814.8,449.7
		L814.8,449.7z"/>
	<path class="st7" d="M132.1,349.3c0.1,0,0.2,0,0.2,0l-0.1,0.1C132.2,349.4,132,349.4,132.1,349.3
		C132,349.3,132.1,349.3,132.1,349.3z"/>
	<path class="st7" d="M90,357c-0.1,0-0.2,0.1-0.3,0.1c-0.1-0.1-0.2-0.1-0.2-0.2c0,0,0.1-0.1,0.2-0.1C89.8,356.9,89.9,356.9,90,357
		L90,357z"/>
	<path class="st7" d="M811.6,448.5c0.1,0,0.3,0.1,0.4,0.1c-0.1,0.1-0.1,0.2-0.2,0.2c-0.1,0-0.4,0-0.4-0.1
		C811.4,448.7,811.5,448.6,811.6,448.5L811.6,448.5z"/>
	<path class="st7" d="M183.2,243.5c-0.1,0.1-0.2,0.1-0.3,0.2c-0.1,0-0.3-0.1-0.3-0.1c0-0.1,0.1-0.1,0.2-0.2
		C183,243.4,183.1,243.5,183.2,243.5z"/>
	<path class="st7" d="M656.5,353c-0.2,0-0.3,0-0.5,0v-0.1c0.2,0,0.3,0,0.5,0V353z"/>
	<path class="st7" d="M384.2,353.2c-0.1,0-0.3-0.1-0.3-0.1s0.2-0.1,0.3-0.1c0.1,0,0.2,0.1,0.3,0.1
		C384.4,353.1,384.3,353.1,384.2,353.2L384.2,353.2z"/>
	<path class="st7" d="M781.5,352.1c-0.1,0-0.3,0-0.4,0V352c0.2,0,0.3,0,0.4,0V352.1z"/>
	<path class="st7" d="M698.7,285.8c0.1,0,0.1,0,0.2,0c0,0,0.1,0,0.1,0.1L698.7,285.8L698.7,285.8L698.7,285.8z"/>
	<path class="st7" d="M844.7,248.9c0.1,0,0.3,0.1,0.3,0.1c0,0.1-0.2,0.1-0.2,0.2c-0.1,0-0.2-0.1-0.2-0.1S844.7,249,844.7,248.9
		L844.7,248.9z"/>
	<path class="st7" d="M250.1,412.1l-0.2,0.1V412L250.1,412.1L250.1,412.1z"/>
	<path class="st7" d="M485.4,390.2c0.1,0,0.2,0,0.2,0s0,0.1-0.1,0.1s-0.2,0-0.2,0L485.4,390.2L485.4,390.2z"/>
	<path class="st7" d="M520.9,357.9L520.9,357.9c-0.2,0.1-0.3,0.1-0.3,0s0.1-0.1,0.1-0.1L520.9,357.9z"/>
	<polygon class="st7" points="509.2,387.7 509,387.7 509.2,387.6 	"/>
	<path class="st7" d="M608,303.6l0.1,0.1l-0.3,0.1v-0.1C607.8,303.7,607.9,303.7,608,303.6L608,303.6z"/>
	<path class="st7" d="M38.2,380.3v0.1l-0.3-0.1l0.1-0.1C38,380.3,38.1,380.3,38.2,380.3z"/>
	<path class="st7" d="M282,257.8c-0.1,0-0.3,0-0.4,0v-0.1C281.8,257.7,281.9,257.7,282,257.8L282,257.8z"/>
	<path class="st7" d="M550.5,346.5l-0.2,0.1c-0.1,0-0.2-0.1-0.2-0.1s0.1,0,0.1-0.1C550.3,346.4,550.4,346.4,550.5,346.5L550.5,346.5
		z"/>
	<path class="st7" d="M151.1,422.9l0.1,0.1l-0.3,0.1V423C151,422.9,151.1,422.9,151.1,422.9L151.1,422.9z"/>
	<path class="st7" d="M818,345.1c-0.2,0-0.3,0.1-0.5,0.1c0-0.1-0.2-0.2-0.1-0.2c0,0,0.3-0.1,0.4-0.1C817.9,344.9,818,345,818,345.1
		L818,345.1z"/>
	<path class="st7" d="M664.6,309.9c-0.1,0-0.2,0.1-0.3,0.1c-0.1-0.1-0.2-0.1-0.3-0.2c0,0,0.1-0.1,0.2-0.1
		C664.3,309.8,664.5,309.9,664.6,309.9z"/>
	<path class="st7" d="M812.2,281.9H812l0.1-0.2c0.1,0,0.2,0,0.2,0.1C812.4,281.8,812.3,281.9,812.2,281.9L812.2,281.9z"/>
	<path class="st7" d="M1.7,375.2c-0.1,0-0.2,0.1-0.3,0.1c-0.1-0.1-0.2-0.1-0.2-0.2l0.1-0.1C1.5,375.1,1.6,375.1,1.7,375.2L1.7,375.2
		z"/>
	<path class="st7" d="M616.5,371.1l-0.1,0.1c-0.1,0-0.2-0.1-0.3-0.1l0.1-0.1C616.3,371,616.4,371.1,616.5,371.1L616.5,371.1z"/>
	<path class="st7" d="M225,362.4c0.1,0,0.4,0,0.4,0.1s-0.1,0.1-0.2,0.2c-0.1,0-0.4,0-0.4-0.1C224.8,362.6,224.9,362.5,225,362.4
		L225,362.4z"/>
	<path class="st7" d="M660.1,239.1c-0.1,0-0.2,0.1-0.3,0.1c-0.1-0.1-0.2-0.1-0.2-0.2c0,0,0.1-0.1,0.2-0.1
		C659.9,239,660,239,660.1,239.1L660.1,239.1z"/>
	<path class="st7" d="M742.4,370.7l0.1,0.1c-0.1,0-0.2,0.1-0.3,0.1c0-0.1,0-0.1,0-0.2C742.2,370.8,742.3,370.7,742.4,370.7
		L742.4,370.7z"/>
	<polygon class="st7" points="790.5,262.9 790.6,263 790.4,263 	"/>
	<polygon class="st7" points="494.8,468.3 494.9,468.2 495,468.3 	"/>
	<polygon class="st7" points="362,331.1 362.1,331.2 361.9,331.2 	"/>
	<path class="st7" d="M565.6,330.5l-0.1,0.1l-0.1-0.1c0,0,0.1,0,0.1-0.1L565.6,330.5L565.6,330.5z"/>
	<polygon class="st7" points="748.3,254.4 748.4,254.5 748.3,254.5 	"/>
	<path class="st7" d="M755.3,275.9L755.3,275.9c-0.1,0.1-0.2,0.1-0.2,0c0,0,0,0,0-0.1L755.3,275.9L755.3,275.9z"/>
	<polygon class="st7" points="140.3,319 140.3,318.9 140.4,318.9 	"/>
	<path class="st7" d="M493.7,316.8l0.1,0.1c0,0-0.1,0-0.1,0.1C493.7,316.9,493.7,316.9,493.7,316.8L493.7,316.8z"/>
	<polygon class="st7" points="136,455.6 135.8,455.6 135.9,455.6 	"/>
	<polygon class="st7" points="562.2,245.2 562,245.2 562.1,245.1 	"/>
	<polygon class="st7" points="665.7,247.1 665.7,247.2 665.6,247.2 	"/>
	<polygon class="st7" points="802.4,417.1 802.3,417 802.5,417 	"/>
	<path class="st7" d="M128.3,387.5h-0.2H128.3z"/>
	<polygon class="st7" points="46.2,411.5 46.2,411.5 46.4,411.5 	"/>
	<path class="st7" d="M99.1,270.8C99.1,270.7,99,270.7,99.1,270.8C99,270.6,99.1,270.7,99.1,270.8L99.1,270.8z"/>
	<polygon class="st7" points="334.1,394.9 333.9,395 334,394.9 	"/>
	<polygon class="st7" points="204.2,409 204.3,409.1 204.1,409.1 	"/>
	<polygon class="st7" points="668.2,349.5 668,349.5 668.2,349.4 	"/>
	<polygon class="st7" points="790.6,273.7 790.5,273.8 790.5,273.7 	"/>
	<path class="st7" d="M142.8,290.2h0.2l0.1,0.1C143,290.3,142.9,290.3,142.8,290.2C142.8,290.3,142.8,290.2,142.8,290.2L142.8,290.2
		z"/>
	<path class="st7" d="M787.3,286.3L787.3,286.3H787C787.1,286.3,787.2,286.3,787.3,286.3C787.2,286.2,787.3,286.3,787.3,286.3
		L787.3,286.3z"/>
	<polygon class="st7" points="270,350.6 269.8,350.6 269.9,350.6 	"/>
</g>
</svg>
