<?xml version="1.0" encoding="UTF-8"?><svg id="Layer_1" xmlns="http://www.w3.org/2000/svg" viewBox="0 0 890.88 495.98"><defs><style>.cls-1{fill:#fff;}.cls-2{fill:#e5e5e5;}.cls-3{fill:#7f7f7f;}.cls-4{fill:#4c4c4c;}.cls-5{opacity:.67;}.cls-6{opacity:.48;}.cls-7{opacity:.88;}.cls-8{opacity:.72;}.cls-9{isolation:isolate;opacity:.4;}</style></defs><g><g class="cls-5"><path class="cls-4" d="M891.77,272.02c-167.41-17.22-157.67-198.12-323.55-93.99C346.66,317.13,150.18,279.33-.76,261.85v144.87c35.78,34.44,70.37,67.62,84.8,90.57H891.77v-225.27h0Z"/></g><g class="cls-7"><path class="cls-3" d="M891.77,278.61c-18.63-.9-39.07-1.48-61.52-1.7-168.1-1.63-291.84-134.28-549.03-28.53C174.82,292.14,75.68,301.74-.76,302.27v195.02H891.77v-218.68Z"/></g><g class="cls-6"><path class="cls-2" d="M891.77,229.93c-151.21,6.68-349.08,62.35-450.75,69-146.43,9.59-315.4-23.43-441.78-35.56v233.92H891.77V229.93Z"/></g><g class="cls-8"><path class="cls-1" d="M891.77,328.72c-106.69,23.22-263.83,7.38-394.81-12.01C382.42,299.75,159.24,219.8-.76,233.5V497.29H891.77v-168.57Z"/></g></g><g><path class="cls-9" d="M739.05,305.16c1.37-1.01,1.9-1.13,3.25-.59,1.16,.46,2.28,.88,3.76,.97,.7,.04,1.17,.38,1.2,.77,.06,.67,.1,1.35-.06,2.02-.16,.7-1.89,1.01-2.55,.42-1.48-1.35-4.04-2.16-5.6-3.59h0Z"/><path class="cls-9" d="M854.19,259.54c-2.17-.28-4.23-.2-6.29-.07h-.28c-1.01-.02-1.64-.23-1.79-.59-.17-.4,.39-.71,1.59-.87,.82-.11,1.67-.18,2.47-.32,2.2-.39,4.29-.07,6.36,.29,.35,.06,.72,.35,.8,.56,.12,.31-.16,.65-.75,.76-.7,.13-1.46,.17-2.1,.24h-.01Z"/><path class="cls-9" d="M641,349.85c.54,.77,.52,.98-.26,1.2-1.59,.45-3.18,.9-5.08,.7-.45-.05-1.02-.1-1.37,.01-1.85,.57-3.99,.53-5.91,.94-.65,.14-1.29,.18-1.89-.02-.64-.21-1.3-.43-1.28-.93,.01-.31,.79-.48,1.91-.25,2.28,.47,4.4,.27,6.54-.24,1.2-.28,2.42-.55,3.65-.8,1.21-.25,2.34-.65,3.69-.61h0Z"/><path class="cls-9" d="M548.57,354.1c-.03,.08-.07,.29-.16,.48-.14,.3-.73,.48-1.31,.43-1.06-.1-1.89-.42-2.61-.84-.6-.35-1.07-.74-.68-1.25,.36-.47,1.58-.88,2.5-.83,.34,.02,.73,.12,.99,.24,.92,.43,1.27,.92,1.27,1.77h0Z"/><path class="cls-9" d="M431.39,319.17c.03,.88-.93,1.3-2.22,1.14-1.09-.14-1.84-.56-1.9-1.17-.03-.3,.04-.63,.26-.89,.34-.41,.72-.89,1.75-.87,1.02,.02,1.38,.48,1.67,.91,.23,.33,.34,.69,.43,.89h0Z"/><path class="cls-9" d="M755.3,315.73c.16,.14,.25,.18,.25,.23,0,1.29,0,2.58-.06,3.86,0,.13-.43,.31-.73,.37-.16,.03-.59-.11-.66-.22-.28-.43-.63-.88-.66-1.33-.06-.72,.05-1.45,.21-2.17,.09-.44,.64-.71,1.65-.75h0Z"/><path class="cls-9" d="M830.1,425.02c-.07,.2-.11,.35-.18,.5-.14,.29-.86,.46-1.38,.33-1.65-.41-2.78-1.86-2.16-2.77,.23-.34,1.05-.48,1.66-.27,.93,.31,1.52,.77,1.81,1.34,.15,.3,.18,.61,.25,.88h0Z"/><path class="cls-9" d="M700.89,330.02c-1.39,.51-2.56,.93-3.7,1.37-.55,.21-1.1,.44-1.79,.34-.41-.06-.94-.2-1.1-.39-.16-.18-.07-.54,.18-.7,.47-.3,1.07-.6,1.72-.76,1.29-.33,2.7-.37,4.1-.21,.21,.02,.35,.2,.59,.35h0Z"/><path class="cls-9" d="M733.47,352.56c.04,.32-.55,.66-1.06,.56-1.06-.21-2.11-.42-3.12-.7-.69-.19-.64-.79,0-1.06,.15-.06,.3-.13,.47-.16,1.53-.32,3.59,.44,3.69,1.36h.02Z"/><path class="cls-9" d="M459.03,391.09c-.28,.3-.41,.56-.71,.73-.97,.52-2.23,.71-3.54,.79-.41,.02-.84-.31-.76-.54,.34-.91,2.3-1.65,4.02-1.46,.35,.04,.63,.3,.99,.49h0Z"/><path class="cls-9" d="M557.12,458.79c-.6-.44-1.14-.8-1.57-1.19-.17-.16-.14-.39-.14-.59,0-.28,.59-.42,1.01-.25,.14,.06,.22,.16,.34,.24,.12,.08,.25,.15,.49,.28,.53-.05,1.15-.13,1.77-.16,.64-.03,1.29,0,2.18,0-.92,.95-2.12,1.45-4.08,1.66h0Z"/><path class="cls-9" d="M462.61,359.33c.32,.02,.53,0,.67,.04,1.14,.36,1.77,1.16,1.42,1.83-.17,.32-.62,.55-1.21,.5-.4-.03-.91-.18-1.11-.36-.54-.49-.72-1.05-.37-1.61,.1-.17,.43-.3,.6-.41h0Z"/><path class="cls-9" d="M479.55,304.45c-.16-.08-.46-.16-.52-.27-.25-.43-.6-.71-1.54-.72-.35,0-.83-.24-.99-.43-.24-.3,.03-.6,.53-.79,.23-.09,.46-.17,.71-.24,.61-.17,1.48-.04,1.57,.33,.13,.57,.51,1.01,1.12,1.47,.29,.22-.1,.58-.87,.67v-.02Z"/><path class="cls-9" d="M499.06,328.28c-1.28,.2-2.15,.38-3.04,.44-.35,.03-.85-.16-1.14-.32-.38-.22-.25-.54,.16-.68,.86-.3,1.78-.56,2.72-.78,.52-.12,1.18,.11,1.28,.43,.09,.29,.02,.6,.02,.91h0Z"/><path class="cls-9" d="M438.55,317.95c-1.08-.01-1.67-.33-2.11-.73-.42-.38-.37-.78,.1-1.14,.37-.29,1.21-.36,1.73-.14,.81,.33,1.31,1.13,.94,1.64-.12,.16-.47,.27-.66,.38h0Z"/><path class="cls-9" d="M510.49,467.95c.09,.57-.5,1.16-1.34,1.34-.26,.06-.78-.01-.98-.13-.9-.52-.75-1.29,.34-1.72,.24-.09,.77-.12,1-.03,.43,.15,.74,.4,.98,.54Z"/><path class="cls-9" d="M297.38,405.07c-.01-.59,.54-.91,1.34-.9,.86,.01,1.48,.3,1.48,.72,0,.25-.08,.5-.19,.75-.14,.31-.41,.58-1.09,.56-.6-.02-1.03-.21-1.24-.52-.16-.23-.24-.49-.29-.61h-.01Z"/><path class="cls-9" d="M356.45,422.58c-.02,.08-.03,.24-.08,.38-.15,.42-.66,.69-1.28,.68-.64-.01-1.01-.24-1.19-.55-.12-.19-.18-.4-.17-.6,.02-.46,.83-.81,1.73-.78,.61,.02,1,.33,1,.86h-.01Z"/><path class="cls-9" d="M256.03,295.88c-.71,.22-1.04,.38-1.43,.42-.79,.09-1.41-.12-1.99-.41-1.31-.66-1.44-1.13-.45-1.92,.63,.75,1.92,1.38,3.86,1.9h0Z"/><path class="cls-9" d="M868.77,258.78c1.18-.02,2.11,.31,2.31,.83,.09,.22-.02,.57-.29,.71-.24,.13-.92,.15-1.25,.05-.56-.16-1.07-.42-1.46-.7-.17-.12-.14-.41,0-.58,.14-.16,.53-.25,.69-.32h0Z"/><path class="cls-9" d="M645.65,212.79c.07-.12,.14-.33,.32-.49,.13-.11,.4-.23,.63-.24,.22,0,.61,.07,.68,.17,.34,.46,.65,.94,.85,1.43,.06,.14-.23,.41-.48,.47-.27,.07-.74,.02-1.03-.07-.81-.26-.96-.71-.98-1.26h.01Z"/><path class="cls-9" d="M327.64,239c.61,.92,1.82,1.6,3.64,2.03-.1,.13-.16,.35-.3,.37-2.33,.25-4.26-.78-3.86-2.04,.03-.08,.22-.15,.52-.35h0Z"/><path class="cls-9" d="M806.96,329.59c.28,.08,.84,.16,1.24,.35,.45,.21,.61,.57,.22,.84-.25,.17-.75,.25-1.18,.32-.25,.04-.55-.03-.82-.08-.84-.13-1.23-.41-1.1-.76,.14-.39,.66-.64,1.64-.67Z"/><path class="cls-9" d="M511.82,343.65c-.6-.3-1.11-.5-1.49-.76-.44-.3-.36-.65,.06-.82,.51-.2,1.05-.2,1.56-.04,.71,.23,1.02,.61,.84,1.04-.08,.19-.54,.34-.96,.57h-.01Z"/><path class="cls-9" d="M680.75,276.74c-.07,.35-.09,.71-.23,1.05-.04,.1-.42,.23-.65,.22-.22,0-.59-.14-.61-.24-.13-.61-.23-1.22-.22-1.83,0-.14,.4-.32,.69-.4,.39-.1,.91,.15,.94,.42,.03,.25,0,.51,0,.77h.08Z"/><path class="cls-9" d="M406.68,345.24c-.86-.03-1.51-.33-1.55-.72-.04-.46,.73-.79,1.73-.75,.8,.04,1.3,.4,1.19,.86-.1,.38-.66,.63-1.37,.61h0Z"/><path class="cls-9" d="M682.76,386.47s-.2-.14-.27-.28c-.31-.62,.44-1.27,1.54-1.36,.42-.03,.94,.18,.99,.42,.13,.6-.82,1.2-2.26,1.22h0Z"/><path class="cls-9" d="M85.63,329.61c-.15,.1-.38,.4-.71,.45-.36,.05-.95-.06-1.23-.21-.63-.35-.68-.97-.16-1.28,.16-.1,.51-.16,.75-.14,.82,.07,1.29,.45,1.36,1.18h0Z"/><path class="cls-9" d="M405.98,320c-.91-.02-1.47-.32-1.39-.74,.07-.38,.61-.63,1.33-.61,.84,.02,1.45,.35,1.42,.76-.03,.35-.62,.61-1.36,.59h0Z"/><path class="cls-9" d="M760.9,291.6c-.25-1.25,.59-1.87,2.15-2.35-.09,.85-.26,1.03-2.15,2.35Z"/><path class="cls-9" d="M296.45,346.51c.05,.52-.39,.85-1.17,.88-.56,.02-1.14-.22-1.22-.51-.13-.49,.48-.92,1.38-.97,.52-.03,.98,.24,1.02,.6h0Z"/><path class="cls-9" d="M140.27,432.66c-.1,.19-.12,.42-.32,.57-.19,.14-.58,.3-.85,.29-.26-.01-.67-.22-.71-.37-.08-.34-.05-.71,.09-1.04,.06-.15,.47-.32,.76-.35,.54-.06,.8,.19,.94,.44,.08,.14,.06,.3,.08,.46h.01Z"/><path class="cls-9" d="M832.37,256.24c-.91-.05-1.4-.33-1.38-.78,.02-.42,.55-.69,1.25-.64,.81,.05,1.25,.37,1.21,.87-.03,.35-.48,.58-1.07,.55h-.01Z"/><path class="cls-9" d="M371.23,291.23c.69,.04,1.14,.39,1.01,.77-.14,.41-.73,.73-1.28,.69-.57-.04-1.03-.41-1-.82s.58-.69,1.26-.64h0Z"/><path class="cls-9" d="M394.16,218.9c0,.29,.06,.41-.01,.5-.19,.22-.36,.47-.67,.62-.31,.15-1.03-.16-1.17-.5-.08-.19-.1-.41-.05-.6,.08-.31,.77-.66,1.14-.54,.34,.11,.52,.37,.76,.57,.04,.04,.02,.1,0-.04h0Z"/><path class="cls-9" d="M317.8,393.35c.18-.11,.33-.29,.53-.31,1.29-.11,2.59-.2,3.89-.25,.3-.01,.65,.17,.92,.3,.1,.04,.1,.2,.04,.29-.05,.08-.24,.14-.39,.18-.07,.02-.19,.02-.27,0-.77-.19-1.48-.5-2.38-.4-.71,.08-1.4,.23-2.1,.36l-.26-.17h.02Z"/><path class="cls-9" d="M474.59,333.25c.61,0,1.11,.33,1.1,.74,0,.33-.44,.62-.95,.64-.77,.03-1.53-.29-1.62-.66-.08-.36,.67-.73,1.47-.72Z"/><path class="cls-9" d="M756.18,330.59c-.74,.02-1.43-.32-1.54-.74-.07-.3,.45-.59,1.03-.57,.68,.02,1.1,.28,1.11,.73,0,.26-.08,.51-.61,.59h0Z"/><path class="cls-9" d="M275.04,310.04c-.72-.02-1.14-.31-1.11-.74,.03-.35,.45-.57,1.08-.57,.84,0,1.39,.35,1.25,.82-.09,.31-.6,.52-1.23,.5h.01Z"/><path class="cls-9" d="M864.49,276.52c.97,1.03,1.05,1.11,.74,1.67-.08,.14-.53,.21-.81,.31-.14-.12-.41-.25-.38-.37,.1-.5,.28-1,.46-1.61h-.01Z"/><path class="cls-9" d="M750.84,259.93c-.16,.18-.3,.43-.59,.61-.3,.19-.75,.34-1.25,.17-.52-.17-.54-.66-.05-.96,.42-.26,1.11-.33,1.51-.15,.13,.06,.2,.17,.38,.34h0Z"/><path class="cls-9" d="M118.93,255.61c.5-.03,.96,.25,1.01,.61,.05,.42-.36,.73-1.03,.76-.55,.03-.88-.16-.98-.43-.17-.44,.36-.9,1.01-.94h-.01Z"/><path class="cls-9" d="M820.88,255.55c.69,.64,1.24,1.09,1.68,1.58,.14,.15,.07,.39-.04,.57-.04,.07-.58,.14-.66,.09-.94-.6-1.19-1.29-.99-2.24h0Z"/><path class="cls-9" d="M351.17,255.24c-.83,0-1.54-.35-1.44-.72,.07-.25,.67-.49,1.24-.49,.71,0,1.26,.28,1.26,.64,0,.31-.47,.56-1.06,.57Z"/><path class="cls-9" d="M766.04,335.69c-.15-.08-.52-.18-.61-.33-.22-.37,.31-.76,1.16-.88,.4-.06,.71,.08,.77,.32,.12,.48-.33,.82-1.32,.89h0Z"/><path class="cls-9" d="M732.49,273.44c-.17,.21-.36,.49-.62,.74-.05,.05-.37,.06-.51,.02-.74-.19-.74-.55-.64-.92,.04-.15,.18-.29,.33-.42,.09-.08,.32-.17,.45-.15,.25,.03,.54,.09,.69,.2,.16,.11,.17,.29,.29,.53h.01Z"/><path class="cls-9" d="M5.35,233.03c.88-.06,1.54,.25,1.46,.62-.05,.21-.37,.48-.7,.56-.65,.16-1.67-.24-1.53-.6,.09-.24,.57-.44,.78-.59h-.01Z"/><path class="cls-9" d="M92.23,305.22c-.19-.11-.62-.25-.75-.46-.21-.31,.44-.65,1.2-.69,.47-.02,.95,.19,.99,.44,.05,.37-.51,.7-1.44,.7h0Z"/><path class="cls-9" d="M818.96,439.4c-.49-.27-.97-.44-1.16-.67-.24-.29,.48-.59,1.26-.57,.65,.01,1.21,.28,1,.55-.19,.24-.64,.41-1.1,.7h0Z"/><path class="cls-9" d="M31.87,387.15c-.29,.13-.58,.34-.94,.39-.22,.03-.62-.15-.82-.29-.15-.1-.13-.29-.14-.44-.02-.27,.12-.53,.64-.59,.51-.06,.84,.15,1.01,.4,.09,.14,.14,.29,.25,.52h0Z"/><path class="cls-9" d="M757.77,459.57c-.4-.17-.78-.29-1.06-.46-.64-.38-.8-.83-.35-.89,.7-.1,1.28,.05,1.67,.36,.19,.15,.28,.37,.27,.56,0,.12-.27,.23-.53,.43h0Z"/><path class="cls-9" d="M317.97,274.12c-.14,.11-.36,.33-.67,.48-.12,.06-.61,.01-.7-.07-.18-.16-.27-.37-.28-.57-.01-.26,.13-.51,.69-.58,.5-.06,.99,.25,.95,.72v.02Z"/><path class="cls-9" d="M744.11,262.51c-.03-.3,.47-.57,1.07-.54,.52,.02,.82,.19,.83,.49,0,.29-.27,.48-.76,.55-.53,.08-1.1-.19-1.13-.5h-.01Z"/><path class="cls-9" d="M577.98,201.69c-.05,.33-.57,.57-1.16,.52-.48-.04-.89-.3-.8-.54,.12-.32,.4-.59,1.06-.64,.49-.04,.96,.31,.9,.66h0Z"/><path class="cls-9" d="M417.34,220.33c-.6,.02-1.09-.28-1.13-.7-.03-.28,.2-.49,.71-.55,.61-.07,1.16,.2,1.27,.61,.08,.32-.33,.63-.86,.64h.01Z"/><path class="cls-9" d="M607.55,298.94c-.28-.1-.69-.19-.68-.26,.02-.17,.16-.4,.4-.49,.28-.1,.71-.12,1.07-.1,.21,.01,.53,.15,.56,.24,.03,.12-.16,.29-.35,.37-.29,.11-.66,.16-1,.24h0Z"/><path class="cls-9" d="M729.73,318.82c-.56,.24-.9,.46-1.34,.56-.39,.09-.84-.21-.81-.47,.04-.29,.57-.55,1.15-.48,.29,.03,.53,.2,1,.39Z"/><path class="cls-9" d="M729.83,349.14c-.27,.2-.39,.38-.6,.42-.21,.04-.51-.04-.77-.08-.08-.01-.14-.06-.2-.1-.51-.33-.62-.67-.21-.82,.2-.07,.62-.12,.76-.06,.39,.18,.68,.42,1.02,.64h0Z"/><path class="cls-9" d="M783,405.95c.32-.08,.76-.27,1.23-.29,.56-.03,.93,.36,.75,.68-.16,.28-.52,.41-1.05,.39-.6-.03-1.05-.33-.93-.77h0Z"/><path class="cls-9" d="M532.06,462.66c-.14,.1-.29,.32-.58,.4-.53,.15-.84-.1-1.1-.32-.1-.08-.14-.19-.16-.29-.06-.3,.21-.52,.7-.58,.52-.06,.88,.12,1.02,.4,.05,.1,.06,.2,.11,.4h0Z"/><path class="cls-9" d="M677.56,327.34c.44,.29,.8,.45,.94,.66,.16,.24-.32,.49-.82,.49-.55,0-.94-.18-.89-.46,.03-.2,.41-.37,.77-.68h0Z"/><path class="cls-9" d="M810.9,413.54c.2,.15,.62,.35,.73,.6,.14,.3-.45,.59-1.01,.55-.53-.03-.8-.22-.85-.5-.07-.34,.36-.64,1.12-.65h.01Z"/><path class="cls-9" d="M708.45,194.6c-.22,.04-.62,.21-.79,.15-.46-.15-.84-.39-1.18-.62-.07-.05,.13-.32,.29-.35,.91-.17,1.73,.18,1.68,.82Z"/><path class="cls-9" d="M583.27,350.54c.29-.06,.66-.21,1.04-.22,.63,0,1.08,.3,.88,.59-.11,.16-.43,.35-.72,.39-.57,.08-1.27-.32-1.21-.76h.01Z"/><path class="cls-9" d="M396.9,326.53c.72,.08,1.01,.39,.92,.76-.07,.28-.53,.49-.94,.43-.53-.08-.91-.4-.7-.72,.13-.2,.52-.34,.72-.46h0Z"/><path class="cls-9" d="M287.17,313.12c-.45,.26-.7,.49-1.06,.57-.47,.11-1.07-.19-1.18-.5-.11-.3,.4-.59,1.05-.51,.37,.04,.67,.25,1.18,.45h.01Z"/><path class="cls-9" d="M708.16,312.33c.31,.36,.62,.56,.64,.78,.03,.33-.61,.6-1.13,.52-.49-.08-.91-.29-.71-.56,.18-.24,.66-.41,1.21-.73h-.01Z"/><path class="cls-9" d="M151.93,306.95c-.2,.09-.48,.32-.85,.37-.47,.07-.96-.33-.81-.67,.07-.16,.38-.36,.67-.42,.51-.1,.99,.22,.99,.71h0Z"/><path class="cls-9" d="M738.72,294.95c-.5,.17-.76,.33-1.06,.36-.56,.04-1.06-.24-1.1-.54-.03-.24,.5-.52,.89-.42,.42,.11,.74,.34,1.27,.6h0Z"/><path class="cls-9" d="M191.18,288.97c.4,.37,.74,.6,.86,.85,.12,.24-.4,.5-.83,.48-.53-.03-1-.31-.88-.64,.07-.2,.44-.37,.84-.69h.01Z"/><path class="cls-9" d="M112.11,279.23c-.02-.46,.47-.78,.98-.73,.53,.05,.75,.26,.78,.54,.04,.36-.44,.68-.93,.58-.36-.08-.64-.29-.83-.38h0Z"/><path class="cls-9" d="M764.47,264.84c-.23,.08-.54,.26-.92,.31-.53,.07-.95-.25-.84-.6,.08-.26,.3-.48,.87-.46,.52,.02,.96,.33,.89,.75Z"/><path class="cls-9" d="M486.32,363.24c.19,.25,.38,.38,.36,.51-.05,.28-.37,.47-.92,.48-.35,.01-.71-.29-.49-.46,.24-.18,.62-.32,1.05-.53h0Z"/><path class="cls-9" d="M517.68,302.3c.01,.41-.2,.62-.76,.64-.51,.02-.93-.11-.98-.4-.06-.29,.28-.52,.78-.51,.35,0,.7,.19,.96,.27h0Z"/><path class="cls-9" d="M334.41,385.46c-.19,.1-.44,.33-.8,.39-.49,.09-1-.23-1.06-.56-.05-.26,.32-.51,.79-.52,.58-.02,1.04,.22,1.07,.69h0Z"/><path class="cls-9" d="M137.57,297.56c.47,.07,.76,.09,.98,.16,.57,.17,.82,.58,.43,.75-.24,.11-.69,.16-.99,.12-.62-.08-.97-.41-.8-.68,.08-.13,.27-.25,.38-.34h0Z"/><path class="cls-9" d="M130.7,259.11c-.46,.21-.74,.43-1.09,.48-.44,.06-.91-.34-.83-.64,.06-.25,.59-.49,.96-.38,.34,.1,.57,.31,.97,.54h-.01Z"/><path class="cls-9" d="M62.05,308.69c.39,.19,.75,.28,.86,.44,.23,.3-.24,.61-.85,.64-.49,.02-1.03-.22-.89-.46,.12-.21,.5-.36,.88-.62h0Z"/><path class="cls-9" d="M820.99,253.11c-.61-.55-.73-.96-.13-1.37,.73,.27,.77,.73,.13,1.37Z"/><path class="cls-9" d="M120.49,244.06c.21-.09,.5-.29,.85-.33,.51-.07,.93,.16,.89,.41-.03,.2-.35,.46-.68,.56-.4,.13-1.03-.21-1.06-.64Z"/><path class="cls-9" d="M866.04,283.06c-.32-.05-.55-.04-.65-.1-.56-.32-.53-.83,.1-1.07,.17-.07,.69-.05,.74,0,.17,.21,.31,.46,.28,.69-.02,.17-.32,.33-.47,.47h0Z"/><path class="cls-9" d="M217.13,289.29c-.47,.23-.73,.46-1.07,.51-.49,.07-.85-.13-.88-.42-.03-.28,.2-.54,.72-.52,.35,.01,.68,.23,1.23,.43h0Z"/><path class="cls-9" d="M727.4,317.47c-.4,.22-.6,.39-.88,.46-.41,.09-1.02-.21-.87-.42,.11-.15,.47-.32,.75-.35,.25-.02,.55,.16,1.01,.31h-.01Z"/><path class="cls-9" d="M475.89,398.35c-.82-.5-.43-.83-.16-1.24,.41,.35,.46,.77,.16,1.24Z"/><path class="cls-9" d="M336.16,415.69c-.56,.18-.83,.32-1.14,.35-.53,.05-1-.2-.83-.44,.11-.16,.51-.38,.72-.36,.36,.03,.66,.23,1.24,.45h.01Z"/><path class="cls-9" d="M602.37,250.71c.39,.22,.77,.36,.92,.56,.14,.18-.49,.4-.98,.37-.51-.03-.94-.29-.75-.5,.13-.15,.46-.25,.82-.43h-.01Z"/><path class="cls-9" d="M488.48,396.53c-.38,.22-.6,.44-.94,.52-.37,.09-.82-.22-.76-.48,.07-.27,.33-.49,.85-.45,.26,.02,.48,.22,.84,.41h.01Z"/><path class="cls-9" d="M875.14,319.63c-.19-.15-.46-.27-.46-.39,0-.18,.14-.37,.28-.54,.03-.04,.37-.04,.49,0,.44,.16,.54,.41,.34,.66-.09,.11-.39,.16-.65,.26h0Z"/><path class="cls-9" d="M89.21,320.4c-.31,.23-.46,.42-.73,.52-.37,.13-.94-.14-.84-.43,.06-.16,.36-.38,.62-.42,.21-.03,.53,.18,.94,.33h0Z"/><path class="cls-9" d="M682.24,325.24c-.32-.05-.59-.06-.63-.11-.14-.17-.31-.38-.23-.54s.43-.29,.7-.41c.09-.04,.43,.01,.47,.06,.12,.17,.26,.38,.2,.55-.06,.17-.35,.31-.51,.44h0Z"/><path class="cls-9" d="M230.94,325.35c-.49,.17-.88,.36-1.33,.44-.13,.02-.61-.23-.63-.37-.05-.34,.71-.59,1.35-.46,.2,.04,.33,.2,.61,.38h0Z"/><path class="cls-9" d="M101.99,436.79c-.55,.19-.87,.38-1.22,.41-.51,.04-.79-.19-.83-.47-.04-.25,.41-.49,.88-.41,.35,.06,.64,.25,1.17,.47Z"/><path class="cls-9" d="M366.14,330.32c-.38,.22-.62,.43-.96,.52-.12,.03-.63-.19-.71-.33-.18-.31,.34-.68,.81-.61,.28,.05,.49,.23,.87,.43h-.01Z"/><path class="cls-9" d="M414.2,333.47c-.57,.18-.87,.35-1.12,.33-.28-.02-.65-.18-.76-.33-.15-.21,.15-.42,.54-.39,.36,.03,.69,.19,1.33,.39h.01Z"/><path class="cls-9" d="M668.52,262.7c.49,.26,.88,.4,1.06,.59,.23,.25-.19,.57-.64,.55-.52-.03-.89-.19-.88-.49,0-.17,.23-.33,.46-.65Z"/><path class="cls-9" d="M714.21,345.18c.66,.04,1.14,.51,.83,.81-.04,.04-.18,.1-.21,.09-.31-.09-.73-.15-.87-.29s-.01-.37,.02-.56c0-.02,.15-.03,.23-.05Z"/><path class="cls-9" d="M867.88,238.25c.12,.32-.35,.74-.76,.66-.34-.06-.58-.3-.97-.52h0"/><path class="cls-9" d="M294.33,261.44c-.46,.14-.73,.3-1.01,.31-.46,.01-.62-.23-.5-.42,.1-.15,.46-.35,.69-.34,.23,0,.44,.24,.81,.46h.01Z"/><path class="cls-9" d="M752.53,264.42c-.51,.2-.82,.37-1.19,.43-.12,.02-.56-.26-.56-.41,0-.26,.32-.5,.88-.44,.27,.03,.48,.22,.88,.42h-.01Z"/><path class="cls-9" d="M698.15,370.6c-.49,.18-.75,.32-1.04,.35-.14,.01-.53-.2-.5-.28,.07-.16,.33-.3,.51-.45l1.02,.38h0Z"/><path class="cls-9" d="M782.98,293.2c-.51,.18-.76,.33-1.05,.35-.41,.03-.81-.3-.64-.53,.08-.11,.43-.28,.53-.26,.34,.07,.63,.23,1.16,.44Z"/><path class="cls-9" d="M856.28,367.41c-.43,.18-.68,.36-.96,.37-.44,.02-.68-.21-.56-.42,.09-.16,.43-.27,.66-.41l.87,.45h0Z"/><path class="cls-9" d="M744.28,243.54c-.39,.17-.63,.34-.92,.38-.39,.05-.79-.3-.6-.56,.11-.14,.54-.31,.77-.28,.25,.02,.43,.26,.75,.47h0Z"/><path class="cls-9" d="M379.05,246.14l-.86,.55c-.18-.1-.46-.19-.52-.31-.14-.29,.19-.58,.61-.54,.22,.02,.41,.16,.76,.3h0Z"/><path class="cls-9" d="M579.58,217.45c.41,.52,.67,.86,.99,1.26-.79-.07-1.12-.49-.99-1.26Z"/><path class="cls-9" d="M223.41,286.27c-.65,.12-1.02,.22-1.39,.23-.13,0-.39-.2-.41-.32-.04-.25,.49-.5,.91-.41,.27,.06,.45,.24,.89,.49h0Z"/><path class="cls-9" d="M15.72,364.47c.22-.1,.29-.16,.35-.15,.41,.03,.82,.07,1.23,.12,.02,0,.02,.13,0,.13-.41,.03-.82,.05-1.23,.06-.06,0-.13-.06-.36-.16h0Z"/><path class="cls-9" d="M778.37,411.78c-.35,.19-.53,.37-.8,.43-.4,.09-.93-.18-.79-.42,.09-.15,.42-.35,.67-.36,.24-.01,.51,.19,.91,.35h.01Z"/><path class="cls-9" d="M843.25,278.83c-.42,.2-.71,.37-1.06,.49-.06,.02-.5-.16-.51-.26-.04-.28,.26-.5,.78-.53,.19-.01,.41,.15,.79,.29h0Z"/><path class="cls-9" d="M694.2,250.93c-.26-.28-.57-.45-.52-.58,.06-.13,.5-.32,.72-.29,.24,.02,.57,.25,.57,.39,0,.12-.39,.25-.78,.48h.01Z"/><path class="cls-9" d="M445.82,247.64c-.34,.16-.55,.31-.82,.36-.12,.02-.56-.2-.53-.24,.13-.16,.33-.31,.58-.42,.06-.03,.39,.14,.77,.29h0Z"/><path class="cls-9" d="M468.38,400.3c-.06-.11-.29-.31-.2-.44,.11-.15,.48-.25,.74-.38,.21,.14,.57,.27,.61,.42,.07,.26-.46,.46-1.14,.39h0Z"/><path class="cls-9" d="M826.36,314.04c-.09,.09-.17,.27-.37,.34-.16,.06-.66,0-.67-.04-.08-.24-.1-.49-.07-.73,0-.06,.3-.17,.4-.16,.23,.04,.46,.13,.61,.23,.1,.07,.06,.2,.1,.35h0Z"/><path class="cls-9" d="M42.01,255.1c.21,.16,.49,.28,.46,.37-.03,.11-.32,.2-.5,.29-.17-.1-.48-.19-.48-.29,0-.11,.28-.21,.52-.38h0Z"/><path class="cls-9" d="M419.17,291.79l-1.05,.32c-.14-.17-.37-.33-.4-.5-.01-.09,.42-.29,.53-.26,.28,.07,.49,.22,.92,.44h0Z"/><path class="cls-9" d="M788.97,272.71l-.86,.43c-.21-.15-.56-.29-.57-.44,0-.13,.37-.27,.58-.41l.85,.42Z"/><path class="cls-9" d="M590.23,452.33c-.51-.29-.9-.43-1.03-.62-.14-.19,.16-.4,.57-.37,.28,.03,.63,.18,.73,.32,.09,.13-.11,.32-.27,.67h0Z"/><path class="cls-9" d="M306.67,270.39c-.25,.15-.44,.32-.72,.4-.12,.04-.55-.07-.61-.16-.14-.22,.4-.52,.83-.48,.14,.01,.25,.12,.5,.24h0Z"/><path class="cls-9" d="M22.42,235.49c.72,.13,.83,.39,.69,.63-.08,.14-.49,.33-.72,.32-.6-.03-.63-.33-.52-.57,.07-.15,.39-.27,.55-.38Z"/><path class="cls-9" d="M699.06,298.18c-.32,.16-.52,.32-.8,.39-.09,.02-.55-.2-.52-.26,.09-.16,.33-.31,.57-.42,.04-.02,.38,.15,.75,.3h0Z"/><path class="cls-9" d="M711.87,347.35c.54-.14,.82-.27,1.11-.27,.17,0,.52,.23,.48,.3-.11,.17-.39,.3-.61,.44-.25-.12-.5-.24-.98-.47Z"/><path class="cls-9" d="M362.86,258.35c-.4,.23-.58,.4-.86,.47-.42,.11-.99-.14-.87-.39,.08-.15,.41-.34,.68-.37,.25-.02,.56,.15,1.04,.29h0Z"/><path class="cls-9" d="M235.48,303.15l-.75-.52c.25-.11,.48-.25,.77-.31,.1-.02,.5,.17,.49,.24-.03,.16-.25,.3-.51,.59h0Z"/><path class="cls-9" d="M295.85,388c-.41,.16-.61,.31-.83,.32-.44,.02-.7-.16-.62-.39,.04-.11,.39-.28,.53-.26,.29,.03,.53,.18,.92,.33h0Z"/><path class="cls-9" d="M614.81,458.68c-.37,.1-.59,.19-.84,.23-.38,.06-.79-.15-.66-.34,.08-.11,.37-.25,.57-.25,.21,0,.41,.15,.93,.36Z"/><path class="cls-9" d="M303.33,300.91l-.86,.36c-.13-.11-.39-.23-.37-.32,.03-.11,.27-.27,.47-.3,.14-.02,.38,.12,.76,.26h0Z"/><path class="cls-9" d="M250.83,393.29v-1.18c.31,.34,.31,.73,0,1.18Z"/><path class="cls-9" d="M634.88,300.95c-.23-.25-.47-.4-.48-.55,0-.1,.31-.21,.49-.31,.2,.14,.47,.27,.56,.42,.04,.08-.26,.22-.56,.44h-.01Z"/><path class="cls-9" d="M90.46,258.19c.26,.11,.51,.17,.61,.27,.18,.18-.13,.46-.45,.4-.2-.03-.45-.17-.49-.28-.04-.1,.18-.23,.33-.39h0Z"/><path class="cls-9" d="M20.44,350.78c-.21-.16-.46-.27-.44-.37,.02-.1,.29-.19,.46-.29,.16,.1,.44,.19,.45,.29s-.25,.21-.47,.37Z"/><path class="cls-9" d="M124.95,469.43c.24,.37,.43,.53,.42,.69-.02,.19-.25,.39-.68,.3-.18-.04-.38-.24-.35-.35,.04-.16,.27-.3,.62-.64h-.01Z"/><path class="cls-9" d="M96.52,414.13c-.26-.21-.55-.39-.51-.42,.18-.14,.46-.25,.74-.31,.09-.02,.49,.23,.45,.29-.1,.15-.39,.26-.68,.44Z"/><path class="cls-9" d="M787.89,428.14c-.39,.14-.71,.31-.79,.28-.25-.1-.46-.25-.58-.41-.03-.04,.42-.26,.55-.24,.28,.05,.49,.21,.83,.38h-.01Z"/><path class="cls-9" d="M331.17,382.09c-.53,.14-.85,.3-1.08,.26-.25-.04-.41-.26-.6-.4,.25-.1,.51-.28,.75-.28s.47,.2,.93,.41h0Z"/><path class="cls-9" d="M343.56,260.37c-.44,.07-.78,.17-.86,.12-.22-.12-.34-.3-.5-.46,.21-.05,.5-.17,.61-.13,.26,.09,.43,.26,.75,.47Z"/><path class="cls-9" d="M511.83,377.2c-.31,.15-.52,.3-.79,.36-.11,.02-.54-.2-.51-.25,.11-.16,.36-.3,.56-.44l.74,.33h0Z"/><path class="cls-9" d="M468.58,375.71c.4,.15,.69,.2,.79,.3,.19,.21,.03,.41-.38,.46-.18,.02-.57-.1-.6-.18-.05-.15,.09-.33,.19-.58Z"/><path class="cls-9" d="M267.62,315.07c-.27,.08-.44,.18-.54,.16-.25-.05-.52-.13-.66-.24-.13-.1-.09-.27-.13-.41,.24,0,.55-.04,.7,.03,.26,.11,.42,.3,.63,.46Z"/><path class="cls-9" d="M870.32,392.38c-.43,.19-.71,.39-.95,.38-.25-.01-.65-.24-.64-.37,0-.14,.39-.36,.65-.38,.23-.02,.52,.19,.95,.37h-.01Z"/><path class="cls-9" d="M294.23,264.41c-.34,.26-.44,.41-.64,.47-.29,.1-.7-.13-.59-.36,.06-.12,.3-.29,.5-.31,.22-.02,.47,.12,.73,.19h0Z"/><path class="cls-9" d="M791.8,411.4c-.15-.16-.35-.32-.45-.49-.04-.07,.17-.25,.2-.25,.25,.03,.56,.07,.7,.17s.16,.27,.15,.41c0,.04-.29,.08-.6,.15h0Z"/><path class="cls-9" d="M691.2,405.47l-.77,.36c-.21-.14-.47-.27-.59-.43-.04-.05,.38-.29,.5-.27,.28,.04,.51,.19,.85,.34h.01Z"/><path class="cls-9" d="M372.03,282.39c-.22-.17-.51-.29-.49-.39,.02-.11,.33-.2,.51-.3,.17,.1,.47,.2,.48,.31,.01,.1-.27,.22-.5,.38h0Z"/><path class="cls-9" d="M644.68,181.55c.12,.27,.28,.45,.24,.61-.02,.09-.39,.23-.56,.21-.44-.04-.55-.26-.4-.47,.08-.11,.34-.18,.72-.36h0Z"/><path class="cls-9" d="M728.48,321.83c.27,.12,.53,.18,.64,.29,.18,.18-.16,.45-.51,.39-.2-.03-.45-.18-.48-.29-.03-.1,.2-.23,.36-.39h-.01Z"/><path class="cls-9" d="M163.83,396.51l.6,.19-.48,.47c-.15-.05-.44-.11-.43-.14,.06-.17,.19-.33,.31-.52h0Z"/><path class="cls-9" d="M831.21,439.43l-.74,.49c-.23-.12-.62-.24-.64-.37-.02-.14,.31-.3,.48-.45,.25,.09,.5,.18,.89,.33h.01Z"/><path class="cls-9" d="M128.75,393.13c.25,.32,.52,.5,.46,.63s-.45,.22-.69,.33c-.16-.15-.45-.3-.45-.45,0-.13,.33-.26,.69-.51h-.01Z"/><path class="cls-9" d="M787.39,243.57c-.55,.05-.86,.12-1.14,.09-.13-.02-.18-.23-.27-.35,.24-.05,.49-.15,.7-.12,.19,.02,.33,.17,.71,.39h0Z"/><path class="cls-9" d="M378.29,237.72c.3,.21,.62,.35,.57,.42-.1,.16-.38,.28-.59,.41-.18-.1-.53-.21-.51-.3,.03-.16,.28-.31,.53-.54h0Z"/><path class="cls-9" d="M2.21,324.5c-.21-.15-.48-.27-.45-.36,.03-.11,.32-.19,.49-.29,.16,.1,.45,.19,.46,.29,0,.1-.27,.21-.49,.36h0Z"/><path class="cls-9" d="M490.17,400.01c.27,.05,.58,.1,.57,.12-.04,.13-.14,.26-.22,.38-.16-.03-.45-.06-.46-.1-.02-.13,.06-.26,.1-.4h0Z"/><path class="cls-9" d="M591.86,187.16l-.56,.36c-.14-.11-.34-.21-.41-.33-.03-.06,.2-.23,.27-.22,.21,.02,.4,.11,.7,.2h0Z"/><path class="cls-9" d="M749.13,234.06c-.21-.14-.46-.23-.49-.34-.06-.21,.16-.39,.59-.35,.17,.02,.39,.21,.38,.31-.01,.11-.26,.22-.48,.38h0Z"/><path class="cls-9" d="M281.36,436.77c.02-.07,.4-.1,.62-.15"/><path class="cls-9" d="M784.49,289c-.72,.28-.96,.41-1.25,.46-.09,.02-.43-.2-.44-.31-.02-.2,.14-.42,.64-.38,.27,.02,.51,.11,1.05,.23Z"/><path class="cls-9" d="M617.09,315.25l-.53,.33c-.16-.09-.37-.17-.47-.27-.04-.04,.17-.22,.25-.21,.22,.01,.42,.09,.75,.16h0Z"/><path class="cls-9" d="M310.97,247.6c.27,.12,.54,.18,.65,.29,.17,.18-.21,.44-.57,.38-.21-.03-.48-.18-.5-.29s.24-.23,.43-.39h0Z"/><path class="cls-9" d="M303.49,292.9c-.33,.14-.54,.28-.8,.33-.1,.02-.43-.16-.47-.27-.07-.2,.09-.4,.54-.37,.2,.01,.37,.15,.72,.31h0Z"/><path class="cls-9" d="M805.28,292.84c-.19,.15-.3,.3-.5,.36-.3,.1-.76-.12-.68-.33,.05-.12,.32-.28,.51-.29,.19,0,.4,.15,.67,.27h0Z"/><path class="cls-9" d="M467.25,462.24l-.54,.36c-.16-.1-.37-.18-.46-.29-.04-.05,.17-.24,.24-.23,.22,.01,.43,.09,.77,.17h0Z"/><path class="cls-9" d="M759.23,338.94c-.22,.14-.35,.29-.54,.32-.39,.06-.72-.06-.68-.3,.02-.1,.33-.24,.52-.25,.19,0,.41,.13,.7,.23h0Z"/><path class="cls-9" d="M530.84,305.42c-.34,.11-.59,.24-.88,.27-.09,.01-.44-.26-.38-.31,.15-.15,.45-.25,.69-.37l.58,.41h-.01Z"/><path class="cls-9" d="M400.66,426.03c-.13-.04-.26-.09-.39-.13l.39-.26c.1,.07,.27,.13,.27,.2s-.18,.13-.27,.2h0Z"/><path class="cls-9" d="M89.94,425.03l-.49,.04v-.37c.16,.02,.39,0,.47,.06s.02,.18,.02,.27Z"/><path class="cls-9" d="M529.36,295.63l-.32,.27c-.17-.08-.37-.15-.48-.24-.04-.03,.15-.15,.23-.22l.57,.19Z"/><path class="cls-9" d="M376.73,424.43c.33,.07,.61,.11,.6,.13-.03,.17-.12,.35-.19,.52-.15-.04-.43-.06-.44-.11-.04-.16,0-.33,.03-.54Z"/><path class="cls-9" d="M202.5,258.06c-.35,.11-.59,.24-.75,.22-.17-.02-.29-.19-.37-.31,0-.02,.29-.16,.41-.14,.21,.02,.39,.12,.72,.23h-.01Z"/><path class="cls-9" d="M810.78,257.94c-.15,.04-.3,.08-.45,.13-.06-.08-.21-.19-.17-.25,.04-.06,.27-.09,.42-.13,.07,.08,.13,.17,.2,.25Z"/><path class="cls-9" d="M107.28,345.62c.11,.07,.34,.17,.31,.2-.11,.1-.29,.18-.45,.27-.08-.08-.23-.17-.22-.25,.01-.07,.21-.13,.35-.21h.01Z"/><path class="cls-9" d="M66.55,253.7l-.59,.19c-.09-.08-.29-.21-.24-.25,.13-.11,.35-.18,.54-.27l.3,.32h-.01Z"/><path class="cls-9" d="M695.43,204.99l-.53,.12c-.06-.13-.14-.25-.16-.38,0-.02,.37-.1,.39-.08,.13,.1,.2,.22,.3,.34h0Z"/><path class="cls-9" d="M780.33,337.85c-.27,.13-.48,.3-.65,.29-.2-.01-.49-.19-.5-.3,0-.1,.3-.28,.49-.29,.18,0,.39,.16,.66,.29h0Z"/><path class="cls-9" d="M378.15,427.51c-.34,.11-.57,.24-.72,.22-.17-.03-.29-.19-.37-.3-.01-.02,.27-.15,.39-.14,.2,.02,.38,.12,.71,.23h-.01Z"/><path class="cls-9" d="M324.55,336.24l-.68,.24c-.1-.11-.26-.22-.29-.34-.01-.05,.28-.19,.33-.18,.2,.05,.36,.15,.63,.28h.01Z"/><path class="cls-9" d="M884.71,300.98c-.07,.08-.13,.16-.2,.24-.13-.05-.34-.08-.37-.14-.03-.07,.11-.16,.17-.24,.13,.05,.26,.1,.4,.15h0Z"/><path class="cls-9" d="M760.92,331.54c.16,.19,.38,.34,.33,.42-.08,.11-.38,.16-.58,.24-.09-.08-.3-.18-.26-.24,.07-.12,.27-.23,.52-.41h-.01Z"/><path class="cls-9" d="M346,432.09l-1.22,.29c-.09-.12-.22-.24-.24-.37,0-.04,.28-.14,.41-.13,.25,.01,.48,.09,1.05,.21Z"/><path class="cls-9" d="M679.91,267.67c.06,.09,.2,.19,.15,.26s-.27,.1-.42,.14c-.05-.09-.18-.19-.14-.26,.03-.06,.26-.09,.41-.14Z"/><path class="cls-9" d="M819.75,402.34c.23,.16,.52,.28,.51,.38-.01,.11-.32,.21-.49,.31-.18-.1-.48-.2-.51-.32-.02-.1,.27-.22,.49-.38h0Z"/><path class="cls-9" d="M312.59,360.47l-.46,.05v-.38c.14,.02,.37,.01,.44,.06,.08,.06,.02,.17,.02,.27h0Z"/><path class="cls-9" d="M716.23,322.67c-.03-.15-.1-.29-.06-.41,.01-.04,.29-.07,.44-.1,.06,.13,.16,.26,.15,.38,0,.04-.29,.07-.53,.13Z"/><path class="cls-9" d="M580.9,188.62c.16,.21,.35,.34,.3,.43s-.35,.13-.55,.19c-.08-.08-.25-.18-.21-.24,.05-.11,.23-.2,.46-.38h0Z"/><path class="cls-9" d="M518.49,276.59c.04,.14,.12,.27,.09,.4,0,.04-.29,.06-.44,.09-.08-.12-.17-.25-.2-.38,0-.02,.3-.06,.55-.11Z"/><path class="cls-9" d="M72.43,370.67l-.34,.29c-.17-.09-.39-.16-.49-.26-.05-.05,.15-.17,.24-.25l.6,.23h-.01Z"/><path class="cls-9" d="M475.03,289.39c-.09,.07-.18,.15-.27,.22-.13-.05-.34-.1-.38-.17-.03-.05,.16-.14,.25-.21,.13,.05,.27,.11,.4,.16Z"/><path class="cls-9" d="M419.56,314.18c-.22-.17-.49-.29-.48-.4,0-.11,.3-.21,.47-.31,.17,.11,.46,.21,.48,.32,.02,.11-.25,.23-.46,.39h-.01Z"/><path class="cls-9" d="M516.74,213.85c.16,.03,.32,.06,.49,.1l-.3,.32c-.14-.06-.35-.1-.39-.18-.03-.06,.13-.16,.2-.24h0Z"/><path class="cls-9" d="M707.5,303.03l-.55,.36c-.17-.09-.39-.17-.49-.27-.04-.04,.16-.23,.26-.23,.22,0,.43,.07,.78,.14h0Z"/><path class="cls-9" d="M465.46,389.44c-.12,.07-.23,.14-.35,.2l-.35-.32c.15-.04,.33-.14,.45-.12,.11,.02,.17,.15,.25,.24Z"/><path class="cls-9" d="M405.87,369.31l-.57,.34c-.15-.1-.35-.19-.43-.3-.03-.05,.19-.22,.28-.21,.21,.01,.41,.09,.73,.18h-.01Z"/><path class="cls-9" d="M605.93,196.06c-.07,.09-.14,.17-.21,.25-.13-.05-.35-.09-.37-.15-.02-.08,.11-.17,.17-.26,.14,.05,.28,.1,.41,.16h0Z"/><path class="cls-9" d="M134.64,386.33c-.1,.04-.2,.09-.3,.13-.04-.04-.13-.09-.11-.1,.09-.05,.2-.1,.3-.14l.11,.11h0Z"/><path class="cls-9" d="M401.28,227.2c-.08,.02-.17,.05-.24,.04-.07,0-.11-.07-.16-.1l.37-.07,.03,.14h0Z"/><path class="cls-9" d="M61.48,245.48c-.12-.05-.25-.1-.37-.14,.12-.05,.22-.11,.35-.15,.03,0,.2,.06,.19,.07-.04,.08-.11,.15-.17,.23h0Z"/><path class="cls-9" d="M501.48,251.23l.15-.11c.11,.05,.22,.1,.31,.15,.01,0-.09,.07-.14,.11-.11-.05-.21-.1-.32-.15h0Z"/><path class="cls-9" d="M252.4,390.77l-.36,.12c0-.1-.05-.2-.03-.29,0-.03,.13-.06,.2-.1,.07,.09,.13,.18,.2,.27h0Z"/><path class="cls-9" d="M684.63,252.7c-.1,.06-.19,.11-.29,.17-.08-.06-.17-.13-.23-.2-.01-.02,.12-.1,.15-.09,.13,.03,.25,.08,.37,.12h0Z"/><path class="cls-9" d="M740.86,255.28c-.14-.04-.27-.08-.41-.12l.36-.28c.11,.06,.3,.12,.31,.19,0,.07-.17,.14-.26,.21h0Z"/><path class="cls-9" d="M737.41,255.08c.14,.04,.36,.05,.41,.11,.04,.05-.1,.15-.16,.23-.14-.04-.36-.05-.4-.11-.04-.06,.1-.15,.15-.23Z"/><path class="cls-9" d="M13.12,372.07c-.06,.08-.12,.16-.18,.23l-.58-.15c.11-.06,.21-.16,.34-.18,.12-.02,.28,.06,.42,.1h0Z"/><path class="cls-9" d="M750.46,220.33c-.14-.05-.35-.08-.39-.14-.04-.08,.06-.18,.1-.27l.57,.18c-.09,.08-.19,.16-.28,.24h0Z"/><path class="cls-9" d="M539.48,368.51c.08-.02,.17-.05,.24-.04,.06,0,.1,.07,.15,.1l-.37,.08-.02-.14h0Z"/><path class="cls-9" d="M774.56,396.47l.53-.32c.13,.1,.3,.19,.36,.3,.03,.06-.14,.16-.22,.24l-.66-.22h-.01Z"/><path class="cls-9" d="M204.02,262.08l-.1,.12c-.07-.02-.19-.03-.21-.06s.06-.08,.09-.12l.22,.06h0Z"/><path class="cls-9" d="M233.45,397.3l-.31-.21,.4-.14s.15,.09,.14,.12c-.05,.08-.15,.15-.23,.23Z"/><path class="cls-9" d="M783.5,236.79l-.1,.11c-.07-.02-.18-.03-.2-.06s.05-.07,.08-.11l.21,.05h0Z"/><path class="cls-9" d="M470.03,361.21l.3,.18c-.12,.05-.23,.1-.35,.14-.02,0-.17-.07-.16-.09,.05-.08,.13-.14,.22-.22h0Z"/><path class="cls-9" d="M803.3,358.99c-.07-.13-.22-.27-.18-.38,.03-.07,.35-.1,.55-.15,.05,.13,.14,.27,.13,.4,0,.04-.28,.08-.5,.13Z"/><path class="cls-9" d="M855.55,357.6l-.27,.28c-.18-.07-.38-.12-.52-.21-.04-.03,.16-.22,.2-.21,.2,.03,.39,.09,.58,.15h.01Z"/><path class="cls-9" d="M850.58,266.98l.19,.08c-.09,.06-.17,.12-.27,.17,0,0-.12-.05-.18-.07,.09-.06,.17-.12,.26-.17h0Z"/><path class="cls-9" d="M227.37,267.86c.14,.04,.35,.06,.39,.12s-.09,.15-.15,.23c-.13-.04-.35-.06-.37-.11-.03-.07,.08-.16,.14-.24h-.01Z"/><path class="cls-9" d="M639.51,405.84c.15,.04,.37,.06,.41,.12s-.1,.16-.16,.24c-.14-.04-.38-.06-.41-.11-.04-.07,.09-.16,.15-.25h0Z"/><path class="cls-9" d="M537.47,353.8l.08,.12c-.07,.01-.16,.05-.21,.04-.05-.01-.06-.07-.09-.11l.22-.04h0Z"/><path class="cls-9" d="M701.34,181.21c.07,.02,.16,.02,.19,.05s-.01,.07-.02,.11l-.31-.08,.14-.09h0Z"/><path class="cls-9" d="M163.9,271.15s-.05,.1-.1,.11c-.05,.02-.15,0-.22-.01l.15-.19,.17,.08h0Z"/><path class="cls-9" d="M287.65,350.83l-.21,.09c-.09-.07-.19-.14-.26-.21,0,0,.13-.06,.2-.08,.09,.07,.19,.14,.28,.21h-.01Z"/><path class="cls-9" d="M509.19,350.3c.1,.06,.2,.13,.29,.19l-.52,.18c-.06-.08-.18-.17-.15-.24,.04-.06,.24-.09,.38-.13h0Z"/><path class="cls-9" d="M543.93,201.92c.07-.08,.1-.21,.21-.23,.11-.02,.29,.06,.44,.09l-.2,.25c-.15-.04-.3-.08-.44-.11h-.01Z"/><path class="cls-9" d="M367.85,350.05l.09,.14-.2,.04,.11-.18h0Z"/><path class="cls-9" d="M697.66,181.96c.07-.08,.1-.21,.21-.23,.11-.02,.29,.06,.43,.09-.07,.08-.1,.2-.21,.23-.1,.02-.28-.06-.43-.09Z"/><path class="cls-9" d="M332.03,417.28l.14-.1c.1,.05,.21,.09,.3,.15,0,0-.09,.07-.13,.1-.1-.05-.21-.1-.31-.15Z"/><path class="cls-9" d="M619.76,282.08c.12,.06,.24,.11,.35,.17l-.48,.24c-.07-.08-.21-.16-.19-.24,.01-.06,.21-.12,.32-.17Z"/><path class="cls-9" d="M852.01,347.9c-.07,.08-.1,.2-.21,.23-.1,.03-.28-.05-.43-.09,.07-.08,.1-.2,.21-.24,.09-.03,.28,.06,.43,.09h0Z"/><path class="cls-9" d="M594.96,347.42c.15,.03,.29,.07,.44,.1-.07,.08-.1,.2-.21,.22-.11,.02-.28-.06-.42-.09,.06-.08,.13-.15,.19-.23Z"/><path class="cls-9" d="M430.11,345.93c-.11,.06-.22,.11-.33,.17-.06-.07-.14-.14-.18-.22-.01-.03,.13-.1,.14-.1,.13,.04,.24,.1,.36,.15h0Z"/><path class="cls-9" d="M755.37,293.47c-.16,.01-.31,.02-.47,.04,.02-.08,.01-.17,.06-.25,.01-.02,.22-.04,.23-.03,.08,.07,.12,.16,.18,.24Z"/><path class="cls-9" d="M445.39,305.03s.14,.1,.13,.11c-.11,.06-.23,.1-.35,.15-.04-.04-.14-.11-.13-.11,.1-.06,.23-.1,.35-.15Z"/><path class="cls-9" d="M318.5,426.69c-.06,.08-.12,.16-.18,.25-.14-.04-.35-.07-.4-.14-.04-.06,.11-.15,.18-.23,.14,.04,.27,.09,.41,.13h-.01Z"/><path class="cls-9" d="M156.77,337.04c-.09-.07-.18-.13-.27-.2,.12-.04,.24-.09,.38-.12,.02,0,.16,.08,.14,.1-.06,.08-.16,.14-.25,.21h0Z"/><path class="cls-9" d="M670.62,312.01c.07-.01,.14-.04,.2-.04,.05,0,.09,.06,.13,.09l-.32,.06v-.12h-.01Z"/><path class="cls-9" d="M145.32,312.44c-.15-.01-.3-.03-.45-.04,0-.05,.03-.14,.04-.14,.15,0,.31,.02,.46,.03l-.05,.14h0Z"/><path class="cls-9" d="M655.95,334.08c.12-.06,.24-.12,.37-.18,.07,.08,.16,.15,.2,.23,.01,.02-.14,.1-.17,.1-.14-.04-.27-.1-.4-.15h0Z"/><path class="cls-9" d="M529.91,314.74c.07-.08,.14-.17,.21-.25,.13,.05,.34,.09,.36,.14,.02,.08-.1,.17-.17,.26-.13-.05-.27-.1-.4-.15h0Z"/><path class="cls-9" d="M217.62,316.13c.1-.06,.21-.13,.31-.19,.09,.07,.2,.14,.26,.22,.02,.02-.14,.11-.16,.11-.15-.04-.28-.09-.41-.14h0Z"/><path class="cls-9" d="M548.88,206.21c.11,.06,.31,.11,.32,.18,.02,.08-.12,.16-.19,.25l-.5-.24,.36-.18h.01Z"/><path class="cls-9" d="M666.35,186.22l-.71,.27c-.13-.1-.29-.2-.36-.32-.02-.03,.23-.17,.33-.16,.21,.02,.39,.1,.74,.21Z"/><path class="cls-9" d="M840.96,315.96c.1,.06,.2,.13,.3,.19-.14,.04-.27,.09-.41,.12-.02,0-.16-.09-.14-.11,.06-.07,.17-.14,.26-.2h-.01Z"/><path class="cls-9" d="M815.85,441c-.07,.07-.12,.19-.21,.2-.13,.02-.29-.04-.44-.07,.07-.07,.12-.19,.23-.21s.28,.05,.42,.08h0Z"/><path class="cls-9" d="M133.13,318.22c.07,.02,.18,.03,.2,.06s-.05,.08-.09,.12c-.07-.02-.19-.03-.2-.06-.02-.03,.05-.08,.09-.12Z"/><path class="cls-9" d="M91.03,327.64c-.11,.05-.22,.11-.32,.16-.07-.07-.15-.14-.19-.21,0-.02,.14-.09,.17-.08,.12,.03,.23,.09,.34,.13h0Z"/><path class="cls-9" d="M812.6,439.54c.14,.04,.29,.07,.43,.11-.06,.08-.1,.2-.2,.22-.1,.02-.36-.04-.4-.1-.04-.06,.1-.15,.17-.23h0Z"/><path class="cls-9" d="M657.51,322.78c-.15,0-.31,.02-.46,.01-.02,0-.03-.09-.04-.14,.15,0,.31-.02,.46-.01,.02,0,.03,.09,.04,.14Z"/><path class="cls-9" d="M385.2,323.01c-.1-.06-.29-.12-.29-.18s.2-.16,.3-.16c.12,0,.22,.11,.33,.17-.11,.06-.23,.11-.34,.17h0Z"/><path class="cls-9" d="M782.47,321.72c-.14-.01-.28-.02-.43-.03,.01-.04,.03-.12,.04-.12,.15,0,.29,.01,.44,.02l-.05,.13Z"/><path class="cls-9" d="M699.65,240.62c.07-.02,.14-.05,.2-.04,.05,0,.08,.06,.13,.09l-.31,.07v-.11h-.02Z"/><path class="cls-9" d="M251.15,394.97l-.16,.1,.04-.21,.12,.12h0Z"/><path class="cls-9" d="M486.39,368.23c.08,.02,.19,.03,.22,.06,.02,.02-.04,.11-.09,.11-.07,0-.16-.03-.24-.05l.1-.13h0Z"/><path class="cls-9" d="M521.87,328.82l-.1,.12c-.07-.02-.19-.03-.21-.06s.06-.08,.09-.12l.22,.06Z"/><polygon class="cls-9" points="510.2 365.25 510.05 365.16 510.23 365.13 510.2 365.25"/><path class="cls-9" d="M608.96,262.46l.14,.12-.33,.09s-.03-.1,0-.14c.03-.03,.12-.05,.19-.07h0Z"/><path class="cls-9" d="M39.16,356.2v.15l-.34-.07s.07-.09,.14-.12c.04-.01,.13,.03,.2,.04Z"/><path class="cls-9" d="M551.45,314.79l-.15,.09c-.07-.06-.16-.11-.21-.17-.01-.01,.09-.06,.14-.09,.07,.06,.15,.11,.22,.17h0Z"/><path class="cls-9" d="M152.14,408.16l.14,.13-.34,.1s-.02-.11,0-.15c.03-.03,.13-.05,.2-.08h0Z"/><path class="cls-9" d="M819.04,313.09l-.45,.12c-.05-.09-.18-.19-.14-.27,.03-.05,.27-.08,.41-.12l.18,.27h0Z"/><path class="cls-9" d="M665.61,270.14c-.1,.06-.21,.12-.31,.18-.09-.07-.19-.14-.26-.22-.01-.01,.14-.1,.17-.09,.14,.03,.27,.08,.4,.13Z"/><path class="cls-9" d="M2.7,349.88l-.3,.18c-.07-.07-.17-.14-.21-.22-.02-.03,.09-.08,.14-.12,.13,.05,.25,.1,.38,.15h0Z"/><path class="cls-9" d="M617.51,344.91l-.11,.12c-.11-.05-.22-.1-.31-.16-.02-.01,.07-.07,.12-.11,.1,.05,.2,.1,.31,.15h-.01Z"/><path class="cls-9" d="M226,334.29c.15,.03,.39,.05,.42,.1,.03,.07-.1,.17-.16,.25-.14-.04-.35-.06-.41-.12-.05-.05,.1-.15,.16-.23h0Z"/><path class="cls-9" d="M661.11,183.55l-.3,.15c-.07-.07-.15-.14-.19-.22-.01-.02,.14-.09,.17-.08,.12,.04,.22,.09,.32,.14h0Z"/><path class="cls-9" d="M743.4,344.47s.13,.1,.12,.1c-.09,.05-.2,.1-.3,.14-.01-.07-.04-.15-.03-.22,0-.01,.14-.02,.21-.03h0Z"/><polygon class="cls-9" points="495.77 463.75 495.88 463.64 495.96 463.76 495.77 463.75"/><polygon class="cls-9" points="363 296.06 363.06 296.15 362.9 296.14 363 296.06"/><path class="cls-9" d="M566.64,295.23l-.13,.08s-.09-.07-.09-.1,.08-.05,.12-.08l.1,.1h0Z"/><path class="cls-9" d="M756.32,228.55l-.06,.1c-.06,0-.15-.02-.19-.04-.02-.02,.03-.06,.05-.1l.19,.04h.01Z"/><polygon class="cls-9" points="141.34 281.26 141.28 281.15 141.45 281.17 141.34 281.26"/><path class="cls-9" d="M494.75,278.54s.1,.07,.1,.11c0,.03-.09,.06-.14,.09,.01-.07,.03-.13,.04-.2h0Z"/><polygon class="cls-9" points="136.97 448.23 136.78 448.23 136.88 448.13 136.97 448.23"/><polygon class="cls-9" points="563.2 190.98 563.05 190.98 563.12 190.89 563.2 190.98"/><polygon class="cls-9" points="666.67 193.4 666.73 193.5 666.56 193.48 666.67 193.4"/><polygon class="cls-9" points="803.38 401.09 803.33 400.99 803.48 401.01 803.38 401.09"/><polygon class="cls-9" points="129.27 365 129.1 364.94 129.29 364.9 129.27 365"/><polygon class="cls-9" points="47.21 394.34 47.21 394.26 47.36 394.3 47.21 394.34"/><polygon class="cls-9" points="335.12 374.05 334.93 374.08 334.96 373.99 335.12 374.05"/><polygon class="cls-9" points="205.25 391.24 205.33 391.35 205.14 391.33 205.25 391.24"/><polygon class="cls-9" points="669.18 318.51 669.03 318.46 669.2 318.42 669.18 318.51"/><path class="cls-9" d="M143.77,246.02l.2-.04,.06,.17c-.07,0-.16,0-.21-.03-.04-.02-.03-.06-.04-.1h0Z"/><path class="cls-9" d="M788.32,241.3l-.1,.11-.25-.16c.07-.02,.15-.06,.2-.05,.06,0,.1,.06,.15,.1h0Z"/><polygon class="cls-9" points="270.96 319.89 270.79 319.89 270.87 319.8 270.96 319.89"/></g></svg>