<?xml version="1.0" encoding="utf-8"?>
<!-- Generator: Adobe Illustrator 26.5.0, SVG Export Plug-In . SVG Version: 6.00 Build 0)  -->
<svg version="1.1" id="Layer_1" xmlns="http://www.w3.org/2000/svg" xmlns:xlink="http://www.w3.org/1999/xlink" x="0px" y="0px"
	 viewBox="0 0 890.9 496" style="enable-background:new 0 0 890.9 496;" xml:space="preserve">
<style type="text/css">
	.st0{opacity:0.67;}
	.st1{fill:#B3B3B3;}
	.st2{opacity:0.88;}
	.st3{fill:#808080;}
	.st4{opacity:0.48;}
	.st5{fill:#1A1A1A;}
	.st6{opacity:0.72;}
	.st7{opacity:0.4;fill:#FFFFFF;enable-background:new    ;}
</style>
<g>
	<g class="st0">
		<path class="st1" d="M891.8,311.7c-167.4-14.1-157.7-162.1-323.5-76.9c-221.6,113.8-418,82.9-569,68.6v118.5
			C35,450.1,69.6,477.2,84,496h807.7V311.7L891.8,311.7z"/>
	</g>
	<g class="st2">
		<path class="st3" d="M891.8,317.1c-18.6-0.7-39.1-1.2-61.5-1.4c-168.1-1.3-291.8-109.9-549-23.3C174.8,328.1,75.7,336-0.8,336.4
			V496h892.5V317.1z"/>
	</g>
	<g class="st4">
		<path class="st5" d="M891.8,277.2c-151.2,5.5-349.1,51-450.8,56.5c-146.4,7.8-315.4-19.2-441.8-29.1V496h892.5V277.2z"/>
	</g>
	<g class="st6">
		<path d="M891.8,358.1c-106.7,19-263.8,6-394.8-9.8c-114.5-13.9-337.7-79.3-497.7-68.1V496h892.5V358.1z"/>
	</g>
</g>
<g>
	<path class="st7" d="M381.5,235.4c-0.4,0.2-0.8,0.3-1.1,0H381.5z"/>
	<path class="st7" d="M738,338.8c1.4-0.8,1.9-0.9,3.2-0.5c1.2,0.4,2.3,0.7,3.8,0.8c0.7,0,1.2,0.3,1.2,0.6c0.1,0.5,0.1,1.1-0.1,1.7
		c-0.2,0.6-1.9,0.8-2.5,0.3C742.2,340.6,739.6,339.9,738,338.8L738,338.8z"/>
	<path class="st7" d="M853.2,301.5c-2.2-0.2-4.2-0.2-6.3-0.1c-0.1,0-0.2,0-0.3,0c-1,0-1.6-0.2-1.8-0.5c-0.2-0.3,0.4-0.6,1.6-0.7
		c0.8-0.1,1.7-0.1,2.5-0.3c2.2-0.3,4.3-0.1,6.4,0.2c0.3,0,0.7,0.3,0.8,0.5c0.1,0.3-0.2,0.5-0.8,0.6
		C854.6,301.4,853.8,301.4,853.2,301.5L853.2,301.5z"/>
	<path class="st7" d="M640,375.3c0.5,0.6,0.5,0.8-0.3,1c-1.6,0.4-3.2,0.7-5.1,0.6c-0.5,0-1-0.1-1.4,0c-1.8,0.5-4,0.4-5.9,0.8
		c-0.7,0.1-1.3,0.1-1.9,0c-0.6-0.2-1.3-0.4-1.3-0.8c0-0.3,0.8-0.4,1.9-0.2c2.3,0.4,4.4,0.2,6.5-0.2c1.2-0.2,2.4-0.4,3.7-0.7
		C637.5,375.6,638.6,375.3,640,375.3L640,375.3z"/>
	<path class="st7" d="M16.5,257.8c-0.3-0.1-1-0.1-1.4-0.4c-0.6-0.3-0.5-0.7,0-1.1c0.8-0.5,2-0.9,3.4-1c0.4,0,1,0.1,1.1,0.3
		C20.6,256.8,19.7,257.7,16.5,257.8L16.5,257.8z"/>
	<path class="st7" d="M547.6,378.8c0,0.1-0.1,0.2-0.2,0.4c-0.1,0.2-0.7,0.4-1.3,0.4c-1.1-0.1-1.9-0.3-2.6-0.7
		c-0.6-0.3-1.1-0.6-0.7-1c0.4-0.4,1.6-0.7,2.5-0.7c0.3,0,0.7,0.1,1,0.2C547.2,377.7,547.6,378.1,547.6,378.8L547.6,378.8z"/>
	<path class="st7" d="M430.4,350.2c0,0.7-0.9,1.1-2.2,0.9c-1.1-0.1-1.8-0.5-1.9-1c0-0.2,0-0.5,0.3-0.7c0.3-0.3,0.7-0.7,1.8-0.7
		c1,0,1.4,0.4,1.7,0.7C430.2,349.8,430.3,350.1,430.4,350.2L430.4,350.2z"/>
	<path class="st7" d="M754.3,347.4c0.2,0.1,0.2,0.1,0.2,0.2c0,1.1,0,2.1-0.1,3.2c0,0.1-0.4,0.3-0.7,0.3c-0.2,0-0.6-0.1-0.7-0.2
		c-0.3-0.4-0.6-0.7-0.7-1.1c-0.1-0.6,0-1.2,0.2-1.8C752.7,347.7,753.3,347.5,754.3,347.4L754.3,347.4z"/>
	<path class="st7" d="M829.1,436.8c-0.1,0.2-0.1,0.3-0.2,0.4c-0.1,0.2-0.9,0.4-1.4,0.3c-1.7-0.3-2.8-1.5-2.2-2.3
		c0.2-0.3,1-0.4,1.7-0.2c0.9,0.3,1.5,0.6,1.8,1.1C829,436.4,829,436.6,829.1,436.8L829.1,436.8z"/>
	<path class="st7" d="M699.9,359.1c-1.4,0.4-2.6,0.8-3.7,1.1c-0.5,0.2-1.1,0.4-1.8,0.3c-0.4,0-0.9-0.2-1.1-0.3
		c-0.2-0.1-0.1-0.4,0.2-0.6c0.5-0.2,1.1-0.5,1.7-0.6c1.3-0.3,2.7-0.3,4.1-0.2C699.5,358.8,699.6,359,699.9,359.1L699.9,359.1z"/>
	<path class="st7" d="M732.5,377.6c0,0.3-0.5,0.5-1.1,0.5c-1.1-0.2-2.1-0.3-3.1-0.6c-0.7-0.2-0.6-0.6,0-0.9c0.2,0,0.3-0.1,0.5-0.1
		C730.3,376.2,732.3,376.8,732.5,377.6L732.5,377.6z"/>
	<path class="st7" d="M458,409.1c-0.3,0.2-0.4,0.5-0.7,0.6c-1,0.4-2.2,0.6-3.5,0.6c-0.4,0-0.8-0.3-0.8-0.4c0.3-0.7,2.3-1.4,4-1.2
		C457.4,408.7,457.7,408.9,458,409.1L458,409.1z"/>
	<path class="st7" d="M556.1,464.5c-0.6-0.4-1.1-0.7-1.6-1c-0.2-0.1-0.1-0.3-0.1-0.5c0-0.2,0.6-0.3,1-0.2c0.1,0,0.2,0.1,0.3,0.2
		c0.1,0.1,0.2,0.1,0.5,0.2c0.5,0,1.2-0.1,1.8-0.1c0.6,0,1.3,0,2.2,0C559.3,463.9,558.1,464.3,556.1,464.5L556.1,464.5z"/>
	<path class="st7" d="M185.8,291.5c0,0.3-0.2,0.6-0.9,0.7c-0.8,0.1-1.7,0.2-2.4-0.1c-0.4-0.2-0.4-0.6,0-0.8c0.4-0.1,0.8-0.3,1.2-0.3
		C185.1,290.6,185.9,290.8,185.8,291.5L185.8,291.5z"/>
	<path class="st7" d="M461.6,383.1c0.3,0,0.5,0,0.7,0c1.1,0.3,1.8,0.9,1.4,1.5c-0.2,0.3-0.6,0.4-1.2,0.4c-0.4,0-0.9-0.1-1.1-0.3
		c-0.5-0.4-0.7-0.9-0.4-1.3C461.1,383.3,461.4,383.2,461.6,383.1L461.6,383.1z"/>
	<path class="st7" d="M478.5,338.2c-0.2-0.1-0.5-0.1-0.5-0.2c-0.2-0.4-0.6-0.6-1.5-0.6c-0.4,0-0.8-0.2-1-0.4c-0.2-0.2,0-0.5,0.5-0.6
		c0.2-0.1,0.5-0.1,0.7-0.2c0.6-0.1,1.5,0,1.6,0.3c0.1,0.5,0.5,0.8,1.1,1.2C479.7,337.8,479.3,338.1,478.5,338.2L478.5,338.2z"/>
	<path class="st7" d="M498.1,357.7c-1.3,0.2-2.1,0.3-3,0.4c-0.4,0-0.9-0.1-1.1-0.3c-0.4-0.2-0.2-0.4,0.2-0.6
		c0.9-0.2,1.8-0.5,2.7-0.6c0.5-0.1,1.2,0.1,1.3,0.4C498.1,357.2,498.1,357.4,498.1,357.7L498.1,357.7z"/>
	<path class="st7" d="M437.5,349.2c-1.1,0-1.7-0.3-2.1-0.6c-0.4-0.3-0.4-0.6,0.1-0.9c0.4-0.2,1.2-0.3,1.7-0.1
		c0.8,0.3,1.3,0.9,0.9,1.3C438.1,349.1,437.7,349.2,437.5,349.2L437.5,349.2z"/>
	<path class="st7" d="M509.5,472c0.1,0.5-0.5,0.9-1.3,1.1c-0.3,0-0.8,0-1-0.1c-0.9-0.4-0.8-1.1,0.3-1.4c0.2-0.1,0.8-0.1,1,0
		C508.9,471.7,509.2,471.9,509.5,472z"/>
	<path class="st7" d="M296.4,420.5c0-0.5,0.5-0.7,1.3-0.7c0.9,0,1.5,0.2,1.5,0.6c0,0.2-0.1,0.4-0.2,0.6c-0.1,0.3-0.4,0.5-1.1,0.5
		c-0.6,0-1-0.2-1.2-0.4C296.5,420.8,296.4,420.6,296.4,420.5L296.4,420.5z"/>
	<path class="st7" d="M355.4,434.9c0,0.1,0,0.2-0.1,0.3c-0.1,0.3-0.7,0.6-1.3,0.6c-0.6,0-1-0.2-1.2-0.5c-0.1-0.2-0.2-0.3-0.2-0.5
		c0-0.4,0.8-0.7,1.7-0.6C355.1,434.2,355.5,434.4,355.4,434.9L355.4,434.9z"/>
	<path class="st7" d="M255,331.2c-0.7,0.2-1,0.3-1.4,0.3c-0.8,0.1-1.4-0.1-2-0.3c-1.3-0.5-1.4-0.9-0.4-1.6
		C251.8,330.2,253.1,330.8,255,331.2L255,331.2z"/>
	<path class="st7" d="M867.8,300.8c1.2,0,2.1,0.3,2.3,0.7c0.1,0.2,0,0.5-0.3,0.6c-0.2,0.1-0.9,0.1-1.2,0c-0.6-0.1-1.1-0.3-1.5-0.6
		c-0.2-0.1-0.1-0.3,0-0.5C867.2,301,867.6,300.9,867.8,300.8L867.8,300.8z"/>
	<path class="st7" d="M644.7,263.2c0.1-0.1,0.1-0.3,0.3-0.4c0.1-0.1,0.4-0.2,0.6-0.2c0.2,0,0.6,0.1,0.7,0.1c0.3,0.4,0.7,0.8,0.8,1.2
		c0.1,0.1-0.2,0.3-0.5,0.4c-0.3,0.1-0.7,0-1-0.1C644.8,264,644.7,263.7,644.7,263.2L644.7,263.2z"/>
	<path class="st7" d="M326.6,284.6c0.6,0.8,1.8,1.3,3.6,1.7c-0.1,0.1-0.2,0.3-0.3,0.3c-2.3,0.2-4.3-0.6-3.9-1.7
		C326.2,284.9,326.3,284.8,326.6,284.6L326.6,284.6z"/>
	<path class="st7" d="M56.2,250.9c0-0.3,0.1-0.6,0.9-0.8c0.7-0.2,1.2-0.4,1.9-0.5c0.2,0,0.8,0,0.9,0.1c0.1,0.1-0.1,0.4-0.3,0.4
		c-1.4,0.1-1.8,0.5-2,1.1c0,0.1-0.5,0.2-0.8,0.3c-0.2-0.1-0.4-0.3-0.6-0.4C56.2,251,56.2,250.9,56.2,250.9L56.2,250.9z"/>
	<path class="st7" d="M806,358.8c0.3,0.1,0.8,0.1,1.2,0.3c0.5,0.2,0.6,0.5,0.2,0.7c-0.2,0.1-0.8,0.2-1.2,0.3c-0.2,0-0.5,0-0.8-0.1
		c-0.8-0.1-1.2-0.3-1.1-0.6C804.5,359,805,358.8,806,358.8z"/>
	<path class="st7" d="M510.8,370.3c-0.6-0.2-1.1-0.4-1.5-0.6c-0.4-0.2-0.4-0.5,0.1-0.7c0.5-0.2,1-0.2,1.6,0c0.7,0.2,1,0.5,0.8,0.9
		C511.7,370,511.2,370.1,510.8,370.3L510.8,370.3z"/>
	<path class="st7" d="M679.8,315.5c-0.1,0.3-0.1,0.6-0.2,0.9c0,0.1-0.4,0.2-0.7,0.2c-0.2,0-0.6-0.1-0.6-0.2c-0.1-0.5-0.2-1-0.2-1.5
		c0-0.1,0.4-0.3,0.7-0.3c0.4-0.1,0.9,0.1,0.9,0.3C679.7,315.1,679.7,315.3,679.8,315.5L679.8,315.5L679.8,315.5z"/>
	<path class="st7" d="M226.8,281.6c0.2,0.1,0.7,0.3,0.8,0.5c0.2,0.3-0.4,0.7-1.1,0.7c-0.6,0-1.4-0.2-1.4-0.5
		C224.9,282,225.7,281.6,226.8,281.6L226.8,281.6z"/>
	<path class="st7" d="M405.7,371.6c-0.9,0-1.5-0.3-1.5-0.6c0-0.4,0.7-0.6,1.7-0.6c0.8,0,1.3,0.3,1.2,0.7
		C406.9,371.4,406.4,371.6,405.7,371.6L405.7,371.6z"/>
	<path class="st7" d="M681.8,405.3c0,0-0.2-0.1-0.3-0.2c-0.3-0.5,0.4-1,1.5-1.1c0.4,0,0.9,0.1,1,0.3
		C684.1,404.8,683.2,405.3,681.8,405.3L681.8,405.3z"/>
	<path class="st7" d="M441.3,252.1c0,0.3-0.4,0.6-1,0.6c-0.8,0.1-1.5-0.2-1.6-0.5c-0.1-0.3,0.6-0.6,1.4-0.7
		C440.7,251.6,441.3,251.8,441.3,252.1L441.3,252.1z"/>
	<path class="st7" d="M115,276.5c-0.2,0.1-0.4,0.3-0.8,0.3c-0.4,0-0.9,0-1.3-0.1c-0.6-0.1-0.8-0.4-0.6-0.6c0.1-0.2,0.6-0.3,1-0.3
		C114.4,275.7,115.1,276,115,276.5L115,276.5z"/>
	<path class="st7" d="M498.6,256.5c-0.6-0.2-1.2-0.4-1.5-0.6c-0.2-0.1-0.2-0.4,0-0.6c0.2-0.1,0.8-0.3,1.1-0.2s0.8,0.2,1,0.4
		C499.5,255.7,499.4,256.1,498.6,256.5L498.6,256.5z"/>
	<path class="st7" d="M84.6,358.8c-0.2,0.1-0.4,0.3-0.7,0.4c-0.4,0-0.9,0-1.2-0.2c-0.6-0.3-0.7-0.8-0.2-1c0.2-0.1,0.5-0.1,0.8-0.1
		C84.1,357.9,84.6,358.2,84.6,358.8L84.6,358.8z"/>
	<path class="st7" d="M405,350.9c-0.9,0-1.5-0.3-1.4-0.6c0.1-0.3,0.6-0.5,1.3-0.5c0.8,0,1.5,0.3,1.4,0.6
		C406.3,350.7,405.7,350.9,405,350.9L405,350.9z"/>
	<path class="st7" d="M759.9,327.7c-0.2-1,0.6-1.5,2.2-1.9C762,326.5,761.8,326.6,759.9,327.7z"/>
	<path class="st7" d="M513.8,238.7c-0.4,0-0.5,0-0.7-0.1c-0.6-0.1-1.3-0.2-1.3-0.6c0-0.1,0.4-0.3,0.7-0.3c1-0.1,1.6-0.1,2,0.3
		c0.2,0.1,0.2,0.3,0,0.5C514.4,238.6,514,238.7,513.8,238.7L513.8,238.7z"/>
	<path class="st7" d="M295.4,372.6c0,0.4-0.4,0.7-1.2,0.7c-0.6,0-1.1-0.2-1.2-0.4c-0.1-0.4,0.5-0.8,1.4-0.8
		C295,372.1,295.4,372.3,295.4,372.6L295.4,372.6z"/>
	<path class="st7" d="M139.3,443.1c-0.1,0.2-0.1,0.3-0.3,0.5c-0.2,0.1-0.6,0.2-0.9,0.2c-0.3,0-0.7-0.2-0.7-0.3
		c-0.1-0.3-0.1-0.6,0.1-0.9c0.1-0.1,0.5-0.3,0.8-0.3c0.5,0,0.8,0.2,0.9,0.4C139.3,442.8,139.2,443,139.3,443.1L139.3,443.1z"/>
	<path class="st7" d="M831.4,298.8c-0.9,0-1.4-0.3-1.4-0.6c0-0.3,0.5-0.6,1.2-0.5c0.8,0,1.2,0.3,1.2,0.7
		C832.4,298.6,832,298.8,831.4,298.8L831.4,298.8z"/>
	<path class="st7" d="M805.3,241.2c-0.2,0.1-0.5,0.3-0.9,0.4c-0.8,0.1-1.4-0.1-1.5-0.5c0-0.3,0.3-0.5,0.8-0.6
		C804.5,240.5,805.1,240.7,805.3,241.2L805.3,241.2z"/>
	<path class="st7" d="M370.2,327.4c0.7,0,1.1,0.3,1,0.6c-0.1,0.3-0.7,0.6-1.3,0.6c-0.6,0-1-0.3-1-0.7
		C369,327.6,369.5,327.3,370.2,327.4L370.2,327.4z"/>
	<path class="st7" d="M393.2,268.2c0,0.2,0.1,0.3,0,0.4c-0.2,0.2-0.4,0.4-0.7,0.5c-0.3,0.1-1-0.1-1.2-0.4c-0.1-0.2-0.1-0.3,0-0.5
		c0.1-0.3,0.8-0.5,1.1-0.4C392.7,267.9,392.9,268.1,393.2,268.2C393.2,268.3,393.2,268.3,393.2,268.2L393.2,268.2z"/>
	<path class="st7" d="M316.8,410.9c0.2-0.1,0.3-0.2,0.5-0.3c1.3-0.1,2.6-0.2,3.9-0.2c0.3,0,0.6,0.1,0.9,0.2c0.1,0,0.1,0.2,0,0.2
		c0,0.1-0.2,0.1-0.4,0.1c-0.1,0-0.2,0-0.3,0c-0.8-0.2-1.5-0.4-2.4-0.3c-0.7,0.1-1.4,0.2-2.1,0.3L316.8,410.9L316.8,410.9z"/>
	<path class="st7" d="M473.6,361.8c0.6,0,1.1,0.3,1.1,0.6c0,0.3-0.4,0.5-1,0.5c-0.8,0-1.5-0.2-1.6-0.5
		C472,362.1,472.8,361.8,473.6,361.8z"/>
	<path class="st7" d="M755.2,359.6c-0.7,0-1.4-0.3-1.5-0.6c-0.1-0.2,0.5-0.5,1-0.5c0.7,0,1.1,0.2,1.1,0.6
		C755.8,359.3,755.7,359.5,755.2,359.6L755.2,359.6z"/>
	<path class="st7" d="M274,342.8c-0.7,0-1.1-0.3-1.1-0.6c0-0.3,0.5-0.5,1.1-0.5c0.8,0,1.4,0.3,1.2,0.7
		C275.2,342.6,274.7,342.8,274,342.8L274,342.8z"/>
	<path class="st7" d="M247.8,254.7c0.5,0.1,1.1,0.2,1.5,0.3c0.2,0.1,0.3,0.3,0.2,0.5c-0.1,0.2-0.7,0.3-1.1,0.2
		c-0.4-0.1-0.8-0.2-1.1-0.3c-0.1-0.1-0.2-0.2-0.1-0.3C247.2,254.9,247.5,254.9,247.8,254.7L247.8,254.7z"/>
	<path class="st7" d="M863.5,315.3c1,0.8,1,0.9,0.7,1.4c-0.1,0.1-0.5,0.2-0.8,0.3c-0.1-0.1-0.4-0.2-0.4-0.3
		C863.1,316.3,863.3,315.8,863.5,315.3L863.5,315.3z"/>
	<path class="st7" d="M749.8,301.8c-0.2,0.1-0.3,0.4-0.6,0.5c-0.3,0.2-0.8,0.3-1.2,0.1c-0.5-0.1-0.5-0.5,0-0.8
		c0.4-0.2,1.1-0.3,1.5-0.1C749.6,301.5,749.7,301.6,749.8,301.8L749.8,301.8z"/>
	<path class="st7" d="M117.9,298.2c0.5,0,1,0.2,1,0.5c0.1,0.3-0.4,0.6-1,0.6c-0.6,0-0.9-0.1-1-0.4
		C116.8,298.6,117.3,298.3,117.9,298.2L117.9,298.2z"/>
	<path class="st7" d="M819.9,298.2c0.7,0.5,1.2,0.9,1.7,1.3c0.1,0.1,0.1,0.3,0,0.5c0,0.1-0.6,0.1-0.7,0.1
		C819.9,299.5,819.7,299,819.9,298.2L819.9,298.2z"/>
	<path class="st7" d="M350.2,297.9c-0.8,0-1.5-0.3-1.4-0.6c0.1-0.2,0.7-0.4,1.2-0.4c0.7,0,1.3,0.2,1.3,0.5
		C351.2,297.7,350.8,297.9,350.2,297.9z"/>
	<path class="st7" d="M288.3,258.6c0.5,0.1,1,0.2,1.4,0.3c0.2,0.1,0.3,0.3,0.2,0.4c-0.1,0.1-0.6,0.2-0.8,0.2c-0.5-0.1-1-0.2-1.4-0.4
		c-0.1-0.1-0.2-0.2-0.1-0.3C287.7,258.7,288,258.7,288.3,258.6L288.3,258.6z"/>
	<path class="st7" d="M765,363.8c-0.2-0.1-0.5-0.1-0.6-0.3c-0.2-0.3,0.3-0.6,1.2-0.7c0.4,0,0.7,0.1,0.8,0.3
		C766.5,363.4,766,363.7,765,363.8L765,363.8z"/>
	<path class="st7" d="M139.8,261.7c-0.1,0.5-0.8,0.8-1.5,0.7c-0.5,0-0.8-0.2-0.7-0.5c0.1-0.3,0.6-0.6,1.3-0.5
		C139.3,261.4,139.6,261.6,139.8,261.7L139.8,261.7z"/>
	<path class="st7" d="M731.5,312.8c-0.2,0.2-0.4,0.4-0.6,0.6c0,0-0.4,0-0.5,0c-0.7-0.2-0.7-0.5-0.6-0.8c0-0.1,0.2-0.2,0.3-0.3
		c0.1-0.1,0.3-0.1,0.5-0.1c0.2,0,0.5,0.1,0.7,0.2C731.3,312.5,731.4,312.6,731.5,312.8L731.5,312.8z"/>
	<path class="st7" d="M4.3,279.8c0.9,0,1.5,0.2,1.5,0.5c-0.1,0.2-0.4,0.4-0.7,0.5c-0.7,0.1-1.7-0.2-1.5-0.5
		C3.7,280,4.1,279.9,4.3,279.8L4.3,279.8z"/>
	<path class="st7" d="M378,238.2c0.4-0.6,0.7-1,1-1.4c0.1-0.1,0.5-0.2,0.6-0.2c0.2,0.1,0.5,0.2,0.5,0.4c0,0.1-0.2,0.3-0.4,0.4
		C379.3,237.6,378.8,237.8,378,238.2L378,238.2z"/>
	<path class="st7" d="M91.2,338.8c-0.2-0.1-0.6-0.2-0.8-0.4c-0.2-0.3,0.4-0.5,1.2-0.6c0.5,0,0.9,0.2,1,0.4
		C92.7,338.5,92.2,338.8,91.2,338.8L91.2,338.8z"/>
	<path class="st7" d="M818,448.6c-0.5-0.2-1-0.4-1.2-0.5c-0.2-0.2,0.5-0.5,1.3-0.5c0.7,0,1.2,0.2,1,0.5
		C818.9,448.2,818.4,448.4,818,448.6L818,448.6z"/>
	<path class="st7" d="M769.5,249.7c0,0.4-0.5,0.6-1.2,0.7c-0.6,0-1.1-0.2-1.1-0.5c0-0.3,0.6-0.6,1.2-0.5
		C768.9,249.4,769.3,249.6,769.5,249.7L769.5,249.7z"/>
	<path class="st7" d="M30.9,405.9c-0.3,0.1-0.6,0.3-0.9,0.3c-0.2,0-0.6-0.1-0.8-0.2c-0.1-0.1-0.1-0.2-0.1-0.4c0-0.2,0.1-0.4,0.6-0.5
		c0.5,0,0.8,0.1,1,0.3C30.7,405.5,30.8,405.7,30.9,405.9L30.9,405.9z"/>
	<path class="st7" d="M756.8,465.1c-0.4-0.1-0.8-0.2-1.1-0.4c-0.6-0.3-0.8-0.7-0.3-0.7c0.7-0.1,1.3,0,1.7,0.3
		c0.2,0.1,0.3,0.3,0.3,0.5C757.3,464.9,757,465,756.8,465.1L756.8,465.1z"/>
	<path class="st7" d="M317,313.4c-0.1,0.1-0.4,0.3-0.7,0.4c-0.1,0-0.6,0-0.7-0.1c-0.2-0.1-0.3-0.3-0.3-0.5c0-0.2,0.1-0.4,0.7-0.5
		C316.5,312.7,317,313,317,313.4L317,313.4z"/>
	<path class="st7" d="M136.5,249.2c0.1,0.4-0.3,0.7-1,0.7c-0.5,0-1-0.1-1-0.3c-0.1-0.3,0.6-0.7,1.3-0.7
		C136.1,249,136.4,249.2,136.5,249.2L136.5,249.2z"/>
	<path class="st7" d="M743.1,303.9c0-0.2,0.5-0.5,1.1-0.4c0.5,0,0.8,0.2,0.8,0.4c0,0.2-0.3,0.4-0.8,0.5
		C743.7,304.4,743.2,304.1,743.1,303.9L743.1,303.9z"/>
	<path class="st7" d="M171.5,243.4c-0.2,0.1-0.5,0.2-0.8,0.3c-0.5,0.1-1-0.2-1-0.5c0-0.2,0.4-0.4,0.9-0.4
		C171.1,242.8,171.6,243,171.5,243.4L171.5,243.4z"/>
	<path class="st7" d="M577,254.1c0,0.3-0.6,0.5-1.2,0.4c-0.5,0-0.9-0.2-0.8-0.4c0.1-0.3,0.4-0.5,1.1-0.5
		C576.6,253.5,577,253.8,577,254.1L577,254.1z"/>
	<path class="st7" d="M416.3,269.4c-0.6,0-1.1-0.2-1.1-0.6c0-0.2,0.2-0.4,0.7-0.5c0.6-0.1,1.2,0.2,1.3,0.5
		C417.3,269.1,416.9,269.4,416.3,269.4L416.3,269.4z"/>
	<path class="st7" d="M606.5,333.7c-0.3-0.1-0.7-0.2-0.7-0.2c0-0.1,0.2-0.3,0.4-0.4c0.3-0.1,0.7-0.1,1.1-0.1c0.2,0,0.5,0.1,0.6,0.2
		c0,0.1-0.2,0.2-0.3,0.3C607.3,333.6,606.9,333.6,606.5,333.7L606.5,333.7z"/>
	<path class="st7" d="M728.7,350c-0.6,0.2-0.9,0.4-1.3,0.5c-0.4,0.1-0.8-0.2-0.8-0.4c0-0.2,0.6-0.5,1.2-0.4
		C728,349.7,728.3,349.8,728.7,350z"/>
	<path class="st7" d="M728.8,374.8c-0.3,0.2-0.4,0.3-0.6,0.3c-0.2,0-0.5,0-0.8-0.1c-0.1,0-0.1,0-0.2-0.1c-0.5-0.3-0.6-0.5-0.2-0.7
		c0.2-0.1,0.6-0.1,0.8,0C728.2,374.4,728.5,374.6,728.8,374.8L728.8,374.8z"/>
	<path class="st7" d="M148.2,254.7c0.1,0.4-0.4,0.6-0.9,0.6c-0.5,0-0.8-0.2-0.9-0.4c-0.1-0.3,0.3-0.5,0.9-0.5
		C147.7,254.5,148,254.6,148.2,254.7L148.2,254.7z"/>
	<path class="st7" d="M782,421.2c0.3-0.1,0.8-0.2,1.2-0.2c0.6,0,0.9,0.3,0.8,0.6c-0.2,0.2-0.5,0.3-1,0.3
		C782.3,421.9,781.9,421.6,782,421.2L782,421.2z"/>
	<path class="st7" d="M531.1,467.6c-0.1,0.1-0.3,0.3-0.6,0.3c-0.5,0.1-0.8-0.1-1.1-0.3c-0.1-0.1-0.1-0.2-0.2-0.2
		c-0.1-0.2,0.2-0.4,0.7-0.5c0.5,0,0.9,0.1,1,0.3C531,467.4,531,467.5,531.1,467.6L531.1,467.6z"/>
	<path class="st7" d="M112.7,277.6c-0.6,0.1-0.9,0.3-1.3,0.3c-0.6,0-1.1-0.2-0.9-0.5c0.1-0.2,0.4-0.4,0.9-0.4
		C111.8,277.2,112.1,277.4,112.7,277.6L112.7,277.6z"/>
	<path class="st7" d="M676.6,356.9c0.4,0.2,0.8,0.4,0.9,0.5c0.2,0.2-0.3,0.4-0.8,0.4c-0.5,0-0.9-0.1-0.9-0.4
		C675.8,357.3,676.2,357.2,676.6,356.9L676.6,356.9z"/>
	<path class="st7" d="M298.1,278.2c0,0.4-0.4,0.6-1,0.6c-0.3,0-0.7-0.2-0.8-0.3c-0.2-0.3,0.2-0.6,0.8-0.5
		C297.5,278,297.8,278.2,298.1,278.2L298.1,278.2z"/>
	<path class="st7" d="M809.9,427.5c0.2,0.1,0.6,0.3,0.7,0.5c0.1,0.2-0.5,0.5-1,0.4c-0.5,0-0.8-0.2-0.8-0.4
		C808.7,427.7,809.1,427.5,809.9,427.5L809.9,427.5z"/>
	<path class="st7" d="M707.5,248.3c-0.2,0-0.6,0.2-0.8,0.1c-0.5-0.1-0.8-0.3-1.2-0.5c-0.1,0,0.1-0.3,0.3-0.3
		C706.7,247.5,707.5,247.8,707.5,248.3z"/>
	<path class="st7" d="M582.3,375.9c0.3,0,0.7-0.2,1-0.2c0.6,0,1.1,0.2,0.9,0.5c-0.1,0.1-0.4,0.3-0.7,0.3
		C582.9,376.6,582.2,376.3,582.3,375.9L582.3,375.9z"/>
	<path class="st7" d="M395.9,356.3c0.7,0.1,1,0.3,0.9,0.6c-0.1,0.2-0.5,0.4-0.9,0.4c-0.5-0.1-0.9-0.3-0.7-0.6
		C395.3,356.5,395.7,356.4,395.9,356.3L395.9,356.3z"/>
	<path class="st7" d="M286.2,345.3c-0.5,0.2-0.7,0.4-1.1,0.5c-0.5,0.1-1.1-0.2-1.2-0.4c-0.1-0.2,0.4-0.5,1-0.4
		C285.3,345,285.6,345.1,286.2,345.3L286.2,345.3z"/>
	<path class="st7" d="M707.2,344.6c0.3,0.3,0.6,0.5,0.6,0.6c0,0.3-0.6,0.5-1.1,0.4c-0.5-0.1-0.9-0.2-0.7-0.5
		C706.1,345.1,706.6,344.9,707.2,344.6L707.2,344.6z"/>
	<path class="st7" d="M150.9,340.2c-0.2,0.1-0.5,0.3-0.9,0.3c-0.5,0.1-1-0.3-0.8-0.5c0.1-0.1,0.4-0.3,0.7-0.3
		C150.4,339.6,150.9,339.8,150.9,340.2L150.9,340.2z"/>
	<path class="st7" d="M737.7,330.4c-0.5,0.1-0.8,0.3-1.1,0.3c-0.6,0-1.1-0.2-1.1-0.4c0-0.2,0.5-0.4,0.9-0.3
		C736.9,330,737.2,330.2,737.7,330.4L737.7,330.4z"/>
	<path class="st7" d="M190.2,325.5c0.4,0.3,0.7,0.5,0.9,0.7c0.1,0.2-0.4,0.4-0.8,0.4c-0.5,0-1-0.3-0.9-0.5
		C189.4,325.9,189.8,325.8,190.2,325.5L190.2,325.5z"/>
	<path class="st7" d="M111.1,317.6c0-0.4,0.5-0.6,1-0.6c0.5,0,0.8,0.2,0.8,0.4c0,0.3-0.4,0.6-0.9,0.5
		C111.6,317.8,111.3,317.6,111.1,317.6L111.1,317.6z"/>
	<path class="st7" d="M763.5,305.8c-0.2,0.1-0.5,0.2-0.9,0.3c-0.5,0.1-1-0.2-0.8-0.5c0.1-0.2,0.3-0.4,0.9-0.4
		C763.1,305.2,763.5,305.4,763.5,305.8z"/>
	<path class="st7" d="M485.3,386.3c0.2,0.2,0.4,0.3,0.4,0.4c0,0.2-0.4,0.4-0.9,0.4c-0.4,0-0.7-0.2-0.5-0.4
		C484.5,386.6,484.9,386.5,485.3,386.3L485.3,386.3z"/>
	<path class="st7" d="M516.7,336.4c0,0.3-0.2,0.5-0.8,0.5c-0.5,0-0.9-0.1-1-0.3c-0.1-0.2,0.3-0.4,0.8-0.4
		C516.1,336.2,516.4,336.4,516.7,336.4L516.7,336.4z"/>
	<path class="st7" d="M333.4,404.5c-0.2,0.1-0.4,0.3-0.8,0.3c-0.5,0.1-1-0.2-1.1-0.5c0-0.2,0.3-0.4,0.8-0.4
		C332.9,403.9,333.4,404.1,333.4,404.5L333.4,404.5z"/>
	<path class="st7" d="M136.6,332.6c0.5,0.1,0.8,0.1,1,0.1c0.6,0.1,0.8,0.5,0.4,0.6c-0.2,0.1-0.7,0.1-1,0.1c-0.6-0.1-1-0.3-0.8-0.6
		C136.3,332.7,136.5,332.6,136.6,332.6L136.6,332.6z"/>
	<path class="st7" d="M129.7,301.1c-0.5,0.2-0.7,0.4-1.1,0.4c-0.4,0-0.9-0.3-0.8-0.5c0.1-0.2,0.6-0.4,1-0.3
		C129.1,300.7,129.3,300.9,129.7,301.1L129.7,301.1z"/>
	<path class="st7" d="M99.1,271c-0.2,0.3-0.5,0.6-0.8,0.9c-0.1,0.1-0.5,0.1-0.7,0.1c-0.2,0-0.5-0.2-0.4-0.3c0-0.2,0.2-0.4,0.4-0.4
		C98.1,271.2,98.6,271.1,99.1,271C99.1,271,99.1,271,99.1,271z"/>
	<path class="st7" d="M61,341.7c0.4,0.2,0.8,0.2,0.9,0.4c0.2,0.2-0.2,0.5-0.8,0.5c-0.5,0-1-0.2-0.9-0.4
		C60.3,342,60.7,341.9,61,341.7L61,341.7z"/>
	<path class="st7" d="M820,296.2c-0.6-0.5-0.7-0.8-0.1-1.1C820.6,295.3,820.6,295.7,820,296.2z"/>
	<path class="st7" d="M175.6,266.4c0,0.4-0.5,0.6-1,0.6c-0.3,0-0.6-0.2-0.6-0.3c-0.1-0.3,0.4-0.5,0.9-0.5
		C175.2,266.2,175.4,266.3,175.6,266.4z"/>
	<path class="st7" d="M119.5,288.8c0.2-0.1,0.5-0.2,0.8-0.3c0.5-0.1,0.9,0.1,0.9,0.3c0,0.2-0.3,0.4-0.7,0.5
		C120.1,289.4,119.5,289.1,119.5,288.8z"/>
	<path class="st7" d="M865,320.7c-0.3,0-0.5,0-0.7-0.1c-0.6-0.3-0.5-0.7,0.1-0.9c0.2-0.1,0.7,0,0.7,0c0.2,0.2,0.3,0.4,0.3,0.6
		C865.5,320.4,865.2,320.6,865,320.7L865,320.7z"/>
	<path class="st7" d="M836.3,277.2c-0.5,0.2-0.7,0.4-1,0.5c-0.5,0.1-0.9-0.1-1-0.3c-0.1-0.2,0.3-0.4,0.8-0.4
		C835.4,277,835.7,277.1,836.3,277.2L836.3,277.2z"/>
	<path class="st7" d="M216.1,325.8c-0.5,0.2-0.7,0.4-1.1,0.4c-0.5,0.1-0.9-0.1-0.9-0.3c0-0.2,0.2-0.4,0.7-0.4
		C215.2,325.4,215.6,325.6,216.1,325.8L216.1,325.8z"/>
	<path class="st7" d="M234.8,289c0,0.2,0.1,0.3,0.1,0.3c-0.2,0.3-0.6,0.4-1.3,0.4c-0.1,0-0.4-0.1-0.4-0.1c-0.2-0.3,0.4-0.4,0.9-0.5
		C234.2,289,234.4,289,234.8,289L234.8,289z"/>
	<path class="st7" d="M726.4,348.9c-0.4,0.2-0.6,0.3-0.9,0.4c-0.4,0.1-1-0.2-0.9-0.3c0.1-0.1,0.5-0.3,0.8-0.3
		C725.7,348.6,726,348.7,726.4,348.9L726.4,348.9z"/>
	<path class="st7" d="M474.9,415c-0.8-0.4-0.4-0.7-0.2-1C475.1,414.3,475.2,414.6,474.9,415z"/>
	<path class="st7" d="M335.2,429.2c-0.6,0.1-0.8,0.3-1.1,0.3c-0.5,0-1-0.2-0.8-0.4c0.1-0.1,0.5-0.3,0.7-0.3
		C334.3,428.9,334.6,429,335.2,429.2L335.2,429.2z"/>
	<path class="st7" d="M601.4,294.2c0.4,0.2,0.8,0.3,0.9,0.5c0.1,0.1-0.5,0.3-1,0.3c-0.5,0-0.9-0.2-0.8-0.4
		C600.7,294.5,601,294.4,601.4,294.2L601.4,294.2z"/>
	<path class="st7" d="M501.9,239.2c-0.4,0.2-0.5,0.3-0.8,0.4c-0.4,0.1-0.7,0-0.8-0.2c-0.1-0.2,0.3-0.5,0.7-0.5
		C501.2,238.9,501.5,239,501.9,239.2L501.9,239.2z"/>
	<path class="st7" d="M487.5,413.5c-0.4,0.2-0.6,0.4-0.9,0.4c-0.4,0.1-0.8-0.2-0.8-0.4c0.1-0.2,0.3-0.4,0.9-0.4
		C486.9,413.2,487.1,413.4,487.5,413.5L487.5,413.5z"/>
	<path class="st7" d="M874.1,350.6c-0.2-0.1-0.5-0.2-0.5-0.3c0-0.1,0.1-0.3,0.3-0.4c0,0,0.4,0,0.5,0c0.4,0.1,0.5,0.3,0.3,0.5
		C874.7,350.5,874.4,350.5,874.1,350.6L874.1,350.6z"/>
	<path class="st7" d="M88.2,351.2c-0.3,0.2-0.5,0.3-0.7,0.4c-0.4,0.1-0.9-0.1-0.8-0.4c0.1-0.1,0.4-0.3,0.6-0.3
		C87.5,351,87.8,351.1,88.2,351.2L88.2,351.2z"/>
	<path class="st7" d="M239.9,268.3c-0.4-0.2-0.7-0.4-0.8-0.5c0-0.1,0.4-0.3,0.6-0.3c0.5,0,0.9,0.1,0.8,0.4
		C240.5,268,240.2,268.1,239.9,268.3L239.9,268.3z"/>
	<path class="st7" d="M681.2,355.2c-0.3,0-0.6,0-0.6-0.1c-0.1-0.1-0.3-0.3-0.2-0.4s0.4-0.2,0.7-0.3c0.1,0,0.4,0,0.5,0
		c0.1,0.1,0.3,0.3,0.2,0.4C681.7,355,681.4,355.1,681.2,355.2L681.2,355.2z"/>
	<path class="st7" d="M229.9,355.3c-0.5,0.1-0.9,0.3-1.3,0.4c-0.1,0-0.6-0.2-0.6-0.3c-0.1-0.3,0.7-0.5,1.4-0.4
		C229.5,355,229.7,355.1,229.9,355.3L229.9,355.3z"/>
	<path class="st7" d="M101,446.5c-0.6,0.2-0.9,0.3-1.2,0.3c-0.5,0-0.8-0.2-0.8-0.4c0-0.2,0.4-0.4,0.9-0.3
		C100.2,446.1,100.5,446.3,101,446.5z"/>
	<path class="st7" d="M463.8,259.3c-0.4-0.2-0.8-0.3-0.9-0.5c-0.2-0.2,0.3-0.5,1-0.5c0.6,0,0.9,0.2,0.8,0.4
		C464.5,258.9,464.2,259.1,463.8,259.3L463.8,259.3z"/>
	<path class="st7" d="M365.1,359.4c-0.4,0.2-0.6,0.4-1,0.4c-0.1,0-0.6-0.2-0.7-0.3c-0.2-0.3,0.3-0.6,0.8-0.5
		C364.6,359.1,364.8,359.2,365.1,359.4L365.1,359.4z"/>
	<path class="st7" d="M413.2,361.9c-0.6,0.1-0.9,0.3-1.1,0.3c-0.3,0-0.6-0.1-0.8-0.3c-0.1-0.2,0.1-0.3,0.5-0.3
		C412.2,361.6,412.5,361.8,413.2,361.9L413.2,361.9z"/>
	<path class="st7" d="M667.5,304c0.5,0.2,0.9,0.3,1.1,0.5c0.2,0.2-0.2,0.5-0.6,0.4c-0.5,0-0.9-0.2-0.9-0.4
		C667.1,304.4,667.3,304.3,667.5,304z"/>
	<path class="st7" d="M713.2,371.5c0.7,0,1.1,0.4,0.8,0.7c0,0-0.2,0.1-0.2,0.1c-0.3-0.1-0.7-0.1-0.9-0.2s0-0.3,0-0.5
		C713,371.5,713.1,371.5,713.2,371.5z"/>
	<path class="st7" d="M865.2,284.2c0.3-0.2,0.5-0.4,0.8-0.5c0.5-0.1,0.8,0.1,0.9,0.3c0.1,0.3-0.3,0.6-0.8,0.5
		C865.8,284.5,865.5,284.3,865.2,284.2L865.2,284.2z"/>
	<path class="st7" d="M831.5,257.7c-0.4,0.2-0.7,0.3-1,0.3c-0.4,0-0.9-0.2-0.8-0.4c0.1-0.1,0.5-0.3,0.7-0.3
		C830.8,257.3,831.1,257.5,831.5,257.7z"/>
	<path class="st7" d="M293.3,303c-0.5,0.1-0.7,0.2-1,0.3c-0.5,0-0.6-0.2-0.5-0.3c0.1-0.1,0.5-0.3,0.7-0.3
		C292.7,302.6,292.9,302.8,293.3,303L293.3,303z"/>
	<path class="st7" d="M149.5,246.4c-0.4,0.2-0.6,0.3-0.9,0.4c-0.5,0.1-1.1-0.2-0.9-0.5c0.1-0.1,0.5-0.3,0.7-0.3
		C148.8,246.1,149,246.3,149.5,246.4L149.5,246.4z"/>
	<path class="st7" d="M392.3,246c0.8,0.1,0.9,0.3,0.8,0.5c-0.1,0.1-0.4,0.3-0.7,0.3c-0.5,0-0.9-0.3-0.7-0.5
		C391.7,246.2,392.1,246.1,392.3,246L392.3,246z"/>
	<path class="st7" d="M751.5,305.4c-0.5,0.2-0.8,0.3-1.2,0.4c-0.1,0-0.6-0.2-0.6-0.3c0-0.2,0.3-0.4,0.9-0.4
		C750.9,305.1,751.1,305.3,751.5,305.4L751.5,305.4z"/>
	<path class="st7" d="M505.5,240.5l-1.1,0.4c-0.2-0.1-0.5-0.2-0.6-0.4c-0.1-0.2,0.4-0.5,0.8-0.4
		C504.9,240.2,505.1,240.3,505.5,240.5L505.5,240.5z"/>
	<path class="st7" d="M697.2,392.3c-0.5,0.1-0.8,0.3-1,0.3c-0.1,0-0.5-0.2-0.5-0.2c0.1-0.1,0.3-0.2,0.5-0.4L697.2,392.3L697.2,392.3
		z"/>
	<path class="st7" d="M890.8,270.5c-0.1,0.1-0.5,0.2-0.5,0.3c0,0.1,0.4,0.3,0.6,0.3c0.2,0,0.6-0.1,0.8-0.2v-0.2
		C891.6,270.5,891.3,270.5,890.8,270.5L890.8,270.5z"/>
	<path class="st7" d="M782,329c-0.5,0.1-0.8,0.3-1,0.3c-0.4,0-0.8-0.2-0.6-0.4c0.1-0.1,0.4-0.2,0.5-0.2
		C781.2,328.7,781.5,328.8,782,329z"/>
	<path class="st7" d="M855.3,389.7c-0.4,0.1-0.7,0.3-1,0.3c-0.4,0-0.7-0.2-0.6-0.3c0.1-0.1,0.4-0.2,0.7-0.3L855.3,389.7L855.3,389.7
		z"/>
	<path class="st7" d="M743.3,288.4c-0.4,0.1-0.6,0.3-0.9,0.3c-0.4,0-0.8-0.2-0.6-0.5c0.1-0.1,0.5-0.3,0.8-0.2
		C742.8,288,743,288.2,743.3,288.4L743.3,288.4z"/>
	<path class="st7" d="M378,290.5l-0.9,0.5c-0.2-0.1-0.5-0.2-0.5-0.3c-0.1-0.2,0.2-0.5,0.6-0.4C377.5,290.3,377.7,290.4,378,290.5
		L378,290.5z"/>
	<path class="st7" d="M578.6,267c0.4,0.4,0.7,0.7,1,1C578.8,268,578.5,267.6,578.6,267z"/>
	<path class="st7" d="M222.4,323.3c-0.6,0.1-1,0.2-1.4,0.2c-0.1,0-0.4-0.2-0.4-0.3c0-0.2,0.5-0.4,0.9-0.3
		C221.8,323,222,323.1,222.4,323.3L222.4,323.3z"/>
	<path class="st7" d="M14.7,387.3c0.2-0.1,0.3-0.1,0.4-0.1c0.4,0,0.8,0.1,1.2,0.1c0,0,0,0.1,0,0.1c-0.4,0-0.8,0-1.2,0
		C15,387.4,14.9,387.4,14.7,387.3L14.7,387.3z"/>
	<path class="st7" d="M777.4,426c-0.3,0.2-0.5,0.3-0.8,0.4c-0.4,0.1-0.9-0.1-0.8-0.3c0.1-0.1,0.4-0.3,0.7-0.3
		C776.7,425.7,777,425.9,777.4,426L777.4,426z"/>
	<path class="st7" d="M842.2,317.2c-0.4,0.2-0.7,0.3-1.1,0.4c-0.1,0-0.5-0.1-0.5-0.2c0-0.2,0.3-0.4,0.8-0.4
		C841.7,317,841.9,317.1,842.2,317.2L842.2,317.2z"/>
	<path class="st7" d="M770.2,261c-0.1,0.1-0.3,0.3-0.4,0.3c-0.3,0-0.7-0.1-0.9-0.2c-0.1-0.1-0.1-0.2-0.1-0.4c0-0.1,0.2-0.2,0.3-0.2
		c0.2,0,0.5,0,0.7,0.1C770.1,260.7,770.1,260.8,770.2,261L770.2,261z"/>
	<path class="st7" d="M693.2,294.4c-0.3-0.2-0.6-0.4-0.5-0.5c0.1-0.1,0.5-0.3,0.7-0.2c0.2,0,0.6,0.2,0.6,0.3
		C694,294.1,693.6,294.2,693.2,294.4L693.2,294.4z"/>
	<path class="st7" d="M368.5,261.2c-0.2-0.2-0.4-0.4-0.4-0.5c0-0.2,0.6-0.4,0.9-0.3c0.2,0.1,0.4,0.3,0.3,0.4
		C369.3,260.9,368.9,261,368.5,261.2z"/>
	<path class="st7" d="M476.4,261.4c-0.5,0.1-0.8,0.2-1,0.2c-0.2,0-0.5-0.2-0.5-0.3c0-0.2,0.3-0.3,0.7-0.2
		C475.8,261.1,476,261.2,476.4,261.4z"/>
	<path class="st7" d="M444.8,291.7c-0.3,0.1-0.5,0.3-0.8,0.3c-0.1,0-0.6-0.2-0.5-0.2c0.1-0.1,0.3-0.3,0.6-0.3
		C444.1,291.4,444.4,291.6,444.8,291.7L444.8,291.7z"/>
	<path class="st7" d="M15,246.8c0.2,0.2,0.4,0.3,0.5,0.4c0,0-0.5,0.2-0.5,0.2c-0.3-0.1-0.5-0.2-0.6-0.3
		C14.3,247.1,14.6,247,15,246.8L15,246.8z"/>
	<path class="st7" d="M467.4,416.6c-0.1-0.1-0.3-0.3-0.2-0.4c0.1-0.1,0.5-0.2,0.7-0.3c0.2,0.1,0.6,0.2,0.6,0.3
		C468.6,416.5,468.1,416.7,467.4,416.6L467.4,416.6z"/>
	<path class="st7" d="M825.4,346c-0.1,0.1-0.2,0.2-0.4,0.3c-0.2,0-0.7,0-0.7,0c-0.1-0.2-0.1-0.4-0.1-0.6c0,0,0.3-0.1,0.4-0.1
		c0.2,0,0.5,0.1,0.6,0.2C825.4,345.8,825.3,345.9,825.4,346L825.4,346z"/>
	<path class="st7" d="M41,297.8c0.2,0.1,0.5,0.2,0.5,0.3c0,0.1-0.3,0.2-0.5,0.2c-0.2-0.1-0.5-0.2-0.5-0.2
		C40.5,298,40.8,297.9,41,297.8L41,297.8z"/>
	<path class="st7" d="M418.2,327.8l-1,0.3c-0.1-0.1-0.4-0.3-0.4-0.4c0-0.1,0.4-0.2,0.5-0.2C417.5,327.5,417.7,327.7,418.2,327.8
		L418.2,327.8z"/>
	<path class="st7" d="M788,312.2l-0.9,0.4c-0.2-0.1-0.6-0.2-0.6-0.4c0-0.1,0.4-0.2,0.6-0.3L788,312.2z"/>
	<path class="st7" d="M589.2,459.2c-0.5-0.2-0.9-0.4-1-0.5c-0.1-0.2,0.2-0.3,0.6-0.3c0.3,0,0.6,0.1,0.7,0.3
		C589.6,458.8,589.4,458.9,589.2,459.2L589.2,459.2z"/>
	<path class="st7" d="M305.7,310.3c-0.2,0.1-0.4,0.3-0.7,0.3c-0.1,0-0.5-0.1-0.6-0.1c-0.1-0.2,0.4-0.4,0.8-0.4
		C305.3,310.1,305.4,310.2,305.7,310.3L305.7,310.3z"/>
	<path class="st7" d="M21.4,281.8c0.7,0.1,0.8,0.3,0.7,0.5c-0.1,0.1-0.5,0.3-0.7,0.3c-0.6,0-0.6-0.3-0.5-0.5
		C20.9,282,21.3,281.9,21.4,281.8z"/>
	<path class="st7" d="M292,281.1l-1,0.4c-0.2-0.1-0.5-0.2-0.6-0.4c-0.1-0.2,0.3-0.5,0.7-0.4C291.4,280.8,291.6,280.9,292,281.1
		L292,281.1z"/>
	<path class="st7" d="M296.2,258.9c0.3,0.1,0.6,0.2,0.7,0.4c0.1,0.2-0.2,0.3-0.6,0.3c-0.3,0-0.5-0.2-0.6-0.3
		C295.7,259.2,296,259.1,296.2,258.9L296.2,258.9z"/>
	<path class="st7" d="M797.3,270.9c-0.4,0.2-0.6,0.3-0.9,0.3c-0.5,0-0.6-0.2-0.6-0.3c0-0.2,0.1-0.4,0.6-0.3
		C796.7,270.6,796.9,270.7,797.3,270.9L797.3,270.9z"/>
	<path class="st7" d="M168.3,251.5l-0.9,0.4c-0.2-0.1-0.5-0.2-0.5-0.4s0.3-0.3,0.4-0.4L168.3,251.5L168.3,251.5z"/>
	<path class="st7" d="M698.1,333.1c-0.3,0.1-0.5,0.3-0.8,0.3c-0.1,0-0.5-0.2-0.5-0.2c0.1-0.1,0.3-0.3,0.6-0.3
		C697.3,332.8,697.7,333,698.1,333.1L698.1,333.1z"/>
	<path class="st7" d="M710.9,373.3c0.5-0.1,0.8-0.2,1.1-0.2c0.2,0,0.5,0.2,0.5,0.2c-0.1,0.1-0.4,0.2-0.6,0.4
		C711.6,373.6,711.3,373.5,710.9,373.3z"/>
	<path class="st7" d="M361.9,300.5c-0.4,0.2-0.6,0.3-0.9,0.4c-0.4,0.1-1-0.1-0.9-0.3c0.1-0.1,0.4-0.3,0.7-0.3
		C361.1,300.2,361.4,300.4,361.9,300.5L361.9,300.5z"/>
	<path class="st7" d="M234.5,337.1l-0.8-0.4c0.2-0.1,0.5-0.2,0.8-0.3c0.1,0,0.5,0.1,0.5,0.2C235,336.8,234.7,336.9,234.5,337.1
		L234.5,337.1z"/>
	<path class="st7" d="M294.8,406.6c-0.4,0.1-0.6,0.3-0.8,0.3c-0.4,0-0.7-0.1-0.6-0.3c0-0.1,0.4-0.2,0.5-0.2
		C294.2,406.3,294.5,406.4,294.8,406.6L294.8,406.6z"/>
	<path class="st7" d="M613.8,464.4c-0.4,0.1-0.6,0.2-0.8,0.2c-0.4,0-0.8-0.1-0.7-0.3c0.1-0.1,0.4-0.2,0.6-0.2
		C613.1,464.1,613.3,464.2,613.8,464.4z"/>
	<path class="st7" d="M302.3,335.3l-0.9,0.3c-0.1-0.1-0.4-0.2-0.4-0.3c0-0.1,0.3-0.2,0.5-0.2C301.7,335.1,301.9,335.2,302.3,335.3
		L302.3,335.3z"/>
	<path class="st7" d="M249.8,410.9v-1C250.1,410.2,250.1,410.5,249.8,410.9z"/>
	<path class="st7" d="M633.9,335.3c-0.2-0.2-0.5-0.3-0.5-0.5c0-0.1,0.3-0.2,0.5-0.3c0.2,0.1,0.5,0.2,0.6,0.3
		C634.5,335,634.2,335.2,633.9,335.3L633.9,335.3z"/>
	<path class="st7" d="M89.5,300.3c0.3,0.1,0.5,0.1,0.6,0.2c0.2,0.1-0.1,0.4-0.4,0.3c-0.2,0-0.4-0.1-0.5-0.2
		C89.1,300.6,89.3,300.5,89.5,300.3L89.5,300.3z"/>
	<path class="st7" d="M19.4,376.1c-0.2-0.1-0.5-0.2-0.4-0.3c0-0.1,0.3-0.2,0.5-0.2c0.2,0.1,0.4,0.2,0.5,0.2
		C19.9,375.9,19.7,376,19.4,376.1z"/>
	<path class="st7" d="M220.4,278.8c0.3,0.2,0.5,0.2,0.5,0.3c0,0.2-0.2,0.3-0.6,0.3c-0.2,0-0.5-0.2-0.5-0.2
		C219.8,279.1,220.1,279,220.4,278.8L220.4,278.8z"/>
	<path class="st7" d="M123.9,473.2c0.2,0.3,0.4,0.4,0.4,0.6c0,0.2-0.2,0.3-0.7,0.2c-0.2,0-0.4-0.2-0.3-0.3
		C123.4,473.6,123.6,473.5,123.9,473.2L123.9,473.2z"/>
	<path class="st7" d="M95.5,427.9c-0.3-0.2-0.6-0.3-0.5-0.3c0.2-0.1,0.5-0.2,0.7-0.3c0.1,0,0.5,0.2,0.4,0.2
		C96.1,427.7,95.8,427.8,95.5,427.9z"/>
	<path class="st7" d="M37.2,265.5c-0.4,0.1-0.7,0.2-1,0.2c-0.2,0-0.3-0.2-0.5-0.2c0.3-0.1,0.5-0.2,0.8-0.2
		C36.6,265.2,36.9,265.3,37.2,265.5L37.2,265.5z"/>
	<path class="st7" d="M786.9,439.4c-0.4,0.1-0.7,0.3-0.8,0.2c-0.2-0.1-0.5-0.2-0.6-0.3c0,0,0.4-0.2,0.5-0.2
		C786.4,439.1,786.6,439.3,786.9,439.4L786.9,439.4z"/>
	<path class="st7" d="M330.2,401.7c-0.5,0.1-0.9,0.2-1.1,0.2c-0.2,0-0.4-0.2-0.6-0.3c0.2-0.1,0.5-0.2,0.8-0.2
		S329.7,401.5,330.2,401.7L330.2,401.7z"/>
	<path class="st7" d="M137.9,278.9c-0.3,0.1-0.5,0.3-0.8,0.3c-0.1,0-0.5-0.2-0.5-0.2c0.1-0.1,0.4-0.2,0.6-0.4L137.9,278.9z"/>
	<path class="st7" d="M342.6,302.1c-0.4,0.1-0.8,0.1-0.9,0.1c-0.2-0.1-0.3-0.2-0.5-0.4c0.2,0,0.5-0.1,0.6-0.1
		C342.1,301.8,342.2,302,342.6,302.1z"/>
	<path class="st7" d="M863.3,276.8c-0.4,0-0.7,0.1-0.8,0c-0.2,0-0.2-0.2-0.2-0.3c0.2,0,0.5-0.1,0.7-0.1
		C863.1,276.5,863.2,276.7,863.3,276.8z"/>
	<path class="st7" d="M510.8,397.7c-0.3,0.1-0.5,0.2-0.8,0.3c-0.1,0-0.5-0.2-0.5-0.2c0.1-0.1,0.4-0.2,0.6-0.4L510.8,397.7
		L510.8,397.7z"/>
	<path class="st7" d="M467.6,396.5c0.4,0.1,0.7,0.2,0.8,0.2c0.2,0.2,0,0.3-0.4,0.4c-0.2,0-0.6-0.1-0.6-0.1
		C467.3,396.9,467.5,396.7,467.6,396.5z"/>
	<path class="st7" d="M266.6,346.9c-0.3,0.1-0.4,0.1-0.5,0.1c-0.2,0-0.5-0.1-0.7-0.2c-0.1-0.1-0.1-0.2-0.1-0.3c0.2,0,0.5,0,0.7,0
		C266.2,346.6,266.4,346.8,266.6,346.9z"/>
	<path class="st7" d="M410.1,257.2c0.2,0.2,0.4,0.3,0.4,0.4c0.1,0.2-0.2,0.4-0.5,0.4c-0.2,0-0.4-0.2-0.5-0.3
		C409.5,257.6,409.8,257.5,410.1,257.2z"/>
	<path class="st7" d="M869.3,410.1c-0.4,0.2-0.7,0.3-1,0.3c-0.2,0-0.7-0.2-0.6-0.3c0-0.1,0.4-0.3,0.7-0.3
		C868.6,409.8,868.9,410,869.3,410.1L869.3,410.1z"/>
	<path class="st7" d="M293.2,305.4c-0.3,0.2-0.4,0.3-0.6,0.4c-0.3,0.1-0.7-0.1-0.6-0.3c0.1-0.1,0.3-0.2,0.5-0.3
		C292.7,305.3,293,305.4,293.2,305.4L293.2,305.4z"/>
	<path class="st7" d="M790.8,425.7c-0.2-0.1-0.3-0.3-0.5-0.4c0-0.1,0.2-0.2,0.2-0.2c0.2,0,0.6,0.1,0.7,0.1c0.1,0.1,0.2,0.2,0.2,0.3
		C791.4,425.6,791.1,425.6,790.8,425.7L790.8,425.7z"/>
	<path class="st7" d="M690.2,420.9l-0.8,0.3c-0.2-0.1-0.5-0.2-0.6-0.4c0,0,0.4-0.2,0.5-0.2C689.6,420.6,689.8,420.7,690.2,420.9
		L690.2,420.9z"/>
	<path class="st7" d="M371,320.1c-0.2-0.1-0.5-0.2-0.5-0.3c0-0.1,0.3-0.2,0.5-0.2c0.2,0.1,0.5,0.2,0.5,0.3
		C371.5,319.9,371.3,320,371,320.1L371,320.1z"/>
	<path class="st7" d="M828.4,279.2c-0.2-0.1-0.5-0.1-0.5-0.1c0-0.1,0.1-0.2,0.1-0.3c0.2,0,0.5,0.1,0.5,0.1
		C828.6,279,828.5,279.1,828.4,279.2L828.4,279.2z"/>
	<path class="st7" d="M643.7,237.6c0.1,0.2,0.3,0.4,0.2,0.5c0,0.1-0.4,0.2-0.6,0.2c-0.4,0-0.5-0.2-0.4-0.4
		C643,237.8,643.3,237.8,643.7,237.6L643.7,237.6z"/>
	<path class="st7" d="M727.5,352.4c0.3,0.1,0.5,0.1,0.6,0.2c0.2,0.1-0.2,0.4-0.5,0.3c-0.2,0-0.5-0.1-0.5-0.2
		C727.1,352.7,727.3,352.5,727.5,352.4L727.5,352.4z"/>
	<path class="st7" d="M162.8,413.5l0.6,0.2l-0.5,0.4c-0.1,0-0.4-0.1-0.4-0.1C162.6,413.8,162.7,413.7,162.8,413.5L162.8,413.5z"/>
	<path class="st7" d="M830.2,448.6l-0.7,0.4c-0.2-0.1-0.6-0.2-0.6-0.3c0-0.1,0.3-0.2,0.5-0.4C829.6,448.4,829.8,448.5,830.2,448.6
		L830.2,448.6z"/>
	<path class="st7" d="M862,267.1l-0.9,0.1c-0.1-0.1-0.2-0.3-0.2-0.4c0,0,0.4-0.1,0.4-0.1C861.6,266.8,861.7,266.9,862,267.1
		L862,267.1z"/>
	<path class="st7" d="M127.7,410.8c0.2,0.3,0.5,0.4,0.5,0.5c-0.1,0.1-0.5,0.2-0.7,0.3c-0.2-0.1-0.4-0.2-0.4-0.4
		C127.1,411.1,127.4,411,127.7,410.8L127.7,410.8z"/>
	<path class="st7" d="M786.4,288.4c-0.5,0-0.9,0.1-1.1,0.1c-0.1,0-0.2-0.2-0.3-0.3c0.2,0,0.5-0.1,0.7-0.1
		C785.9,288.1,786,288.2,786.4,288.4L786.4,288.4z"/>
	<path class="st7" d="M797.1,244.7l-0.6,0.3c-0.1-0.1-0.3-0.2-0.4-0.3c0,0,0.2-0.2,0.3-0.2C796.6,244.6,796.8,244.6,797.1,244.7
		L797.1,244.7z"/>
	<path class="st7" d="M377.3,283.6c0.3,0.2,0.6,0.3,0.6,0.3c-0.1,0.1-0.4,0.2-0.6,0.3c-0.2-0.1-0.5-0.2-0.5-0.2
		C376.8,283.9,377,283.8,377.3,283.6L377.3,283.6z"/>
	<path class="st7" d="M1.2,354.6c-0.2-0.1-0.5-0.2-0.4-0.3c0-0.1,0.3-0.2,0.5-0.2c0.2,0.1,0.5,0.2,0.5,0.2
		C1.7,354.4,1.4,354.5,1.2,354.6L1.2,354.6z"/>
	<path class="st7" d="M489.2,416.4c0.3,0,0.6,0.1,0.6,0.1c0,0.1-0.1,0.2-0.2,0.3c-0.2,0-0.5,0-0.5-0.1
		C489,416.6,489.1,416.5,489.2,416.4L489.2,416.4z"/>
	<path class="st7" d="M590.9,242.2l-0.6,0.3c-0.1-0.1-0.3-0.2-0.4-0.3c0,0,0.2-0.2,0.3-0.2C590.4,242.1,590.6,242.2,590.9,242.2
		L590.9,242.2z"/>
	<path class="st7" d="M748.1,280.6c-0.2-0.1-0.5-0.2-0.5-0.3c-0.1-0.2,0.2-0.3,0.6-0.3c0.2,0,0.4,0.2,0.4,0.3
		C748.6,280.4,748.4,280.5,748.1,280.6L748.1,280.6z"/>
	<path class="st7" d="M804.5,274.4c-0.6,0.2-0.7,0.3-1,0.3c-0.3,0-0.8-0.2-0.6-0.3c0.1-0.1,0.4-0.2,0.7-0.2
		C803.9,274.2,804.1,274.3,804.5,274.4L804.5,274.4z"/>
	<path class="st7" d="M280.4,446.5c0-0.1,0.4-0.1,0.6-0.1"/>
	<path class="st7" d="M118.2,247.9c-0.2,0-0.3-0.1-0.4-0.1l0.4-0.3c0.1,0.1,0.3,0.1,0.3,0.2C118.4,247.8,118.2,247.8,118.2,247.9
		L118.2,247.9z"/>
	<path class="st7" d="M843.6,258.4c-0.3-0.2-0.5-0.3-0.5-0.4c0-0.1,0.3-0.2,0.5-0.3c0.2,0.1,0.5,0.2,0.6,0.3
		C844.2,258.1,843.9,258.2,843.6,258.4L843.6,258.4z"/>
	<path class="st7" d="M783.5,325.6c-0.7,0.2-1,0.3-1.2,0.4c-0.1,0-0.4-0.2-0.4-0.3c0-0.2,0.1-0.3,0.6-0.3
		C782.7,325.4,783,325.5,783.5,325.6z"/>
	<path class="st7" d="M235.6,249.5c-0.1-0.2-0.2-0.3-0.1-0.4c0-0.1,0.4-0.1,0.6-0.1c0.1,0.1,0.1,0.3,0.1,0.4
		C236.2,249.4,235.9,249.4,235.6,249.5L235.6,249.5z"/>
	<path class="st7" d="M616.1,347l-0.5,0.3c-0.2-0.1-0.4-0.1-0.5-0.2c0,0,0.2-0.2,0.2-0.2C615.6,346.9,615.8,347,616.1,347L616.1,347
		z"/>
	<path class="st7" d="M310,291.7c0.3,0.1,0.5,0.1,0.6,0.2c0.2,0.1-0.2,0.4-0.6,0.3c-0.2,0-0.5-0.1-0.5-0.2S309.8,291.8,310,291.7
		L310,291.7z"/>
	<path class="st7" d="M302.5,328.7c-0.3,0.1-0.5,0.2-0.8,0.3c-0.1,0-0.4-0.1-0.5-0.2c-0.1-0.2,0.1-0.3,0.5-0.3
		C302,328.5,302.1,328.6,302.5,328.7L302.5,328.7z"/>
	<path class="st7" d="M804.3,328.7c-0.2,0.1-0.3,0.2-0.5,0.3c-0.3,0.1-0.8-0.1-0.7-0.3c0-0.1,0.3-0.2,0.5-0.2
		C803.8,328.5,804,328.6,804.3,328.7L804.3,328.7z"/>
	<path class="st7" d="M830.1,269c-0.3,0.1-0.5,0.2-0.6,0.2s-0.5-0.1-0.5-0.2c0-0.1,0.3-0.2,0.5-0.2
		C829.6,268.8,829.8,268.9,830.1,269L830.1,269z"/>
	<path class="st7" d="M233.4,240.7c-0.1,0.1-0.2,0.1-0.3,0.2l-0.4-0.2c0.1,0,0.3-0.1,0.4-0.1S233.3,240.7,233.4,240.7z"/>
	<path class="st7" d="M466.2,467.3l-0.5,0.3c-0.2-0.1-0.4-0.1-0.5-0.2c0,0,0.2-0.2,0.2-0.2C465.7,467.2,465.9,467.2,466.2,467.3
		L466.2,467.3z"/>
	<path class="st7" d="M758.2,366.4c-0.2,0.1-0.3,0.2-0.5,0.3c-0.4,0-0.7,0-0.7-0.2c0-0.1,0.3-0.2,0.5-0.2
		C757.7,366.2,757.9,366.3,758.2,366.4L758.2,366.4z"/>
	<path class="st7" d="M529.8,339c-0.3,0.1-0.6,0.2-0.9,0.2c-0.1,0-0.4-0.2-0.4-0.3c0.2-0.1,0.5-0.2,0.7-0.3L529.8,339L529.8,339z"/>
	<path class="st7" d="M399.7,437.7c-0.1,0-0.3-0.1-0.4-0.1l0.4-0.2c0.1,0.1,0.3,0.1,0.3,0.2S399.7,437.6,399.7,437.7L399.7,437.7z"
		/>
	<path class="st7" d="M88.9,436.9l-0.5,0v-0.3c0.2,0,0.4,0,0.5,0C89,436.7,88.9,436.8,88.9,436.9z"/>
	<path class="st7" d="M528.4,331l-0.3,0.2c-0.2-0.1-0.4-0.1-0.5-0.2c0,0,0.2-0.1,0.2-0.2L528.4,331z"/>
	<path class="st7" d="M375.7,436.4c0.3,0.1,0.6,0.1,0.6,0.1c0,0.1-0.1,0.3-0.2,0.4c-0.1,0-0.4,0-0.4-0.1
		C375.7,436.7,375.7,436.5,375.7,436.4z"/>
	<path class="st7" d="M201.5,300.2c-0.4,0.1-0.6,0.2-0.8,0.2c-0.2,0-0.3-0.2-0.4-0.3c0,0,0.3-0.1,0.4-0.1
		C201,300.1,201.2,300.2,201.5,300.2L201.5,300.2z"/>
	<path class="st7" d="M291.3,246.8c-0.3,0-0.5,0-0.7,0c-0.1,0-0.1-0.1-0.2-0.2c0.2,0,0.5-0.1,0.7-0.1
		C291.2,246.5,291.2,246.7,291.3,246.8z"/>
	<path class="st7" d="M809.8,300.1c-0.2,0-0.3,0.1-0.5,0.1c-0.1-0.1-0.2-0.2-0.2-0.2c0,0,0.3-0.1,0.4-0.1
		C809.7,300,809.7,300.1,809.8,300.1z"/>
	<path class="st7" d="M106.3,371.9c0.1,0.1,0.3,0.1,0.3,0.2c-0.1,0.1-0.3,0.1-0.4,0.2c-0.1-0.1-0.2-0.1-0.2-0.2
		C105.9,372,106.1,372,106.3,371.9L106.3,371.9z"/>
	<path class="st7" d="M65.5,296.7l-0.6,0.2c-0.1-0.1-0.3-0.2-0.2-0.2c0.1-0.1,0.3-0.1,0.5-0.2L65.5,296.7L65.5,296.7z"/>
	<path class="st7" d="M694.4,256.8l-0.5,0.1c-0.1-0.1-0.1-0.2-0.2-0.3c0,0,0.4-0.1,0.4-0.1C694.3,256.6,694.3,256.7,694.4,256.8
		L694.4,256.8z"/>
	<path class="st7" d="M208.7,257.5c-0.1-0.1-0.2-0.2-0.2-0.3c0,0,0.3-0.1,0.5-0.1c0.1,0.1,0.1,0.2,0.1,0.3
		C209.2,257.4,209,257.4,208.7,257.5L208.7,257.5z"/>
	<path class="st7" d="M779.3,365.5c-0.3,0.1-0.5,0.2-0.7,0.2c-0.2,0-0.5-0.2-0.5-0.2c0-0.1,0.3-0.2,0.5-0.2
		C778.8,365.3,779.1,365.4,779.3,365.5L779.3,365.5z"/>
	<path class="st7" d="M377.1,438.9c-0.3,0.1-0.6,0.2-0.7,0.2c-0.2,0-0.3-0.2-0.4-0.2c0,0,0.3-0.1,0.4-0.1
		C376.6,438.7,376.8,438.8,377.1,438.9L377.1,438.9z"/>
	<path class="st7" d="M323.5,364.2l-0.7,0.2c-0.1-0.1-0.3-0.2-0.3-0.3c0,0,0.3-0.2,0.3-0.1C323.1,364,323.3,364.1,323.5,364.2
		L323.5,364.2z"/>
	<path class="st7" d="M883.7,335.4c-0.1,0.1-0.1,0.1-0.2,0.2c-0.1,0-0.3-0.1-0.4-0.1c0-0.1,0.1-0.1,0.2-0.2
		C883.4,335.3,883.6,335.3,883.7,335.4L883.7,335.4z"/>
	<path class="st7" d="M821.7,268.8c-0.1-0.1-0.2-0.1-0.3-0.2l0.6-0.2c0.1,0.1,0.2,0.2,0.2,0.2C822,268.7,821.8,268.7,821.7,268.8
		L821.7,268.8z"/>
	<path class="st7" d="M759.9,360.4c0.2,0.2,0.4,0.3,0.3,0.3c-0.1,0.1-0.4,0.1-0.6,0.2c-0.1-0.1-0.3-0.1-0.3-0.2
		C759.5,360.6,759.7,360.5,759.9,360.4L759.9,360.4z"/>
	<path class="st7" d="M879.4,252.2l-0.5,0.3c-0.2-0.1-0.4-0.1-0.5-0.2c0,0,0.2-0.2,0.2-0.2C878.9,252.1,879.1,252.2,879.4,252.2
		L879.4,252.2z"/>
	<path class="st7" d="M772.1,247.2c0,0.1-0.1,0.1-0.2,0.2l-0.6-0.2c0.1-0.1,0.2-0.1,0.3-0.2C771.8,247.1,771.9,247.2,772.1,247.2
		L772.1,247.2z"/>
	<path class="st7" d="M345,442.6l-1.2,0.2c-0.1-0.1-0.2-0.2-0.2-0.3c0,0,0.3-0.1,0.4-0.1C344.2,442.5,344.4,442.5,345,442.6z"/>
	<path class="st7" d="M678.9,308.1c0.1,0.1,0.2,0.2,0.2,0.2s-0.3,0.1-0.4,0.1c0-0.1-0.2-0.2-0.1-0.2
		C678.5,308.2,678.8,308.1,678.9,308.1z"/>
	<path class="st7" d="M818.8,418.3c0.2,0.1,0.5,0.2,0.5,0.3c0,0.1-0.3,0.2-0.5,0.3c-0.2-0.1-0.5-0.2-0.5-0.3
		C818.2,418.5,818.5,418.4,818.8,418.3L818.8,418.3z"/>
	<path class="st7" d="M849.3,251.8c0.2,0.1,0.5,0.2,0.5,0.3c0,0.1-0.3,0.2-0.5,0.2c-0.2-0.1-0.5-0.2-0.5-0.2
		C848.9,252,849.1,251.9,849.3,251.8L849.3,251.8z"/>
	<path class="st7" d="M311.6,384l-0.5,0v-0.3c0.1,0,0.4,0,0.4,0C311.6,383.9,311.6,384,311.6,384L311.6,384z"/>
	<path class="st7" d="M715.2,353.1c0-0.1-0.1-0.2-0.1-0.3c0,0,0.3-0.1,0.4-0.1c0.1,0.1,0.2,0.2,0.2,0.3
		C715.8,353,715.5,353.1,715.2,353.1z"/>
	<path class="st7" d="M579.9,243.4c0.2,0.2,0.3,0.3,0.3,0.4s-0.3,0.1-0.5,0.2c-0.1-0.1-0.2-0.1-0.2-0.2
		C579.5,243.6,579.7,243.6,579.9,243.4L579.9,243.4z"/>
	<path class="st7" d="M517.5,315.4c0,0.1,0.1,0.2,0.1,0.3c0,0-0.3,0-0.4,0.1c-0.1-0.1-0.2-0.2-0.2-0.3
		C516.9,315.5,517.2,315.4,517.5,315.4z"/>
	<path class="st7" d="M793.6,259.6c-0.1,0-0.3,0.1-0.4,0.1s-0.2-0.1-0.3-0.2c0.1,0,0.3-0.1,0.4-0.1
		C793.4,259.5,793.5,259.6,793.6,259.6z"/>
	<path class="st7" d="M71.4,392.4l-0.3,0.2c-0.2-0.1-0.4-0.1-0.5-0.2c-0.1,0,0.2-0.1,0.2-0.2L71.4,392.4L71.4,392.4z"/>
	<path class="st7" d="M755.6,243.3c-0.1,0.1-0.2,0.1-0.2,0.2l-0.5-0.2l0.5-0.2C755.5,243.1,755.6,243.2,755.6,243.3L755.6,243.3z"/>
	<path class="st7" d="M133.1,261.8c0.1,0,0.2-0.1,0.4-0.1l0.3,0.3c-0.1,0-0.3,0.1-0.4,0.1C133.2,262,133.1,261.9,133.1,261.8
		L133.1,261.8z"/>
	<path class="st7" d="M474,325.9c-0.1,0.1-0.2,0.1-0.3,0.2c-0.1,0-0.3-0.1-0.4-0.1c0,0,0.2-0.1,0.2-0.2
		C473.8,325.8,473.9,325.8,474,325.9z"/>
	<path class="st7" d="M418.6,346.2c-0.2-0.1-0.5-0.2-0.5-0.3c0-0.1,0.3-0.2,0.5-0.3c0.2,0.1,0.5,0.2,0.5,0.3
		C419,345.9,418.8,346,418.6,346.2L418.6,346.2z"/>
	<path class="st7" d="M259.6,241.8c-0.2,0-0.4,0-0.5,0c-0.1,0,0-0.1,0-0.2c0.2,0,0.4,0,0.5,0C259.6,241.6,259.5,241.7,259.6,241.8
		L259.6,241.8z"/>
	<path class="st7" d="M153,284c-0.2,0.1-0.4,0.2-0.6,0.3c-0.3,0.1-0.7-0.1-0.6-0.3c0.1-0.1,0.4-0.2,0.5-0.2
		C152.5,283.8,152.7,283.9,153,284L153,284z"/>
	<path class="st7" d="M256.4,241.6l-0.5,0.2c-0.1-0.1-0.3-0.1-0.2-0.2c0-0.1,0.2-0.2,0.3-0.2C256,241.4,256.1,241.5,256.4,241.6
		L256.4,241.6z"/>
	<path class="st7" d="M515.7,264.1c0.2,0,0.3,0,0.5,0.1l-0.3,0.3c-0.1,0-0.3-0.1-0.4-0.1C515.5,264.2,515.7,264.1,515.7,264.1
		L515.7,264.1z"/>
	<path class="st7" d="M706.5,337l-0.5,0.3c-0.2-0.1-0.4-0.1-0.5-0.2c0,0,0.2-0.2,0.3-0.2C705.9,336.9,706.2,337,706.5,337L706.5,337
		z"/>
	<path class="st7" d="M464.5,407.7c-0.1,0.1-0.2,0.1-0.4,0.2l-0.4-0.3c0.1,0,0.3-0.1,0.5-0.1C464.3,407.6,464.4,407.7,464.5,407.7z"
		/>
	<path class="st7" d="M404.9,391.3l-0.6,0.3c-0.1-0.1-0.4-0.2-0.4-0.2c0,0,0.2-0.2,0.3-0.2C404.4,391.1,404.6,391.2,404.9,391.3
		L404.9,391.3z"/>
	<path class="st7" d="M604.9,249.5c-0.1,0.1-0.1,0.1-0.2,0.2c-0.1,0-0.3-0.1-0.4-0.1c0-0.1,0.1-0.1,0.2-0.2
		C604.7,249.4,604.8,249.5,604.9,249.5L604.9,249.5z"/>
	<path class="st7" d="M133.6,405.2c-0.1,0-0.2,0.1-0.3,0.1c0,0-0.1-0.1-0.1-0.1c0.1,0,0.2-0.1,0.3-0.1L133.6,405.2L133.6,405.2z"/>
	<path class="st7" d="M817.5,275.6l0.2,0.1c-0.1,0-0.2,0.1-0.3,0.1c0,0-0.1,0-0.2-0.1C817.3,275.7,817.4,275.7,817.5,275.6
		L817.5,275.6z"/>
	<path class="st7" d="M400.3,275c-0.1,0-0.2,0-0.2,0c-0.1,0-0.1-0.1-0.2-0.1l0.4-0.1L400.3,275L400.3,275z"/>
	<path class="st7" d="M60.5,289.9c-0.1,0-0.2-0.1-0.4-0.1c0.1,0,0.2-0.1,0.3-0.1c0,0,0.2,0,0.2,0.1
		C60.6,289.8,60.5,289.9,60.5,289.9L60.5,289.9z"/>
	<path class="st7" d="M500.5,294.7l0.1-0.1c0.1,0,0.2,0.1,0.3,0.1c0,0-0.1,0.1-0.1,0.1C500.7,294.7,500.6,294.7,500.5,294.7
		L500.5,294.7z"/>
	<path class="st7" d="M251.4,408.8c-0.1,0-0.2,0.1-0.4,0.1c0-0.1-0.1-0.2,0-0.2c0,0,0.1,0,0.2-0.1
		C251.3,408.7,251.3,408.8,251.4,408.8L251.4,408.8z"/>
	<path class="st7" d="M683.6,295.9c-0.1,0-0.2,0.1-0.3,0.1c-0.1,0-0.2-0.1-0.2-0.2c0,0,0.1-0.1,0.2-0.1
		C683.4,295.8,683.5,295.8,683.6,295.9L683.6,295.9z"/>
	<path class="st7" d="M739.9,298c-0.1,0-0.3-0.1-0.4-0.1l0.4-0.2c0.1,0,0.3,0.1,0.3,0.2C740.1,297.9,740,297.9,739.9,298L739.9,298z
		"/>
	<path class="st7" d="M764.5,270.9l0.1-0.1c0.1,0,0.2,0.1,0.3,0.1c0,0-0.1,0.1-0.1,0.1C764.7,270.9,764.6,270.9,764.5,270.9z"/>
	<path class="st7" d="M736.4,297.8c0.1,0,0.4,0,0.4,0.1c0,0-0.1,0.1-0.2,0.2c-0.1,0-0.4,0-0.4-0.1
		C736.2,297.9,736.4,297.9,736.4,297.8z"/>
	<path class="st7" d="M12.1,393.5c-0.1,0.1-0.1,0.1-0.2,0.2l-0.6-0.1c0.1,0,0.2-0.1,0.3-0.1C11.8,393.4,12,393.5,12.1,393.5
		L12.1,393.5z"/>
	<path class="st7" d="M108.6,283.3c0.1,0,0.3,0.1,0.4,0.1c-0.1,0-0.2,0.1-0.3,0.1c0,0-0.2,0-0.2,0
		C108.5,283.5,108.6,283.4,108.6,283.3L108.6,283.3z"/>
	<path class="st7" d="M749.5,269.4c-0.1,0-0.3-0.1-0.4-0.1c0-0.1,0.1-0.1,0.1-0.2l0.6,0.1C749.6,269.2,749.5,269.3,749.5,269.4
		L749.5,269.4z"/>
	<path class="st7" d="M538.5,390.6c0.1,0,0.2,0,0.2,0c0.1,0,0.1,0.1,0.2,0.1l-0.4,0.1L538.5,390.6L538.5,390.6z"/>
	<path class="st7" d="M773.6,413.5l0.5-0.3c0.1,0.1,0.3,0.2,0.4,0.2c0,0-0.1,0.1-0.2,0.2L773.6,413.5L773.6,413.5z"/>
	<path class="st7" d="M203,303.5l-0.1,0.1c-0.1,0-0.2,0-0.2,0c0,0,0.1-0.1,0.1-0.1L203,303.5L203,303.5z"/>
	<path class="st7" d="M232.4,414.2l-0.3-0.2l0.4-0.1c0,0,0.1,0.1,0.1,0.1C232.6,414,232.5,414.1,232.4,414.2z"/>
	<path class="st7" d="M782.5,282.8L782.5,282.8c-0.2,0.1-0.3,0.1-0.3,0s0-0.1,0.1-0.1L782.5,282.8L782.5,282.8z"/>
	<path class="st7" d="M469,384.6l0.3,0.1c-0.1,0-0.2,0.1-0.4,0.1c0,0-0.2-0.1-0.2-0.1C468.9,384.8,468.9,384.7,469,384.6L469,384.6z
		"/>
	<path class="st7" d="M802.3,382.8c-0.1-0.1-0.2-0.2-0.2-0.3c0-0.1,0.3-0.1,0.5-0.1c0,0.1,0.1,0.2,0.1,0.3
		C802.8,382.7,802.5,382.8,802.3,382.8z"/>
	<path class="st7" d="M854.5,381.7l-0.3,0.2c-0.2-0.1-0.4-0.1-0.5-0.2c0,0,0.2-0.2,0.2-0.2C854.2,381.6,854.3,381.6,854.5,381.7
		L854.5,381.7z"/>
	<path class="st7" d="M849.6,307.5l0.2,0.1c-0.1,0-0.2,0.1-0.3,0.1c0,0-0.1,0-0.2-0.1C849.4,307.6,849.5,307.6,849.6,307.5
		L849.6,307.5z"/>
	<path class="st7" d="M226.4,308.3c0.1,0,0.4,0,0.4,0.1s-0.1,0.1-0.1,0.2c-0.1,0-0.4,0-0.4-0.1C226.2,308.4,226.3,308.3,226.4,308.3
		L226.4,308.3z"/>
	<path class="st7" d="M638.5,421.2c0.2,0,0.4,0,0.4,0.1c0,0-0.1,0.1-0.2,0.2c-0.1,0-0.4,0-0.4-0.1
		C638.3,421.3,638.4,421.2,638.5,421.2L638.5,421.2z"/>
	<path class="st7" d="M536.5,378.6L536.5,378.6c0,0.1-0.1,0.1-0.1,0.1c0,0-0.1-0.1-0.1-0.1L536.5,378.6L536.5,378.6z"/>
	<path class="st7" d="M700.3,237.4c0.1,0,0.2,0,0.2,0c0,0,0,0.1,0,0.1l-0.3-0.1L700.3,237.4L700.3,237.4z"/>
	<path class="st7" d="M792.5,253.8l-0.2-0.1l0.3-0.1c0,0,0.1,0.1,0,0.1S792.6,253.8,792.5,253.8L792.5,253.8z"/>
	<path class="st7" d="M162.9,311c0,0-0.1,0.1-0.1,0.1c-0.1,0-0.1,0-0.2,0l0.1-0.2L162.9,311L162.9,311z"/>
	<path class="st7" d="M286.6,376.1l-0.2,0.1c-0.1-0.1-0.2-0.1-0.3-0.2c0,0,0.1,0,0.2-0.1C286.5,376,286.6,376.1,286.6,376.1
		L286.6,376.1z"/>
	<path class="st7" d="M508.2,375.7c0.1,0,0.2,0.1,0.3,0.2L508,376c-0.1-0.1-0.2-0.1-0.1-0.2C507.9,375.8,508,375.7,508.2,375.7
		L508.2,375.7z"/>
	<path class="st7" d="M542.9,254.3c0.1-0.1,0.1-0.2,0.2-0.2c0.1,0,0.3,0,0.4,0.1l-0.2,0.2C543.2,254.4,543.1,254.3,542.9,254.3
		L542.9,254.3z"/>
	<path class="st7" d="M366.8,375.5l0.1,0.1l-0.2,0L366.8,375.5L366.8,375.5z"/>
	<path class="st7" d="M696.7,238c0.1-0.1,0.1-0.2,0.2-0.2c0.1,0,0.3,0,0.4,0.1c-0.1,0.1-0.1,0.2-0.2,0.2
		C697,238.1,696.8,238,696.7,238z"/>
	<path class="st7" d="M331,430.5l0.1-0.1c0.1,0,0.2,0.1,0.3,0.1c0,0-0.1,0.1-0.1,0.1C331.2,430.6,331.1,430.6,331,430.5z"/>
	<path class="st7" d="M618.8,319.9c0.1,0,0.2,0.1,0.3,0.1l-0.5,0.2c-0.1-0.1-0.2-0.1-0.2-0.2C618.5,320,618.7,319.9,618.8,319.9z"/>
	<path class="st7" d="M876.6,238.6l0.4,0.2l-0.5,0.2c-0.1-0.1-0.2-0.1-0.2-0.2C876.3,238.7,876.5,238.7,876.6,238.6z"/>
	<path class="st7" d="M851,373.7c-0.1,0.1-0.1,0.2-0.2,0.2c-0.1,0-0.3,0-0.4-0.1c0.1-0.1,0.1-0.2,0.2-0.2
		C850.7,373.6,850.9,373.7,851,373.7L851,373.7z"/>
	<path class="st7" d="M594,373.4c0.2,0,0.3,0.1,0.4,0.1c-0.1,0.1-0.1,0.2-0.2,0.2c-0.1,0-0.3,0-0.4-0.1
		C593.8,373.5,593.9,373.4,594,373.4z"/>
	<path class="st7" d="M216,265.7c0,0.1,0,0.1,0,0.2c0,0-0.1,0-0.2,0c0-0.1,0-0.1,0-0.2C215.7,265.7,215.9,265.7,216,265.7z"/>
	<path class="st7" d="M429.1,372.1c-0.1,0-0.2,0.1-0.3,0.1c-0.1-0.1-0.1-0.1-0.2-0.2c0,0,0.1-0.1,0.1-0.1
		C428.9,372,429,372.1,429.1,372.1L429.1,372.1z"/>
	<path class="st7" d="M754.4,329.2c-0.2,0-0.3,0-0.5,0c0-0.1,0-0.1,0.1-0.2c0,0,0.2,0,0.2,0C754.3,329.1,754.3,329.1,754.4,329.2z"
		/>
	<path class="st7" d="M782.6,238.8c0.2,0,0.3-0.1,0.5-0.1c0.1,0,0.1,0.1,0.2,0.2c-0.2,0-0.3,0.1-0.5,0.1S782.7,238.9,782.6,238.8
		L782.6,238.8z"/>
	<path class="st7" d="M377.4,239.8c-0.1,0-0.2,0.1-0.3,0.1c0-0.1-0.1-0.1-0.1-0.2c0,0,0.2-0.1,0.3-0.1
		C377.3,239.6,377.4,239.7,377.4,239.8z"/>
	<path class="st7" d="M32.2,263.9c-0.2,0-0.4,0-0.4-0.1c0,0,0.1-0.1,0.2-0.2c0.2,0,0.4,0,0.4,0.1C32.5,263.7,32.3,263.8,32.2,263.9z
		"/>
	<path class="st7" d="M444.4,338.7c0,0,0.1,0.1,0.1,0.1c-0.1,0-0.2,0.1-0.4,0.1c0,0-0.1-0.1-0.1-0.1
		C444.1,338.7,444.3,338.7,444.4,338.7z"/>
	<path class="st7" d="M317.5,438.2c-0.1,0.1-0.1,0.1-0.2,0.2c-0.1,0-0.4-0.1-0.4-0.1c0,0,0.1-0.1,0.2-0.2
		C317.2,438.1,317.4,438.2,317.5,438.2L317.5,438.2z"/>
	<path class="st7" d="M155.8,364.9c-0.1-0.1-0.2-0.1-0.3-0.2c0.1,0,0.2-0.1,0.4-0.1c0,0,0.2,0.1,0.1,0.1
		C156,364.7,155.9,364.8,155.8,364.9L155.8,364.9z"/>
	<path class="st7" d="M669.6,344.4c0.1,0,0.1,0,0.2,0c0,0,0.1,0,0.1,0.1L669.6,344.4L669.6,344.4L669.6,344.4z"/>
	<path class="st7" d="M144.3,344.7c-0.1,0-0.3,0-0.4,0c0,0,0-0.1,0-0.1c0.1,0,0.3,0,0.5,0L144.3,344.7L144.3,344.7z"/>
	<path class="st7" d="M147.5,281c-0.1-0.1-0.2-0.1-0.3-0.2l0.6-0.1c0.1,0.1,0.2,0.2,0.1,0.2C147.9,281,147.6,281,147.5,281
		L147.5,281z"/>
	<path class="st7" d="M222,280.7c-0.1,0.1-0.1,0.1-0.1,0.2l-0.5-0.2c0.1-0.1,0.2-0.1,0.3-0.2C221.8,280.6,221.9,280.6,222,280.7
		L222,280.7z"/>
	<path class="st7" d="M655,362.4c0.1,0,0.2-0.1,0.4-0.1c0.1,0.1,0.2,0.1,0.2,0.2c0,0-0.1,0.1-0.2,0.1
		C655.2,362.5,655.1,362.5,655,362.4L655,362.4z"/>
	<path class="st7" d="M528.9,346.6c0.1-0.1,0.1-0.1,0.2-0.2c0.1,0,0.3,0.1,0.4,0.1c0,0.1-0.1,0.1-0.2,0.2
		C529.2,346.7,529,346.7,528.9,346.6L528.9,346.6z"/>
	<path class="st7" d="M216.6,347.8c0.1,0,0.2-0.1,0.3-0.2c0.1,0.1,0.2,0.1,0.3,0.2c0,0-0.1,0.1-0.2,0.1
		C216.9,347.8,216.7,347.8,216.6,347.8L216.6,347.8z"/>
	<path class="st7" d="M547.9,257.8c0.1,0,0.3,0.1,0.3,0.1c0,0.1-0.1,0.1-0.2,0.2l-0.5-0.2C547.6,257.9,547.8,257.9,547.9,257.8
		L547.9,257.8z"/>
	<path class="st7" d="M665.3,241.5l-0.7,0.2c-0.1-0.1-0.3-0.2-0.4-0.3c0,0,0.2-0.1,0.3-0.1C664.8,241.3,665,241.4,665.3,241.5z"/>
	<path class="st7" d="M840,347.6c0.1,0,0.2,0.1,0.3,0.2c-0.1,0-0.3,0.1-0.4,0.1c0,0-0.2-0.1-0.1-0.1
		C839.8,347.7,839.9,347.7,840,347.6L840,347.6z"/>
	<path class="st7" d="M814.8,449.9c-0.1,0.1-0.1,0.2-0.2,0.2c-0.1,0-0.3,0-0.4-0.1c0.1-0.1,0.1-0.2,0.2-0.2
		C814.5,449.8,814.7,449.9,814.8,449.9L814.8,449.9z"/>
	<path class="st7" d="M132.1,349.5c0.1,0,0.2,0,0.2,0c0,0-0.1,0.1-0.1,0.1C132.2,349.6,132,349.6,132.1,349.5
		C132,349.5,132.1,349.5,132.1,349.5z"/>
	<path class="st7" d="M90,357.2c-0.1,0-0.2,0.1-0.3,0.1c-0.1-0.1-0.2-0.1-0.2-0.2c0,0,0.1-0.1,0.2-0.1
		C89.8,357.1,89.9,357.1,90,357.2L90,357.2z"/>
	<path class="st7" d="M811.6,448.7c0.1,0,0.3,0.1,0.4,0.1c-0.1,0.1-0.1,0.2-0.2,0.2c-0.1,0-0.4,0-0.4-0.1
		C811.4,448.9,811.5,448.8,811.6,448.7L811.6,448.7z"/>
	<path class="st7" d="M183.2,243.7c-0.1,0.1-0.2,0.1-0.3,0.2c-0.1,0-0.3-0.1-0.3-0.1c0-0.1,0.1-0.1,0.2-0.2
		C183,243.6,183.1,243.7,183.2,243.7z"/>
	<path class="st7" d="M656.5,353.2c-0.2,0-0.3,0-0.5,0c0,0,0-0.1,0-0.1c0.2,0,0.3,0,0.5,0C656.5,353.1,656.5,353.2,656.5,353.2z"/>
	<path class="st7" d="M384.2,353.4c-0.1,0-0.3-0.1-0.3-0.1s0.2-0.1,0.3-0.1c0.1,0,0.2,0.1,0.3,0.1
		C384.4,353.3,384.3,353.3,384.2,353.4L384.2,353.4z"/>
	<path class="st7" d="M781.5,352.3c-0.1,0-0.3,0-0.4,0c0,0,0-0.1,0-0.1c0.2,0,0.3,0,0.4,0L781.5,352.3z"/>
	<path class="st7" d="M698.7,286c0.1,0,0.1,0,0.2,0c0,0,0.1,0,0.1,0.1L698.7,286L698.7,286L698.7,286z"/>
	<path class="st7" d="M844.7,249.1c0.1,0,0.3,0.1,0.3,0.1c0,0.1-0.2,0.1-0.2,0.2c-0.1,0-0.2-0.1-0.2-0.1
		C844.6,249.3,844.7,249.2,844.7,249.1L844.7,249.1z"/>
	<path class="st7" d="M250.1,412.3l-0.2,0.1l0-0.2L250.1,412.3L250.1,412.3z"/>
	<path class="st7" d="M485.4,390.4c0.1,0,0.2,0,0.2,0c0,0,0,0.1-0.1,0.1c-0.1,0-0.2,0-0.2,0L485.4,390.4L485.4,390.4z"/>
	<path class="st7" d="M520.9,358.1L520.9,358.1c-0.2,0.1-0.3,0.1-0.3,0s0.1-0.1,0.1-0.1L520.9,358.1z"/>
	<polygon class="st7" points="509.2,387.9 509,387.9 509.2,387.8 	"/>
	<path class="st7" d="M608,303.8l0.1,0.1l-0.3,0.1c0,0,0-0.1,0-0.1C607.8,303.9,607.9,303.9,608,303.8L608,303.8z"/>
	<path class="st7" d="M38.2,380.5c0,0,0,0.1,0,0.1l-0.3-0.1c0,0,0.1-0.1,0.1-0.1C38,380.5,38.1,380.5,38.2,380.5z"/>
	<path class="st7" d="M282,258c-0.1,0-0.3,0-0.4,0c0,0,0-0.1,0-0.1C281.8,257.9,281.9,257.9,282,258L282,258z"/>
	<path class="st7" d="M550.5,346.7l-0.2,0.1c-0.1,0-0.2-0.1-0.2-0.1c0,0,0.1,0,0.1-0.1C550.3,346.6,550.4,346.6,550.5,346.7
		L550.5,346.7z"/>
	<path class="st7" d="M151.1,423.1l0.1,0.1l-0.3,0.1c0,0,0-0.1,0-0.1C151,423.1,151.1,423.1,151.1,423.1L151.1,423.1z"/>
	<path class="st7" d="M818,345.3c-0.2,0-0.3,0.1-0.5,0.1c0-0.1-0.2-0.2-0.1-0.2c0,0,0.3-0.1,0.4-0.1
		C817.9,345.1,818,345.2,818,345.3L818,345.3z"/>
	<path class="st7" d="M664.6,310.1c-0.1,0-0.2,0.1-0.3,0.1c-0.1-0.1-0.2-0.1-0.3-0.2c0,0,0.1-0.1,0.2-0.1
		C664.3,310,664.5,310.1,664.6,310.1z"/>
	<path class="st7" d="M812.2,282.1H812l0.1-0.2c0.1,0,0.2,0,0.2,0.1C812.4,282,812.3,282.1,812.2,282.1L812.2,282.1z"/>
	<path class="st7" d="M1.7,375.4c-0.1,0-0.2,0.1-0.3,0.1c-0.1-0.1-0.2-0.1-0.2-0.2c0,0,0.1-0.1,0.1-0.1
		C1.5,375.3,1.6,375.3,1.7,375.4L1.7,375.4z"/>
	<path class="st7" d="M616.5,371.3l-0.1,0.1c-0.1,0-0.2-0.1-0.3-0.1c0,0,0.1-0.1,0.1-0.1C616.3,371.2,616.4,371.3,616.5,371.3
		L616.5,371.3z"/>
	<path class="st7" d="M225,362.6c0.1,0,0.4,0,0.4,0.1c0,0.1-0.1,0.1-0.2,0.2c-0.1,0-0.4,0-0.4-0.1
		C224.8,362.8,224.9,362.7,225,362.6L225,362.6z"/>
	<path class="st7" d="M660.1,239.3c-0.1,0-0.2,0.1-0.3,0.1c-0.1-0.1-0.2-0.1-0.2-0.2c0,0,0.1-0.1,0.2-0.1
		C659.9,239.2,660,239.2,660.1,239.3L660.1,239.3z"/>
	<path class="st7" d="M742.4,370.9c0,0,0.1,0.1,0.1,0.1c-0.1,0-0.2,0.1-0.3,0.1c0-0.1,0-0.1,0-0.2
		C742.2,371,742.3,370.9,742.4,370.9L742.4,370.9z"/>
	<polygon class="st7" points="790.5,263.1 790.6,263.2 790.4,263.2 	"/>
	<polygon class="st7" points="494.8,468.5 494.9,468.4 495,468.5 	"/>
	<polygon class="st7" points="362,331.3 362.1,331.4 361.9,331.4 	"/>
	<path class="st7" d="M565.6,330.7l-0.1,0.1c0,0-0.1-0.1-0.1-0.1s0.1,0,0.1-0.1L565.6,330.7L565.6,330.7z"/>
	<polygon class="st7" points="748.3,254.6 748.4,254.7 748.3,254.7 	"/>
	<path class="st7" d="M755.3,276.1L755.3,276.1c-0.1,0.1-0.2,0.1-0.2,0c0,0,0,0,0-0.1L755.3,276.1L755.3,276.1z"/>
	<polygon class="st7" points="140.3,319.2 140.3,319.1 140.4,319.1 	"/>
	<path class="st7" d="M493.7,317c0,0,0.1,0.1,0.1,0.1c0,0-0.1,0-0.1,0.1C493.7,317.1,493.7,317.1,493.7,317L493.7,317z"/>
	<polygon class="st7" points="136,455.8 135.8,455.8 135.9,455.8 	"/>
	<polygon class="st7" points="562.2,245.4 562,245.4 562.1,245.3 	"/>
	<polygon class="st7" points="665.7,247.3 665.7,247.4 665.6,247.4 	"/>
	<polygon class="st7" points="802.4,417.3 802.3,417.2 802.5,417.2 	"/>
	<polygon class="st7" points="128.3,387.7 128.1,387.7 128.3,387.7 	"/>
	<polygon class="st7" points="46.2,411.7 46.2,411.7 46.4,411.7 	"/>
	<path class="st7" d="M99.1,271C99.1,270.9,99,270.9,99.1,271C99,270.8,99.1,270.9,99.1,271C99.1,271,99.1,271,99.1,271z"/>
	<polygon class="st7" points="334.1,395.1 333.9,395.2 334,395.1 	"/>
	<polygon class="st7" points="204.2,409.2 204.3,409.3 204.1,409.3 	"/>
	<polygon class="st7" points="668.2,349.7 668,349.7 668.2,349.6 	"/>
	<polygon class="st7" points="790.6,273.9 790.5,274 790.5,273.9 	"/>
	<path class="st7" d="M142.8,290.4l0.2,0l0.1,0.1C143,290.5,142.9,290.5,142.8,290.4C142.8,290.5,142.8,290.4,142.8,290.4
		L142.8,290.4z"/>
	<path class="st7" d="M787.3,286.5L787.3,286.5l-0.3,0c0.1,0,0.2,0,0.2,0C787.2,286.4,787.3,286.5,787.3,286.5L787.3,286.5z"/>
	<polygon class="st7" points="270,350.8 269.8,350.8 269.9,350.8 	"/>
</g>
</svg>
