<?xml version="1.0" encoding="utf-8"?>
<!-- Generator: Adobe Illustrator 26.5.0, SVG Export Plug-In . SVG Version: 6.00 Build 0)  -->
<svg version="1.1" id="Layer_1" xmlns="http://www.w3.org/2000/svg" xmlns:xlink="http://www.w3.org/1999/xlink" x="0px" y="0px"
	 viewBox="0 0 890.9 496" style="enable-background:new 0 0 890.9 496;" xml:space="preserve">
<style type="text/css">
	.st0{opacity:0.67;}
	.st1{fill:#4C4C4C;}
	.st2{opacity:0.88;}
	.st3{fill:#7F7F7F;}
	.st4{opacity:0.48;}
	.st5{fill:#E5E5E5;}
	.st6{opacity:0.72;}
	.st7{fill:#FFFFFF;}
	.st8{opacity:0.4;enable-background:new    ;}
</style>
<g>
	<g class="st0">
		<path class="st1" d="M890.3,311.9C722.9,297.8,732.6,149.8,566.7,235c-221.6,113.8-418,82.9-569,68.6v118.5
			c35.8,28.2,70.4,55.3,84.8,74.1h807.7V311.9L890.3,311.9z"/>
	</g>
	<g class="st2">
		<path class="st3" d="M890.3,317.3c-18.6-0.7-39.1-1.2-61.5-1.4c-168.1-1.3-291.8-109.9-549-23.3c-106.4,35.8-205.5,43.7-282,44.1
			v159.6h892.5V317.3z"/>
	</g>
	<g class="st4">
		<path class="st5" d="M890.3,277.5c-151.2,5.5-349.1,51-450.7,56.5c-146.4,7.8-315.4-19.2-441.8-29.1v191.4h892.5V277.5z"/>
	</g>
	<g class="st6">
		<path class="st7" d="M890.3,358.3c-106.7,19-263.8,6-394.8-9.8c-114.5-13.9-337.7-79.3-497.7-68.1v215.8h892.5V358.3z"/>
	</g>
</g>
<g>
	<path class="st8" d="M380,235.6c-0.4,0.2-0.8,0.3-1.1,0H380z"/>
	<path class="st8" d="M736.5,339c1.4-0.8,1.9-0.9,3.2-0.5c1.2,0.4,2.3,0.7,3.8,0.8c0.7,0,1.2,0.3,1.2,0.6c0.1,0.5,0.1,1.1-0.1,1.7
		c-0.2,0.6-1.9,0.8-2.5,0.3C740.7,340.8,738.1,340.2,736.5,339L736.5,339z"/>
	<path class="st8" d="M851.7,301.7c-2.2-0.2-4.2-0.2-6.3-0.1c-0.1,0-0.2,0-0.3,0c-1,0-1.6-0.2-1.8-0.5c-0.2-0.3,0.4-0.6,1.6-0.7
		c0.8-0.1,1.7-0.1,2.5-0.3c2.2-0.3,4.3-0.1,6.4,0.2c0.3,0,0.7,0.3,0.8,0.5c0.1,0.3-0.2,0.5-0.8,0.6
		C853.1,301.6,852.3,301.6,851.7,301.7L851.7,301.7z"/>
	<path class="st8" d="M638.5,375.6c0.5,0.6,0.5,0.8-0.3,1c-1.6,0.4-3.2,0.7-5.1,0.6c-0.5,0-1-0.1-1.4,0c-1.8,0.5-4,0.4-5.9,0.8
		c-0.7,0.1-1.3,0.1-1.9,0c-0.6-0.2-1.3-0.4-1.3-0.8c0-0.3,0.8-0.4,1.9-0.2c2.3,0.4,4.4,0.2,6.5-0.2c1.2-0.2,2.4-0.5,3.7-0.7
		C636,375.9,637.1,375.5,638.5,375.6L638.5,375.6z"/>
	<path class="st8" d="M15,258c-0.3-0.1-1-0.1-1.4-0.4c-0.6-0.3-0.5-0.7,0-1.1c0.8-0.5,2-0.9,3.4-1c0.4,0,1,0.1,1.1,0.3
		C19.1,257,18.2,257.9,15,258L15,258z"/>
	<path class="st8" d="M546.1,379.1c0,0.1-0.1,0.2-0.2,0.4c-0.1,0.2-0.7,0.4-1.3,0.4c-1.1-0.1-1.9-0.3-2.6-0.7
		c-0.6-0.3-1.1-0.6-0.7-1c0.4-0.4,1.6-0.7,2.5-0.7c0.3,0,0.7,0.1,1,0.2C545.7,378,546.1,378.4,546.1,379.1L546.1,379.1z"/>
	<path class="st8" d="M428.9,350.5c0,0.7-0.9,1.1-2.2,0.9c-1.1-0.1-1.8-0.5-1.9-1c0-0.2,0-0.5,0.3-0.7c0.3-0.3,0.7-0.7,1.8-0.7
		c1,0,1.4,0.4,1.7,0.7C428.7,350,428.8,350.3,428.9,350.5L428.9,350.5z"/>
	<path class="st8" d="M752.8,347.7c0.2,0.1,0.2,0.1,0.2,0.2c0,1.1,0,2.1-0.1,3.2c0,0.1-0.4,0.3-0.7,0.3c-0.2,0-0.6-0.1-0.7-0.2
		c-0.3-0.4-0.6-0.7-0.7-1.1c-0.1-0.6,0-1.2,0.2-1.8C751.2,347.9,751.8,347.7,752.8,347.7L752.8,347.7z"/>
	<path class="st8" d="M827.6,437.1c-0.1,0.2-0.1,0.3-0.2,0.4c-0.1,0.2-0.9,0.4-1.4,0.3c-1.7-0.3-2.8-1.5-2.2-2.3
		c0.2-0.3,1-0.4,1.7-0.2c0.9,0.3,1.5,0.6,1.8,1.1C827.5,436.6,827.5,436.9,827.6,437.1L827.6,437.1z"/>
	<path class="st8" d="M698.4,359.3c-1.4,0.4-2.6,0.8-3.7,1.1c-0.5,0.2-1.1,0.4-1.8,0.3c-0.4,0-0.9-0.2-1.1-0.3
		c-0.2-0.1-0.1-0.4,0.2-0.6c0.5-0.2,1.1-0.5,1.7-0.6c1.3-0.3,2.7-0.3,4.1-0.2C698,359.1,698.1,359.2,698.4,359.3L698.4,359.3z"/>
	<path class="st8" d="M731,377.8c0,0.3-0.5,0.5-1.1,0.5c-1.1-0.2-2.1-0.3-3.1-0.6c-0.7-0.2-0.6-0.6,0-0.9c0.2,0,0.3-0.1,0.5-0.1
		C728.8,376.4,730.8,377,731,377.8L731,377.8z"/>
	<path class="st8" d="M456.5,409.3c-0.3,0.2-0.4,0.5-0.7,0.6c-1,0.4-2.2,0.6-3.5,0.6c-0.4,0-0.8-0.3-0.8-0.4c0.3-0.7,2.3-1.4,4-1.2
		C455.9,409,456.2,409.2,456.5,409.3L456.5,409.3z"/>
	<path class="st8" d="M554.6,464.7c-0.6-0.4-1.1-0.7-1.6-1c-0.2-0.1-0.1-0.3-0.1-0.5c0-0.2,0.6-0.3,1-0.2c0.1,0,0.2,0.1,0.3,0.2
		c0.1,0.1,0.2,0.1,0.5,0.2c0.5,0,1.2-0.1,1.8-0.1c0.6,0,1.3,0,2.2,0C557.8,464.1,556.6,464.5,554.6,464.7L554.6,464.7z"/>
	<path class="st8" d="M184.3,291.7c0,0.3-0.2,0.6-0.9,0.7c-0.8,0.1-1.7,0.2-2.4-0.1c-0.4-0.2-0.4-0.6,0-0.8c0.4-0.1,0.8-0.3,1.2-0.3
		C183.6,290.8,184.4,291,184.3,291.7L184.3,291.7z"/>
	<path class="st8" d="M460.1,383.3c0.3,0,0.5,0,0.7,0c1.1,0.3,1.8,0.9,1.4,1.5c-0.2,0.3-0.6,0.5-1.2,0.4c-0.4,0-0.9-0.1-1.1-0.3
		c-0.5-0.4-0.7-0.9-0.4-1.3C459.6,383.5,459.9,383.4,460.1,383.3L460.1,383.3z"/>
	<path class="st8" d="M477,338.4c-0.2-0.1-0.5-0.1-0.5-0.2c-0.2-0.4-0.6-0.6-1.5-0.6c-0.4,0-0.8-0.2-1-0.4c-0.2-0.2,0-0.5,0.5-0.6
		c0.2-0.1,0.5-0.1,0.7-0.2c0.6-0.1,1.5,0,1.6,0.3c0.1,0.5,0.5,0.8,1.1,1.2C478.2,338.1,477.8,338.4,477,338.4L477,338.4z"/>
	<path class="st8" d="M496.6,357.9c-1.3,0.2-2.1,0.3-3,0.4c-0.4,0-0.9-0.1-1.1-0.3c-0.4-0.2-0.2-0.4,0.2-0.6
		c0.9-0.2,1.8-0.5,2.7-0.6c0.5-0.1,1.2,0.1,1.3,0.4C496.6,357.4,496.6,357.7,496.6,357.9L496.6,357.9z"/>
	<path class="st8" d="M436,349.5c-1.1,0-1.7-0.3-2.1-0.6c-0.4-0.3-0.4-0.6,0.1-0.9c0.4-0.2,1.2-0.3,1.7-0.1c0.8,0.3,1.3,0.9,0.9,1.3
		C436.6,349.3,436.2,349.4,436,349.5L436,349.5z"/>
	<path class="st8" d="M508,472.2c0.1,0.5-0.5,0.9-1.3,1.1c-0.3,0-0.8,0-1-0.1c-0.9-0.4-0.8-1.1,0.3-1.4c0.2-0.1,0.8-0.1,1,0
		C507.4,471.9,507.7,472.1,508,472.2z"/>
	<path class="st8" d="M294.9,420.8c0-0.5,0.5-0.7,1.3-0.7c0.9,0,1.5,0.2,1.5,0.6c0,0.2-0.1,0.4-0.2,0.6c-0.1,0.3-0.4,0.5-1.1,0.5
		c-0.6,0-1-0.2-1.2-0.4C295,421.1,294.9,420.9,294.9,420.8L294.9,420.8z"/>
	<path class="st8" d="M353.9,435.1c0,0.1,0,0.2-0.1,0.3c-0.1,0.3-0.7,0.6-1.3,0.6c-0.6,0-1-0.2-1.2-0.4c-0.1-0.2-0.2-0.3-0.2-0.5
		c0-0.4,0.8-0.7,1.7-0.6C353.6,434.4,354,434.6,353.9,435.1L353.9,435.1z"/>
	<path class="st8" d="M253.5,331.4c-0.7,0.2-1,0.3-1.4,0.3c-0.8,0.1-1.4-0.1-2-0.3c-1.3-0.5-1.4-0.9-0.4-1.6
		C250.3,330.5,251.6,331,253.5,331.4L253.5,331.4z"/>
	<path class="st8" d="M866.3,301.1c1.2,0,2.1,0.3,2.3,0.7c0.1,0.2,0,0.5-0.3,0.6c-0.2,0.1-0.9,0.1-1.2,0c-0.6-0.1-1.1-0.3-1.5-0.6
		c-0.2-0.1-0.1-0.3,0-0.5C865.7,301.2,866.1,301.1,866.3,301.1L866.3,301.1z"/>
	<path class="st8" d="M643.1,263.4c0.1-0.1,0.1-0.3,0.3-0.4c0.1-0.1,0.4-0.2,0.6-0.2c0.2,0,0.6,0.1,0.7,0.1c0.3,0.4,0.7,0.8,0.8,1.2
		c0.1,0.1-0.2,0.3-0.5,0.4c-0.3,0.1-0.7,0-1-0.1C643.3,264.3,643.2,263.9,643.1,263.4L643.1,263.4z"/>
	<path class="st8" d="M325.1,284.9c0.6,0.8,1.8,1.3,3.6,1.7c-0.1,0.1-0.2,0.3-0.3,0.3c-2.3,0.2-4.3-0.6-3.9-1.7
		C324.6,285.1,324.8,285,325.1,284.9L325.1,284.9z"/>
	<path class="st8" d="M54.7,251.1c0-0.3,0.1-0.6,0.9-0.8c0.7-0.2,1.2-0.4,1.9-0.5c0.2,0,0.8,0,0.9,0.1c0.1,0.1-0.1,0.4-0.3,0.4
		c-1.4,0.1-1.8,0.5-2,1.1c0,0.1-0.5,0.2-0.8,0.3c-0.2-0.1-0.4-0.3-0.6-0.4C54.7,251.2,54.7,251.2,54.7,251.1L54.7,251.1z"/>
	<path class="st8" d="M804.5,359c0.3,0.1,0.8,0.1,1.2,0.3c0.5,0.2,0.6,0.5,0.2,0.7c-0.2,0.1-0.8,0.2-1.2,0.3c-0.2,0-0.5,0-0.8-0.1
		c-0.8-0.1-1.2-0.3-1.1-0.6C803,359.2,803.5,359,804.5,359z"/>
	<path class="st8" d="M509.3,370.5c-0.6-0.2-1.1-0.4-1.5-0.6c-0.4-0.2-0.4-0.5,0.1-0.7c0.5-0.2,1-0.2,1.6,0c0.7,0.2,1,0.5,0.8,0.9
		C510.2,370.2,509.7,370.3,509.3,370.5L509.3,370.5z"/>
	<path class="st8" d="M678.2,315.8c-0.1,0.3-0.1,0.6-0.2,0.9c0,0.1-0.4,0.2-0.7,0.2c-0.2,0-0.6-0.1-0.6-0.2c-0.1-0.5-0.2-1-0.2-1.5
		c0-0.1,0.4-0.3,0.7-0.3c0.4-0.1,0.9,0.1,0.9,0.3C678.2,315.3,678.2,315.5,678.2,315.8L678.2,315.8L678.2,315.8z"/>
	<path class="st8" d="M225.3,281.8c0.2,0.1,0.7,0.3,0.8,0.5c0.2,0.3-0.4,0.7-1.1,0.7c-0.6,0-1.4-0.2-1.4-0.5
		C223.4,282.2,224.2,281.8,225.3,281.8L225.3,281.8z"/>
	<path class="st8" d="M404.2,371.8c-0.9,0-1.5-0.3-1.5-0.6c0-0.4,0.7-0.6,1.7-0.6c0.8,0,1.3,0.3,1.2,0.7
		C405.4,371.6,404.9,371.8,404.2,371.8L404.2,371.8z"/>
	<path class="st8" d="M680.3,405.5c0,0-0.2-0.1-0.3-0.2c-0.3-0.5,0.4-1,1.5-1.1c0.4,0,0.9,0.1,1,0.3
		C682.6,405,681.7,405.5,680.3,405.5L680.3,405.5z"/>
	<path class="st8" d="M439.8,252.3c0,0.3-0.4,0.6-1,0.6c-0.8,0.1-1.5-0.2-1.6-0.5c-0.1-0.3,0.6-0.6,1.4-0.7
		C439.2,251.8,439.8,252,439.8,252.3L439.8,252.3z"/>
	<path class="st8" d="M113.5,276.7c-0.2,0.1-0.4,0.3-0.8,0.3c-0.4,0-0.9,0-1.3-0.1c-0.6-0.1-0.8-0.4-0.6-0.6c0.1-0.2,0.6-0.3,1-0.3
		C112.9,275.9,113.6,276.2,113.5,276.7L113.5,276.7z"/>
	<path class="st8" d="M497.1,256.7c-0.6-0.2-1.2-0.4-1.5-0.6c-0.2-0.1-0.2-0.4,0-0.6c0.2-0.1,0.8-0.3,1.1-0.2c0.4,0,0.8,0.2,1,0.4
		C498,256,497.9,256.3,497.1,256.7L497.1,256.7z"/>
	<path class="st8" d="M83.1,359c-0.2,0.1-0.4,0.3-0.7,0.4c-0.4,0-0.9,0-1.2-0.2c-0.6-0.3-0.7-0.8-0.2-1c0.2-0.1,0.5-0.1,0.8-0.1
		C82.6,358.1,83.1,358.4,83.1,359L83.1,359z"/>
	<path class="st8" d="M403.5,351.2c-0.9,0-1.5-0.3-1.4-0.6c0.1-0.3,0.6-0.5,1.3-0.5c0.8,0,1.5,0.3,1.4,0.6
		C404.8,351,404.2,351.2,403.5,351.2L403.5,351.2z"/>
	<path class="st8" d="M758.4,327.9c-0.2-1,0.6-1.5,2.2-1.9C760.5,326.7,760.3,326.8,758.4,327.9z"/>
	<path class="st8" d="M512.3,239c-0.4,0-0.5,0-0.7-0.1c-0.6-0.1-1.3-0.2-1.3-0.6c0-0.1,0.4-0.3,0.7-0.3c1-0.1,1.6-0.1,2,0.3
		c0.2,0.1,0.2,0.3,0,0.5C512.9,238.8,512.5,238.9,512.3,239L512.3,239z"/>
	<path class="st8" d="M293.9,372.8c0,0.4-0.4,0.7-1.2,0.7c-0.6,0-1.1-0.2-1.2-0.4c-0.1-0.4,0.5-0.8,1.4-0.8
		C293.5,372.3,293.9,372.5,293.9,372.8L293.9,372.8z"/>
	<path class="st8" d="M137.8,443.3c-0.1,0.2-0.1,0.3-0.3,0.5c-0.2,0.1-0.6,0.2-0.9,0.2c-0.3,0-0.7-0.2-0.7-0.3
		c-0.1-0.3-0.1-0.6,0.1-0.9c0.1-0.1,0.5-0.3,0.8-0.3c0.5,0,0.8,0.2,0.9,0.4C137.8,443.1,137.7,443.2,137.8,443.3L137.8,443.3z"/>
	<path class="st8" d="M829.9,299c-0.9,0-1.4-0.3-1.4-0.6c0-0.3,0.5-0.6,1.2-0.5c0.8,0,1.2,0.3,1.2,0.7
		C830.9,298.8,830.5,299,829.9,299L829.9,299z"/>
	<path class="st8" d="M368.7,327.6c0.7,0,1.1,0.3,1,0.6c-0.1,0.3-0.7,0.6-1.3,0.6c-0.6,0-1-0.3-1-0.7
		C367.5,327.8,368,327.6,368.7,327.6L368.7,327.6z"/>
	<path class="st8" d="M391.7,268.4c0,0.2,0.1,0.3,0,0.4c-0.2,0.2-0.4,0.4-0.7,0.5c-0.3,0.1-1-0.1-1.2-0.4c-0.1-0.2-0.1-0.3,0-0.5
		c0.1-0.3,0.8-0.5,1.1-0.4C391.2,268.1,391.4,268.3,391.7,268.4C391.7,268.5,391.7,268.6,391.7,268.4L391.7,268.4z"/>
	<path class="st8" d="M315.3,411.2c0.2-0.1,0.3-0.2,0.5-0.3c1.3-0.1,2.6-0.2,3.9-0.2c0.3,0,0.6,0.1,0.9,0.2c0.1,0,0.1,0.2,0,0.2
		c0,0.1-0.2,0.1-0.4,0.1c-0.1,0-0.2,0-0.3,0c-0.8-0.2-1.5-0.4-2.4-0.3c-0.7,0.1-1.4,0.2-2.1,0.3L315.3,411.2L315.3,411.2z"/>
	<path class="st8" d="M472.1,362c0.6,0,1.1,0.3,1.1,0.6c0,0.3-0.4,0.5-1,0.5c-0.8,0-1.5-0.2-1.6-0.5
		C470.5,362.3,471.3,362,472.1,362z"/>
	<path class="st8" d="M753.7,359.8c-0.7,0-1.4-0.3-1.5-0.6c-0.1-0.2,0.5-0.5,1-0.5c0.7,0,1.1,0.2,1.1,0.6
		C754.3,359.6,754.2,359.8,753.7,359.8L753.7,359.8z"/>
	<path class="st8" d="M272.5,343c-0.7,0-1.1-0.3-1.1-0.6c0-0.3,0.5-0.5,1.1-0.5c0.8,0,1.4,0.3,1.2,0.7
		C273.7,342.9,273.2,343,272.5,343L272.5,343z"/>
	<path class="st8" d="M246.3,255c0.5,0.1,1.1,0.2,1.5,0.3c0.2,0.1,0.3,0.3,0.2,0.5c-0.1,0.2-0.7,0.3-1.1,0.2
		c-0.4-0.1-0.8-0.2-1.1-0.3c-0.1-0.1-0.2-0.2-0.1-0.3C245.7,255.2,246,255.1,246.3,255L246.3,255z"/>
	<path class="st8" d="M862,315.6c1,0.8,1,0.9,0.7,1.4c-0.1,0.1-0.5,0.2-0.8,0.3c-0.1-0.1-0.4-0.2-0.4-0.3
		C861.6,316.5,861.8,316.1,862,315.6L862,315.6z"/>
	<path class="st8" d="M748.3,302c-0.2,0.1-0.3,0.4-0.6,0.5c-0.3,0.2-0.8,0.3-1.2,0.1c-0.5-0.1-0.5-0.5,0-0.8
		c0.4-0.2,1.1-0.3,1.5-0.1C748.1,301.8,748.2,301.9,748.3,302L748.3,302z"/>
	<path class="st8" d="M116.4,298.5c0.5,0,1,0.2,1,0.5c0.1,0.3-0.4,0.6-1,0.6c-0.6,0-0.9-0.1-1-0.4
		C115.3,298.9,115.8,298.5,116.4,298.5L116.4,298.5z"/>
	<path class="st8" d="M818.4,298.4c0.7,0.5,1.2,0.9,1.7,1.3c0.1,0.1,0.1,0.3,0,0.5c0,0.1-0.6,0.1-0.7,0.1
		C818.4,299.8,818.2,299.2,818.4,298.4L818.4,298.4z"/>
	<path class="st8" d="M348.7,298.2c-0.8,0-1.5-0.3-1.4-0.6c0.1-0.2,0.7-0.4,1.2-0.4c0.7,0,1.3,0.2,1.3,0.5
		C349.7,298,349.3,298.2,348.7,298.2z"/>
	<path class="st8" d="M286.8,258.8c0.5,0.1,1,0.2,1.4,0.3c0.2,0.1,0.3,0.3,0.2,0.4c-0.1,0.1-0.6,0.2-0.8,0.2c-0.5-0.1-1-0.2-1.4-0.4
		c-0.1-0.1-0.2-0.2-0.1-0.3C286.2,259,286.5,258.9,286.8,258.8L286.8,258.8z"/>
	<path class="st8" d="M763.5,364c-0.2-0.1-0.5-0.1-0.6-0.3c-0.2-0.3,0.3-0.6,1.2-0.7c0.4,0,0.7,0.1,0.8,0.3
		C765,363.7,764.5,363.9,763.5,364L763.5,364z"/>
	<path class="st8" d="M730,313.1c-0.2,0.2-0.4,0.4-0.6,0.6c0,0-0.4,0-0.5,0c-0.7-0.2-0.7-0.5-0.6-0.8c0-0.1,0.2-0.2,0.3-0.3
		c0.1-0.1,0.3-0.1,0.5-0.1c0.2,0,0.5,0.1,0.7,0.2C729.8,312.7,729.9,312.9,730,313.1L730,313.1z"/>
	<path class="st8" d="M2.8,280c0.9,0,1.5,0.2,1.5,0.5c-0.1,0.2-0.4,0.4-0.7,0.5c-0.7,0.1-1.7-0.2-1.5-0.5
		C2.2,280.3,2.6,280.1,2.8,280L2.8,280z"/>
	<path class="st8" d="M376.5,238.4c0.4-0.6,0.7-1,1-1.4c0.1-0.1,0.5-0.2,0.6-0.2c0.2,0.1,0.5,0.2,0.5,0.4c0,0.1-0.2,0.3-0.4,0.4
		C377.8,237.9,377.3,238,376.5,238.4L376.5,238.4z"/>
	<path class="st8" d="M89.7,339.1c-0.2-0.1-0.6-0.2-0.8-0.4c-0.2-0.3,0.4-0.5,1.2-0.6c0.5,0,0.9,0.2,1,0.4
		C91.2,338.8,90.7,339,89.7,339.1L89.7,339.1z"/>
	<path class="st8" d="M816.5,448.8c-0.5-0.2-1-0.4-1.2-0.5c-0.2-0.2,0.5-0.5,1.3-0.5c0.7,0,1.2,0.2,1,0.5
		C817.4,448.5,816.9,448.6,816.5,448.8L816.5,448.8z"/>
	<path class="st8" d="M768,249.9c0,0.4-0.5,0.6-1.2,0.7c-0.6,0-1.1-0.2-1.1-0.5c0-0.3,0.6-0.6,1.2-0.5
		C767.4,249.6,767.8,249.8,768,249.9L768,249.9z"/>
	<path class="st8" d="M29.4,406.1c-0.3,0.1-0.6,0.3-0.9,0.3c-0.2,0-0.6-0.1-0.8-0.2c-0.1-0.1-0.1-0.2-0.1-0.4c0-0.2,0.1-0.4,0.6-0.5
		c0.5,0,0.8,0.1,1,0.3C29.2,405.8,29.3,405.9,29.4,406.1L29.4,406.1z"/>
	<path class="st8" d="M755.3,465.3c-0.4-0.1-0.8-0.2-1.1-0.4c-0.6-0.3-0.8-0.7-0.3-0.7c0.7-0.1,1.3,0,1.7,0.3
		c0.2,0.1,0.3,0.3,0.3,0.5C755.8,465.1,755.5,465.2,755.3,465.3L755.3,465.3z"/>
	<path class="st8" d="M315.5,313.6c-0.1,0.1-0.4,0.3-0.7,0.4c-0.1,0-0.6,0-0.7-0.1c-0.2-0.1-0.3-0.3-0.3-0.5c0-0.2,0.1-0.4,0.7-0.5
		C315,313,315.5,313.2,315.5,313.6L315.5,313.6z"/>
	<path class="st8" d="M741.6,304.1c0-0.2,0.5-0.5,1.1-0.4c0.5,0,0.8,0.2,0.8,0.4c0,0.2-0.3,0.4-0.8,0.4
		C742.2,304.6,741.6,304.4,741.6,304.1L741.6,304.1z"/>
	<path class="st8" d="M575.5,254.3c0,0.3-0.6,0.5-1.2,0.4c-0.5,0-0.9-0.2-0.8-0.4c0.1-0.3,0.4-0.5,1.1-0.5
		C575.1,253.8,575.5,254.1,575.5,254.3L575.5,254.3z"/>
	<path class="st8" d="M414.8,269.6c-0.6,0-1.1-0.2-1.1-0.6c0-0.2,0.2-0.4,0.7-0.5c0.6-0.1,1.2,0.2,1.3,0.5
		C415.8,269.3,415.4,269.6,414.8,269.6L414.8,269.6z"/>
	<path class="st8" d="M605,333.9c-0.3-0.1-0.7-0.2-0.7-0.2c0-0.1,0.2-0.3,0.4-0.4c0.3-0.1,0.7-0.1,1.1-0.1c0.2,0,0.5,0.1,0.6,0.2
		c0,0.1-0.2,0.2-0.3,0.3C605.8,333.8,605.4,333.9,605,333.9L605,333.9z"/>
	<path class="st8" d="M727.2,350.2c-0.6,0.2-0.9,0.4-1.3,0.5c-0.4,0.1-0.8-0.2-0.8-0.4c0-0.2,0.6-0.4,1.2-0.4
		C726.5,349.9,726.8,350,727.2,350.2z"/>
	<path class="st8" d="M727.3,375c-0.3,0.2-0.4,0.3-0.6,0.3c-0.2,0-0.5,0-0.8-0.1c-0.1,0-0.1,0-0.2-0.1c-0.5-0.3-0.6-0.5-0.2-0.7
		c0.2-0.1,0.6-0.1,0.8,0C726.7,374.6,727,374.8,727.3,375L727.3,375z"/>
	<path class="st8" d="M780.5,421.5c0.3-0.1,0.8-0.2,1.2-0.2c0.6,0,0.9,0.3,0.8,0.6c-0.2,0.2-0.5,0.3-1,0.3
		C780.8,422.1,780.4,421.8,780.5,421.5L780.5,421.5z"/>
	<path class="st8" d="M529.6,467.9c-0.1,0.1-0.3,0.3-0.6,0.3c-0.5,0.1-0.8-0.1-1.1-0.3c-0.1-0.1-0.1-0.2-0.2-0.2
		c-0.1-0.2,0.2-0.4,0.7-0.5c0.5,0,0.9,0.1,1,0.3C529.5,467.6,529.5,467.7,529.6,467.9L529.6,467.9z"/>
	<path class="st8" d="M111.2,277.9c-0.6,0.1-0.9,0.3-1.3,0.3c-0.6,0-1.1-0.2-0.9-0.5c0.1-0.2,0.4-0.4,0.9-0.4
		C110.3,277.4,110.6,277.6,111.2,277.9L111.2,277.9z"/>
	<path class="st8" d="M675.1,357.2c0.4,0.2,0.8,0.4,0.9,0.5c0.2,0.2-0.3,0.4-0.8,0.4c-0.5,0-0.9-0.1-0.9-0.4
		C674.3,357.6,674.7,357.4,675.1,357.2L675.1,357.2z"/>
	<path class="st8" d="M296.6,278.5c0,0.4-0.4,0.6-1,0.6c-0.3,0-0.7-0.2-0.8-0.3c-0.2-0.3,0.2-0.6,0.8-0.5
		C296,278.2,296.3,278.4,296.6,278.5L296.6,278.5z"/>
	<path class="st8" d="M808.4,427.7c0.2,0.1,0.6,0.3,0.7,0.5c0.1,0.2-0.5,0.5-1,0.5c-0.5,0-0.8-0.2-0.8-0.4
		C807.2,427.9,807.6,427.7,808.4,427.7L808.4,427.7z"/>
	<path class="st8" d="M705.9,248.5c-0.2,0-0.6,0.2-0.8,0.1c-0.5-0.1-0.8-0.3-1.2-0.5c-0.1,0,0.1-0.3,0.3-0.3
		C705.2,247.7,706,248,705.9,248.5z"/>
	<path class="st8" d="M580.8,376.1c0.3,0,0.7-0.2,1-0.2c0.6,0,1.1,0.2,0.9,0.5c-0.1,0.1-0.4,0.3-0.7,0.3
		C581.4,376.8,580.7,376.5,580.8,376.1L580.8,376.1z"/>
	<path class="st8" d="M394.4,356.5c0.7,0.1,1,0.3,0.9,0.6c-0.1,0.2-0.5,0.4-0.9,0.4c-0.5-0.1-0.9-0.3-0.7-0.6
		C393.8,356.7,394.2,356.6,394.4,356.5L394.4,356.5z"/>
	<path class="st8" d="M284.7,345.5c-0.5,0.2-0.7,0.4-1.1,0.5c-0.5,0.1-1.1-0.2-1.2-0.4c-0.1-0.2,0.4-0.5,1-0.4
		C283.8,345.2,284.1,345.4,284.7,345.5L284.7,345.5z"/>
	<path class="st8" d="M705.7,344.9c0.3,0.3,0.6,0.5,0.6,0.6c0,0.3-0.6,0.5-1.1,0.4c-0.5-0.1-0.9-0.2-0.7-0.5
		C704.6,345.3,705.1,345.1,705.7,344.9L705.7,344.9z"/>
	<path class="st8" d="M149.4,340.5c-0.2,0.1-0.5,0.3-0.9,0.3c-0.5,0.1-1-0.3-0.8-0.5c0.1-0.1,0.4-0.3,0.7-0.3
		C148.9,339.8,149.4,340.1,149.4,340.5L149.4,340.5z"/>
	<path class="st8" d="M736.2,330.7c-0.5,0.1-0.8,0.3-1.1,0.3c-0.6,0-1.1-0.2-1.1-0.4c0-0.2,0.5-0.4,0.9-0.3
		C735.4,330.3,735.7,330.4,736.2,330.7L736.2,330.7z"/>
	<path class="st8" d="M188.7,325.8c0.4,0.3,0.7,0.5,0.9,0.7c0.1,0.2-0.4,0.4-0.8,0.4c-0.5,0-1-0.3-0.9-0.5
		C187.9,326.2,188.3,326,188.7,325.8L188.7,325.8z"/>
	<path class="st8" d="M109.6,317.8c0-0.4,0.5-0.6,1-0.6c0.5,0,0.8,0.2,0.8,0.4c0,0.3-0.4,0.6-0.9,0.5
		C110.1,318,109.8,317.9,109.6,317.8L109.6,317.8z"/>
	<path class="st8" d="M762,306c-0.2,0.1-0.5,0.2-0.9,0.3c-0.5,0.1-1-0.2-0.8-0.5c0.1-0.2,0.3-0.4,0.9-0.4
		C761.6,305.4,762,305.7,762,306z"/>
	<path class="st8" d="M483.8,386.5c0.2,0.2,0.4,0.3,0.4,0.4c0,0.2-0.4,0.4-0.9,0.4c-0.4,0-0.7-0.2-0.5-0.4
		C483,386.8,483.4,386.7,483.8,386.5L483.8,386.5z"/>
	<path class="st8" d="M515.2,336.7c0,0.3-0.2,0.5-0.8,0.5c-0.5,0-0.9-0.1-1-0.3c-0.1-0.2,0.3-0.4,0.8-0.4
		C514.6,336.4,514.9,336.6,515.2,336.7L515.2,336.7z"/>
	<path class="st8" d="M331.9,404.7c-0.2,0.1-0.4,0.3-0.8,0.3c-0.5,0.1-1-0.2-1.1-0.5c0-0.2,0.3-0.4,0.8-0.4
		C331.4,404.1,331.9,404.3,331.9,404.7L331.9,404.7z"/>
	<path class="st8" d="M135.1,332.8c0.5,0.1,0.8,0.1,1,0.1c0.6,0.1,0.8,0.5,0.4,0.6c-0.2,0.1-0.7,0.1-1,0.1c-0.6-0.1-1-0.3-0.8-0.6
		C134.8,333,135,332.9,135.1,332.8L135.1,332.8z"/>
	<path class="st8" d="M128.2,301.3c-0.5,0.2-0.7,0.4-1.1,0.4c-0.4,0-0.9-0.3-0.8-0.5c0.1-0.2,0.6-0.4,1-0.3
		C127.6,301,127.8,301.1,128.2,301.3L128.2,301.3z"/>
	<path class="st8" d="M97.6,271.2c-0.2,0.3-0.5,0.6-0.8,0.9c-0.1,0.1-0.5,0.1-0.7,0.1c-0.2,0-0.5-0.2-0.4-0.3c0-0.2,0.2-0.4,0.4-0.4
		C96.6,271.4,97.1,271.4,97.6,271.2C97.6,271.3,97.6,271.2,97.6,271.2z"/>
	<path class="st8" d="M59.5,341.9c0.4,0.2,0.8,0.2,0.9,0.4c0.2,0.2-0.2,0.5-0.8,0.5c-0.5,0-1-0.2-0.9-0.4
		C58.8,342.2,59.2,342.1,59.5,341.9L59.5,341.9z"/>
	<path class="st8" d="M818.5,296.4c-0.6-0.5-0.7-0.8-0.1-1.1C819.1,295.5,819.1,295.9,818.5,296.4z"/>
	<path class="st8" d="M118,289c0.2-0.1,0.5-0.2,0.8-0.3c0.5-0.1,0.9,0.1,0.9,0.3c0,0.2-0.3,0.4-0.7,0.5
		C118.6,289.6,118,289.4,118,289z"/>
	<path class="st8" d="M863.5,320.9c-0.3,0-0.5,0-0.7-0.1c-0.6-0.3-0.5-0.7,0.1-0.9c0.2-0.1,0.7,0,0.7,0c0.2,0.2,0.3,0.4,0.3,0.6
		C864,320.7,863.7,320.8,863.5,320.9L863.5,320.9z"/>
	<path class="st8" d="M834.8,277.5c-0.5,0.2-0.7,0.4-1,0.5c-0.5,0.1-0.9-0.1-1-0.3c-0.1-0.2,0.3-0.4,0.8-0.4
		C833.9,277.2,834.2,277.3,834.8,277.5L834.8,277.5z"/>
	<path class="st8" d="M214.6,326c-0.5,0.2-0.7,0.4-1.1,0.4c-0.5,0.1-0.9-0.1-0.9-0.3c0-0.2,0.2-0.4,0.7-0.4
		C213.7,325.7,214.1,325.9,214.6,326L214.6,326z"/>
	<path class="st8" d="M233.3,289.2c0,0.2,0.1,0.3,0.1,0.3c-0.2,0.3-0.6,0.4-1.3,0.4c-0.1,0-0.4-0.1-0.4-0.1
		c-0.2-0.3,0.4-0.4,0.9-0.5C232.7,289.2,232.9,289.2,233.3,289.2L233.3,289.2z"/>
	<path class="st8" d="M724.9,349.1c-0.4,0.2-0.6,0.3-0.9,0.4c-0.4,0.1-1-0.2-0.9-0.3c0.1-0.1,0.5-0.3,0.8-0.3
		C724.1,348.8,724.4,349,724.9,349.1L724.9,349.1z"/>
	<path class="st8" d="M473.4,415.3c-0.8-0.4-0.4-0.7-0.2-1C473.6,414.5,473.7,414.9,473.4,415.3z"/>
	<path class="st8" d="M333.7,429.4c-0.6,0.1-0.8,0.3-1.1,0.3c-0.5,0-1-0.2-0.8-0.4c0.1-0.1,0.5-0.3,0.7-0.3
		C332.8,429.1,333.1,429.3,333.7,429.4L333.7,429.4z"/>
	<path class="st8" d="M599.9,294.5c0.4,0.2,0.8,0.3,0.9,0.5c0.1,0.1-0.5,0.3-1,0.3c-0.5,0-0.9-0.2-0.8-0.4
		C599.2,294.7,599.5,294.6,599.9,294.5L599.9,294.5z"/>
	<path class="st8" d="M500.4,239.4c-0.4,0.2-0.5,0.3-0.8,0.4c-0.4,0.1-0.7,0-0.8-0.2c-0.1-0.2,0.3-0.5,0.7-0.5
		C499.7,239.1,500,239.3,500.4,239.4L500.4,239.4z"/>
	<path class="st8" d="M486,413.8c-0.4,0.2-0.6,0.4-0.9,0.4c-0.4,0.1-0.8-0.2-0.8-0.4c0.1-0.2,0.3-0.4,0.9-0.4
		C485.4,413.4,485.6,413.6,486,413.8L486,413.8z"/>
	<path class="st8" d="M872.6,350.8c-0.2-0.1-0.5-0.2-0.5-0.3c0-0.1,0.1-0.3,0.3-0.4c0,0,0.4,0,0.5,0c0.4,0.1,0.5,0.3,0.3,0.5
		C873.2,350.7,872.9,350.8,872.6,350.8L872.6,350.8z"/>
	<path class="st8" d="M86.7,351.5c-0.3,0.2-0.5,0.3-0.7,0.4c-0.4,0.1-0.9-0.1-0.8-0.4c0.1-0.1,0.4-0.3,0.6-0.3
		C86,351.2,86.3,351.4,86.7,351.5L86.7,351.5z"/>
	<path class="st8" d="M238.4,268.6c-0.4-0.2-0.7-0.4-0.8-0.5c0-0.1,0.4-0.3,0.6-0.3c0.5,0,0.9,0.1,0.8,0.4
		C239,268.2,238.7,268.3,238.4,268.6L238.4,268.6z"/>
	<path class="st8" d="M679.7,355.4c-0.3,0-0.6,0-0.6-0.1c-0.1-0.1-0.3-0.3-0.2-0.4c0.1-0.1,0.4-0.2,0.7-0.3c0.1,0,0.4,0,0.5,0
		c0.1,0.1,0.3,0.3,0.2,0.5C680.2,355.2,679.9,355.3,679.7,355.4L679.7,355.4z"/>
	<path class="st8" d="M228.4,355.5c-0.5,0.1-0.9,0.3-1.3,0.4c-0.1,0-0.6-0.2-0.6-0.3c-0.1-0.3,0.7-0.5,1.4-0.4
		C228,355.2,228.2,355.4,228.4,355.5L228.4,355.5z"/>
	<path class="st8" d="M99.5,446.7c-0.6,0.2-0.9,0.3-1.2,0.3c-0.5,0-0.8-0.2-0.8-0.4c0-0.2,0.4-0.4,0.9-0.3
		C98.7,446.4,99,446.5,99.5,446.7z"/>
	<path class="st8" d="M462.3,259.5c-0.4-0.2-0.8-0.3-0.9-0.5c-0.2-0.2,0.3-0.5,1-0.5c0.6,0,0.9,0.2,0.8,0.4
		C463,259.2,462.7,259.3,462.3,259.5L462.3,259.5z"/>
	<path class="st8" d="M363.6,359.6c-0.4,0.2-0.6,0.4-1,0.4c-0.1,0-0.6-0.2-0.7-0.3c-0.2-0.3,0.3-0.6,0.8-0.5
		C363.1,359.3,363.3,359.4,363.6,359.6L363.6,359.6z"/>
	<path class="st8" d="M411.7,362.2c-0.6,0.1-0.9,0.3-1.1,0.3c-0.3,0-0.6-0.1-0.8-0.3c-0.1-0.2,0.1-0.3,0.5-0.3
		C410.7,361.9,411,362,411.7,362.2L411.7,362.2z"/>
	<path class="st8" d="M666,304.3c0.5,0.2,0.9,0.3,1.1,0.5c0.2,0.2-0.2,0.5-0.6,0.5c-0.5,0-0.9-0.2-0.9-0.4
		C665.6,304.7,665.8,304.5,666,304.3z"/>
	<path class="st8" d="M711.7,371.8c0.7,0,1.1,0.4,0.8,0.7c0,0-0.2,0.1-0.2,0.1c-0.3-0.1-0.7-0.1-0.9-0.2s0-0.3,0-0.5
		C711.5,371.8,711.6,371.8,711.7,371.8z"/>
	<path class="st8" d="M863.6,284.4c0.3-0.2,0.5-0.4,0.8-0.5c0.5-0.1,0.8,0.1,0.9,0.3c0.1,0.3-0.3,0.6-0.8,0.5
		C864.3,284.8,864,284.6,863.6,284.4L863.6,284.4z"/>
	<path class="st8" d="M830,257.9c-0.4,0.2-0.7,0.3-1,0.3c-0.4,0-0.9-0.2-0.8-0.4c0.1-0.1,0.5-0.3,0.7-0.3
		C829.3,257.6,829.6,257.7,830,257.9z"/>
	<path class="st8" d="M291.8,303.2c-0.5,0.1-0.7,0.2-1,0.3c-0.5,0-0.6-0.2-0.5-0.3c0.1-0.1,0.5-0.3,0.7-0.3
		C291.2,302.9,291.4,303.1,291.8,303.2L291.8,303.2z"/>
	<path class="st8" d="M390.8,246.2c0.8,0.1,0.9,0.3,0.8,0.5c-0.1,0.1-0.4,0.3-0.7,0.3c-0.5,0-0.9-0.3-0.7-0.5
		C390.2,246.4,390.6,246.3,390.8,246.2L390.8,246.2z"/>
	<path class="st8" d="M750,305.7c-0.5,0.2-0.8,0.3-1.2,0.4c-0.1,0-0.6-0.2-0.6-0.3c0-0.2,0.3-0.4,0.9-0.4
		C749.4,305.4,749.6,305.5,750,305.7L750,305.7z"/>
	<path class="st8" d="M504,240.7l-1.1,0.4c-0.2-0.1-0.5-0.2-0.6-0.4c-0.1-0.2,0.4-0.5,0.8-0.4C503.4,240.4,503.6,240.6,504,240.7
		L504,240.7z"/>
	<path class="st8" d="M695.6,392.6c-0.5,0.1-0.8,0.3-1,0.3c-0.1,0-0.5-0.2-0.5-0.2c0.1-0.1,0.3-0.2,0.5-0.4L695.6,392.6L695.6,392.6
		z"/>
	<path class="st8" d="M889.3,270.7c-0.1,0.1-0.5,0.2-0.5,0.3c0,0.1,0.4,0.3,0.6,0.3c0.2,0,0.6-0.1,0.8-0.2v-0.2
		C890.1,270.8,889.8,270.7,889.3,270.7L889.3,270.7z"/>
	<path class="st8" d="M780.5,329.2c-0.5,0.1-0.8,0.3-1,0.3c-0.4,0-0.8-0.2-0.6-0.4c0.1-0.1,0.4-0.2,0.5-0.2
		C779.7,328.9,779.9,329.1,780.5,329.2z"/>
	<path class="st8" d="M853.8,389.9c-0.4,0.1-0.7,0.3-1,0.3c-0.4,0-0.7-0.2-0.6-0.3c0.1-0.1,0.4-0.2,0.7-0.3L853.8,389.9L853.8,389.9
		z"/>
	<path class="st8" d="M741.8,288.6c-0.4,0.1-0.6,0.3-0.9,0.3c-0.4,0-0.8-0.2-0.6-0.5c0.1-0.1,0.5-0.3,0.8-0.2
		C741.3,288.2,741.5,288.4,741.8,288.6L741.8,288.6z"/>
	<path class="st8" d="M376.5,290.7l-0.9,0.5c-0.2-0.1-0.5-0.2-0.5-0.3c-0.1-0.2,0.2-0.5,0.6-0.4C376,290.5,376.2,290.6,376.5,290.7
		L376.5,290.7z"/>
	<path class="st8" d="M577.1,267.2c0.4,0.4,0.7,0.7,1,1C577.3,268.2,576.9,267.9,577.1,267.2z"/>
	<path class="st8" d="M220.9,323.6c-0.6,0.1-1,0.2-1.4,0.2c-0.1,0-0.4-0.2-0.4-0.3c0-0.2,0.5-0.4,0.9-0.3
		C220.3,323.2,220.5,323.3,220.9,323.6L220.9,323.6z"/>
	<path class="st8" d="M13.2,387.5c0.2-0.1,0.3-0.1,0.4-0.1c0.4,0,0.8,0.1,1.2,0.1c0,0,0,0.1,0,0.1c-0.4,0-0.8,0-1.2,0
		C13.5,387.7,13.4,387.6,13.2,387.5L13.2,387.5z"/>
	<path class="st8" d="M775.9,426.2c-0.3,0.2-0.5,0.3-0.8,0.4c-0.4,0.1-0.9-0.1-0.8-0.3c0.1-0.1,0.4-0.3,0.7-0.3
		C775.2,426,775.5,426.1,775.9,426.2L775.9,426.2z"/>
	<path class="st8" d="M840.7,317.5c-0.4,0.2-0.7,0.3-1.1,0.4c-0.1,0-0.5-0.1-0.5-0.2c0-0.2,0.3-0.4,0.8-0.4
		C840.1,317.2,840.4,317.3,840.7,317.5L840.7,317.5z"/>
	<path class="st8" d="M768.7,261.2c-0.1,0.1-0.3,0.3-0.4,0.3c-0.3,0-0.7-0.1-0.9-0.2c-0.1-0.1-0.1-0.2-0.1-0.4
		c0-0.1,0.2-0.2,0.3-0.2c0.2,0,0.5,0,0.7,0.1C768.6,260.9,768.6,261,768.7,261.2L768.7,261.2z"/>
	<path class="st8" d="M691.7,294.6c-0.3-0.2-0.6-0.4-0.5-0.5c0.1-0.1,0.5-0.3,0.7-0.2c0.2,0,0.6,0.2,0.6,0.3
		C692.5,294.3,692.1,294.4,691.7,294.6L691.7,294.6z"/>
	<path class="st8" d="M367,261.4c-0.2-0.2-0.4-0.4-0.4-0.5c0-0.2,0.6-0.4,0.9-0.3c0.2,0.1,0.4,0.3,0.3,0.4
		C367.8,261.2,367.4,261.2,367,261.4z"/>
	<path class="st8" d="M474.9,261.7c-0.5,0.1-0.8,0.2-1,0.2c-0.2,0-0.5-0.2-0.5-0.3c0-0.2,0.3-0.3,0.7-0.2
		C474.3,261.3,474.5,261.5,474.9,261.7z"/>
	<path class="st8" d="M443.3,291.9c-0.3,0.1-0.5,0.3-0.8,0.3c-0.1,0-0.6-0.2-0.5-0.2c0.1-0.1,0.3-0.3,0.6-0.3
		C442.6,291.7,442.9,291.8,443.3,291.9L443.3,291.9z"/>
	<path class="st8" d="M13.5,247.1c0.2,0.2,0.4,0.3,0.5,0.4c0,0-0.5,0.2-0.5,0.2c-0.3-0.1-0.5-0.2-0.6-0.3
		C12.8,247.3,13.1,247.2,13.5,247.1L13.5,247.1z"/>
	<path class="st8" d="M465.9,416.9c-0.1-0.1-0.3-0.3-0.2-0.4c0.1-0.1,0.5-0.2,0.7-0.3c0.2,0.1,0.6,0.2,0.6,0.3
		C467.1,416.7,466.6,416.9,465.9,416.9L465.9,416.9z"/>
	<path class="st8" d="M823.9,346.3c-0.1,0.1-0.2,0.2-0.4,0.3c-0.2,0-0.7,0-0.7,0c-0.1-0.2-0.1-0.4-0.1-0.6c0,0,0.3-0.1,0.4-0.1
		c0.2,0,0.5,0.1,0.6,0.2C823.9,346,823.8,346.1,823.9,346.3L823.9,346.3z"/>
	<path class="st8" d="M39.5,298c0.2,0.1,0.5,0.2,0.5,0.3c0,0.1-0.3,0.2-0.5,0.2c-0.2-0.1-0.5-0.2-0.5-0.2
		C39,298.3,39.3,298.2,39.5,298L39.5,298z"/>
	<path class="st8" d="M416.7,328.1l-1,0.3c-0.1-0.1-0.4-0.3-0.4-0.4c0-0.1,0.4-0.2,0.5-0.2C416,327.8,416.2,327.9,416.7,328.1
		L416.7,328.1z"/>
	<path class="st8" d="M786.5,312.5l-0.9,0.4c-0.2-0.1-0.6-0.2-0.6-0.4c0-0.1,0.4-0.2,0.6-0.3L786.5,312.5z"/>
	<path class="st8" d="M587.7,459.4c-0.5-0.2-0.9-0.4-1-0.5c-0.1-0.2,0.2-0.3,0.6-0.3c0.3,0,0.6,0.1,0.7,0.3
		C588.1,459,587.9,459.1,587.7,459.4L587.7,459.4z"/>
	<path class="st8" d="M304.2,310.6c-0.2,0.1-0.4,0.3-0.7,0.3c-0.1,0-0.5-0.1-0.6-0.1c-0.1-0.2,0.4-0.4,0.8-0.4
		C303.8,310.4,303.9,310.5,304.2,310.6L304.2,310.6z"/>
	<path class="st8" d="M19.9,282c0.7,0.1,0.8,0.3,0.7,0.5c-0.1,0.1-0.5,0.3-0.7,0.3c-0.6,0-0.6-0.3-0.5-0.5
		C19.4,282.2,19.8,282.1,19.9,282z"/>
	<path class="st8" d="M290.5,281.3l-1,0.4c-0.2-0.1-0.5-0.2-0.6-0.4c-0.1-0.2,0.3-0.5,0.7-0.4C289.9,281,290.1,281.1,290.5,281.3
		L290.5,281.3z"/>
	<path class="st8" d="M294.7,259.1c0.3,0.1,0.6,0.2,0.7,0.4c0.1,0.2-0.2,0.3-0.6,0.3c-0.3,0-0.5-0.2-0.6-0.3
		C294.1,259.4,294.4,259.3,294.7,259.1L294.7,259.1z"/>
	<path class="st8" d="M795.8,271.1c-0.4,0.2-0.6,0.3-0.9,0.3c-0.5,0-0.6-0.2-0.6-0.3c0-0.2,0.1-0.4,0.6-0.3
		C795.2,270.8,795.4,271,795.8,271.1L795.8,271.1z"/>
	<path class="st8" d="M696.6,333.3c-0.3,0.1-0.5,0.3-0.8,0.3c-0.1,0-0.5-0.2-0.5-0.2c0.1-0.1,0.3-0.3,0.6-0.3
		C695.8,333,696.2,333.2,696.6,333.3L696.6,333.3z"/>
	<path class="st8" d="M709.4,373.5c0.5-0.1,0.8-0.2,1.1-0.2c0.2,0,0.5,0.2,0.5,0.2c-0.1,0.1-0.4,0.2-0.6,0.4
		C710.1,373.8,709.8,373.7,709.4,373.5z"/>
	<path class="st8" d="M360.4,300.7c-0.4,0.2-0.6,0.3-0.9,0.4c-0.4,0.1-1-0.1-0.9-0.3c0.1-0.1,0.4-0.3,0.7-0.3
		C359.6,300.5,359.9,300.6,360.4,300.7L360.4,300.7z"/>
	<path class="st8" d="M233,337.4l-0.8-0.4c0.2-0.1,0.5-0.2,0.8-0.3c0.1,0,0.5,0.1,0.5,0.2C233.5,337,233.2,337.1,233,337.4
		L233,337.4z"/>
	<path class="st8" d="M293.3,406.8c-0.4,0.1-0.6,0.3-0.8,0.3c-0.4,0-0.7-0.1-0.6-0.3c0-0.1,0.4-0.2,0.5-0.2
		C292.7,406.5,293,406.7,293.3,406.8L293.3,406.8z"/>
	<path class="st8" d="M612.3,464.6c-0.4,0.1-0.6,0.2-0.8,0.2c-0.4,0-0.8-0.1-0.7-0.3c0.1-0.1,0.4-0.2,0.6-0.2
		C611.6,464.3,611.8,464.4,612.3,464.6z"/>
	<path class="st8" d="M300.8,335.5l-0.9,0.3c-0.1-0.1-0.4-0.2-0.4-0.3c0-0.1,0.3-0.2,0.5-0.2C300.2,335.3,300.4,335.4,300.8,335.5
		L300.8,335.5z"/>
	<path class="st8" d="M248.3,411.1v-1C248.6,410.4,248.6,410.8,248.3,411.1z"/>
	<path class="st8" d="M632.4,335.6c-0.2-0.2-0.5-0.3-0.5-0.4c0-0.1,0.3-0.2,0.5-0.3c0.2,0.1,0.5,0.2,0.6,0.3
		C633,335.3,632.7,335.4,632.4,335.6L632.4,335.6z"/>
	<path class="st8" d="M88,300.6c0.3,0.1,0.5,0.1,0.6,0.2c0.2,0.1-0.1,0.4-0.4,0.3c-0.2,0-0.4-0.1-0.5-0.2
		C87.6,300.8,87.8,300.7,88,300.6L88,300.6z"/>
	<path class="st8" d="M17.9,376.3c-0.2-0.1-0.5-0.2-0.4-0.3c0-0.1,0.3-0.2,0.5-0.2c0.2,0.1,0.4,0.2,0.5,0.2S18.2,376.2,17.9,376.3z"
		/>
	<path class="st8" d="M218.9,279c0.3,0.2,0.5,0.2,0.5,0.3c0,0.2-0.2,0.3-0.6,0.3c-0.2,0-0.5-0.2-0.5-0.2
		C218.3,279.3,218.6,279.2,218.9,279L218.9,279z"/>
	<path class="st8" d="M122.4,473.4c0.2,0.3,0.4,0.4,0.4,0.6c0,0.2-0.2,0.3-0.7,0.2c-0.2,0-0.4-0.2-0.3-0.3
		C121.9,473.8,122.1,473.7,122.4,473.4L122.4,473.4z"/>
	<path class="st8" d="M94,428.2c-0.3-0.2-0.6-0.3-0.5-0.3c0.2-0.1,0.5-0.2,0.7-0.3c0.1,0,0.5,0.2,0.4,0.2
		C94.6,427.9,94.3,428,94,428.2z"/>
	<path class="st8" d="M35.7,265.7c-0.4,0.1-0.7,0.2-1,0.2c-0.2,0-0.3-0.2-0.5-0.2c0.3-0.1,0.5-0.2,0.8-0.2
		C35.1,265.4,35.4,265.6,35.7,265.7L35.7,265.7z"/>
	<path class="st8" d="M785.4,439.6c-0.4,0.1-0.7,0.3-0.8,0.2c-0.2-0.1-0.5-0.2-0.6-0.3c0,0,0.4-0.2,0.5-0.2
		C784.8,439.4,785.1,439.5,785.4,439.6L785.4,439.6z"/>
	<path class="st8" d="M328.7,402c-0.5,0.1-0.9,0.2-1.1,0.2c-0.2,0-0.4-0.2-0.6-0.3c0.2-0.1,0.5-0.2,0.8-0.2S328.2,401.8,328.7,402
		L328.7,402z"/>
	<path class="st8" d="M136.4,279.1c-0.3,0.1-0.5,0.3-0.8,0.3c-0.1,0-0.5-0.2-0.5-0.2c0.1-0.1,0.4-0.2,0.6-0.4L136.4,279.1z"/>
	<path class="st8" d="M341.1,302.4c-0.4,0.1-0.8,0.1-0.9,0.1c-0.2-0.1-0.3-0.2-0.5-0.4c0.2,0,0.5-0.1,0.6-0.1
		C340.6,302,340.7,302.2,341.1,302.4z"/>
	<path class="st8" d="M861.8,277c-0.4,0-0.7,0.1-0.8,0c-0.2,0-0.2-0.2-0.2-0.3c0.2,0,0.5-0.1,0.7-0.1
		C861.6,276.7,861.7,276.9,861.8,277z"/>
	<path class="st8" d="M509.3,398c-0.3,0.1-0.5,0.2-0.8,0.3c-0.1,0-0.5-0.2-0.5-0.2c0.1-0.1,0.4-0.2,0.6-0.4L509.3,398L509.3,398z"/>
	<path class="st8" d="M466.1,396.7c0.4,0.1,0.7,0.2,0.8,0.2c0.2,0.2,0,0.3-0.4,0.4c-0.2,0-0.6-0.1-0.6-0.1
		C465.8,397.1,466,396.9,466.1,396.7z"/>
	<path class="st8" d="M265.1,347.1c-0.3,0.1-0.4,0.1-0.5,0.1c-0.2,0-0.5-0.1-0.7-0.2c-0.1-0.1-0.1-0.2-0.1-0.3c0.2,0,0.5,0,0.7,0
		C264.7,346.8,264.9,347,265.1,347.1z"/>
	<path class="st8" d="M408.6,257.4c0.2,0.2,0.4,0.3,0.4,0.4c0.1,0.2-0.2,0.4-0.5,0.4c-0.2,0-0.4-0.2-0.5-0.3
		C408,257.8,408.3,257.7,408.6,257.4z"/>
	<path class="st8" d="M867.8,410.4c-0.4,0.2-0.7,0.3-1,0.3c-0.2,0-0.7-0.2-0.6-0.3c0-0.1,0.4-0.3,0.7-0.3
		C867.1,410.1,867.4,410.2,867.8,410.4L867.8,410.4z"/>
	<path class="st8" d="M291.7,305.7c-0.3,0.2-0.4,0.3-0.6,0.4c-0.3,0.1-0.7-0.1-0.6-0.3c0.1-0.1,0.3-0.2,0.5-0.3
		C291.2,305.5,291.5,305.6,291.7,305.7L291.7,305.7z"/>
	<path class="st8" d="M789.3,425.9c-0.2-0.1-0.3-0.3-0.5-0.4c0-0.1,0.2-0.2,0.2-0.2c0.2,0,0.6,0.1,0.7,0.1c0.1,0.1,0.2,0.2,0.2,0.3
		C789.9,425.8,789.6,425.9,789.3,425.9L789.3,425.9z"/>
	<path class="st8" d="M688.7,421.1l-0.8,0.3c-0.2-0.1-0.5-0.2-0.6-0.4c0,0,0.4-0.2,0.5-0.2C688.1,420.8,688.3,421,688.7,421.1
		L688.7,421.1z"/>
	<path class="st8" d="M369.5,320.4c-0.2-0.1-0.5-0.2-0.5-0.3c0-0.1,0.3-0.2,0.5-0.2c0.2,0.1,0.5,0.2,0.5,0.3
		C370,320.1,369.8,320.2,369.5,320.4L369.5,320.4z"/>
	<path class="st8" d="M826.9,279.5c-0.2-0.1-0.5-0.1-0.5-0.1c0-0.1,0.1-0.2,0.1-0.3c0.2,0,0.5,0.1,0.5,0.1
		C827.1,279.2,827,279.3,826.9,279.5L826.9,279.5z"/>
	<path class="st8" d="M642.2,237.9c0.1,0.2,0.3,0.4,0.2,0.5c0,0.1-0.4,0.2-0.6,0.2c-0.4,0-0.5-0.2-0.4-0.4
		C641.5,238.1,641.8,238,642.2,237.9L642.2,237.9z"/>
	<path class="st8" d="M726,352.6c0.3,0.1,0.5,0.1,0.6,0.2c0.2,0.1-0.2,0.4-0.5,0.3c-0.2,0-0.5-0.1-0.5-0.2
		C725.6,352.9,725.8,352.8,726,352.6L726,352.6z"/>
	<path class="st8" d="M161.3,413.8l0.6,0.2l-0.5,0.4c-0.1,0-0.4-0.1-0.4-0.1C161.1,414,161.2,413.9,161.3,413.8L161.3,413.8z"/>
	<path class="st8" d="M828.7,448.9l-0.7,0.4c-0.2-0.1-0.6-0.2-0.6-0.3c0-0.1,0.3-0.2,0.5-0.4C828.1,448.7,828.3,448.7,828.7,448.9
		L828.7,448.9z"/>
	<path class="st8" d="M860.5,267.3l-0.9,0.1c-0.1-0.1-0.2-0.3-0.2-0.4c0,0,0.4-0.1,0.4-0.1C860.1,267,860.2,267.2,860.5,267.3
		L860.5,267.3z"/>
	<path class="st8" d="M126.2,411c0.2,0.3,0.5,0.4,0.5,0.5c-0.1,0.1-0.4,0.2-0.7,0.3c-0.2-0.1-0.4-0.2-0.4-0.4
		C125.6,411.3,125.9,411.2,126.2,411L126.2,411z"/>
	<path class="st8" d="M784.9,288.6c-0.5,0-0.9,0.1-1.1,0.1c-0.1,0-0.2-0.2-0.3-0.3c0.2,0,0.5-0.1,0.7-0.1
		C784.4,288.3,784.5,288.4,784.9,288.6L784.9,288.6z"/>
	<path class="st8" d="M375.8,283.8c0.3,0.2,0.6,0.3,0.6,0.3c-0.1,0.1-0.4,0.2-0.6,0.3c-0.2-0.1-0.5-0.2-0.5-0.2
		C375.3,284.1,375.5,284,375.8,283.8L375.8,283.8z"/>
	<path class="st8" d="M-0.3,354.8c-0.2-0.1-0.5-0.2-0.4-0.3c0-0.1,0.3-0.2,0.5-0.2c0.2,0.1,0.5,0.2,0.5,0.2
		C0.2,354.6-0.1,354.7-0.3,354.8L-0.3,354.8z"/>
	<path class="st8" d="M487.7,416.6c0.3,0,0.6,0.1,0.6,0.1c0,0.1-0.1,0.2-0.2,0.3c-0.2,0-0.5,0-0.5-0.1
		C487.5,416.8,487.6,416.7,487.7,416.6L487.7,416.6z"/>
	<path class="st8" d="M589.4,242.5l-0.6,0.3c-0.1-0.1-0.3-0.2-0.4-0.3c0,0,0.2-0.2,0.3-0.2C588.9,242.3,589.1,242.4,589.4,242.5
		L589.4,242.5z"/>
	<path class="st8" d="M746.6,280.8c-0.2-0.1-0.5-0.2-0.5-0.3c-0.1-0.2,0.2-0.3,0.6-0.3c0.2,0,0.4,0.2,0.4,0.3
		C747.1,280.6,746.8,280.7,746.6,280.8L746.6,280.8z"/>
	<path class="st8" d="M803,274.6c-0.6,0.2-0.7,0.3-1,0.3c-0.3,0-0.8-0.2-0.6-0.3c0.1-0.1,0.4-0.2,0.7-0.2
		C802.4,274.5,802.6,274.5,803,274.6L803,274.6z"/>
	<path class="st8" d="M278.9,446.7c0-0.1,0.4-0.1,0.6-0.1"/>
	<path class="st8" d="M116.7,248.1c-0.2,0-0.3-0.1-0.4-0.1l0.4-0.3c0.1,0.1,0.3,0.1,0.3,0.2C116.9,248,116.7,248.1,116.7,248.1
		L116.7,248.1z"/>
	<path class="st8" d="M842.1,258.6c-0.3-0.2-0.5-0.3-0.5-0.4c0-0.1,0.3-0.2,0.5-0.3c0.2,0.1,0.5,0.2,0.6,0.3
		C842.7,258.3,842.4,258.4,842.1,258.6L842.1,258.6z"/>
	<path class="st8" d="M782,325.8c-0.7,0.2-1,0.3-1.2,0.4c-0.1,0-0.4-0.2-0.4-0.3c0-0.2,0.1-0.3,0.6-0.3
		C781.2,325.6,781.4,325.7,782,325.8z"/>
	<path class="st8" d="M234.1,249.7c-0.1-0.2-0.2-0.3-0.1-0.4c0-0.1,0.4-0.1,0.6-0.1c0.1,0.1,0.1,0.3,0.1,0.4
		C234.7,249.6,234.4,249.7,234.1,249.7L234.1,249.7z"/>
	<path class="st8" d="M614.6,347.3l-0.5,0.3c-0.2-0.1-0.4-0.1-0.5-0.2c0,0,0.2-0.2,0.2-0.2C614.1,347.1,614.3,347.2,614.6,347.3
		L614.6,347.3z"/>
	<path class="st8" d="M308.5,291.9c0.3,0.1,0.5,0.1,0.6,0.2c0.2,0.1-0.2,0.4-0.6,0.3c-0.2,0-0.5-0.1-0.5-0.2S308.3,292,308.5,291.9
		L308.5,291.9z"/>
	<path class="st8" d="M301,329c-0.3,0.1-0.5,0.2-0.8,0.3c-0.1,0-0.4-0.1-0.5-0.2c-0.1-0.2,0.1-0.3,0.5-0.3
		C300.5,328.7,300.6,328.8,301,329L301,329z"/>
	<path class="st8" d="M802.8,328.9c-0.2,0.1-0.3,0.2-0.5,0.3c-0.3,0.1-0.8-0.1-0.7-0.3c0-0.1,0.3-0.2,0.5-0.2
		C802.3,328.7,802.5,328.8,802.8,328.9L802.8,328.9z"/>
	<path class="st8" d="M828.6,269.3c-0.3,0.1-0.5,0.2-0.6,0.2s-0.5-0.1-0.5-0.2c0-0.1,0.3-0.2,0.5-0.2
		C828.1,269,828.3,269.2,828.6,269.3L828.6,269.3z"/>
	<path class="st8" d="M231.9,241c-0.1,0.1-0.2,0.1-0.3,0.2l-0.4-0.2c0.1,0,0.3-0.1,0.4-0.1S231.8,240.9,231.9,241z"/>
	<path class="st8" d="M464.7,467.5l-0.5,0.3c-0.2-0.1-0.4-0.1-0.5-0.2c0,0,0.2-0.2,0.2-0.2C464.2,467.4,464.4,467.5,464.7,467.5
		L464.7,467.5z"/>
	<path class="st8" d="M756.7,366.6c-0.2,0.1-0.3,0.2-0.5,0.3c-0.4,0-0.7,0-0.7-0.2c0-0.1,0.3-0.2,0.5-0.2
		C756.2,366.5,756.4,366.6,756.7,366.6L756.7,366.6z"/>
	<path class="st8" d="M528.3,339.2c-0.3,0.1-0.6,0.2-0.9,0.2c-0.1,0-0.4-0.2-0.4-0.3c0.2-0.1,0.5-0.2,0.7-0.3L528.3,339.2
		L528.3,339.2z"/>
	<path class="st8" d="M398.2,437.9c-0.1,0-0.3-0.1-0.4-0.1l0.4-0.2c0.1,0.1,0.3,0.1,0.3,0.2S398.2,437.9,398.2,437.9L398.2,437.9z"
		/>
	<path class="st8" d="M87.4,437.1l-0.5,0v-0.3c0.2,0,0.4,0,0.5,0C87.5,436.9,87.4,437,87.4,437.1z"/>
	<path class="st8" d="M526.9,331.2l-0.3,0.2c-0.2-0.1-0.4-0.1-0.5-0.2c0,0,0.2-0.1,0.2-0.2L526.9,331.2z"/>
	<path class="st8" d="M374.2,436.6c0.3,0.1,0.6,0.1,0.6,0.1c0,0.1-0.1,0.3-0.2,0.4c-0.1,0-0.4,0-0.4-0.1
		C374.2,436.9,374.2,436.8,374.2,436.6z"/>
	<path class="st8" d="M200,300.5c-0.4,0.1-0.6,0.2-0.8,0.2c-0.2,0-0.3-0.2-0.4-0.3c0,0,0.3-0.1,0.4-0.1
		C199.5,300.3,199.7,300.4,200,300.5L200,300.5z"/>
	<path class="st8" d="M289.8,247c-0.3,0-0.5,0-0.7,0c-0.1,0-0.1-0.1-0.2-0.2c0.2,0,0.5-0.1,0.7-0.1
		C289.7,246.8,289.7,246.9,289.8,247z"/>
	<path class="st8" d="M808.3,300.4c-0.2,0-0.3,0.1-0.5,0.1c-0.1-0.1-0.2-0.2-0.2-0.2c0,0,0.3-0.1,0.4-0.1
		C808.1,300.2,808.2,300.3,808.3,300.4z"/>
	<path class="st8" d="M104.8,372.1c0.1,0.1,0.3,0.1,0.3,0.2c-0.1,0.1-0.3,0.1-0.4,0.2c-0.1-0.1-0.2-0.1-0.2-0.2
		C104.4,372.2,104.6,372.2,104.8,372.1L104.8,372.1z"/>
	<path class="st8" d="M64,296.9l-0.6,0.2c-0.1-0.1-0.3-0.2-0.2-0.2c0.1-0.1,0.3-0.1,0.5-0.2L64,296.9L64,296.9z"/>
	<path class="st8" d="M692.9,257l-0.5,0.1c-0.1-0.1-0.1-0.2-0.2-0.3c0,0,0.4-0.1,0.4-0.1C692.8,256.9,692.8,257,692.9,257L692.9,257
		z"/>
	<path class="st8" d="M777.8,365.8c-0.3,0.1-0.5,0.2-0.7,0.2c-0.2,0-0.5-0.2-0.5-0.2c0-0.1,0.3-0.2,0.5-0.2
		C777.3,365.5,777.6,365.6,777.8,365.8L777.8,365.8z"/>
	<path class="st8" d="M375.6,439.1c-0.3,0.1-0.6,0.2-0.7,0.2c-0.2,0-0.3-0.2-0.4-0.2c0,0,0.3-0.1,0.4-0.1
		C375.1,439,375.3,439,375.6,439.1L375.6,439.1z"/>
	<path class="st8" d="M322,364.4l-0.7,0.2c-0.1-0.1-0.3-0.2-0.3-0.3c0,0,0.3-0.2,0.3-0.1C321.6,364.2,321.8,364.3,322,364.4
		L322,364.4z"/>
	<path class="st8" d="M882.2,335.6c-0.1,0.1-0.1,0.1-0.2,0.2c-0.1,0-0.3-0.1-0.4-0.1c0-0.1,0.1-0.1,0.2-0.2
		C881.9,335.5,882.1,335.6,882.2,335.6L882.2,335.6z"/>
	<path class="st8" d="M820.1,269c-0.1-0.1-0.2-0.1-0.3-0.2l0.6-0.2c0.1,0.1,0.2,0.2,0.2,0.2C820.5,268.9,820.3,269,820.1,269
		L820.1,269z"/>
	<path class="st8" d="M758.4,360.6c0.2,0.2,0.4,0.3,0.3,0.3c-0.1,0.1-0.4,0.1-0.6,0.2c-0.1-0.1-0.3-0.1-0.3-0.2
		C758,360.8,758.2,360.7,758.4,360.6L758.4,360.6z"/>
	<path class="st8" d="M877.9,252.5l-0.5,0.3c-0.2-0.1-0.4-0.1-0.5-0.2c0,0,0.2-0.2,0.2-0.2C877.4,252.4,877.6,252.4,877.9,252.5
		L877.9,252.5z"/>
	<path class="st8" d="M770.6,247.5c0,0.1-0.1,0.1-0.2,0.2l-0.6-0.2c0.1-0.1,0.2-0.1,0.3-0.2C770.3,247.3,770.4,247.4,770.6,247.5
		L770.6,247.5z"/>
	<path class="st8" d="M343.5,442.9l-1.2,0.2c-0.1-0.1-0.2-0.2-0.2-0.3c0,0,0.3-0.1,0.4-0.1C342.7,442.7,342.9,442.8,343.5,442.9z"/>
	<path class="st8" d="M677.4,308.3c0.1,0.1,0.2,0.2,0.2,0.2s-0.3,0.1-0.4,0.1c0-0.1-0.2-0.2-0.1-0.2
		C677,308.4,677.3,308.4,677.4,308.3z"/>
	<path class="st8" d="M817.2,418.5c0.2,0.1,0.5,0.2,0.5,0.3c0,0.1-0.3,0.2-0.5,0.3c-0.2-0.1-0.5-0.2-0.5-0.3
		C816.7,418.7,817,418.6,817.2,418.5L817.2,418.5z"/>
	<path class="st8" d="M847.8,252c0.2,0.1,0.5,0.2,0.5,0.3c0,0.1-0.3,0.2-0.5,0.2c-0.2-0.1-0.5-0.2-0.5-0.2
		C847.4,252.2,847.6,252.1,847.8,252L847.8,252z"/>
	<path class="st8" d="M310.1,384.3l-0.5,0V384c0.1,0,0.4,0,0.4,0C310.1,384.1,310.1,384.2,310.1,384.3L310.1,384.3z"/>
	<path class="st8" d="M713.7,353.3c0-0.1-0.1-0.2-0.1-0.3c0,0,0.3-0.1,0.4-0.1c0.1,0.1,0.2,0.2,0.2,0.3
		C714.3,353.3,714,353.3,713.7,353.3z"/>
	<path class="st8" d="M578.4,243.7c0.2,0.2,0.3,0.3,0.3,0.4s-0.3,0.1-0.5,0.2c-0.1-0.1-0.2-0.1-0.2-0.2
		C578,243.9,578.2,243.8,578.4,243.7L578.4,243.7z"/>
	<path class="st8" d="M516,315.6c0,0.1,0.1,0.2,0.1,0.3c0,0-0.3,0-0.4,0.1c-0.1-0.1-0.2-0.2-0.2-0.3
		C515.4,315.7,515.7,315.7,516,315.6z"/>
	<path class="st8" d="M792.1,259.9c-0.1,0-0.3,0.1-0.4,0.1s-0.2-0.1-0.3-0.2c0.1,0,0.3-0.1,0.4-0.1
		C791.9,259.7,792,259.8,792.1,259.9z"/>
	<path class="st8" d="M69.9,392.6l-0.3,0.2c-0.2-0.1-0.4-0.1-0.5-0.2c-0.1,0,0.2-0.1,0.2-0.2L69.9,392.6L69.9,392.6z"/>
	<path class="st8" d="M754.1,243.5c-0.1,0.1-0.2,0.1-0.2,0.2l-0.5-0.2l0.5-0.2C754,243.4,754,243.4,754.1,243.5L754.1,243.5z"/>
	<path class="st8" d="M472.5,326.1c-0.1,0.1-0.2,0.1-0.3,0.2c-0.1,0-0.3-0.1-0.4-0.1c0,0,0.2-0.1,0.2-0.2
		C472.3,326,472.4,326.1,472.5,326.1z"/>
	<path class="st8" d="M417.1,346.4c-0.2-0.1-0.5-0.2-0.5-0.3c0-0.1,0.3-0.2,0.5-0.3c0.2,0.1,0.5,0.2,0.5,0.3
		C417.5,346.2,417.3,346.3,417.1,346.4L417.1,346.4z"/>
	<path class="st8" d="M258.1,242c-0.2,0-0.4,0-0.5,0c-0.1,0,0-0.1,0-0.2c0.2,0,0.4,0,0.5,0C258.1,241.9,258,242,258.1,242L258.1,242
		z"/>
	<path class="st8" d="M151.5,284.2c-0.2,0.1-0.4,0.2-0.6,0.3c-0.3,0.1-0.7-0.1-0.6-0.3c0.1-0.1,0.4-0.2,0.5-0.2
		C151,284,151.2,284.2,151.5,284.2L151.5,284.2z"/>
	<path class="st8" d="M254.9,241.8l-0.5,0.2c-0.1-0.1-0.3-0.1-0.2-0.2c0-0.1,0.2-0.2,0.3-0.2C254.5,241.6,254.6,241.7,254.9,241.8
		L254.9,241.8z"/>
	<path class="st8" d="M514.2,264.3c0.2,0,0.3,0,0.5,0.1l-0.3,0.3c-0.1,0-0.3-0.1-0.4-0.1C514,264.4,514.2,264.4,514.2,264.3
		L514.2,264.3z"/>
	<path class="st8" d="M705,337.3l-0.5,0.3c-0.2-0.1-0.4-0.1-0.5-0.2c0,0,0.2-0.2,0.3-0.2C704.4,337.2,704.6,337.2,705,337.3
		L705,337.3z"/>
	<path class="st8" d="M463,408c-0.1,0.1-0.2,0.1-0.4,0.2l-0.4-0.3c0.1,0,0.3-0.1,0.5-0.1C462.8,407.8,462.9,407.9,463,408z"/>
	<path class="st8" d="M403.4,391.5l-0.6,0.3c-0.1-0.1-0.4-0.2-0.4-0.2c0,0,0.2-0.2,0.3-0.2C402.9,391.4,403.1,391.4,403.4,391.5
		L403.4,391.5z"/>
	<path class="st8" d="M603.4,249.7c-0.1,0.1-0.1,0.1-0.2,0.2c-0.1,0-0.3-0.1-0.4-0.1c0-0.1,0.1-0.1,0.2-0.2
		C603.2,249.7,603.3,249.7,603.4,249.7L603.4,249.7z"/>
	<path class="st8" d="M132.1,405.4c-0.1,0-0.2,0.1-0.3,0.1c0,0-0.1-0.1-0.1-0.1c0.1,0,0.2-0.1,0.3-0.1L132.1,405.4L132.1,405.4z"/>
	<path class="st8" d="M816,275.9l0.2,0.1c-0.1,0-0.2,0.1-0.3,0.1c0,0-0.1,0-0.2-0.1C815.8,275.9,815.9,275.9,816,275.9L816,275.9z"
		/>
	<path class="st8" d="M398.8,275.2c-0.1,0-0.2,0-0.2,0c-0.1,0-0.1-0.1-0.2-0.1l0.4-0.1L398.8,275.2L398.8,275.2z"/>
	<path class="st8" d="M59,290.2c-0.1,0-0.2-0.1-0.4-0.1c0.1,0,0.2-0.1,0.3-0.1c0,0,0.2,0,0.2,0.1C59.1,290.1,59,290.1,59,290.2
		L59,290.2z"/>
	<path class="st8" d="M499,294.9l0.1-0.1c0.1,0,0.2,0.1,0.3,0.1c0,0-0.1,0.1-0.1,0.1C499.2,295,499.1,294.9,499,294.9L499,294.9z"/>
	<path class="st8" d="M249.9,409.1c-0.1,0-0.2,0.1-0.4,0.1c0-0.1-0.1-0.2,0-0.2c0,0,0.1,0,0.2-0.1
		C249.8,408.9,249.8,409,249.9,409.1L249.9,409.1z"/>
	<path class="st8" d="M682.1,296.1c-0.1,0-0.2,0.1-0.3,0.1c-0.1,0-0.2-0.1-0.2-0.2c0,0,0.1-0.1,0.2-0.1
		C681.9,296,682,296.1,682.1,296.1L682.1,296.1z"/>
	<path class="st8" d="M738.4,298.2c-0.1,0-0.3-0.1-0.4-0.1l0.4-0.2c0.1,0,0.3,0.1,0.3,0.2C738.6,298.1,738.4,298.1,738.4,298.2
		L738.4,298.2z"/>
	<path class="st8" d="M763,271.1l0.1-0.1c0.1,0,0.2,0.1,0.3,0.1c0,0-0.1,0.1-0.1,0.1C763.2,271.2,763.1,271.1,763,271.1z"/>
	<path class="st8" d="M734.9,298c0.1,0,0.4,0,0.4,0.1c0,0-0.1,0.1-0.2,0.2c-0.1,0-0.4,0-0.4-0.1C734.7,298.2,734.9,298.1,734.9,298z
		"/>
	<path class="st8" d="M10.6,393.8c-0.1,0.1-0.1,0.1-0.2,0.2l-0.6-0.1c0.1,0,0.2-0.1,0.3-0.1C10.3,393.7,10.5,393.7,10.6,393.8
		L10.6,393.8z"/>
	<path class="st8" d="M107.1,283.6c0.1,0,0.3,0.1,0.4,0.1c-0.1,0-0.2,0.1-0.3,0.1c0,0-0.2,0-0.2,0
		C107,283.7,107.1,283.6,107.1,283.6L107.1,283.6z"/>
	<path class="st8" d="M748,269.6c-0.1,0-0.3-0.1-0.4-0.1c0-0.1,0.1-0.1,0.1-0.2l0.6,0.1C748.1,269.5,748,269.5,748,269.6L748,269.6z
		"/>
	<path class="st8" d="M537,390.8c0.1,0,0.2,0,0.2,0c0.1,0,0.1,0.1,0.2,0.1L537,391L537,390.8L537,390.8z"/>
	<path class="st8" d="M772.1,413.7l0.5-0.3c0.1,0.1,0.3,0.2,0.4,0.2c0,0-0.1,0.1-0.2,0.2L772.1,413.7L772.1,413.7z"/>
	<path class="st8" d="M201.5,303.8l-0.1,0.1c-0.1,0-0.2,0-0.2,0s0.1-0.1,0.1-0.1L201.5,303.8L201.5,303.8z"/>
	<path class="st8" d="M230.9,414.4l-0.3-0.2l0.4-0.1c0,0,0.1,0.1,0.1,0.1C231.1,414.3,231,414.3,230.9,414.4z"/>
	<path class="st8" d="M781,283.1L781,283.1c-0.2,0.1-0.3,0.1-0.3,0c0,0,0-0.1,0.1-0.1L781,283.1L781,283.1z"/>
	<path class="st8" d="M467.5,384.9l0.3,0.1c-0.1,0-0.2,0.1-0.4,0.1c0,0-0.2-0.1-0.2-0.1C467.4,385,467.4,384.9,467.5,384.9
		L467.5,384.9z"/>
	<path class="st8" d="M800.8,383.1c-0.1-0.1-0.2-0.2-0.2-0.3c0-0.1,0.3-0.1,0.5-0.1c0,0.1,0.1,0.2,0.1,0.3
		C801.3,383,801,383,800.8,383.1z"/>
	<path class="st8" d="M853,381.9l-0.3,0.2c-0.2-0.1-0.4-0.1-0.5-0.2c0,0,0.2-0.2,0.2-0.2C852.7,381.8,852.8,381.9,853,381.9
		L853,381.9z"/>
	<path class="st8" d="M848.1,307.8l0.2,0.1c-0.1,0-0.2,0.1-0.3,0.1c0,0-0.1,0-0.2-0.1C847.9,307.9,848,307.8,848.1,307.8
		L848.1,307.8z"/>
	<path class="st8" d="M224.9,308.5c0.1,0,0.4,0,0.4,0.1c0,0-0.1,0.1-0.1,0.2c-0.1,0-0.4,0-0.4-0.1
		C224.7,308.6,224.8,308.6,224.9,308.5L224.9,308.5z"/>
	<path class="st8" d="M637,421.4c0.2,0,0.4,0,0.4,0.1c0,0-0.1,0.1-0.2,0.2c-0.1,0-0.4,0-0.4-0.1C636.8,421.5,636.9,421.5,637,421.4
		L637,421.4z"/>
	<path class="st8" d="M535,378.8L535,378.8c0,0.1-0.1,0.1-0.1,0.1c0,0-0.1-0.1-0.1-0.1L535,378.8L535,378.8z"/>
	<path class="st8" d="M698.8,237.6c0.1,0,0.2,0,0.2,0s0,0.1,0,0.1l-0.3-0.1L698.8,237.6L698.8,237.6z"/>
	<path class="st8" d="M791,254.1l-0.2-0.1l0.3-0.1c0,0,0.1,0.1,0,0.1C791.2,254,791.1,254,791,254.1L791,254.1z"/>
	<path class="st8" d="M161.4,311.2c0,0-0.1,0.1-0.1,0.1c-0.1,0-0.1,0-0.2,0l0.1-0.2L161.4,311.2L161.4,311.2z"/>
	<path class="st8" d="M285.1,376.4l-0.2,0.1c-0.1-0.1-0.2-0.1-0.3-0.2c0,0,0.1,0,0.2-0.1C285,376.3,285.1,376.3,285.1,376.4
		L285.1,376.4z"/>
	<path class="st8" d="M506.7,375.9c0.1,0,0.2,0.1,0.3,0.2l-0.5,0.1c-0.1-0.1-0.2-0.1-0.1-0.2C506.3,376,506.5,376,506.7,375.9
		L506.7,375.9z"/>
	<path class="st8" d="M541.4,254.5c0.1-0.1,0.1-0.2,0.2-0.2c0.1,0,0.3,0,0.4,0.1l-0.2,0.2C541.7,254.6,541.6,254.6,541.4,254.5
		L541.4,254.5z"/>
	<path class="st8" d="M365.3,375.7l0.1,0.1l-0.2,0L365.3,375.7L365.3,375.7z"/>
	<path class="st8" d="M695.2,238.2c0.1-0.1,0.1-0.2,0.2-0.2c0.1,0,0.3,0,0.4,0.1c-0.1,0.1-0.1,0.2-0.2,0.2
		C695.5,238.3,695.3,238.2,695.2,238.2z"/>
	<path class="st8" d="M329.5,430.7l0.1-0.1c0.1,0,0.2,0.1,0.3,0.1c0,0-0.1,0.1-0.1,0.1C329.7,430.8,329.6,430.8,329.5,430.7z"/>
	<path class="st8" d="M617.3,320.1c0.1,0,0.2,0.1,0.3,0.1l-0.5,0.2c-0.1-0.1-0.2-0.1-0.2-0.2C616.9,320.2,617.1,320.2,617.3,320.1z"
		/>
	<path class="st8" d="M875.1,238.9l0.4,0.2l-0.5,0.2c-0.1-0.1-0.2-0.1-0.2-0.2C874.8,239,875,238.9,875.1,238.9z"/>
	<path class="st8" d="M849.5,374c-0.1,0.1-0.1,0.2-0.2,0.2c-0.1,0-0.3,0-0.4-0.1c0.1-0.1,0.1-0.2,0.2-0.2
		C849.2,373.9,849.4,373.9,849.5,374L849.5,374z"/>
	<path class="st8" d="M592.5,373.6c0.2,0,0.3,0.1,0.4,0.1c-0.1,0.1-0.1,0.2-0.2,0.2c-0.1,0-0.3,0-0.4-0.1
		C592.3,373.7,592.4,373.7,592.5,373.6z"/>
	<path class="st8" d="M427.6,372.4c-0.1,0-0.2,0.1-0.3,0.1c-0.1-0.1-0.1-0.1-0.2-0.2c0,0,0.1-0.1,0.1-0.1
		C427.4,372.3,427.5,372.3,427.6,372.4L427.6,372.4z"/>
	<path class="st8" d="M752.9,329.4c-0.2,0-0.3,0-0.5,0c0-0.1,0-0.1,0.1-0.2c0,0,0.2,0,0.2,0C752.8,329.3,752.8,329.4,752.9,329.4z"
		/>
	<path class="st8" d="M781.1,239.1c0.2,0,0.3-0.1,0.5-0.1c0.1,0,0.1,0.1,0.2,0.2c-0.2,0-0.3,0.1-0.5,0.1
		C781.2,239.2,781.2,239.1,781.1,239.1L781.1,239.1z"/>
	<path class="st8" d="M375.9,240c-0.1,0-0.2,0.1-0.3,0.1c0-0.1-0.1-0.1-0.1-0.2c0,0,0.2-0.1,0.3-0.1
		C375.8,239.9,375.9,239.9,375.9,240z"/>
	<path class="st8" d="M30.7,264.1c-0.2,0-0.4,0-0.4-0.1c0,0,0.1-0.1,0.2-0.2c0.1,0,0.4,0,0.4,0.1C31,263.9,30.8,264,30.7,264.1z"/>
	<path class="st8" d="M442.9,338.9c0,0,0.1,0.1,0.1,0.1c-0.1,0-0.2,0.1-0.4,0.1c0,0-0.1-0.1-0.1-0.1
		C442.6,339,442.8,338.9,442.9,338.9z"/>
	<path class="st8" d="M316,438.4c-0.1,0.1-0.1,0.1-0.2,0.2c-0.1,0-0.4-0.1-0.4-0.1c0,0,0.1-0.1,0.2-0.2
		C315.7,438.4,315.9,438.4,316,438.4L316,438.4z"/>
	<path class="st8" d="M154.3,365.1c-0.1-0.1-0.2-0.1-0.3-0.2c0.1,0,0.2-0.1,0.4-0.1c0,0,0.2,0.1,0.1,0.1
		C154.5,365,154.4,365,154.3,365.1L154.3,365.1z"/>
	<path class="st8" d="M668.1,344.6c0.1,0,0.1,0,0.2,0c0,0,0.1,0,0.1,0.1L668.1,344.6L668.1,344.6L668.1,344.6z"/>
	<path class="st8" d="M142.8,345c-0.1,0-0.3,0-0.4,0c0,0,0-0.1,0-0.1c0.1,0,0.3,0,0.5,0L142.8,345L142.8,345z"/>
	<path class="st8" d="M146,281.2c-0.1-0.1-0.2-0.1-0.3-0.2l0.6-0.1c0.1,0.1,0.2,0.2,0.1,0.2C146.4,281.2,146.1,281.2,146,281.2
		L146,281.2z"/>
	<path class="st8" d="M220.5,280.9c-0.1,0.1-0.1,0.1-0.1,0.2l-0.5-0.2c0.1-0.1,0.2-0.1,0.3-0.2C220.3,280.8,220.4,280.9,220.5,280.9
		L220.5,280.9z"/>
	<path class="st8" d="M653.4,362.7c0.1,0,0.2-0.1,0.4-0.1c0.1,0.1,0.2,0.1,0.2,0.2c0,0-0.1,0.1-0.2,0.1
		C653.7,362.8,653.6,362.7,653.4,362.7L653.4,362.7z"/>
	<path class="st8" d="M527.4,346.8c0.1-0.1,0.1-0.1,0.2-0.2c0.1,0,0.3,0.1,0.4,0.1c0,0.1-0.1,0.1-0.2,0.2
		C527.7,346.9,527.5,346.9,527.4,346.8L527.4,346.8z"/>
	<path class="st8" d="M215.1,348c0.1,0,0.2-0.1,0.3-0.2c0.1,0.1,0.2,0.1,0.3,0.2c0,0-0.1,0.1-0.2,0.1
		C215.4,348.1,215.2,348,215.1,348L215.1,348z"/>
	<path class="st8" d="M546.4,258c0.1,0,0.3,0.1,0.3,0.1c0,0.1-0.1,0.1-0.2,0.2l-0.5-0.2C546.1,258.2,546.2,258.1,546.4,258
		L546.4,258z"/>
	<path class="st8" d="M663.8,241.7l-0.7,0.2c-0.1-0.1-0.3-0.2-0.4-0.3c0,0,0.2-0.1,0.3-0.1C663.3,241.5,663.5,241.6,663.8,241.7z"/>
	<path class="st8" d="M838.5,347.8c0.1,0,0.2,0.1,0.3,0.2c-0.1,0-0.3,0.1-0.4,0.1c0,0-0.2-0.1-0.1-0.1
		C838.3,348,838.4,347.9,838.5,347.8L838.5,347.8z"/>
	<path class="st8" d="M813.3,450.2c-0.1,0.1-0.1,0.2-0.2,0.2c-0.1,0-0.3,0-0.4-0.1c0.1-0.1,0.1-0.2,0.2-0.2S813.2,450.1,813.3,450.2
		L813.3,450.2z"/>
	<path class="st8" d="M130.6,349.7c0.1,0,0.2,0,0.2,0c0,0-0.1,0.1-0.1,0.1C130.7,349.8,130.5,349.8,130.6,349.7
		C130.5,349.8,130.6,349.7,130.6,349.7z"/>
	<path class="st8" d="M88.5,357.4c-0.1,0-0.2,0.1-0.3,0.1c-0.1-0.1-0.2-0.1-0.2-0.2c0,0,0.1-0.1,0.2-0.1
		C88.3,357.3,88.4,357.4,88.5,357.4L88.5,357.4z"/>
	<path class="st8" d="M810.1,449c0.1,0,0.3,0.1,0.4,0.1c-0.1,0.1-0.1,0.2-0.2,0.2c-0.1,0-0.4,0-0.4-0.1
		C809.9,449.1,810,449,810.1,449L810.1,449z"/>
	<path class="st8" d="M655,353.4c-0.2,0-0.3,0-0.5,0c0,0,0-0.1,0-0.1c0.2,0,0.3,0,0.5,0C655,353.3,655,353.4,655,353.4z"/>
	<path class="st8" d="M382.7,353.6c-0.1,0-0.3-0.1-0.3-0.1c0,0,0.2-0.1,0.3-0.1c0.1,0,0.2,0.1,0.3,0.1
		C382.9,353.5,382.8,353.6,382.7,353.6L382.7,353.6z"/>
	<path class="st8" d="M780,352.6c-0.1,0-0.3,0-0.4,0c0,0,0-0.1,0-0.1c0.2,0,0.3,0,0.4,0L780,352.6z"/>
	<path class="st8" d="M697.1,286.2c0.1,0,0.1,0,0.2,0c0,0,0.1,0,0.1,0.1L697.1,286.2L697.1,286.2L697.1,286.2z"/>
	<path class="st8" d="M843.2,249.4c0.1,0,0.3,0.1,0.3,0.1c0,0.1-0.2,0.1-0.2,0.2c-0.1,0-0.2-0.1-0.2-0.1
		C843.1,249.5,843.2,249.4,843.2,249.4L843.2,249.4z"/>
	<path class="st8" d="M248.6,412.5l-0.2,0.1l0-0.2L248.6,412.5L248.6,412.5z"/>
	<path class="st8" d="M483.9,390.6c0.1,0,0.2,0,0.2,0c0,0,0,0.1-0.1,0.1c-0.1,0-0.2,0-0.2,0L483.9,390.6L483.9,390.6z"/>
	<path class="st8" d="M519.4,358.4L519.4,358.4c-0.2,0.1-0.3,0.1-0.3,0c0,0,0.1-0.1,0.1-0.1L519.4,358.4z"/>
	<polygon class="st8" points="507.7,388.2 507.5,388.1 507.7,388.1 	"/>
	<path class="st8" d="M606.5,304.1l0.1,0.1l-0.3,0.1c0,0,0-0.1,0-0.1C606.3,304.1,606.4,304.1,606.5,304.1L606.5,304.1z"/>
	<path class="st8" d="M36.7,380.8c0,0,0,0.1,0,0.1l-0.3-0.1c0,0,0.1-0.1,0.1-0.1C36.5,380.7,36.6,380.8,36.7,380.8z"/>
	<path class="st8" d="M280.5,258.2c-0.1,0-0.3,0-0.4,0c0,0,0-0.1,0-0.1C280.3,258.1,280.4,258.1,280.5,258.2L280.5,258.2z"/>
	<path class="st8" d="M548.9,346.9l-0.2,0.1c-0.1,0-0.2-0.1-0.2-0.1c0,0,0.1,0,0.1-0.1C548.8,346.8,548.9,346.8,548.9,346.9
		L548.9,346.9z"/>
	<path class="st8" d="M149.6,423.3l0.1,0.1l-0.3,0.1c0,0,0-0.1,0-0.1C149.5,423.3,149.6,423.3,149.6,423.3L149.6,423.3z"/>
	<path class="st8" d="M816.5,345.5c-0.2,0-0.3,0.1-0.5,0.1c0-0.1-0.2-0.2-0.1-0.2c0,0,0.3-0.1,0.4-0.1
		C816.4,345.3,816.5,345.4,816.5,345.5L816.5,345.5z"/>
	<path class="st8" d="M663.1,310.4c-0.1,0-0.2,0.1-0.3,0.1c-0.1-0.1-0.2-0.1-0.3-0.2c0,0,0.1-0.1,0.2-0.1
		C662.8,310.3,663,310.3,663.1,310.4z"/>
	<path class="st8" d="M810.7,282.3h-0.2l0.1-0.2c0.1,0,0.2,0,0.2,0.1C810.8,282.3,810.8,282.3,810.7,282.3L810.7,282.3z"/>
	<path class="st8" d="M0.2,375.6c-0.1,0-0.2,0.1-0.3,0.1c-0.1-0.1-0.2-0.1-0.2-0.2c0,0,0.1-0.1,0.1-0.1C0,375.5,0.1,375.5,0.2,375.6
		L0.2,375.6z"/>
	<path class="st8" d="M615,371.5l-0.1,0.1c-0.1,0-0.2-0.1-0.3-0.1c0,0,0.1-0.1,0.1-0.1C614.8,371.5,614.9,371.5,615,371.5L615,371.5
		z"/>
	<path class="st8" d="M223.5,362.8c0.1,0,0.4,0,0.4,0.1c0,0.1-0.1,0.1-0.2,0.2c-0.1,0-0.4,0-0.4-0.1
		C223.3,363,223.4,362.9,223.5,362.8L223.5,362.8z"/>
	<path class="st8" d="M658.6,239.5c-0.1,0-0.2,0.1-0.3,0.1c-0.1-0.1-0.2-0.1-0.2-0.2c0,0,0.1-0.1,0.2-0.1
		C658.4,239.4,658.5,239.5,658.6,239.5L658.6,239.5z"/>
	<path class="st8" d="M740.9,371.2c0,0,0.1,0.1,0.1,0.1c-0.1,0-0.2,0.1-0.3,0.1c0-0.1,0-0.1,0-0.2
		C740.7,371.2,740.8,371.2,740.9,371.2L740.9,371.2z"/>
	<polygon class="st8" points="789,263.4 789.1,263.4 788.9,263.4 	"/>
	<polygon class="st8" points="493.3,468.8 493.4,468.7 493.5,468.8 	"/>
	<polygon class="st8" points="360.5,331.6 360.6,331.6 360.4,331.6 	"/>
	<path class="st8" d="M564.1,330.9l-0.1,0.1c0,0-0.1-0.1-0.1-0.1s0.1,0,0.1-0.1L564.1,330.9L564.1,330.9z"/>
	<polygon class="st8" points="746.8,254.8 746.9,254.9 746.8,254.9 	"/>
	<path class="st8" d="M753.8,276.3L753.8,276.3c-0.1,0.1-0.2,0.1-0.2,0c0,0,0,0,0-0.1L753.8,276.3L753.8,276.3z"/>
	<polygon class="st8" points="138.8,319.5 138.8,319.4 138.9,319.4 	"/>
	<path class="st8" d="M492.2,317.2c0,0,0.1,0.1,0.1,0.1c0,0-0.1,0-0.1,0.1C492.2,317.3,492.2,317.3,492.2,317.2L492.2,317.2z"/>
	<polygon class="st8" points="134.5,456.1 134.3,456.1 134.4,456 	"/>
	<polygon class="st8" points="560.7,245.6 560.5,245.6 560.6,245.5 	"/>
	<polygon class="st8" points="664.2,247.6 664.2,247.6 664.1,247.6 	"/>
	<polygon class="st8" points="800.9,417.5 800.8,417.4 801,417.4 	"/>
	<polygon class="st8" points="126.8,388 126.6,387.9 126.8,387.9 	"/>
	<polygon class="st8" points="44.7,412 44.7,411.9 44.9,411.9 	"/>
	<path class="st8" d="M97.6,271.3C97.6,271.2,97.5,271.1,97.6,271.3C97.5,271.1,97.6,271.2,97.6,271.3
		C97.6,271.2,97.6,271.3,97.6,271.3z"/>
	<polygon class="st8" points="332.6,395.4 332.4,395.4 332.5,395.3 	"/>
	<polygon class="st8" points="202.7,409.4 202.8,409.5 202.6,409.5 	"/>
	<polygon class="st8" points="666.7,349.9 666.5,349.9 666.7,349.9 	"/>
	<polygon class="st8" points="789.1,274.1 789,274.2 789,274.1 	"/>
	<path class="st8" d="M141.3,290.6l0.2,0l0.1,0.1C141.5,290.7,141.4,290.7,141.3,290.6C141.3,290.7,141.3,290.7,141.3,290.6
		L141.3,290.6z"/>
	<path class="st8" d="M785.8,286.8L785.8,286.8l-0.3,0c0.1,0,0.2,0,0.2,0C785.7,286.7,785.8,286.7,785.8,286.8L785.8,286.8z"/>
	<polygon class="st8" points="268.5,351.1 268.3,351.1 268.4,351 	"/>
</g>
</svg>
