<?xml version="1.0" encoding="utf-8"?>
<svg version="1.1" id="Layer_1" xmlns="http://www.w3.org/2000/svg" xmlns:xlink="http://www.w3.org/1999/xlink" x="0px" y="0px"
	 viewBox="0 0 100 100" style="enable-background:new 0 0 100 100;" xml:space="preserve">
<g>
	<path fill="currentColor" d="M80,73.5c-0.5-0.4-1.2-0.8-1.7-1c-0.7-0.3-1.2-0.7-1.7-1.1c-0.7-0.4-1-1-1.2-1.5L75.2,68
		c-0.2-1.1-0.5-1.9-0.7-2.2c-0.2-0.3-0.5-0.5-1-0.5c0.5-1.6,0.7-3.2,0.7-4.9c0-3.4-0.7-6.6-2-9c-1-2.7-2.7-5.4-4.9-7.8
		c-1-1.5-2-2.7-2.7-3.9c-0.7-1-1.2-1.9-1.7-2.9c-0.5-0.7-0.7-1.7-1-2.7c-0.2-1.2-0.2-2.2-0.5-2.9c0-0.7-0.2-1.7-0.2-3.2
		c-0.2-1.7-0.2-2.9-0.5-4.1C60.5,22,60,20.5,59.5,19c-0.7-1.2-1.5-2.4-2.4-3.2c-0.7-0.7-1.7-1.2-2.7-1.7c-1.2-0.5-2.2-0.7-2.9-0.7
		c-0.7-0.2-1.5-0.2-2.2-0.2c-2,0-3.7,0.2-5.1,0.7c-1.5,0.5-2.4,1.5-3.2,2.4c-0.8,1-1.4,2.2-1.7,3.4c-0.3,1.2-0.5,2.4-0.5,4.1
		c0,2.2,0.1,4.6,0.4,7.1c0.3,2.4,0.4,3.9,0.4,4.4c0,1-0.2,2.2-0.7,3.2s-1.3,2.2-2.6,3.7l-1.8,2.2C33,46,32,47.8,31.6,49.5
		c-0.5,1.9-0.9,3.4-1.3,4.4s-0.9,1.9-1.6,3.3l-0.9,1.5c-0.9,1.6-1.3,2.9-1.3,3.8c0,0.1,0,0.4,0,0.7c0,0.4,0.1,0.7,0.3,1
		c-0.2,0.2-0.3,0.4-0.4,0.6c0,0.1-0.1,0.3-0.1,0.4s-0.1,0.3-0.2,0.6c-0.1,0.3-0.2,0.6-0.4,1c-0.5,0.3-0.9,0.4-1.1,0.4h-2.8
		c-0.5,0-1.1,0.3-1.6,0.9s-0.8,1.5-0.8,2.5c0,0.3,0.1,1.1,0.3,2.4c0.2,1.3,0.3,2,0.3,2.3c0,0.2,0,0.5-0.1,0.7c0,0.3-0.1,0.5-0.2,0.7
		s-0.2,0.5-0.3,0.7c-0.1,0.2-0.2,0.5-0.4,0.8c-0.2,0.2-0.3,0.5-0.5,0.8c-0.2,0.4-0.2,0.9-0.2,1.2c0,0.4,0.2,0.7,0.5,1
		c0.4,0.3,0.9,0.6,1.5,0.7c0.6,0.2,1.2,0.4,1.7,0.5c0.6,0.1,1.2,0.2,1.9,0.3c0.7,0.1,1.1,0.2,1.3,0.3c2,0.4,4.3,1.1,6.8,2
		s4.5,1.4,5.7,1.4c1.9,0,3.5-0.8,4.5-2.2v0.1c1-0.9,4-1.3,7-1.3l0,0c2,0,5.3,0.2,9.2,0.7c0.7,1.5,2,2.5,4,3l1.7,0.2
		c1,0,2-0.2,2.7-0.7c0.7-0.4,1.7-1.1,2.7-2l2.4-2.1c1.2-1,2.4-1.9,3.7-2.6c1.5-0.7,2.4-1.2,2.9-1.4c0.7-0.2,1.2-0.6,1.7-1
		s0.7-1,0.7-1.9C80.8,74.5,80.5,73.9,80,73.5z M63.2,47.7c1.2,0.2,2.2,1,3.2,2.4c1,1.5,1.5,3.2,1.5,5.6c0,1.8-0.2,3.8-1,6
		c0.2,0,0.7,0.1,1,0.1c0.2,0,0.2,0,0.5,0c0,0,0.2,0,0.5,0c1.5,0.2,2.7,0.7,3.4,1.4c0.7,0.7,1,1.3,1,1.9c0,0.2,0,0.3-0.2,0.3
		c0,0-0.2-0.1-0.2-0.5c-0.2-0.3-0.5-0.7-0.7-1c-0.2-0.4-0.7-0.7-1.7-1c-0.7-0.3-2-0.5-3.2-0.5c-0.7,0-1.2,0.2-2,0.6
		c-0.5,0.4-0.7,0.8-1.2,1.2c-0.2,0.4-0.5,0.6-0.5,0.6c-0.2,0-0.2-0.1-0.2-0.3c0.7-1.4,1.7-2.3,2.7-2.7c1-2.6,1.2-4.6,1.2-6
		c0-1.7-0.2-3.2-1-4.9c-0.7-1.5-2-2.4-3.2-2.9C63,47.9,63,47.9,63.2,47.7z M49.8,24.8c0.7-0.5,1.5-0.7,2.2-0.7c1,0,1.7,0.2,2.4,1
		c0.5,0.7,0.7,1.7,0.7,3.2c0,1.2-0.2,2.2-0.5,3.7c-0.5-0.2-0.7-0.5-1.2-0.5c-0.2,0-0.5-0.2-0.5-0.2c1-0.2,1.5-1,1.5-2.2
		c0-0.7-0.2-1.2-0.5-1.9c-0.5-0.5-1-1-1.7-1c-0.5,0-1,0.2-1.5,0.7c-0.5,0.7-0.5,1.2-0.5,2.2c0,0.5,0,1,0.2,1.2
		c-0.2,0-0.5-0.2-0.7-0.2c-0.5-1-0.7-1.9-0.7-3.2C49,26,49.3,25.5,49.8,24.8z M52.5,27.6c0-0.2-0.2-0.3-0.2-0.6
		c0.2,0,0.5-0.3,0.5-0.3c0.2,0,0.5,0.2,0.7,0.5c0.2,0.2,0.2,0.6,0.2,0.9c0,0.2,0-0.1,0.2,0.9h-0.5C53.2,28,53,27.6,52.5,27.6z
		 M51.7,31.1c2.4,0.7,3.7,1.5,3.9,1.9c0.2,0,0.2,0.2,0.2,0.5c0,0.7-0.5,1.2-1,1.7l-2.2,1.5c-2.4,1.7-4.4,2.7-6.1,2.7
		c-1.2,0-2.4-0.5-3.4-1.5l-1.5-1.5c-0.2-0.2-0.5-0.7-0.7-1.2c1.5,1.2,3.2,1.9,4.9,1.9c2,0,4.3-1,7.5-3.2L53,33.8v-0.5
		c-3,2.4-5.5,3.4-7.5,3.4c-1.5,0-2.9-0.7-4.3-1.9c-0.2-0.5-0.5-0.7-0.5-0.7c0-1,1-1.9,2.5-2.9c1.7-1,2.9-1.5,3.7-1.5
		C47.8,29.7,49.5,30.2,51.7,31.1z M42,27L42,27l0.5-0.1c0.7,0,1.4,0.1,1.4,2.1h-0.5c0-1-0.2-1-0.2-2H42z M41,25.8
		c0.2-0.7,1-1.2,1.7-1.2c1,0,1.5,0.5,2,1.2s0.5,1.5,0.5,2.2c0,1-0.2,1.5-0.2,1.5v0.3l0,0v-0.3v-0.2c0-0.7-0.4-1.5-0.7-2.2
		c-0.5-0.5-0.8-0.7-1.3-0.7s-1,0.2-1.3,0.7c-0.5,0.5-0.5,1-0.5,1.7c0,1.2,0.2,1.9,1.2,2.4c-0.2,0.2-0.5,0.2-0.7,0.5
		c-1-1-1.3-1.9-1.3-2.9C40.4,27.5,40.5,26.8,41,25.8z M41.2,83.5c-1.2,1.5-2.6,2.2-4.3,2.2c-0.7,0-2.3-0.6-5.2-1.6
		C28.7,83,26,82.3,24,82l0,0c-3-0.4-4.8-1.1-5-2c0-0.6,0.2-1.3,0.8-2.4c0.6-1,0.9-2,0.9-3c0-0.5-0.1-1.2-0.3-2.1
		c-0.2-0.9-0.3-1.6-0.3-2c0-0.9,0.3-1.5,0.9-2.2c0.5-0.2,1.3-0.3,2.6-0.3h0.7c0.3,0,0.5-0.2,0.7-0.2c0.6-0.1,1-0.3,1.2-0.5
		s0.4-0.5,0.5-1.1c0-0.5,0.2-1.1,0.6-1.5c0.3-0.5,1.1-0.8,2.1-1c0.8,0.2,1.5,0.6,2.2,1.1c0.7,0.6,1.2,1.1,1.5,1.7
		c0.4,0.5,0.8,1.2,1.3,2.2s1,1.7,1.3,2.1l1.7,2.2c2.8,3.5,4.2,6.4,4.2,8.7C41.4,82.5,41.4,83,41.2,83.5z M46.6,78.8
		c-2.9,0-5.1-0.7-6.2-2.1c-0.5-1-0.8-1.4-0.8-1.5s0-0.2,0.1-0.2c0.6,0,1.2-0.3,1.7-0.9c0.7-0.6,1-1.1,1-1.6c0-1-1.5-2.6-4.2-5
		l-2.6-1.7c-2.1-1.5-3.3-2.7-3.9-3.5c-0.5-0.8-0.8-1.8-0.8-2.9c0-1.5,0.5-3.5,1.6-5.7c1-2.4,1.9-4.1,2.6-4.9l0.2,0.2
		c0.2,0,0.3,0,0.4,0.2c-0.9,1-1.7,2.4-2.6,4.6c-0.9,2.2-1.3,4-1.3,5.7c0,1.4,0.5,2.4,1.6,3.2c-0.1-0.6-0.1-1.2-0.1-1.7
		c0-2.8,1-6.2,3-9.8l1.8-3.7c0,0,0.1-0.5,0.2-1c0.1-0.7,0.4-1.7,1.1-3.4l1.5-2.9c0.5-1,0.7-1.9,0.7-2.7l1.5,1.2c0.7,1,2,1.2,3.4,1.2
		c1.7,0,3.7-0.7,6.1-2.4l2.2-1.7c0.5,1,1,2.2,1.5,3.4c0.7,1.2,1.2,2.4,2,3.7c0,1.2,0.2,1.9,0.5,2.9c0.5,0.7,0.7,1.5,1.2,2.2
		s1,1.5,1.5,2.2c0.5,1,1,2.2,1.2,3.7c0.5,1.7,0.5,3.5,0.5,5.8c0,1.5,0,3.1-0.2,5c-0.5-0.4-1-0.5-1.5-0.5c-0.7,0-1.2,0.4-1.7,1.1
		c-0.5,0.8-0.8,2-0.8,3.6v0.9c1,0.3,0.3,1.1,0.3,2.3C56.1,76.6,52,78.8,46.6,78.8z M79.3,76.7c-0.5,0.4-1,0.7-1.7,0.9
		c-0.5,0.2-1.5,0.6-2.4,1.2C74,79.4,73,80,72,80.8l-4.2,3.6c-0.2,0.1-0.2,0.2-0.7,0.4c-0.2,0.2-0.5,0.4-0.7,0.5
		c-0.2,0.2-0.7,0.4-1.2,0.5s-1,0.2-1.5,0.2c-2,0-3.7-0.9-4.7-2.8l0,0l0,0l0.5-2.7c0-1,0-1.8,0.2-2.6c0-0.8,0.2-1.2,0.2-1.5v-0.7v-1
		v-2.2v-2.8v-0.8c0-2.6,0.5-3.8,1.7-3.8c0.5,0,0.7,0.2,1.2,0.6c0.2,1,0.5,1.9,1,2.7c0.7,1,1.7,1.6,3.7,1.6c0.5,0,1.2-0.2,2-0.6
		c0.5-0.4,1.2-0.9,1.5-1.3c0.5-0.5,1-1,1.5-1.4c0.2-0.4,0.7-0.6,1-0.6c0.2,0,0.2,0,0.2,0.1c0.2,0.3,0.2,0.8,0.5,1.4l0.2,1.4
		c0.2,1.1,0.7,2,1.2,2.7c0.7,0.7,1.2,1,1.7,1.2s1,0.4,1.5,0.8s1,0.9,1,1.6C79.8,75.9,79.6,76.3,79.3,76.7z"/>
	<path fill="currentColor" d="M47.8,31.4H48c0,0,0.2,0,0.2-0.2s-0.2-0.5-0.5-0.7l-0.5-0.2c-0.2,0-0.2,0-0.2,0.2s0.2,0.5,0.2,0.5
		C47.6,31.1,47.6,31.4,47.8,31.4z"/>
	<path fill="currentColor" d="M45.1,31.4h0.2c0.5-0.5,0.7-0.7,0.7-1c0,0,0-0.2-0.2-0.2c0,0-0.2,0.2-0.7,0.2c-0.2,0.2-0.2,0.5-0.2,0.7
		C44.9,31.4,44.9,31.4,45.1,31.4z"/>
</g>
</svg>
