<?xml version="1.0" encoding="UTF-8"?><svg id="Layer_1" xmlns="http://www.w3.org/2000/svg" viewBox="0 0 772.34 755.43"><defs><style>.cls-1{fill:none;stroke:#000;stroke-miterlimit:10;stroke-width:0.5px;}</style></defs><circle class="cls-1" cx="271.74" cy="476.52" r="20.11"/><circle class="cls-1" cx="271.74" cy="476.52" r="38.34"/><circle class="cls-1" cx="271.74" cy="476.52" r="57.14"/><circle class="cls-1" cx="271.74" cy="476.52" r="75.84"/><circle class="cls-1" cx="271.74" cy="476.52" r="96.08"/><circle class="cls-1" cx="271.74" cy="476.52" r="114.43"/><circle class="cls-1" cx="271.74" cy="476.52" r="132.82"/><circle class="cls-1" cx="271.74" cy="476.52" r="151.95"/><circle class="cls-1" cx="271.74" cy="476.52" r="170.8"/><circle class="cls-1" cx="271.74" cy="476.52" r="189.93"/><circle class="cls-1" cx="271.74" cy="476.52" r="208.93"/><circle class="cls-1" cx="271.74" cy="476.52" r="229.22"/><circle class="cls-1" cx="386.17" cy="278.9" r="20.11"/><circle class="cls-1" cx="386.17" cy="278.9" r="38.34"/><circle class="cls-1" cx="386.17" cy="278.9" r="57.14"/><circle class="cls-1" cx="386.17" cy="278.9" r="75.84"/><circle class="cls-1" cx="386.17" cy="278.9" r="96.08"/><circle class="cls-1" cx="386.17" cy="278.9" r="114.43"/><circle class="cls-1" cx="386.17" cy="278.9" r="132.82"/><circle class="cls-1" cx="386.17" cy="278.9" r="151.95"/><circle class="cls-1" cx="386.17" cy="278.9" r="170.8"/><circle class="cls-1" cx="386.17" cy="278.9" r="189.93"/><circle class="cls-1" cx="386.17" cy="278.9" r="208.93"/><circle class="cls-1" cx="386.17" cy="278.9" r="229.22"/><circle class="cls-1" cx="500.6" cy="476.52" r="20.11"/><circle class="cls-1" cx="500.6" cy="476.52" r="38.34"/><circle class="cls-1" cx="500.6" cy="476.52" r="57.14"/><circle class="cls-1" cx="500.6" cy="476.52" r="75.84"/><circle class="cls-1" cx="500.6" cy="476.52" r="96.08"/><circle class="cls-1" cx="500.6" cy="476.52" r="114.43"/><circle class="cls-1" cx="500.6" cy="476.52" r="132.82"/><circle class="cls-1" cx="500.6" cy="476.52" r="151.95"/><circle class="cls-1" cx="500.6" cy="476.52" r="170.8"/><circle class="cls-1" cx="500.6" cy="476.52" r="189.93"/><circle class="cls-1" cx="500.6" cy="476.52" r="208.93"/><circle class="cls-1" cx="500.6" cy="476.52" r="229.22"/></svg>
