<?xml version="1.0" encoding="utf-8"?>
<!-- Generator: Adobe Illustrator 26.3.1, SVG Export Plug-In . SVG Version: 6.00 Build 0)  -->
<svg version="1.1" id="Layer_1" xmlns="http://www.w3.org/2000/svg" xmlns:xlink="http://www.w3.org/1999/xlink" x="0px" y="0px"
	 viewBox="0 0 782 235.6" style="enable-background:new 0 0 782 235.6;" xml:space="preserve">
<style type="text/css">
	.st0{fill:#393C3F;}
	.st1{fill:#37393D;}
</style>
<rect x="13.1" y="167.8" class="st0" width="742.9" height="2"/>
<path class="st1" d="M15.5,128.7h14.6c0.7,0,1.2,0.5,1.4,1.1c0.8,3.3,4.2,5.2,11.6,5.3s10.7-2,10.7-4.7c0-1.9-1-3.8-6.7-4.6
	l-7.4-1.2c-11-1.8-24.1-3.1-24.1-17.9c0-11.4,9.3-18.5,27.7-18.5c16.1,0,27.5,4.3,27.8,19.7c0,0.8-0.6,1.4-1.4,1.5c0,0,0,0-0.1,0
	H55.1c-0.6,0-1.2-0.4-1.3-1c-1-3.3-4.3-5.3-11-5.3c-6.3,0-9,1.9-9,4.6c0,1.7,1,3.7,5.4,4.3l6.1,1c11.5,1.9,27.3,2.3,27.3,18.1
	c0,12.6-9.8,18.9-29.6,18.8c-19.3-0.1-28.8-5.9-29-19.8C14.1,129.3,14.7,128.7,15.5,128.7C15.5,128.7,15.5,128.7,15.5,128.7z"/>
<path class="st1" d="M78.6,119.1c0-18.5,12.9-30.9,32.8-30.9s32.8,12.3,32.8,30.9S131.4,150,111.4,150S78.6,137.6,78.6,119.1z
	 M125.3,119.1c0-9.2-6.3-14.4-13.8-14.4s-13.8,5.2-13.8,14.4s6.3,14.4,13.8,14.4S125.3,128.3,125.3,119.1z"/>
<path class="st1" d="M151,119.1c0-18.5,13-30.9,32.5-30.9c13.7,0,27.8,5.9,30.3,24.2c0.1,0.8-0.4,1.5-1.2,1.6c-0.1,0-0.1,0-0.2,0
	h-15.6c-0.6,0-1.2-0.4-1.3-1c-1.8-5.7-6.1-8.3-12.1-8.3c-7.6,0-13.6,5.7-13.6,14.4s6,14.4,13.6,14.4c6,0,10.3-2.7,12.1-8.5
	c0.2-0.6,0.7-1,1.3-1h15.5c0.8,0,1.4,0.6,1.4,1.4c0,0.1,0,0.1,0,0.2c-2.5,18.5-16.5,24.4-30.3,24.4C164,150,151,137.6,151,119.1z"/>
<path class="st1" d="M264.3,147.5l-14.9-19.8c-0.1-0.1-0.3-0.2-0.4-0.2h-0.8c-0.1,0-0.3,0.1-0.4,0.2l-7.4,7.9
	c-0.3,0.3-0.4,0.6-0.4,1v10.2c0,0.8-0.6,1.4-1.4,1.4h-16.2c-0.8,0-1.4-0.6-1.4-1.4V91.6c0-0.8,0.6-1.4,1.4-1.4h16.2
	c0.8,0,1.4,0.6,1.4,1.4v21.5h0.6c0.4,0,0.7-0.2,1-0.5l20-22c0.3-0.3,0.6-0.5,1-0.5h17.4c0.8,0,1.4,0.7,1.4,1.5
	c0,0.3-0.1,0.6-0.4,0.9l-20.6,22.6c-0.5,0.5-0.5,1.2-0.1,1.8l21.9,28.9c0.5,0.6,0.4,1.5-0.3,2c-0.2,0.2-0.5,0.3-0.9,0.3h-16
	C264.9,148,264.5,147.8,264.3,147.5z"/>
<path class="st1" d="M290.7,90.2H340c0.8,0,1.4,0.6,1.4,1.4v12.5c0,0.8-0.6,1.4-1.4,1.4c0,0,0,0,0,0h-30.2c-0.8,0-1.4,0.6-1.4,1.4
	v4.6c0,0.8,0.6,1.4,1.4,1.4h29c0.8,0,1.4,0.6,1.4,1.4c0,0,0,0,0,0v9.8c0,0.8-0.6,1.4-1.4,1.4l0,0h-29c-0.8,0-1.4,0.6-1.4,1.4v4.6
	c0,0.8,0.6,1.4,1.4,1.4H340c0.8,0,1.4,0.6,1.4,1.4v12.5c0,0.7-0.7,1.3-1.4,1.3h-49.3c-0.8,0-1.4-0.6-1.4-1.4v-55
	C289.3,90.8,289.9,90.2,290.7,90.2z"/>
<path class="st1" d="M408.5,106.1h-18c-0.8,0-1.4,0.6-1.4,1.4c0,0,0,0,0,0v39.2c0,0.8-0.6,1.4-1.4,1.4h-16.3c-0.8,0-1.4-0.6-1.4-1.4
	v-39.2c0-0.8-0.6-1.4-1.4-1.4h-18c-0.8,0-1.4-0.6-1.4-1.4c0,0,0,0,0,0V91.6c0-0.8,0.6-1.4,1.4-1.4h57.9c0.8,0,1.4,0.6,1.4,1.4v13.1
	C409.9,105.5,409.3,106.1,408.5,106.1z"/>
<path class="st1" d="M438.9,128.7h14.6c0.7,0,1.2,0.5,1.4,1.1c0.8,3.3,4.2,5.2,11.6,5.3s10.7-2,10.7-4.7c0-1.9-1-3.8-6.7-4.6
	l-7.5-1.2c-11-1.8-24.1-3.1-24.1-17.9c0-11.4,9.3-18.5,27.7-18.5c16.1,0,27.5,4.3,27.8,19.7c0,0.8-0.6,1.4-1.4,1.5c0,0,0,0-0.1,0
	h-14.5c-0.6,0-1.2-0.4-1.3-1c-1-3.3-4.3-5.3-11-5.3c-6.3,0-9,1.9-9,4.6c0,1.7,1,3.7,5.4,4.3l6.1,1c11.5,1.9,27.3,2.3,27.3,18.1
	c0,12.6-9.8,18.9-29.6,18.8c-19.3-0.1-28.8-5.9-29-19.8C437.5,129.3,438.1,128.7,438.9,128.7C438.9,128.7,438.9,128.7,438.9,128.7z"
	/>
<path class="st1" d="M564,119.1c0,16.6-8.3,28.9-31.8,28.9h-27.7c-0.8,0-1.4-0.6-1.4-1.4V91.6c0-0.8,0.6-1.4,1.4-1.4h27.7
	C555.7,90.2,564,102.4,564,119.1z M544.8,119.1c0-9.3-5.2-13-12.7-13h-8.5c-0.8,0-1.4,0.6-1.4,1.4v23.1c0,0.8,0.6,1.4,1.4,1.4h8.5
	C539.6,132.1,544.8,128.3,544.8,119.1L544.8,119.1z"/>
<path class="st1" d="M614.6,147.5l-14.8-19.8c-0.1-0.1-0.3-0.2-0.4-0.2h-0.8c-0.1,0-0.3,0.1-0.4,0.2l-7.4,7.9
	c-0.3,0.3-0.4,0.6-0.4,1v10.2c0,0.7-0.7,1.3-1.4,1.3h-16.2c-0.8,0-1.4-0.6-1.4-1.4v-55c0-0.8,0.6-1.4,1.4-1.4H589
	c0.8,0,1.4,0.6,1.4,1.4c0,0,0,0,0,0v21.5h0.6c0.4,0,0.7-0.2,1-0.5l20-22c0.3-0.3,0.6-0.5,1-0.5h17.4c0.8,0,1.4,0.7,1.4,1.5
	c0,0.3-0.1,0.6-0.4,0.9l-20.6,22.6c-0.5,0.5-0.5,1.2-0.1,1.8l21.8,28.9c0.5,0.6,0.4,1.5-0.3,2c-0.2,0.2-0.5,0.3-0.9,0.3h-16
	C615.1,148,614.8,147.8,614.6,147.5z"/>
<g>
	<path d="M34.8,216h-2.4l-1.9-7h-8.9l-1.9,7h-2.4l7.5-26.9h2.5L34.8,216z M26.1,192.8l-3.8,14.1H30L26.1,192.8z"/>
	<path d="M79.2,189.1v2.1H66.7v11h8.1v2.2h-8.1V216h-2.3v-26.9H79.2z"/>
	<path d="M100,216l-7.7-11.6h-3.2V216h-2.3v-26.9h7.5c1.9,0,3.4,0.2,4.5,0.7c1.1,0.5,1.9,1.3,2.4,2.4c0.5,1.1,0.7,2.6,0.7,4.6
		c0,1.9-0.2,3.4-0.7,4.5c-0.4,1.1-1.1,1.9-2.1,2.4c-1,0.5-2.3,0.8-4.1,0.8l7.7,11.6H100z M89.1,191.2v11.1h5.2
		c1.4,0,2.4-0.2,3.2-0.5c0.8-0.3,1.3-0.9,1.6-1.6c0.3-0.8,0.5-1.9,0.5-3.4c0-1.4-0.2-2.6-0.5-3.3s-0.9-1.4-1.6-1.7
		c-0.7-0.3-1.8-0.5-3.2-0.5H89.1z"/>
	<path d="M125.2,216h-2.4l-1.9-7H112l-1.9,7h-2.4l7.5-26.9h2.5L125.2,216z M116.4,192.8l-3.8,14.1h7.7L116.4,192.8z"/>
	<path d="M133,216h-2.3l0.5-26.9h2.3l5.7,14.8l5.7-14.8h2.3l0.5,26.9h-2.3l-0.4-21l-4.6,12.5h-2.2l-4.6-12.5L133,216z"/>
	<path d="M169.5,189.1v2.1H157v9.5h8.1v2.2H157v11h12.6v2.1h-14.9v-26.9H169.5z"/>
	<path d="M180.9,216h-2.3l-3.7-26.9h2.4l2.8,21.3l3-12.7h2.2l3,12.7l2.8-21.3h2.4l-3.7,26.9h-2.3l-3.3-13.6L180.9,216z"/>
	<path d="M201.9,215.3c-1.2-0.8-2-2.1-2.5-3.9c-0.5-1.8-0.8-4.3-0.8-7.5v-2.7c0-3.2,0.3-5.7,0.8-7.5c0.5-1.8,1.3-3.1,2.5-3.9
		c1.2-0.8,2.8-1.2,4.9-1.2s3.7,0.4,4.9,1.2c1.2,0.8,2,2.1,2.5,3.9c0.5,1.8,0.8,4.3,0.8,7.5v2.7c0,3.2-0.3,5.7-0.8,7.5
		c-0.5,1.8-1.4,3.1-2.5,3.9c-1.2,0.8-2.8,1.2-4.9,1.2S203.1,216.1,201.9,215.3z M210.3,213.4c0.8-0.6,1.4-1.7,1.8-3.2
		c0.4-1.5,0.5-3.6,0.5-6.3v-2.7c0-2.7-0.2-4.8-0.5-6.3c-0.4-1.5-1-2.6-1.8-3.2c-0.8-0.6-2-1-3.5-1c-1.5,0-2.7,0.3-3.5,1
		c-0.8,0.6-1.4,1.7-1.8,3.2c-0.4,1.5-0.5,3.6-0.5,6.3v2.7c0,2.7,0.2,4.8,0.5,6.3c0.4,1.5,1,2.6,1.8,3.2c0.8,0.6,2,1,3.5,1
		C208.3,214.4,209.5,214,210.3,213.4z"/>
	<path d="M235.5,216l-7.7-11.6h-3.2V216h-2.3v-26.9h7.5c1.9,0,3.4,0.2,4.5,0.7c1.1,0.5,1.9,1.3,2.4,2.4c0.5,1.1,0.7,2.6,0.7,4.6
		c0,1.9-0.2,3.4-0.7,4.5c-0.4,1.1-1.1,1.9-2.1,2.4c-1,0.5-2.3,0.8-4.1,0.8l7.7,11.6H235.5z M224.6,191.2v11.1h5.2
		c1.4,0,2.4-0.2,3.2-0.5c0.8-0.3,1.3-0.9,1.6-1.6c0.3-0.8,0.5-1.9,0.5-3.4c0-1.4-0.2-2.6-0.5-3.3s-0.9-1.4-1.6-1.7
		c-0.7-0.3-1.8-0.5-3.2-0.5H224.6z"/>
	<path d="M261.1,216h-2.7l-8.9-13.2h-2.6V216h-2.3v-26.9h2.3v11.6h1.6l9.7-11.6h2.9l-10,12L261.1,216z"/>
	<path d="M305.1,189.1v2.1h-12.6v11h8.1v2.2h-8.1V216h-2.3v-26.9H305.1z"/>
	<path d="M314.8,215.3c-1.2-0.8-2-2.1-2.5-3.9c-0.5-1.8-0.8-4.3-0.8-7.5v-2.7c0-3.2,0.3-5.7,0.8-7.5c0.5-1.8,1.3-3.1,2.5-3.9
		c1.2-0.8,2.8-1.2,4.9-1.2s3.7,0.4,4.9,1.2c1.2,0.8,2,2.1,2.5,3.9c0.5,1.8,0.8,4.3,0.8,7.5v2.7c0,3.2-0.3,5.7-0.8,7.5
		c-0.5,1.8-1.4,3.1-2.5,3.9c-1.2,0.8-2.8,1.2-4.9,1.2S316,216.1,314.8,215.3z M323.2,213.4c0.8-0.6,1.4-1.7,1.8-3.2
		c0.4-1.5,0.5-3.6,0.5-6.3v-2.7c0-2.7-0.2-4.8-0.5-6.3c-0.4-1.5-1-2.6-1.8-3.2c-0.8-0.6-2-1-3.5-1c-1.5,0-2.7,0.3-3.5,1
		c-0.8,0.6-1.4,1.7-1.8,3.2c-0.4,1.5-0.5,3.6-0.5,6.3v2.7c0,2.7,0.2,4.8,0.5,6.3c0.4,1.5,1,2.6,1.8,3.2c0.8,0.6,2,1,3.5,1
		C321.2,214.4,322.4,214,323.2,213.4z"/>
	<path d="M348.5,216l-7.7-11.6h-3.2V216h-2.3v-26.9h7.5c1.9,0,3.4,0.2,4.5,0.7c1.1,0.5,1.9,1.3,2.4,2.4c0.5,1.1,0.7,2.6,0.7,4.6
		c0,1.9-0.2,3.4-0.7,4.5c-0.4,1.1-1.1,1.9-2.1,2.4c-1,0.5-2.3,0.8-4.1,0.8l7.7,11.6H348.5z M337.5,191.2v11.1h5.2
		c1.4,0,2.4-0.2,3.2-0.5c0.8-0.3,1.3-0.9,1.6-1.6c0.3-0.8,0.5-1.9,0.5-3.4c0-1.4-0.2-2.6-0.5-3.3s-0.9-1.4-1.6-1.7
		c-0.7-0.3-1.8-0.5-3.2-0.5H337.5z"/>
	<path d="M396.2,216h-2.4l-1.9-7H383l-1.9,7h-2.4l7.5-26.9h2.5L396.2,216z M387.5,192.8l-3.8,14.1h7.7L387.5,192.8z"/>
	<path d="M433.1,189.1c2,0,3.6,0.4,4.8,1.3c1.1,0.9,2,2.2,2.5,4.2c0.5,1.9,0.8,4.6,0.8,8c0,3.4-0.3,6.1-0.8,8
		c-0.5,1.9-1.3,3.3-2.5,4.2c-1.1,0.9-2.7,1.3-4.8,1.3h-8v-26.9H433.1z M433.1,213.9c1.5,0,2.6-0.3,3.4-1c0.8-0.7,1.4-1.9,1.7-3.5
		c0.3-1.6,0.5-3.9,0.5-6.8s-0.2-5.2-0.5-6.8s-0.9-2.8-1.7-3.5c-0.8-0.7-2-1-3.4-1h-5.7v22.7H433.1z"/>
	<path d="M461.9,189.1v2.1h-5.4v22.7h5.4v2.1h-13.2v-2.1h5.4v-22.7h-5.4v-2.1H461.9z"/>
	<path d="M474,216.1c-1-0.2-1.8-0.7-2.5-1.2s-1.3-1.4-1.8-2.4l1.7-1.6c0.4,0.9,0.8,1.7,1.3,2.2s1.1,0.9,1.9,1.1
		c0.8,0.2,1.8,0.3,3.1,0.3c1.4,0,2.6-0.2,3.3-0.5c0.8-0.3,1.4-0.9,1.7-1.8c0.3-0.8,0.5-2,0.5-3.5c0-1-0.2-1.9-0.5-2.5
		c-0.3-0.7-0.9-1.2-1.7-1.7c-0.8-0.5-1.9-1-3.4-1.5c-1.9-0.6-3.3-1.2-4.4-1.9c-1-0.6-1.8-1.3-2.2-2.2c-0.4-0.8-0.7-1.9-0.7-3.1
		c0-1.8,0.2-3.2,0.7-4.2c0.5-1,1.2-1.8,2.3-2.2c1.1-0.4,2.5-0.7,4.4-0.7c2.1,0,3.7,0.3,4.7,0.8c1.1,0.5,2,1.4,2.8,2.7l-1.6,1.7
		c-0.4-0.8-0.8-1.5-1.3-1.9c-0.5-0.4-1-0.8-1.7-0.9c-0.7-0.2-1.7-0.3-2.8-0.3c-1.3,0-2.3,0.2-3.1,0.5c-0.7,0.3-1.2,0.8-1.5,1.5
		c-0.3,0.7-0.5,1.7-0.5,3c0,0.9,0.2,1.6,0.5,2.2c0.3,0.6,0.8,1.1,1.5,1.5c0.7,0.4,1.8,0.8,3.1,1.3c2,0.6,3.5,1.3,4.7,1.9
		c1.1,0.7,1.9,1.5,2.4,2.4s0.7,2.1,0.7,3.6c0,2-0.2,3.6-0.7,4.7c-0.5,1.1-1.3,1.9-2.4,2.4c-1.1,0.5-2.7,0.7-4.7,0.7
		C476.3,216.5,475,216.3,474,216.1z"/>
	<path d="M509.8,189.1v2.1h-8.2V216h-2.3v-24.8h-8.2v-2.1H509.8z"/>
	<path d="M529.1,216l-7.7-11.6h-3.2V216h-2.3v-26.9h7.5c1.9,0,3.4,0.2,4.5,0.7c1.1,0.5,1.9,1.3,2.4,2.4c0.5,1.1,0.7,2.6,0.7,4.6
		c0,1.9-0.2,3.4-0.7,4.5c-0.4,1.1-1.1,1.9-2.1,2.4c-1,0.5-2.3,0.8-4.1,0.8l7.7,11.6H529.1z M518.2,191.2v11.1h5.2
		c1.4,0,2.4-0.2,3.2-0.5s1.3-0.9,1.6-1.6c0.3-0.8,0.5-1.9,0.5-3.4c0-1.4-0.2-2.6-0.5-3.3s-0.9-1.4-1.6-1.7c-0.7-0.3-1.8-0.5-3.2-0.5
		H518.2z"/>
	<path d="M552.2,189.1v2.1h-5.4v22.7h5.4v2.1H539v-2.1h5.4v-22.7H539v-2.1H552.2z"/>
	<path d="M560.9,216v-26.9h6.7c1.9,0,3.4,0.2,4.5,0.7s1.9,1.1,2.4,2.1s0.7,2.3,0.7,4c0,1.6-0.2,2.9-0.7,3.7c-0.4,0.8-1.2,1.5-2.4,2
		c1,0.3,1.8,0.8,2.3,1.3c0.5,0.5,0.9,1.2,1.2,2.1c0.2,0.9,0.4,2,0.4,3.4c0,1.9-0.2,3.4-0.7,4.6c-0.5,1.1-1.3,1.9-2.3,2.4
		c-1.1,0.5-2.6,0.7-4.5,0.7H560.9z M567.6,200.7c1.4,0,2.5-0.1,3.2-0.4c0.7-0.3,1.3-0.7,1.6-1.4c0.3-0.7,0.5-1.7,0.5-3
		c0-1.2-0.2-2.2-0.5-2.8c-0.3-0.7-0.8-1.1-1.6-1.4c-0.8-0.3-1.8-0.4-3.2-0.4h-4.4v9.5H567.6z M568.5,213.9c1.4,0,2.4-0.2,3.2-0.5
		c0.7-0.3,1.3-0.9,1.6-1.7c0.3-0.8,0.5-1.9,0.5-3.3c0-1.5-0.2-2.6-0.5-3.4c-0.3-0.8-0.8-1.3-1.6-1.6c-0.8-0.3-1.8-0.5-3.2-0.5h-5.2
		v11H568.5z"/>
	<path d="M586.3,215.5c-1.1-0.7-1.8-1.7-2.3-3.2c-0.5-1.5-0.7-3.6-0.7-6.3v-16.9h2.3V206c0,2.2,0.2,3.9,0.5,5c0.3,1.2,0.8,2,1.6,2.6
		c0.7,0.5,1.8,0.8,3.1,0.8s2.4-0.3,3.1-0.8c0.7-0.5,1.3-1.4,1.6-2.6c0.3-1.2,0.5-2.9,0.5-5v-16.9h2.3V206c0,2.7-0.2,4.8-0.7,6.3
		c-0.5,1.5-1.2,2.6-2.3,3.2c-1.1,0.7-2.6,1-4.5,1S587.4,216.1,586.3,215.5z"/>
	<path d="M622.7,189.1v2.1h-8.2V216h-2.3v-24.8H604v-2.1H622.7z"/>
	<path d="M643.9,189.1v2.1h-12.6v9.5h8.1v2.2h-8.1v11h12.6v2.1H629v-26.9H643.9z"/>
	<path d="M658.9,189.1c2,0,3.6,0.4,4.8,1.3c1.1,0.9,2,2.2,2.5,4.2c0.5,1.9,0.8,4.6,0.8,8c0,3.4-0.3,6.1-0.8,8
		c-0.5,1.9-1.3,3.3-2.5,4.2c-1.1,0.9-2.7,1.3-4.8,1.3h-8v-26.9H658.9z M658.9,213.9c1.5,0,2.6-0.3,3.4-1c0.8-0.7,1.4-1.9,1.7-3.5
		c0.3-1.6,0.5-3.9,0.5-6.8s-0.2-5.2-0.5-6.8s-0.9-2.8-1.7-3.5c-0.8-0.7-2-1-3.4-1h-5.7v22.7H658.9z"/>
	<path d="M700.4,216h-2.3l-3.7-26.9h2.4l2.8,21.3l3-12.7h2.2l3,12.7l2.8-21.3h2.4l-3.7,26.9H707l-3.3-13.6L700.4,216z"/>
	<path d="M734.2,189.1v2.1h-12.6v9.5h8.1v2.2h-8.1v11h12.6v2.1h-14.9v-26.9H734.2z"/>
	<path d="M741.6,216v-26.9h6.7c1.9,0,3.4,0.2,4.5,0.7s1.9,1.1,2.4,2.1s0.7,2.3,0.7,4c0,1.6-0.2,2.9-0.7,3.7c-0.4,0.8-1.2,1.5-2.4,2
		c1,0.3,1.8,0.8,2.3,1.3c0.5,0.5,0.9,1.2,1.2,2.1c0.2,0.9,0.4,2,0.4,3.4c0,1.9-0.2,3.4-0.7,4.6c-0.5,1.1-1.3,1.9-2.3,2.4
		c-1.1,0.5-2.6,0.7-4.5,0.7H741.6z M748.3,200.7c1.4,0,2.5-0.1,3.2-0.4c0.7-0.3,1.3-0.7,1.6-1.4c0.3-0.7,0.5-1.7,0.5-3
		c0-1.2-0.2-2.2-0.5-2.8c-0.3-0.7-0.8-1.1-1.6-1.4c-0.8-0.3-1.8-0.4-3.2-0.4h-4.4v9.5H748.3z M749.2,213.9c1.4,0,2.4-0.2,3.2-0.5
		c0.7-0.3,1.3-0.9,1.6-1.7c0.3-0.8,0.5-1.9,0.5-3.3c0-1.5-0.2-2.6-0.5-3.4c-0.3-0.8-0.8-1.3-1.6-1.6c-0.8-0.3-1.8-0.5-3.2-0.5h-5.2
		v11H749.2z"/>
</g>
</svg>
