<svg id="Layer_1" data-name="Layer 1" xmlns="http://www.w3.org/2000/svg" viewBox="0 0 868.44 229.82"><defs><style>.cls-1{fill:#37393d;}</style></defs><path class="cls-1" d="M16.4,118.78c0-28.82,20-44.43,48.09-44.43s48.1,15.61,48.1,44.43v52.5c0,28.82-20,44.43-48.1,44.43S16.4,200.1,16.4,171.28Zm48.09,66.09c9,0,13.22-7,13.22-16.89v-45.9c0-9.91-4.22-16.89-13.22-16.89s-13.21,7-13.21,16.89V168C51.28,177.89,55.5,184.87,64.49,184.87Z"/><path class="cls-1" d="M133.51,78.68a2.49,2.49,0,0,1,2.5-2.49h45.6c28.09,0,48.1,16.52,48.1,43.51v10.09c0,27-20,43.69-48.1,43.69H170.89a2.5,2.5,0,0,0-2.5,2.5v35.4a2.48,2.48,0,0,1-2.49,2.49H136a2.49,2.49,0,0,1-2.5-2.49Zm48.1,64c9,0,13.22-8.07,13.22-16.15V123c0-8.08-4.22-16-13.22-16H170.89a2.5,2.5,0,0,0-2.5,2.49v30.63a2.49,2.49,0,0,0,2.5,2.49Z"/><path class="cls-1" d="M249.27,76.19h65.87a2.49,2.49,0,0,1,2.5,2.49v25.86a2.5,2.5,0,0,1-2.5,2.49h-31a2.49,2.49,0,0,0-2.49,2.49v17.23a2.48,2.48,0,0,0,2.49,2.49h31a2.5,2.5,0,0,1,2.5,2.5v25.85a2.49,2.49,0,0,1-2.5,2.49h-31a2.49,2.49,0,0,0-2.49,2.5v18a2.49,2.49,0,0,0,2.49,2.49h31a2.5,2.5,0,0,1,2.5,2.5v25.85a2.49,2.49,0,0,1-2.5,2.49H249.27a2.48,2.48,0,0,1-2.49-2.49V78.68A2.48,2.48,0,0,1,249.27,76.19Z"/><path class="cls-1" d="M339.85,78.68a2.49,2.49,0,0,1,2.49-2.49H388C416,76.19,436,91.79,436,116.94v8.45c0,13.77-4.58,21.94-14.89,30.54a2.52,2.52,0,0,0-.83,2.6c2.14,7.69,11.55,41.61,14.48,52.18a2.49,2.49,0,0,1-2.4,3.16H403.27a2.49,2.49,0,0,1-2.41-1.86l-11.51-44a2.5,2.5,0,0,0-2.41-1.87h-9.72a2.5,2.5,0,0,0-2.49,2.5v42.74a2.49,2.49,0,0,1-2.5,2.49H342.34a2.49,2.49,0,0,1-2.49-2.49ZM388,135.3c9,0,13.21-7,13.21-13.22v-1.83C401.16,114,396.94,107,388,107H377.22a2.5,2.5,0,0,0-2.49,2.49v23.29a2.5,2.5,0,0,0,2.49,2.49Z"/><path class="cls-1" d="M480.21,76.19h29a2.5,2.5,0,0,1,2.42,1.89l33.26,132.69a2.49,2.49,0,0,1-2.42,3.1H515.26a2.5,2.5,0,0,1-2.42-1.87l-3.07-11.86a2.48,2.48,0,0,0-2.41-1.87H481.71a2.49,2.49,0,0,0-2.43,1.92L476.51,212a2.48,2.48,0,0,1-2.42,1.92H447a2.49,2.49,0,0,1-2.42-3.1L477.79,78.08A2.5,2.5,0,0,1,480.21,76.19Zm23.94,90L497,136.3a2.49,2.49,0,0,0-4.85,0l-7.12,29.89a2.48,2.48,0,0,0,2.42,3.07h14.25A2.48,2.48,0,0,0,504.15,166.19Z"/><path class="cls-1" d="M564.62,107H545.56a2.49,2.49,0,0,1-2.49-2.49V78.68a2.48,2.48,0,0,1,2.49-2.49h78A2.48,2.48,0,0,1,626,78.68v25.86a2.49,2.49,0,0,1-2.49,2.49H604.49a2.49,2.49,0,0,0-2.49,2.49V211.38a2.49,2.49,0,0,1-2.5,2.49H569.61a2.48,2.48,0,0,1-2.49-2.49V109.52A2.5,2.5,0,0,0,564.62,107Z"/><path class="cls-1" d="M638.89,118.78c0-28.82,20-44.43,48.1-44.43s48.1,15.61,48.1,44.43v52.5c0,28.82-20,44.43-48.1,44.43s-48.1-15.61-48.1-44.43ZM687,184.87c9,0,13.22-7,13.22-16.89v-45.9c0-9.91-4.23-16.89-13.22-16.89s-13.22,7-13.22,16.89V168C673.77,177.89,678,184.87,687,184.87Z"/><path class="cls-1" d="M756,78.68a2.49,2.49,0,0,1,2.49-2.49h45.61c28.08,0,48.09,15.6,48.09,40.75v8.45c0,13.77-4.58,21.94-14.89,30.54a2.53,2.53,0,0,0-.83,2.6L851,210.71a2.5,2.5,0,0,1-2.4,3.16H819.43A2.49,2.49,0,0,1,817,212l-11.51-44a2.5,2.5,0,0,0-2.41-1.87h-9.72a2.49,2.49,0,0,0-2.49,2.5v42.74a2.49,2.49,0,0,1-2.5,2.49H758.5a2.49,2.49,0,0,1-2.49-2.49Zm48.1,56.62c9,0,13.21-7,13.21-13.22v-1.83c0-6.24-4.22-13.22-13.21-13.22H793.38a2.49,2.49,0,0,0-2.49,2.49v23.29a2.49,2.49,0,0,0,2.49,2.49Z"/><path class="cls-1" d="M35.39,36H25l-1.31,3.55H18.47l8.19-21.15h7.05l8.2,21.15H36.7ZM34,32.22l-3.32-9h-1l-3.32,9Z"/><path class="cls-1" d="M56.92,18.42H74.69v4.2H61.93v5H74v3.8H61.93v8.16h-5Z"/><path class="cls-1" d="M95.77,39.57l-3.48-6.3H85.47v6.3h-5V18.42h11.1c5.67,0,8.66,2.64,8.66,7.58a6.83,6.83,0,0,1-3.6,6.27l4.13,7.3ZM85.47,29.42h5.82c2.54,0,3.95-1.16,3.95-3.4s-1.41-3.4-3.95-3.4H85.47Z"/><path class="cls-1" d="M121.85,36H111.43l-1.31,3.55h-5.19l8.18-21.15h7l8.21,21.15h-5.21Zm-1.41-3.8-3.32-9h-1l-3.32,9Z"/><path class="cls-1" d="M133.38,18.42h6.42L145,33.25h.38l5.23-14.83h6.42V39.57h-4.81V26.83h-.42l-4.66,12.74h-3.9l-4.66-12.74h-.43V39.57h-4.81Z"/><path class="cls-1" d="M162.86,18.42h17.8v4.1H167.87v4.63h12.34v3.63H167.87v4.66h12.79v4.13h-17.8Z"/><path class="cls-1" d="M186,18.42H191l3.37,15.78h.45l4-15.78h4.21l4.05,15.78h.45L211,18.42H216l-4.73,21.15h-6.8l-3.28-13.35h-.47l-3.28,13.35h-6.77Z"/><path class="cls-1" d="M219.59,29c0-6.64,4.71-11.28,11.61-11.28S242.83,22.35,242.83,29s-4.71,11.28-11.63,11.28S219.59,35.64,219.59,29Zm18.25,0a6.65,6.65,0,1,0-13.29,0,6.54,6.54,0,0,0,6.65,6.93C235,35.92,237.84,33.15,237.84,29Z"/><path class="cls-1" d="M263.55,39.57l-3.48-6.3h-6.82v6.3h-5V18.42h11.1C265,18.42,268,21.06,268,26a6.84,6.84,0,0,1-3.61,6.27l4.13,7.3Zm-10.3-10.15h5.82c2.54,0,3.95-1.16,3.95-3.4s-1.41-3.4-3.95-3.4h-5.82Z"/><path class="cls-1" d="M289.76,39.57l-6.93-8.71h-.35l-3.65,3.77v4.94h-5V18.42h5V28.56h.38l9.62-10.14h5.69l-8.82,9.39L295,39.57Z"/><path class="cls-1" d="M309.67,18.42h17.78v4.2H314.68v5h12.06v3.8H314.68v8.16h-5Z"/><path class="cls-1" d="M332.38,29c0-6.64,4.71-11.28,11.61-11.28S355.62,22.35,355.62,29,350.91,40.27,344,40.27,332.38,35.64,332.38,29Zm18.26,0a6.66,6.66,0,1,0-13.3,0A6.55,6.55,0,0,0,344,35.92C347.77,35.92,350.64,33.15,350.64,29Z"/><path class="cls-1" d="M376.34,39.57l-3.47-6.3h-6.82v6.3h-5V18.42h11.11c5.66,0,8.66,2.64,8.66,7.58a6.85,6.85,0,0,1-3.6,6.27l4.13,7.3ZM366.05,29.42h5.81c2.54,0,3.95-1.16,3.95-3.4s-1.41-3.4-3.95-3.4h-5.81Z"/><path class="cls-1" d="M417.68,29c0,6-3.12,10.58-11.33,10.58h-9.71V18.42h9.71C414.56,18.42,417.68,23,417.68,29Zm-5,0c0-4.08-2.22-6.34-6.32-6.34H401.7l-.05,12.69h4.68C410.43,35.34,412.65,33.07,412.65,29Z"/><path class="cls-1" d="M423.2,18.42h5V39.57h-5Z"/><path class="cls-1" d="M433.49,33H438c.17,2,1.81,3.25,5.28,3.27,3.28,0,5.06-1.1,5.06-2.77,0-1.46-1.18-2.19-3.7-2.61l-2.62-.46c-4-.7-8-1.76-8-6.37,0-4,3.38-6.37,9.29-6.37,5.52,0,9.34,1.94,9.4,7.18h-4.51c-.33-1.91-1.81-3.2-5-3.2-2.87,0-4.38,1-4.38,2.62,0,1.28,1,2.09,3.2,2.49l2.29.41c4,.73,9,1.4,9,6.47,0,4.2-3.45,6.59-10.05,6.59C436.87,40.27,433.47,38,433.49,33Z"/><path class="cls-1" d="M478.31,22.62h-7.93v17h-5V22.62h-7.9v-4.2h20.87Z"/><path class="cls-1" d="M499.26,39.57l-3.48-6.3H489v6.3h-5V18.42h11.1c5.67,0,8.66,2.64,8.66,7.58a6.83,6.83,0,0,1-3.6,6.27l4.13,7.3ZM489,29.42h5.82c2.54,0,4-1.16,4-3.4s-1.41-3.4-4-3.4H489Z"/><path class="cls-1" d="M509.56,18.42h5V39.57h-5Z"/><path class="cls-1" d="M540.35,33.6c0,3.5-2.45,6-8.69,6h-11.3V18.42h11.35c6,0,8,2.49,8,5.41a4.36,4.36,0,0,1-2.92,4.31v.32A5.22,5.22,0,0,1,540.35,33.6Zm-15-11.25V27h6c2.29,0,3.53-.78,3.53-2.32s-1.24-2.36-3.53-2.36Zm9.89,10.49c0-1.71-1.33-2.64-3.67-2.64h-6.22v5.44h6.22C533.93,35.64,535.26,34.53,535.26,32.84Z"/><path class="cls-1" d="M545.86,30.76V18.42h5.06V30.63c0,3.37,1.69,5.41,5.14,5.41s5.16-2,5.16-5.41V18.42h5V30.76c0,6.44-3.67,9.51-10.19,9.51S545.86,37.2,545.86,30.76Z"/><path class="cls-1" d="M592.77,22.62h-7.93v17h-5V22.62h-7.91v-4.2h20.88Z"/><path class="cls-1" d="M598.41,18.42h17.8v4.1H603.42v4.63h12.33v3.63H603.42v4.66h12.79v4.13h-17.8Z"/><path class="cls-1" d="M643.05,29c0,6-3.13,10.58-11.33,10.58H622V18.42h9.72C639.92,18.42,643.05,23,643.05,29Zm-5,0c0-4.08-2.22-6.34-6.32-6.34h-4.63l0,12.69h4.68C635.79,35.34,638,33.07,638,29Z"/><path class="cls-1" d="M658.08,18.42h5.06l3.37,15.78H667l4-15.78h4.21l4,15.78h.45l3.35-15.78h5.09L683.4,39.57h-6.79l-3.28-13.35h-.48l-3.27,13.35h-6.77Z"/><path class="cls-1" d="M693.43,18.42h17.79v4.1H698.43v4.63h12.34v3.63H698.43v4.66h12.79v4.13H693.43Z"/><path class="cls-1" d="M737,33.6c0,3.5-2.45,6-8.69,6H717V18.42h11.35c6,0,8,2.49,8,5.41a4.36,4.36,0,0,1-2.92,4.31v.32A5.22,5.22,0,0,1,737,33.6ZM722,22.35V27h6c2.29,0,3.53-.78,3.53-2.32s-1.24-2.36-3.53-2.36Zm9.89,10.49c0-1.71-1.33-2.64-3.68-2.64H722v5.44h6.21C730.59,35.64,731.92,34.53,731.92,32.84Z"/><path class="cls-1" d="M768.68,36H758.26L757,39.57h-5.19l8.18-21.15h7l8.21,21.15H770Zm-1.41-3.8-3.32-9h-1l-3.32,9Z"/><path class="cls-1" d="M780.21,18.42h11c5.64,0,8.71,2.69,8.71,7.75s-3.07,7.73-8.71,7.73h-6v5.67h-5ZM790.94,29.7c2.46,0,4-1.19,4-3.53s-1.54-3.55-4-3.55h-5.72V29.7Z"/><path class="cls-1" d="M805.49,18.42h11c5.64,0,8.71,2.69,8.71,7.75s-3.07,7.73-8.71,7.73h-6v5.67h-5ZM816.21,29.7c2.47,0,4-1.19,4-3.53s-1.54-3.55-4-3.55H810.5V29.7Z"/><path class="cls-1" d="M830.26,33h4.54c.17,2,1.81,3.25,5.28,3.27,3.27,0,5.06-1.1,5.06-2.77,0-1.46-1.18-2.19-3.7-2.61l-2.62-.46c-4-.7-8-1.76-8-6.37,0-4,3.38-6.37,9.29-6.37,5.52,0,9.34,1.94,9.39,7.18H845c-.33-1.91-1.82-3.2-5-3.2-2.87,0-4.38,1-4.38,2.62,0,1.28,1,2.09,3.2,2.49l2.29.41c4,.73,9,1.4,9,6.47,0,4.2-3.45,6.59-10,6.59C833.64,40.27,830.24,38,830.26,33Z"/></svg>