<svg id="Layer_1" data-name="Layer 1" xmlns="http://www.w3.org/2000/svg" viewBox="0 0 868.44 229.82"><defs><style>.cls-1{fill:#37393d;}</style></defs><path class="cls-1" d="M15.4,60.78c0-28.82,20-44.43,48.09-44.43s48.1,15.61,48.1,44.43v52.5c0,28.82-20,44.43-48.1,44.43S15.4,142.1,15.4,113.28Zm48.09,66.09c9,0,13.22-7,13.22-16.89V64.08c0-9.91-4.22-16.89-13.22-16.89s-13.21,7-13.21,16.89V110C50.28,119.89,54.5,126.87,63.49,126.87Z"/><path class="cls-1" d="M132.51,20.68a2.49,2.49,0,0,1,2.5-2.49h45.6c28.09,0,48.1,16.52,48.1,43.51V71.79c0,27-20,43.69-48.1,43.69H169.89a2.5,2.5,0,0,0-2.5,2.5v35.4a2.48,2.48,0,0,1-2.49,2.49H135a2.49,2.49,0,0,1-2.5-2.49Zm48.1,64c9,0,13.22-8.07,13.22-16.15V65c0-8.08-4.22-16-13.22-16H169.89a2.5,2.5,0,0,0-2.5,2.49V82.15a2.49,2.49,0,0,0,2.5,2.49Z"/><path class="cls-1" d="M248.27,18.19h65.87a2.49,2.49,0,0,1,2.5,2.49V46.54a2.5,2.5,0,0,1-2.5,2.49h-31a2.49,2.49,0,0,0-2.49,2.49V68.75a2.48,2.48,0,0,0,2.49,2.49h31a2.5,2.5,0,0,1,2.5,2.5V99.59a2.49,2.49,0,0,1-2.5,2.49h-31a2.49,2.49,0,0,0-2.49,2.5v18a2.49,2.49,0,0,0,2.49,2.49h31a2.5,2.5,0,0,1,2.5,2.5v25.85a2.49,2.49,0,0,1-2.5,2.49H248.27a2.48,2.48,0,0,1-2.49-2.49V20.68A2.48,2.48,0,0,1,248.27,18.19Z"/><path class="cls-1" d="M338.85,20.68a2.49,2.49,0,0,1,2.49-2.49H387C415,18.19,435,33.79,435,58.94v8.45c0,13.77-4.58,21.94-14.89,30.54a2.52,2.52,0,0,0-.83,2.6c2.14,7.69,11.55,41.61,14.48,52.18a2.49,2.49,0,0,1-2.4,3.16H402.27a2.49,2.49,0,0,1-2.41-1.86l-11.51-44a2.5,2.5,0,0,0-2.41-1.87h-9.72a2.5,2.5,0,0,0-2.49,2.5v42.74a2.49,2.49,0,0,1-2.5,2.49H341.34a2.49,2.49,0,0,1-2.49-2.49ZM387,77.3c9,0,13.21-7,13.21-13.22V62.25C400.16,56,395.94,49,387,49H376.22a2.5,2.5,0,0,0-2.49,2.49V74.81a2.5,2.5,0,0,0,2.49,2.49Z"/><path class="cls-1" d="M479.21,18.19h29a2.5,2.5,0,0,1,2.42,1.89l33.26,132.69a2.49,2.49,0,0,1-2.42,3.1H514.26a2.5,2.5,0,0,1-2.42-1.87l-3.07-11.86a2.48,2.48,0,0,0-2.41-1.87H480.71a2.49,2.49,0,0,0-2.43,1.92L475.51,154a2.48,2.48,0,0,1-2.42,1.92H446a2.49,2.49,0,0,1-2.42-3.1L476.79,20.08A2.5,2.5,0,0,1,479.21,18.19Zm23.94,90L496,78.3a2.49,2.49,0,0,0-4.85,0l-7.12,29.89a2.48,2.48,0,0,0,2.42,3.07h14.25A2.48,2.48,0,0,0,503.15,108.19Z"/><path class="cls-1" d="M563.62,49H544.56a2.49,2.49,0,0,1-2.49-2.49V20.68a2.48,2.48,0,0,1,2.49-2.49h78A2.48,2.48,0,0,1,625,20.68V46.54A2.49,2.49,0,0,1,622.55,49H603.49A2.49,2.49,0,0,0,601,51.52V153.38a2.49,2.49,0,0,1-2.5,2.49H568.61a2.48,2.48,0,0,1-2.49-2.49V51.52A2.5,2.5,0,0,0,563.62,49Z"/><path class="cls-1" d="M637.89,60.78c0-28.82,20-44.43,48.1-44.43s48.1,15.61,48.1,44.43v52.5c0,28.82-20,44.43-48.1,44.43s-48.1-15.61-48.1-44.43ZM686,126.87c9,0,13.22-7,13.22-16.89V64.08c0-9.91-4.23-16.89-13.22-16.89s-13.22,7-13.22,16.89V110C672.77,119.89,677,126.87,686,126.87Z"/><path class="cls-1" d="M755,20.68a2.49,2.49,0,0,1,2.49-2.49h45.61c28.08,0,48.09,15.6,48.09,40.75v8.45c0,13.77-4.58,21.94-14.89,30.54a2.53,2.53,0,0,0-.83,2.6L850,152.71a2.5,2.5,0,0,1-2.4,3.16H818.43A2.49,2.49,0,0,1,816,154l-11.51-44a2.5,2.5,0,0,0-2.41-1.87h-9.72a2.49,2.49,0,0,0-2.49,2.5v42.74a2.49,2.49,0,0,1-2.5,2.49H757.5a2.49,2.49,0,0,1-2.49-2.49Zm48.1,56.62c9,0,13.21-7,13.21-13.22V62.25C816.32,56,812.1,49,803.11,49H792.38a2.49,2.49,0,0,0-2.49,2.49V74.81a2.49,2.49,0,0,0,2.49,2.49Z"/><path class="cls-1" d="M36.14,206.58H25.71l-1.31,3.55H19.22L27.4,189h7.05l8.21,21.15H37.45Zm-1.41-3.8-3.33-9h-.95l-3.33,9Z"/><path class="cls-1" d="M57.66,189H75.44v4.21H62.67v5H74.73V202H62.67v8.16h-5Z"/><path class="cls-1" d="M96.51,210.13,93,203.84H86.21v6.29h-5V189H92.31c5.66,0,8.66,2.65,8.66,7.58a6.83,6.83,0,0,1-3.6,6.27l4.13,7.3ZM86.21,200H92c2.54,0,4-1.15,4-3.39s-1.41-3.4-4-3.4H86.21Z"/><path class="cls-1" d="M122.6,206.58H112.17l-1.31,3.55h-5.18L113.86,189h7l8.21,21.15H123.9Zm-1.41-3.8-3.33-9h-1l-3.33,9Z"/><path class="cls-1" d="M134.13,189h6.42l5.23,14.83h.38L151.4,189h6.42v21.15H153V197.39h-.43l-4.66,12.74H144l-4.66-12.74h-.42v12.74h-4.81Z"/><path class="cls-1" d="M163.61,189h17.8v4.11H168.62v4.63H181v3.62H168.62V206h12.79v4.13h-17.8Z"/><path class="cls-1" d="M186.72,189h5.06l3.38,15.79h.45l4-15.79h4.2l4.06,15.79h.45L211.7,189h5.08l-4.73,21.15h-6.8L202,196.79h-.48l-3.27,13.34h-6.77Z"/><path class="cls-1" d="M220.33,199.56c0-6.65,4.71-11.28,11.61-11.28s11.63,4.63,11.63,11.28-4.71,11.28-11.63,11.28S220.33,206.2,220.33,199.56Zm18.26,0c0-4.16-2.87-6.93-6.65-6.93a6.93,6.93,0,1,0,6.65,6.93Z"/><path class="cls-1" d="M264.29,210.13l-3.47-6.29H254v6.29h-5V189h11.1c5.66,0,8.66,2.65,8.66,7.58a6.83,6.83,0,0,1-3.6,6.27l4.13,7.3ZM254,200h5.81c2.54,0,3.95-1.15,3.95-3.39s-1.41-3.4-3.95-3.4H254Z"/><path class="cls-1" d="M290.5,210.13l-6.92-8.71h-.35l-3.65,3.78v4.93h-5V189h5v10.15H280L289.57,189h5.69l-8.81,9.39,9.29,11.76Z"/><path class="cls-1" d="M310.42,189h17.77v4.21H315.43v5h12.06V202H315.43v8.16h-5Z"/><path class="cls-1" d="M333.13,199.56c0-6.65,4.71-11.28,11.6-11.28s11.64,4.63,11.64,11.28-4.71,11.28-11.64,11.28S333.13,206.2,333.13,199.56Zm18.25,0c0-4.16-2.87-6.93-6.65-6.93a6.93,6.93,0,1,0,6.65,6.93Z"/><path class="cls-1" d="M377.09,210.13l-3.48-6.29h-6.82v6.29h-5V189h11.1c5.67,0,8.66,2.65,8.66,7.58a6.81,6.81,0,0,1-3.6,6.27l4.13,7.3ZM366.79,200h5.82c2.54,0,3.95-1.15,3.95-3.39s-1.41-3.4-3.95-3.4h-5.82Z"/><path class="cls-1" d="M418.43,199.56c0,6-3.12,10.57-11.33,10.57h-9.72V189h9.72C415.31,189,418.43,193.54,418.43,199.56Zm-5,0c0-4.08-2.21-6.35-6.32-6.35h-4.63l-.05,12.69h4.68C411.18,205.9,413.39,203.64,413.39,199.56Z"/><path class="cls-1" d="M423.94,189h5v21.15h-5Z"/><path class="cls-1" d="M434.24,203.58h4.53c.18,2,1.81,3.25,5.29,3.28,3.27,0,5.06-1.11,5.06-2.77,0-1.46-1.18-2.19-3.7-2.62L442.8,201c-4-.71-8-1.77-8-6.37,0-4,3.37-6.37,9.29-6.37,5.51,0,9.34,1.94,9.39,7.17H449c-.32-1.91-1.81-3.19-5-3.19-2.87,0-4.38,1-4.38,2.61,0,1.29,1,2.09,3.19,2.5l2.29.4c4,.73,9,1.41,9,6.47,0,4.2-3.45,6.6-10,6.6S434.21,208.54,434.24,203.58Z"/><path class="cls-1" d="M479.05,193.19h-7.93v16.94h-5V193.19h-7.91V189h20.87Z"/><path class="cls-1" d="M500,210.13l-3.47-6.29H489.7v6.29h-5V189H495.8c5.66,0,8.66,2.65,8.66,7.58a6.83,6.83,0,0,1-3.6,6.27l4.13,7.3ZM489.7,200h5.82c2.54,0,4-1.15,4-3.39s-1.41-3.4-4-3.4H489.7Z"/><path class="cls-1" d="M510.3,189h5v21.15h-5Z"/><path class="cls-1" d="M541.09,204.16c0,3.5-2.44,6-8.69,6H521.1V189h11.36c6,0,7.95,2.49,7.95,5.42a4.34,4.34,0,0,1-2.92,4.3V199A5.2,5.2,0,0,1,541.09,204.16Zm-15-11.25v4.68h6c2.29,0,3.52-.78,3.52-2.31s-1.23-2.37-3.52-2.37Zm9.9,10.5c0-1.71-1.34-2.64-3.68-2.64h-6.22v5.43h6.22C534.67,206.2,536,205.1,536,203.41Z"/><path class="cls-1" d="M546.61,201.32V189h5.06v12.21c0,3.38,1.68,5.42,5.13,5.42s5.16-2,5.16-5.42V189h5v12.34c0,6.44-3.68,9.52-10.2,9.52S546.61,207.76,546.61,201.32Z"/><path class="cls-1" d="M593.51,193.19h-7.93v16.94h-5V193.19h-7.9V189h20.87Z"/><path class="cls-1" d="M599.15,189H617v4.11H604.16v4.63H616.5v3.62H604.16V206H617v4.13h-17.8Z"/><path class="cls-1" d="M643.79,199.56c0,6-3.12,10.57-11.33,10.57h-9.72V189h9.72C640.67,189,643.79,193.54,643.79,199.56Zm-5,0c0-4.08-2.21-6.35-6.32-6.35H627.8l0,12.69h4.68C636.54,205.9,638.75,203.64,638.75,199.56Z"/><path class="cls-1" d="M658.82,189h5.06l3.37,15.79h.46l4-15.79h4.2l4,15.79h.46L683.8,189h5.08l-4.73,21.15h-6.8l-3.27-13.34h-.48l-3.27,13.34h-6.78Z"/><path class="cls-1" d="M694.17,189H712v4.11H699.18v4.63h12.34v3.62H699.18V206H712v4.13h-17.8Z"/><path class="cls-1" d="M737.75,204.16c0,3.5-2.44,6-8.69,6h-11.3V189h11.35c6,0,8,2.49,8,5.42a4.34,4.34,0,0,1-2.92,4.3V199A5.2,5.2,0,0,1,737.75,204.16Zm-15-11.25v4.68h6c2.29,0,3.52-.78,3.52-2.31s-1.23-2.37-3.52-2.37Zm9.89,10.5c0-1.71-1.33-2.64-3.67-2.64h-6.22v5.43H729C731.33,206.2,732.66,205.1,732.66,203.41Z"/><path class="cls-1" d="M769.42,206.58H759l-1.31,3.55H752.5L760.69,189h7l8.2,21.15h-5.21Zm-1.41-3.8-3.32-9h-1l-3.32,9Z"/><path class="cls-1" d="M781,189h11c5.64,0,8.71,2.7,8.71,7.76s-3.07,7.73-8.71,7.73h-6v5.66h-5Zm10.72,11.28c2.47,0,4-1.18,4-3.52s-1.53-3.55-4-3.55H786v7.07Z"/><path class="cls-1" d="M806.23,189h11.06c5.64,0,8.71,2.7,8.71,7.76s-3.07,7.73-8.71,7.73h-6v5.66h-5ZM817,200.26c2.47,0,4-1.18,4-3.52s-1.53-3.55-4-3.55h-5.72v7.07Z"/><path class="cls-1" d="M831,203.58h4.53c.18,2,1.81,3.25,5.29,3.28,3.27,0,5.06-1.11,5.06-2.77,0-1.46-1.19-2.19-3.7-2.62l-2.62-.45c-4-.71-8-1.77-8-6.37,0-4,3.37-6.37,9.29-6.37,5.51,0,9.34,1.94,9.39,7.17h-4.51c-.33-1.91-1.81-3.19-5-3.19-2.87,0-4.39,1-4.39,2.61,0,1.29,1,2.09,3.2,2.5l2.29.4c4,.73,9,1.41,9,6.47,0,4.2-3.45,6.6-10,6.6S831,208.54,831,203.58Z"/></svg>