<svg id="Layer_1" data-name="Layer 1" xmlns="http://www.w3.org/2000/svg" viewBox="0 0 868.44 235.65"><defs><style>.cls-1{fill:#393c3f;}.cls-2{fill:#37393d;}</style></defs><rect class="cls-1" x="13.12" y="167.78" width="836.37" height="2"/><path class="cls-2" d="M15.54,128.68H30.1a1.41,1.41,0,0,1,1.36,1.13c.76,3.26,4.19,5.22,11.63,5.28s10.68-2,10.68-4.69c0-1.86-1-3.78-6.69-4.61l-7.44-1.17c-10.95-1.79-24.11-3.1-24.11-17.91,0-11.44,9.3-18.47,27.69-18.47,16.11,0,27.48,4.34,27.84,19.69a1.41,1.41,0,0,1-1.41,1.46H55.13a1.4,1.4,0,0,1-1.33-1c-1-3.27-4.33-5.28-11-5.28-6.34,0-9,1.93-9,4.55,0,1.65,1,3.65,5.44,4.34l6.13,1c11.5,1.93,27.28,2.28,27.28,18.12,0,12.61-9.78,18.88-29.62,18.81-19.33-.07-28.79-5.87-28.95-19.84A1.42,1.42,0,0,1,15.54,128.68Z"/><path class="cls-2" d="M78.64,119.11c0-18.54,12.88-30.87,32.79-30.87s32.8,12.33,32.8,30.87S131.35,150,111.43,150,78.64,137.64,78.64,119.11Zm46.64,0c0-9.17-6.27-14.4-13.85-14.4s-13.84,5.23-13.84,14.4,6.27,14.39,13.84,14.39S125.28,128.27,125.28,119.11Z"/><path class="cls-2" d="M151,119.11c0-18.54,13-30.87,32.51-30.87,13.73,0,27.78,5.86,30.33,24.15a1.41,1.41,0,0,1-1.39,1.62H196.9a1.39,1.39,0,0,1-1.33-1c-1.78-5.69-6.12-8.35-12.07-8.35-7.57,0-13.57,5.65-13.57,14.4s6,14.39,13.57,14.39c6,0,10.29-2.67,12.07-8.48a1.38,1.38,0,0,1,1.33-1h15.54a1.41,1.41,0,0,1,1.39,1.61C211.29,144.11,197.37,150,183.5,150,164,150,151,137.64,151,119.11Z"/><path class="cls-2" d="M264.31,147.48l-14.85-19.83a.53.53,0,0,0-.42-.21h-.75a.5.5,0,0,0-.38.17l-7.39,7.9a1.37,1.37,0,0,0-.38,1v10.17a1.4,1.4,0,0,1-1.4,1.4H222.53a1.41,1.41,0,0,1-1.41-1.4V91.57a1.41,1.41,0,0,1,1.41-1.4h16.21a1.4,1.4,0,0,1,1.4,1.4v21.54h.62a1.4,1.4,0,0,0,1-.46l20-22a1.39,1.39,0,0,1,1-.46h17.42a1.41,1.41,0,0,1,1,2.35l-20.56,22.56a1.4,1.4,0,0,0-.09,1.79l21.85,28.92a1.4,1.4,0,0,1-1.12,2.25h-16A1.42,1.42,0,0,1,264.31,147.48Z"/><path class="cls-2" d="M290.67,90.17H340a1.41,1.41,0,0,1,1.41,1.4v12.49a1.4,1.4,0,0,1-1.41,1.4H309.75a1.41,1.41,0,0,0-1.4,1.41v4.56a1.41,1.41,0,0,0,1.4,1.41h29a1.4,1.4,0,0,1,1.41,1.4V124a1.41,1.41,0,0,1-1.41,1.41h-29a1.4,1.4,0,0,0-1.4,1.4v4.56a1.41,1.41,0,0,0,1.4,1.41H340a1.41,1.41,0,0,1,1.41,1.4v12.49A1.41,1.41,0,0,1,340,148H290.67a1.4,1.4,0,0,1-1.4-1.4V91.57A1.4,1.4,0,0,1,290.67,90.17Z"/><path class="cls-2" d="M408.5,106.09h-18a1.39,1.39,0,0,0-1.4,1.4v39.15a1.41,1.41,0,0,1-1.41,1.4H371.42a1.41,1.41,0,0,1-1.41-1.4V107.49a1.4,1.4,0,0,0-1.4-1.4h-18a1.4,1.4,0,0,1-1.4-1.41V91.57a1.4,1.4,0,0,1,1.4-1.4H408.5a1.4,1.4,0,0,1,1.4,1.4v13.11A1.41,1.41,0,0,1,408.5,106.09Z"/><path class="cls-2" d="M438.92,128.68h14.57a1.43,1.43,0,0,1,1.36,1.13c.76,3.26,4.18,5.22,11.62,5.28s10.68-2,10.68-4.69c0-1.86-1-3.78-6.68-4.61L463,124.62c-11-1.79-24.12-3.1-24.12-17.91,0-11.44,9.3-18.47,27.7-18.47,16.1,0,27.47,4.34,27.83,19.69a1.41,1.41,0,0,1-1.41,1.46H478.51a1.4,1.4,0,0,1-1.33-1c-1.05-3.27-4.33-5.28-11-5.28-6.33,0-8.95,1.93-8.95,4.55,0,1.65,1,3.65,5.44,4.34l6.13,1c11.51,1.93,27.28,2.28,27.28,18.12,0,12.61-9.78,18.88-29.62,18.81-19.32-.07-28.79-5.87-29-19.84A1.42,1.42,0,0,1,438.92,128.68Z"/><path class="cls-2" d="M564,119.11c0,16.6-8.27,28.93-31.83,28.93H504.46a1.4,1.4,0,0,1-1.4-1.4V91.57a1.4,1.4,0,0,1,1.4-1.4h27.67C555.69,90.17,564,102.43,564,119.11Zm-19.15,0c0-9.3-5.24-13-12.68-13h-8.52a1.41,1.41,0,0,0-1.4,1.41v23.09a1.41,1.41,0,0,0,1.4,1.41h8.52C539.57,132.06,544.81,128.34,544.81,119.11Z"/><path class="cls-2" d="M614.59,147.48l-14.85-19.83a.54.54,0,0,0-.42-.21h-.75a.5.5,0,0,0-.38.17l-7.39,7.9a1.37,1.37,0,0,0-.38,1v10.17A1.4,1.4,0,0,1,589,148H572.81a1.41,1.41,0,0,1-1.41-1.4V91.57a1.41,1.41,0,0,1,1.41-1.4H589a1.4,1.4,0,0,1,1.4,1.4v21.54H591a1.4,1.4,0,0,0,1-.46l20-22a1.39,1.39,0,0,1,1-.46h17.42a1.41,1.41,0,0,1,1,2.35l-20.56,22.56a1.4,1.4,0,0,0-.09,1.79l21.85,28.92a1.4,1.4,0,0,1-1.12,2.25h-16A1.42,1.42,0,0,1,614.59,147.48Z"/><path class="cls-2" d="M33.37,211.09H21.13l-1.53,4.17H13.51l9.61-24.82h8.27L41,215.26H34.91Zm-1.65-4.46L27.81,196H26.69l-3.9,10.61Z"/><path class="cls-2" d="M57.23,190.44H78.1v4.93h-15v5.85H77.27v4.47H63.11v9.57H57.23Z"/><path class="cls-2" d="M102.13,215.26l-4.08-7.39H90v7.39H84.16V190.44h13c6.65,0,10.17,3.1,10.17,8.89a8,8,0,0,1-4.23,7.36l4.85,8.57ZM90,203.35h6.83c3,0,4.64-1.36,4.64-4s-1.66-4-4.64-4H90Z"/><path class="cls-2" d="M132,211.09H119.81l-1.54,4.17h-6.09l9.61-24.82h8.27l9.64,24.82h-6.12Zm-1.65-4.46L126.49,196h-1.13l-3.9,10.61Z"/><path class="cls-2" d="M144.87,190.44h7.54l6.15,17.4H159l6.15-17.4h7.54v24.82H167V200.31h-.5l-5.47,14.95h-4.58L151,200.31h-.5v14.95h-5.65Z"/><path class="cls-2" d="M178.78,190.44h20.9v4.81h-15v5.44h14.48V205H184.66v5.47h15v4.84h-20.9Z"/><path class="cls-2" d="M205.21,190.44h5.94l4,18.53h.53l4.73-18.53h4.93L230.06,209h.53l3.94-18.53h6l-5.56,24.82h-8l-3.84-15.66h-.56l-3.85,15.66h-8Z"/><path class="cls-2" d="M244,202.85c0-7.8,5.53-13.24,13.62-13.24s13.66,5.44,13.66,13.24-5.53,13.24-13.66,13.24S244,210.65,244,202.85Zm21.43,0c0-4.88-3.37-8.13-7.81-8.13s-7.8,3.25-7.8,8.13,3.4,8.13,7.8,8.13S265.39,207.73,265.39,202.85Z"/><path class="cls-2" d="M294.86,215.26l-4.08-7.39h-8v7.39h-5.88V190.44h13c6.65,0,10.17,3.1,10.17,8.89a8,8,0,0,1-4.23,7.36l4.85,8.57Zm-12.09-11.91h6.83c3,0,4.64-1.36,4.64-4s-1.66-4-4.64-4h-6.83Z"/><path class="cls-2" d="M324.92,215.26,316.79,205h-.41l-4.29,4.43v5.79h-5.85V190.44h5.85v11.91h.45l11.29-11.91h6.68l-10.35,11,10.91,13.8Z"/><path class="cls-2" d="M346.89,190.44h20.86v4.93h-15v5.85h14.16v4.47H352.77v9.57h-5.88Z"/><path class="cls-2" d="M372.84,202.85c0-7.8,5.53-13.24,13.63-13.24s13.65,5.44,13.65,13.24-5.53,13.24-13.65,13.24S372.84,210.65,372.84,202.85Zm21.43,0c0-4.88-3.37-8.13-7.8-8.13s-7.81,3.25-7.81,8.13,3.4,8.13,7.81,8.13S394.27,207.73,394.27,202.85Z"/><path class="cls-2" d="M423.74,215.26l-4.08-7.39h-8v7.39h-5.88V190.44h13c6.65,0,10.17,3.1,10.17,8.89a8,8,0,0,1-4.23,7.36l4.85,8.57Zm-12.09-11.91h6.83c3,0,4.64-1.36,4.64-4s-1.66-4-4.64-4h-6.83Z"/><path class="cls-2" d="M465.12,211.09H452.89l-1.54,4.17h-6.09l9.61-24.82h8.27l9.64,24.82h-6.12Zm-1.65-4.46L459.57,196h-1.13l-3.9,10.61Z"/><path class="cls-2" d="M513.69,202.85c0,7.06-3.66,12.41-13.3,12.41H489V190.44h11.41C510,190.44,513.69,195.78,513.69,202.85Zm-5.91,0c0-4.79-2.6-7.45-7.42-7.45h-5.44l-.06,14.9h5.5C505.18,210.3,507.78,207.64,507.78,202.85Z"/><path class="cls-2" d="M519.46,190.44h5.88v24.82h-5.88Z"/><path class="cls-2" d="M530.84,207.58h5.32c.21,2.33,2.13,3.81,6.21,3.84,3.84,0,5.94-1.3,5.94-3.25,0-1.72-1.39-2.57-4.35-3.08l-3.07-.53c-4.7-.82-9.37-2.07-9.37-7.47,0-4.7,4-7.48,10.9-7.48,6.48,0,11,2.27,11,8.42h-5.29c-.39-2.25-2.13-3.75-5.85-3.75-3.37,0-5.15,1.15-5.15,3.07,0,1.51,1.22,2.45,3.76,2.93l2.69.47c4.73.86,10.55,1.66,10.55,7.6,0,4.93-4,7.74-11.79,7.74C534.8,216.09,530.81,213.4,530.84,207.58Z"/><path class="cls-2" d="M582.74,195.37h-9.31v19.89h-5.91V195.37h-9.28v-4.93h24.5Z"/><path class="cls-2" d="M606.63,215.26l-4.08-7.39h-8v7.39h-5.88V190.44h13c6.65,0,10.17,3.1,10.17,8.89a8,8,0,0,1-4.23,7.36l4.85,8.57Zm-12.09-11.91h6.83c3,0,4.64-1.36,4.64-4s-1.66-4-4.64-4h-6.83Z"/><path class="cls-2" d="M618,190.44h5.88v24.82H618Z"/><path class="cls-2" d="M653.45,208.26c0,4.11-2.87,7-10.2,7H630V190.44h13.33c7.1,0,9.34,2.92,9.34,6.35a5.09,5.09,0,0,1-3.43,5.05v.39A6.11,6.11,0,0,1,653.45,208.26Zm-17.59-13.21v5.49h7c2.69,0,4.14-.91,4.14-2.72s-1.45-2.77-4.14-2.77Zm11.62,12.32c0-2-1.57-3.1-4.32-3.1h-7.3v6.38h7.3C645.91,210.65,647.48,209.35,647.48,207.37Z"/><path class="cls-2" d="M659.22,204.92V190.44h5.94v14.33c0,4,2,6.35,6,6.35s6.06-2.39,6.06-6.35V190.44h5.91v14.48c0,7.56-4.32,11.17-12,11.17S659.22,212.48,659.22,204.92Z"/><path class="cls-2" d="M689.22,190.44h20.9v4.81h-15v5.44h14.48V205H695.1v5.47h15v4.84h-20.9Z"/><path class="cls-2" d="M740.92,202.85c0,7.06-3.67,12.41-13.3,12.41H716.21V190.44h11.41C737.25,190.44,740.92,195.78,740.92,202.85Zm-5.91,0c0-4.79-2.6-7.45-7.42-7.45h-5.44l-.06,14.9h5.5C732.41,210.3,735,207.64,735,202.85Z"/><path class="cls-2" d="M757.15,190.44h5.94l4,18.53h.53l4.73-18.53h4.94L782,209h.53l3.93-18.53h6l-5.56,24.82h-8l-3.84-15.66h-.56l-3.84,15.66h-7.95Z"/><path class="cls-2" d="M797.94,190.44h20.9v4.81h-15v5.44h14.49V205H803.82v5.47h15v4.84h-20.9Z"/><path class="cls-2" d="M848.4,208.26c0,4.11-2.87,7-10.2,7H824.93V190.44h13.33c7.09,0,9.34,2.92,9.34,6.35a5.09,5.09,0,0,1-3.43,5.05v.39A6.11,6.11,0,0,1,848.4,208.26Zm-17.59-13.21v5.49h7c2.69,0,4.13-.91,4.13-2.72s-1.44-2.77-4.13-2.77Zm11.62,12.32c0-2-1.57-3.1-4.32-3.1h-7.3v6.38h7.3C840.86,210.65,842.43,209.35,842.43,207.37Z"/></svg>