<?xml version="1.0" encoding="UTF-8"?><svg id="Layer_1" xmlns="http://www.w3.org/2000/svg" viewBox="0 0 479.89 479.59"><defs><style>.cls-1,.cls-2,.cls-3{fill:#fff;}.cls-4{fill:#36393d;}.cls-2{opacity:.4;}.cls-2,.cls-3{isolation:isolate;}.cls-5{opacity:.23;}.cls-6{opacity:.48;}.cls-7{opacity:.48;}.cls-8{opacity:.72;}</style></defs><rect class="cls-3" x="-113.75" y="-105.41" width="713.09" height="691.47"/><g><g class="cls-5"><path class="cls-4" d="M500.86,491.25c0,67.7-24.15,59.66-240.8,59.66s-206.32,8.97-206.32-58.73c0-52.87-171.04-260.4-74.7-247.51,82.63,11.05,196.6,72.63,327-75.59,100.15-113.83,79.23,128.09,214.91,86.34,136.21-41.92-20.1,185.01-20.1,235.83h.01Z"/></g><g class="cls-6"><path class="cls-4" d="M499.39,444.48c0,46.9,72.5,36.91-289.93,36.91s-234.61-8.5-285.42-39.17c-34.79-21,101.76,56.93,8.59-128.09-37.19-73.86,80.09,27.68,221.64-77.69,136-101.24,201.44,25.75,290.33,27.32,238.2,4.19,54.78,145.52,54.78,180.73h.01Z"/></g><g class="cls-7"><path class="cls-4" d="M457.37,456.25c-2.36,79.17-30.13,68.93-281.69,61.42-251.57-7.51-209.52,7.82-207.16-71.35,1.85-61.83-74.71,202.2-63.92-141.53,4-127.54,189.82-2.84,334.18-19.96,60.53-7.18,185.55-73.84,267.23-66.08,164.78,15.66-46.86,178.06-48.64,237.5h0Z"/></g><g class="cls-8"><path class="cls-4" d="M526.59,358.75c0,80.19-139.77,145.41-268.88,144.59-22.74-.14,124.64,34.65,68.78,26.29-70.49-10.55-650.33-82.93-358.27-278.22,117.24-78.4,218.89,28.66,300.14,50.44,94.45,25.32,214.61,44.31,257.79-29.19,85.97-146.34,.44,25.89,.44,86.1h0Z"/></g><path class="cls-1" d="M-113.75-105.41V586.07H599.34V-105.41H-113.75ZM239.72,479.01C107.45,479.01,.22,371.78,.22,239.5S107.45,0,239.72,0s239.5,107.23,239.5,239.5-107.23,239.5-239.5,239.5h0Z"/></g><g><path class="cls-2" d="M207.3,126.33c-.2,.24-.4,.44-.6,0h.6Z"/><path class="cls-2" d="M278.69,411.5c.22-1.42,1.19-1.85,2.23-2.14,.59-.17,1.47,.57,1.7,1.34,.03,.1,.05,.22,.06,.33,.05,.39,.1,.77,.14,1.16-.11,.16-.21,.27-.3,.41-.93,1.45-2.13,2.3-3.74,2.39-.32,.02-.64,.26-.95,.43-.56,.3-1.13,.44-1.73,.23-.17-.06-.31-.22-.54-.4,.58-.6,1.19-.96,1.79-1.33,.6-.38,1.22-.74,1.77-1.21,.63-.52,1.37-.63,2.07-.88,.28-.09,.4-.27,.39-.66-.62-.17-1.19,.08-1.77,.14-.39,.03-.78,.09-1.17,.14l.03,.03h.02Z"/><path class="cls-2" d="M395.84,264.15c.73-1.1,1.01-1.23,1.72-.65,.61,.5,1.21,.97,1.99,1.06,.37,.05,.62,.42,.63,.84,.03,.73,.05,1.48-.03,2.2-.09,.76-1,1.1-1.35,.46-.79-1.47-2.14-2.36-2.96-3.91h0Z"/><path class="cls-2" d="M456.73,214.4c-1.15-.31-2.24-.22-3.33-.08h-.15c-.54-.02-.87-.25-.95-.64-.09-.43,.21-.77,.84-.95,.44-.13,.88-.19,1.31-.34,1.16-.42,2.27-.08,3.36,.32,.19,.07,.38,.38,.42,.62,.06,.34-.09,.71-.4,.82-.37,.14-.77,.18-1.11,.26h0Z"/><path class="cls-2" d="M344,312.89c.28,.84,.27,1.07-.13,1.31-.84,.49-1.68,.98-2.68,.76-.24-.06-.54-.1-.72,.01-.98,.63-2.11,.58-3.13,1.03-.34,.15-.68,.19-1-.02-.34-.23-.69-.47-.68-1.01,0-.33,.42-.52,1.01-.27,1.21,.51,2.33,.28,3.46-.26,.64-.31,1.28-.59,1.93-.87,.64-.27,1.24-.71,1.95-.66h-.01Z"/><path class="cls-2" d="M14.27,156.18c-.15-.09-.52-.19-.72-.47-.32-.42-.25-.98,0-1.41,.42-.73,1.05-1.18,1.81-1.3,.19-.02,.54,.16,.59,.34,.49,1.54,0,2.72-1.69,2.83h.01Z"/><path class="cls-2" d="M295.12,317.52c-.01,.09-.03,.31-.08,.52-.08,.33-.39,.52-.69,.47-.56-.11-1-.46-1.38-.91-.32-.39-.56-.81-.36-1.36,.19-.51,.83-.97,1.32-.91,.18,.02,.38,.13,.53,.26,.49,.47,.67,1,.67,1.93h-.01Z"/><path class="cls-2" d="M223,350.33c-.55-.02-.8-.47-.62-.84,.05-.1,.08-.22,.15-.28,.82-.81,1.65-1.61,2.49-2.39,.11-.1,.27-.17,.41-.19,.13-.01,.31,.03,.39,.13,.09,.1,.1,.3,.11,.46,0,.1-.02,.24-.08,.32-.74,.98-1.43,2.02-2.44,2.68-.16,.1-.37,.11-.41,.13h0Z"/><path class="cls-2" d="M215.83,454.16c-.04,.19-.04,.39-.11,.51-.63,1.09-1.45,1.99-2.39,2.72-.04,.03-.09,.05-.14,.07-.36,.17-.8,.05-.91-.26-.14-.39,.06-.65,.29-.88,.75-.73,1.5-1.46,2.27-2.16,.18-.16,.44-.24,.67-.27,.09-.01,.21,.17,.33,.28h0Z"/><path class="cls-2" d="M233.15,279.42c0,.97-.49,1.42-1.17,1.24-.58-.15-.97-.62-1.01-1.28-.02-.32,.02-.68,.14-.98,.18-.44,.38-.97,.93-.95,.54,.02,.73,.52,.89,.99,.12,.36,.18,.75,.23,.97h0Z"/><path class="cls-2" d="M404.44,275.67c.08,.15,.13,.21,.13,.25,0,1.4,0,2.81-.03,4.21,0,.15-.23,.33-.38,.4-.08,.03-.31-.11-.35-.24-.15-.48-.33-.96-.35-1.46-.03-.79,.03-1.58,.11-2.36,.05-.49,.34-.77,.87-.81h0Z"/><path class="cls-2" d="M443.99,394.87c-.04,.22-.06,.38-.1,.55-.08,.32-.45,.5-.73,.36-.87-.44-1.47-2.03-1.14-3.02,.12-.36,.56-.52,.88-.3,.49,.34,.81,.83,.96,1.46,.08,.32,.09,.67,.13,.96h0Z"/><path class="cls-2" d="M375.67,291.27c-.74,.56-1.35,1.01-1.96,1.49-.29,.23-.58,.48-.94,.36-.22-.07-.5-.22-.58-.42-.08-.19-.03-.59,.09-.76,.25-.33,.57-.65,.91-.83,.68-.36,1.43-.41,2.17-.23,.11,.02,.19,.23,.31,.38h0Z"/><path class="cls-2" d="M328.29,370.33c-.03,.07-.06,.27-.17,.35-.75,.51-1.51,1.03-2.3,1.47-.16,.09-.47-.07-.67-.19-.27-.17-.29-.71-.04-.85,.82-.5,1.64-.98,2.48-1.42,.34-.18,.76,.19,.69,.66h.01Z"/><path class="cls-2" d="M392.9,315.85c.02,.35-.29,.72-.56,.6-.56-.23-1.12-.46-1.65-.76-.37-.21-.34-.87,0-1.15,.08-.07,.16-.14,.25-.18,.81-.34,1.9,.48,1.95,1.48h0Z"/><path class="cls-2" d="M247.77,357.86c-.15,.32-.22,.62-.38,.8-.51,.57-1.18,.77-1.87,.87-.22,.02-.45-.33-.4-.59,.18-1,1.22-1.8,2.13-1.59,.19,.05,.33,.33,.52,.54h0Z"/><path class="cls-2" d="M199.82,413.12c.07-.27,.07-.43,.14-.47,.74-.49,1.34-1.12,1.74-2,.09-.19,.26-.34,.4-.49,.25-.26,.59-.26,.8-.02,.24,.27,.22,.77-.05,1.05-.11,.11-.25,.18-.36,.3-.38,.36-.76,.71-1.11,1.09-.41,.46-.86,.72-1.55,.55h0Z"/><path class="cls-2" d="M299.64,431.7c-.32-.49-.6-.87-.83-1.3-.09-.17-.08-.42-.08-.64,0-.31,.31-.46,.54-.27,.08,.07,.12,.17,.18,.26,.06,.08,.13,.16,.26,.31,.28-.06,.61-.14,.94-.17,.34-.03,.68,0,1.15,0-.48,1.04-1.12,1.58-2.16,1.81h0Z"/><path class="cls-2" d="M237.48,465.09c-.03,.63-.29,1-.64,1.17-.43,.22-.92,.32-1.39,.41-.29,.06-.52-.39-.4-.71,.35-.93,1.18-1.52,1.98-1.3,.19,.05,.34,.31,.46,.42h-.01Z"/><path class="cls-2" d="M239.01,431.27c.14-.27,.22-.57,.39-.72,.28-.24,.57-.08,.79,.18,.35,.42,.58,.9,.55,1.52-.02,.47-.23,.81-.56,.88-.34,.07-.61-.1-.73-.42-.18-.46-.29-.93-.44-1.42h0Z"/><path class="cls-2" d="M2.88,437.92c.12,.02,.26,.06,.41,.09,.36,.1,.65,.31,.7,.76,.05,.47-.16,.89-.53,1.12-.34,.21-.67,.21-.99-.03-.38-.28-.61-.93-.44-1.32,.16-.39,.44-.6,.86-.62h-.01Z"/><path class="cls-2" d="M103.83,201.09c-.02,.42-.1,.82-.5,.92-.43,.11-.89,.22-1.26-.19-.22-.24-.22-.85,.02-1.09,.18-.18,.4-.33,.62-.46,.75-.41,1.16-.11,1.13,.81h0Z"/><path class="cls-2" d="M249.66,323.23c.17,.02,.28,0,.36,.05,.6,.4,.93,1.26,.75,1.99-.09,.35-.33,.59-.64,.55-.21-.03-.48-.19-.59-.39-.29-.54-.38-1.14-.2-1.75,.06-.18,.23-.32,.32-.44h0Z"/><path class="cls-2" d="M456.12,464.96c-.07-.03-.27-.07-.42-.19-.47-.39-.74-.92-.74-1.58,0-.19,.1-.48,.23-.57s.4-.08,.54,.02c.49,.32,.83,.8,1,1.42,.11,.4-.14,.85-.61,.91h0Z"/><path class="cls-2" d="M258.62,263.38c-.08-.09-.24-.17-.28-.3-.13-.47-.32-.77-.81-.79-.18,0-.44-.26-.52-.47-.13-.33,.02-.65,.28-.87,.12-.1,.24-.19,.37-.26,.32-.18,.79-.03,.83,.36,.07,.62,.27,1.1,.59,1.59,.16,.24-.05,.64-.46,.73h0Z"/><path class="cls-2" d="M268.93,289.36c-.67,.22-1.13,.41-1.61,.48-.19,.03-.45-.17-.6-.35-.2-.24-.13-.58,.09-.74,.46-.33,.94-.62,1.44-.85,.27-.14,.62,.11,.68,.48,.05,.32,.01,.65,.01,.99h-.01Z"/><path class="cls-2" d="M236.94,278.1c-.57-.01-.88-.35-1.12-.8-.22-.42-.19-.84,.05-1.25,.19-.32,.64-.39,.91-.16,.43,.36,.69,1.23,.5,1.79-.06,.18-.25,.3-.35,.41h0Z"/><path class="cls-2" d="M479.81,411.19c-1.16-2.26-1.27-3.05-.81-4.97,.3-.03,.29,.24,.31,.44,.04,.39,.09,.79,.07,1.17-.04,.85,.02,1.66,.49,2.39,.08,.13-.02,.39-.06,.96h0Z"/><path class="cls-2" d="M274.98,441.69c.05,.63-.27,1.26-.71,1.46-.14,.06-.41-.01-.52-.14-.48-.57-.4-1.41,.18-1.87,.13-.1,.41-.13,.53-.03,.23,.16,.39,.44,.52,.59h0Z"/><path class="cls-2" d="M162.29,373.11c0-.65,.28-.99,.71-.98,.46,.01,.78,.32,.78,.79,0,.27-.04,.55-.1,.82-.07,.33-.22,.64-.58,.62-.32-.02-.55-.23-.66-.57-.08-.25-.12-.52-.16-.67h.01Z"/><path class="cls-2" d="M468.2,415.44c-.16-1.1,.15-1.9,.64-2.63,.16-.24,.54-.19,.62,.06,.28,.85-.05,2-.72,2.48-.11,.08-.28,.05-.53,.08h-.01Z"/><path class="cls-2" d="M193.52,392.2c0,.09-.02,.26-.04,.42-.08,.46-.35,.75-.68,.74-.34-.01-.53-.26-.63-.59-.06-.21-.1-.43-.09-.65,0-.5,.44-.89,.91-.84,.32,.02,.53,.35,.53,.93h0Z"/><path class="cls-2" d="M140.42,254.02c-.37,.24-.55,.41-.75,.47-.42,.1-.75-.13-1.05-.44-.69-.72-.76-1.24-.24-2.08,.33,.81,1.01,1.5,2.04,2.07h0Z"/><path class="cls-2" d="M464.44,213.57c.63-.02,1.11,.33,1.22,.91,.05,.24-.01,.62-.15,.77-.13,.14-.49,.16-.66,.06-.3-.17-.56-.46-.77-.76-.09-.14-.07-.46,0-.63s.28-.27,.36-.34h0Z"/><path class="cls-2" d="M346.45,163.41c.04-.13,.07-.35,.17-.54,.07-.13,.21-.25,.33-.26s.32,.08,.36,.18c.18,.5,.35,1.03,.45,1.56,.03,.15-.12,.44-.25,.51-.14,.08-.39,.02-.54-.07-.43-.28-.51-.77-.52-1.38h0Z"/><path class="cls-2" d="M178.29,191.99c.32,1.01,.96,1.75,1.93,2.21-.05,.14-.09,.39-.16,.4-1.23,.27-2.25-.84-2.04-2.23,0-.09,.11-.16,.28-.39h0Z"/><path class="cls-2" d="M417.65,451.12c0,.55-.29,.91-.7,.91-.49,0-.9-.43-.89-.93,0-.4,.37-.67,.9-.67,.43,0,.7,.27,.69,.69h0Z"/><path class="cls-2" d="M35.28,146.97c-.02-.46,.06-.87,.48-1.12,.35-.22,.65-.51,1.01-.71,.12-.06,.43,.07,.48,.19,.05,.15-.07,.54-.15,.56-.73,.14-.95,.69-1.07,1.42-.02,.15-.27,.25-.41,.38-.1-.17-.21-.35-.3-.54-.02-.05-.02-.11-.03-.19h0Z"/><path class="cls-2" d="M431.76,290.79c.15,.08,.44,.17,.65,.38,.24,.23,.32,.63,.12,.92-.13,.18-.4,.27-.62,.34-.13,.03-.29-.03-.44-.08-.44-.15-.65-.44-.58-.83,.08-.42,.35-.69,.87-.73h0Z"/><path class="cls-2" d="M275.68,306.12c-.31-.32-.59-.55-.79-.83-.23-.33-.19-.72,.03-.89,.27-.22,.55-.22,.82-.03,.37,.25,.54,.67,.44,1.13-.04,.21-.29,.36-.51,.63h.01Z"/><path class="cls-2" d="M12.11,463.81c-.22-.21-.49-.36-.62-.62-.16-.33,.01-.64,.29-.83,.12-.08,.27-.14,.4-.19,.3-.14,.58-.1,.77,.22s.14,.81-.15,1.05c-.19,.16-.42,.23-.71,.38h.02Z"/><path class="cls-2" d="M365.02,233.15c-.03,.38-.05,.77-.12,1.14-.02,.11-.22,.25-.34,.24-.11,0-.31-.16-.32-.26-.07-.66-.12-1.33-.12-1.99,0-.15,.21-.35,.37-.43,.21-.1,.48,.16,.5,.47,.02,.27,0,.56,0,.83h.03Z"/><path class="cls-2" d="M125.52,187.93c.12,.16,.37,.38,.43,.64,.11,.46-.23,.92-.61,.99-.32,.06-.71-.27-.76-.63-.07-.47,.34-.97,.94-.99h0Z"/><path class="cls-2" d="M220.09,307.85c-.46-.03-.8-.35-.82-.79-.02-.5,.39-.87,.91-.82,.42,.03,.69,.44,.63,.93-.05,.41-.35,.68-.72,.66h0Z"/><path class="cls-2" d="M366.08,352.82s-.11-.16-.14-.31c-.16-.67,.23-1.39,.81-1.48,.22-.03,.49,.19,.52,.46,.07,.66-.43,1.31-1.19,1.33h0Z"/><path class="cls-2" d="M238.95,148.63c.03,.43-.21,.81-.56,.87-.4,.07-.8-.26-.86-.73-.06-.43,.3-.87,.73-.87,.36,0,.66,.31,.69,.73Z"/><path class="cls-2" d="M66.4,181.15c-.09,.1-.23,.36-.42,.42-.21,.07-.49,0-.7-.09-.31-.15-.4-.52-.29-.83,.07-.21,.33-.41,.53-.44,.53-.1,.89,.26,.87,.96h0Z"/><path class="cls-2" d="M269.21,154.46c-.33-.31-.63-.51-.8-.8-.11-.18-.1-.57,0-.75s.4-.35,.59-.33,.43,.26,.52,.48c.17,.42,.12,.85-.3,1.4h-.01Z"/><path class="cls-2" d="M50.31,290.81c-.08,.11-.2,.43-.38,.49-.19,.06-.5-.06-.65-.23-.34-.38-.36-1.06-.09-1.39,.09-.1,.27-.17,.4-.15,.44,.07,.68,.49,.72,1.29h0Z"/><path class="cls-2" d="M219.72,280.33c-.48-.01-.77-.34-.73-.81,.04-.42,.32-.68,.71-.66,.45,.02,.77,.39,.75,.83-.02,.39-.33,.66-.72,.65h-.01Z"/><path class="cls-2" d="M407.4,249.36c-.13-1.37,.31-2.04,1.14-2.56-.05,.92-.14,1.13-1.14,2.56Z"/><path class="cls-2" d="M284.88,411.72c.51-.23,1.04-.11,1.56-.03,.17,.02,.35,.19,.47,.34,.07,.09,.06,.3,.04,.44-.01,.07-.16,.17-.23,.16-.65-.13-1.31-.23-1.85-.71-.02-.02,0-.1,.01-.21h0Z"/><path class="cls-2" d="M277.26,130.78c-.19-.05-.29-.05-.38-.09-.32-.15-.68-.32-.67-.79,0-.15,.22-.38,.38-.43,.52-.18,.85-.08,1.04,.33,.08,.17,.09,.46,.02,.63-.07,.17-.28,.26-.39,.34h0Z"/><path class="cls-2" d="M331.37,371.85c.54-.08,1,.32,1.08,.81,.05,.31-.2,.74-.44,.77-.44,.06-.94-.33-.94-.82,0-.27,.21-.55,.3-.75h0Z"/><path class="cls-2" d="M161.8,309.24c.03,.57-.21,.93-.62,.96-.3,.02-.6-.24-.65-.56-.07-.54,.25-1,.73-1.06,.28-.03,.52,.26,.54,.66Z"/><path class="cls-2" d="M79.21,403.2c-.05,.21-.06,.46-.17,.63-.1,.16-.31,.33-.45,.32s-.36-.24-.37-.41c-.04-.38-.03-.77,.05-1.14,.03-.16,.25-.35,.4-.39,.29-.07,.43,.21,.5,.48,.04,.16,.03,.33,.04,.5h0Z"/><path class="cls-2" d="M2.48,132.45c-.11,.11-.25,.41-.43,.44-.44,.07-.88-.44-.9-.92,0-.26,.25-.51,.51-.49,.48,.05,.75,.33,.82,.96h0Z"/><path class="cls-2" d="M445.19,210.8c-.48-.06-.74-.36-.73-.85,.01-.46,.29-.75,.66-.71,.43,.06,.66,.41,.64,.95-.02,.39-.25,.64-.57,.6h0Z"/><path class="cls-2" d="M431.39,134.13c-.12,.15-.27,.46-.49,.56-.4,.17-.76-.18-.8-.68-.03-.36,.17-.69,.45-.75,.41-.08,.78,.25,.84,.88h0Z"/><path class="cls-2" d="M201.34,248.96c.37,.05,.6,.42,.54,.84-.07,.44-.39,.8-.68,.75-.3-.05-.54-.44-.53-.89,.02-.44,.3-.75,.67-.71Z"/><path class="cls-2" d="M213.46,170.06c0,.32,.03,.44,0,.54-.1,.24-.19,.51-.36,.67-.16,.16-.55-.17-.62-.55-.04-.22-.05-.44-.03-.66,.04-.34,.41-.72,.6-.59,.18,.13,.28,.4,.4,.62,.02,.05,0,.11,0-.05v.02Z"/><path class="cls-2" d="M173.08,360.33c.09-.11,.18-.32,.28-.33,.68-.11,1.37-.22,2.06-.27,.16,0,.34,.18,.49,.32,.05,.05,.05,.22,.02,.31-.03,.08-.13,.15-.2,.21-.04,.02-.1,.02-.14,0-.4-.21-.78-.55-1.26-.43-.38,.09-.74,.25-1.11,.39l-.14-.18h0Z"/><path class="cls-2" d="M255.99,294.77c.33,0,.58,.36,.58,.81,0,.35-.23,.68-.5,.71-.4,.03-.81-.31-.86-.72-.04-.4,.35-.8,.78-.79h0Z"/><path class="cls-2" d="M265.02,389.14c0,.15,.02,.26,0,.36-.11,.44-.31,.83-.75,.88-.11,0-.33-.26-.35-.43-.09-.59,.13-.99,.58-1.16,.24-.09,.51,.1,.53,.35h0Z"/><path class="cls-2" d="M246.79,470.75c.41,1.22,.04,1.91-.44,2.56-.04,.06-.2,.05-.26,0-.06-.06-.13-.21-.1-.28,.22-.66,.46-1.31,.8-2.29h0Z"/><path class="cls-2" d="M404.9,291.87c-.39,.02-.76-.35-.81-.81-.04-.32,.24-.64,.55-.63,.36,.02,.58,.31,.59,.8,0,.28-.04,.56-.32,.64h0Z"/><path class="cls-2" d="M150.47,269.47c-.38-.02-.6-.33-.58-.81,0-.38,.24-.63,.57-.63,.45,0,.73,.38,.66,.89-.05,.34-.32,.57-.65,.55h0Z"/><path class="cls-2" d="M136.58,152.14c.27,.14,.56,.22,.78,.41,.12,.1,.17,.42,.13,.6-.07,.33-.35,.4-.6,.28-.22-.1-.44-.26-.61-.46-.08-.09-.09-.33-.04-.47,.04-.14,.19-.22,.34-.38Z"/><path class="cls-2" d="M49.27,418.63c-.26-.05-.43-.41-.37-.8,.08-.5,.38-.81,.68-.67,.31,.14,.44,.42,.41,.8-.03,.4-.39,.73-.72,.67Z"/><path class="cls-2" d="M462.18,232.91c.51,1.12,.55,1.21,.39,1.81-.04,.15-.28,.23-.43,.34-.07-.14-.21-.27-.2-.4,.05-.55,.15-1.09,.24-1.75h0Z"/><path class="cls-2" d="M402.08,214.82c-.09,.19-.16,.47-.31,.66-.16,.22-.4,.36-.66,.18-.28-.19-.28-.72-.03-1.05,.22-.28,.59-.36,.8-.16,.07,.07,.1,.18,.2,.36h0Z"/><path class="cls-2" d="M67.92,210.1c.26-.03,.51,.27,.53,.66,.03,.46-.19,.8-.55,.83-.29,.02-.47-.17-.52-.47-.09-.48,.19-.98,.53-1.03h.01Z"/><path class="cls-2" d="M439.12,210.03c.37,.69,.66,1.2,.89,1.72,.07,.17,.04,.43-.02,.63-.02,.07-.31,.15-.35,.1-.5-.65-.63-1.41-.52-2.45h0Z"/><path class="cls-2" d="M122.45,402.09c-.29,.05-.56-.22-.6-.58-.05-.47,.14-.81,.49-.91,.31-.09,.62,.14,.67,.48,.07,.52-.17,.96-.56,1.03h0Z"/><path class="cls-2" d="M190.73,209.7c-.44,0-.81-.38-.76-.79,.04-.27,.36-.54,.66-.54,.37,0,.66,.31,.66,.71,0,.34-.25,.62-.56,.62h0Z"/><path class="cls-2" d="M158.01,157.29c.25,.13,.54,.21,.76,.4,.11,.1,.16,.42,.1,.58-.06,.15-.33,.33-.45,.28-.26-.09-.51-.28-.73-.49-.08-.07-.1-.32-.05-.44s.21-.19,.37-.33h0Z"/><path class="cls-2" d="M410.12,297.44c-.08-.09-.27-.19-.32-.36-.12-.4,.16-.83,.61-.96,.21-.06,.37,.09,.41,.35,.06,.52-.17,.9-.7,.98h0Z"/><path class="cls-2" d="M79.51,161.4c-.04,.63-.41,1.01-.8,.92-.28-.07-.4-.32-.37-.63,.03-.43,.31-.74,.7-.67,.19,.03,.35,.27,.48,.39h0Z"/><path class="cls-2" d="M392.38,229.56c-.09,.23-.19,.54-.33,.81-.02,.06-.19,.07-.27,.02-.39-.21-.39-.6-.34-1,.02-.16,.1-.32,.18-.46,.05-.08,.17-.18,.24-.17,.13,.03,.29,.1,.36,.22,.08,.13,.09,.31,.15,.57h.01Z"/><path class="cls-2" d="M7.86,185.49c.46-.06,.82,.27,.77,.68-.03,.23-.19,.52-.37,.62-.34,.17-.88-.26-.81-.65,.05-.26,.3-.48,.41-.64h0Z"/><path class="cls-2" d="M205.43,130.07c.23-.82,.36-1.34,.53-1.85,.04-.11,.29-.26,.32-.23,.13,.13,.28,.31,.29,.48,0,.19-.08,.43-.2,.58-.22,.28-.48,.52-.94,1.01Z"/><path class="cls-2" d="M378,448.22c-.1,.15-.23,.48-.45,.58-.3,.15-.69-.36-.69-.84,0-.33,.2-.49,.45-.54,.37-.06,.67,.24,.69,.8h0Z"/><path class="cls-2" d="M53.8,264.21c-.1-.11-.33-.27-.4-.5-.11-.34,.23-.71,.64-.75,.25-.02,.5,.21,.52,.48,.03,.4-.27,.76-.76,.76h0Z"/><path class="cls-2" d="M438.1,410.56c-.26-.3-.51-.48-.61-.73-.13-.32,.25-.64,.67-.63,.35,.01,.64,.31,.53,.59-.1,.26-.34,.46-.58,.76h-.01Z"/><path class="cls-2" d="M412.5,145.39c0,.54-.29,.85-.66,.88-.3,.02-.6-.28-.58-.59,.02-.4,.34-.81,.66-.73,.24,.06,.43,.32,.58,.44Z"/><path class="cls-2" d="M21.89,353.57c-.15,.14-.3,.36-.5,.42-.12,.03-.33-.17-.43-.32-.08-.11-.07-.31-.08-.48-.01-.3,.07-.58,.34-.64s.44,.16,.53,.43c.05,.15,.07,.32,.13,.57h.01Z"/><path class="cls-2" d="M419.52,439.83c-.15,.23-.2,.41-.31,.46-.17,.07-.38,.08-.56,.05-.25-.06-.46-.25-.42-.57,.04-.32,.3-.47,.55-.39s.47,.27,.75,.46h0Z"/><path class="cls-2" d="M405.74,432.54c-.21-.18-.41-.32-.56-.5-.34-.41-.42-.91-.18-.98,.37-.1,.68,.06,.88,.4,.1,.17,.15,.41,.14,.62,0,.13-.14,.25-.28,.47h0Z"/><path class="cls-2" d="M173.17,230.29c-.08,.11-.19,.35-.36,.52-.06,.07-.32,.01-.37-.07-.1-.17-.14-.41-.15-.62,0-.28,.07-.56,.37-.63,.26-.06,.52,.27,.5,.79h0Z"/><path class="cls-2" d="M77.75,144.77c.06,.55-.16,.88-.53,.98-.24,.07-.53-.14-.55-.4-.04-.44,.31-.91,.7-.87,.16,.02,.3,.22,.38,.3h0Z"/><path class="cls-2" d="M398.52,217.63c-.02-.33,.25-.63,.56-.59,.28,.02,.44,.22,.44,.54s-.14,.52-.4,.6c-.28,.08-.58-.21-.6-.55Z"/><path class="cls-2" d="M96.26,136.95c-.1,.09-.25,.33-.43,.39-.27,.08-.55-.26-.55-.59s.18-.48,.45-.51c.33-.03,.56,.22,.53,.72Z"/><path class="cls-2" d="M310.67,151.3c-.03,.36-.3,.62-.61,.57-.25-.05-.47-.33-.42-.59,.06-.35,.21-.64,.56-.69,.26-.03,.51,.34,.48,.72h-.01Z"/><path class="cls-2" d="M225.72,171.62c-.32,.01-.58-.31-.6-.76,0-.31,.11-.54,.38-.6,.32-.08,.61,.23,.67,.67,.04,.34-.17,.68-.45,.69Z"/><path class="cls-2" d="M326.31,257.37c-.15-.11-.36-.21-.36-.28,.01-.19,.09-.43,.21-.54,.15-.11,.38-.13,.56-.1,.11,0,.28,.16,.29,.26,.01,.13-.08,.32-.18,.4-.15,.13-.35,.17-.53,.26h0Z"/><path class="cls-2" d="M390.92,279.04c-.3,.26-.48,.5-.71,.62-.2,.1-.45-.23-.43-.51,.02-.32,.3-.59,.61-.52,.15,.03,.28,.22,.53,.42Z"/><path class="cls-2" d="M390.97,312.11c-.14,.22-.21,.41-.32,.46-.11,.05-.27-.05-.41-.09-.04-.01-.08-.07-.11-.11-.27-.36-.33-.73-.11-.89,.11-.08,.33-.14,.4-.07,.21,.19,.36,.46,.54,.69h0Z"/><path class="cls-2" d="M83.95,152.06c.04,.5-.18,.82-.46,.81s-.42-.23-.48-.5c-.08-.34,.16-.69,.46-.63,.19,.03,.36,.24,.48,.32Z"/><path class="cls-2" d="M419.09,374.07c.17-.09,.4-.3,.65-.32,.29-.03,.49,.39,.4,.74-.08,.31-.28,.44-.56,.42-.32-.03-.55-.35-.49-.83h0Z"/><path class="cls-2" d="M286.39,435.91c-.07,.11-.16,.34-.3,.43-.28,.16-.45-.11-.58-.34-.05-.09-.07-.21-.09-.32-.03-.33,.11-.57,.37-.64,.28-.07,.46,.13,.54,.43,.03,.1,.03,.22,.06,.43h0Z"/><path class="cls-2" d="M65.13,182.64c-.31,.19-.49,.39-.69,.42-.31,.06-.55-.28-.49-.64,.05-.28,.21-.58,.48-.47,.23,.09,.4,.39,.7,.69h0Z"/><path class="cls-2" d="M363.33,288.34c.23,.32,.42,.49,.5,.72,.09,.26-.17,.54-.43,.54-.29,0-.5-.21-.47-.5,.02-.22,.22-.41,.41-.74h-.01Z"/><path class="cls-2" d="M163.19,183.44c0,.5-.23,.84-.52,.81-.15-.02-.36-.21-.4-.38-.1-.36,.12-.75,.41-.74,.19,0,.38,.22,.51,.3h0Z"/><path class="cls-2" d="M227.43,472.51c-.22-.38-.42-.6-.51-.88-.07-.25,.22-.5,.49-.47,.33,.03,.61,.34,.52,.65-.06,.22-.27,.39-.51,.69h0Z"/><path class="cls-2" d="M32.38,427.58c-.05-.13-.19-.32-.16-.47,.08-.4,.34-.65,.72-.66,.08,0,.2,.08,.23,.16,.17,.42-.24,1-.79,.97h0Z"/><path class="cls-2" d="M229.26,409.54c.2,.66-.05,.93-.34,1.15-.09,.07-.31,.07-.38,0s-.09-.34-.03-.42c.19-.24,.43-.43,.75-.73Z"/><path class="cls-2" d="M433.84,382.35c.11,.17,.33,.39,.39,.65,.08,.33-.24,.64-.53,.6-.28-.03-.42-.24-.45-.55-.03-.38,.19-.69,.59-.71Z"/><path class="cls-2" d="M379.67,143.57c-.11,.05-.33,.23-.42,.16-.24-.17-.45-.42-.62-.67-.04-.06,.07-.35,.15-.39,.48-.18,.91,.21,.89,.9Z"/><path class="cls-2" d="M313.47,313.64c.15-.07,.35-.23,.55-.24,.33,0,.57,.33,.47,.65-.06,.17-.23,.38-.38,.42-.3,.09-.67-.35-.64-.83h0Z"/><path class="cls-2" d="M214.92,287.45c.38,.09,.53,.42,.49,.83-.04,.31-.28,.54-.5,.47-.28-.09-.48-.43-.37-.79,.07-.22,.27-.38,.38-.5h0Z"/><path class="cls-2" d="M156.89,272.82c-.24,.27-.37,.54-.56,.63-.25,.11-.56-.21-.62-.55-.06-.33,.21-.65,.56-.56,.19,.05,.35,.26,.62,.49h0Z"/><path class="cls-2" d="M379.51,271.97c.16,.39,.33,.62,.34,.84,.02,.36-.32,.66-.6,.57-.26-.08-.48-.32-.38-.62,.09-.26,.35-.44,.64-.8h0Z"/><path class="cls-2" d="M85.37,266.1c-.11,.1-.25,.35-.45,.41-.25,.08-.51-.35-.43-.73,.04-.18,.2-.4,.35-.46,.27-.1,.53,.24,.52,.77h.01Z"/><path class="cls-2" d="M395.67,253c-.26,.19-.4,.36-.56,.39-.29,.05-.56-.26-.58-.59-.01-.26,.26-.57,.47-.46,.22,.13,.39,.38,.67,.66h0Z"/><path class="cls-2" d="M106.13,246.49c.21,.41,.39,.65,.46,.92,.06,.26-.21,.55-.44,.52-.28-.03-.53-.34-.47-.69,.04-.22,.23-.4,.45-.75Z"/><path class="cls-2" d="M64.31,235.87c-.01-.5,.25-.84,.52-.8,.28,.05,.4,.28,.41,.58,.02,.4-.23,.74-.49,.63-.19-.09-.34-.32-.44-.41Z"/><path class="cls-2" d="M409.29,220.17c-.12,.09-.29,.28-.49,.34-.28,.07-.5-.27-.44-.65,.04-.28,.16-.52,.46-.5,.27,.01,.51,.36,.47,.82h0Z"/><path class="cls-2" d="M262.2,327.49c.1,.27,.2,.42,.19,.55-.03,.31-.2,.51-.49,.52-.19,.01-.37-.32-.26-.5,.13-.21,.33-.34,.55-.58h.01Z"/><path class="cls-2" d="M278.78,261.02c0,.44-.11,.67-.4,.69-.27,.02-.49-.11-.52-.43-.03-.31,.15-.57,.41-.56,.19,0,.37,.21,.51,.3h0Z"/><path class="cls-2" d="M181.87,351.72c-.1,.1-.23,.35-.42,.43-.26,.1-.53-.25-.56-.62-.03-.28,.17-.55,.42-.57,.31-.02,.55,.24,.57,.75h-.01Z"/><path class="cls-2" d="M77.78,255.86c.25,.08,.4,.09,.52,.17,.3,.19,.43,.63,.23,.82-.13,.11-.36,.17-.52,.13-.33-.09-.51-.44-.42-.74,.04-.15,.14-.27,.2-.38h-.01Z"/><path class="cls-2" d="M403.02,442.43c.19,.39,.34,.59,.39,.82,.06,.3-.18,.62-.38,.56-.26-.07-.45-.28-.4-.58,.03-.23,.2-.42,.39-.81h0Z"/><path class="cls-2" d="M74.14,213.92c-.25,.23-.39,.47-.58,.52-.23,.07-.48-.38-.44-.69,.03-.26,.31-.54,.51-.42,.18,.11,.3,.34,.51,.59Z"/><path class="cls-2" d="M57.97,173.82c-.13,.41-.25,.84-.41,1.24-.04,.09-.27,.17-.37,.13-.11-.05-.24-.25-.23-.36,.02-.21,.09-.49,.22-.59,.23-.18,.53-.26,.8-.38v-.02h-.01Z"/><path class="cls-2" d="M295.52,480.15c-.19-.07-.3-.08-.36-.15-.24-.28-.21-.79,.05-1.03,.03-.03,.09-.06,.14-.06,.29,.03,.44,.26,.42,.56-.02,.24-.16,.46-.24,.67h-.01Z"/><path class="cls-2" d="M37.84,267.99c.2,.21,.39,.31,.46,.48,.12,.33-.12,.67-.45,.69-.26,.02-.54-.24-.47-.5,.06-.23,.26-.4,.46-.67Z"/><path class="cls-2" d="M319.73,448.55c-.26,.03-.51-.25-.53-.63-.01-.26,.22-.56,.43-.52,.26,.05,.42,.23,.45,.54,.03,.3-.14,.58-.35,.6h0Z"/><path class="cls-2" d="M439.18,207.38c-.32-.6-.39-1.04-.07-1.49,.39,.3,.41,.79,.07,1.49Z"/><path class="cls-2" d="M98.4,167.66c0,.47-.25,.82-.51,.74-.14-.03-.31-.26-.34-.42-.07-.36,.2-.68,.49-.62,.15,.03,.28,.23,.37,.3h-.01Z"/><path class="cls-2" d="M140.7,450.65c-.19-.42-.33-.68-.4-.97,0-.05,.3-.28,.44-.26,.26,.05,.44,.3,.38,.62-.03,.17-.2,.32-.41,.62h-.01Z"/><path class="cls-2" d="M68.75,197.51c.11-.09,.26-.31,.45-.36,.27-.07,.49,.17,.47,.46-.02,.22-.19,.5-.36,.62-.21,.14-.54-.23-.56-.71h0Z"/><path class="cls-2" d="M463,240.04c-.17-.06-.29-.05-.34-.11-.3-.34-.28-.91,.05-1.16,.09-.07,.37-.06,.39,0,.09,.24,.16,.5,.15,.76-.01,.18-.17,.35-.25,.51h0Z"/><path class="cls-2" d="M447.79,182.13c-.25,.3-.38,.56-.56,.63-.26,.08-.47-.15-.51-.44-.05-.33,.16-.57,.41-.57,.18,0,.36,.21,.66,.4h0Z"/><path class="cls-2" d="M119.85,246.84c-.25,.25-.39,.5-.57,.56-.26,.08-.45-.14-.46-.46-.02-.31,.1-.59,.38-.57,.19,.01,.36,.25,.65,.47Z"/><path class="cls-2" d="M.95,241.94c-.1,.11-.22,.36-.4,.47-.22,.13-.53-.14-.55-.39-.02-.33,.14-.52,.4-.63,.24-.1,.5,.1,.56,.55h0Z"/><path class="cls-2" d="M289.56,416.84c-.25,.25-.4,.54-.56,.55-.26,.01-.4-.28-.35-.57,.03-.17,.23-.44,.32-.42,.18,.03,.33,.24,.59,.46h0Z"/><path class="cls-2" d="M129.72,197.75c.02,.23,.07,.34,.04,.43-.12,.34-.33,.56-.67,.5-.08-.01-.18-.11-.21-.21-.13-.46,.2-.57,.46-.71,.08-.05,.19-.02,.38-.03h0Z"/><path class="cls-2" d="M101.54,375.69c-.3,.22-.47,.42-.66,.47-.22,.05-.43-.34-.32-.62,.07-.17,.29-.43,.39-.4,.19,.06,.33,.28,.6,.55h0Z"/><path class="cls-2" d="M389.68,277.56c-.21,.24-.32,.43-.47,.5-.22,.1-.54-.23-.46-.46,.06-.17,.25-.35,.39-.38,.13-.02,.29,.17,.53,.33h0Z"/><path class="cls-2" d="M256.69,365.78c-.44-.55-.23-.91-.09-1.36,.21,.38,.24,.83,.09,1.36Z"/><path class="cls-2" d="M182.79,384.69c-.3,.19-.44,.35-.6,.39-.28,.06-.53-.22-.44-.48,.06-.17,.27-.41,.38-.39,.19,.03,.35,.25,.66,.49h0Z"/><path class="cls-2" d="M323.57,204.77c.2,.24,.41,.4,.49,.6,.07,.21-.26,.43-.52,.4-.27-.03-.5-.31-.4-.55,.07-.16,.24-.27,.43-.47h0Z"/><path class="cls-2" d="M270.96,131.4c-.19,.22-.29,.42-.44,.49-.2,.08-.38-.07-.43-.33-.05-.28,.17-.67,.37-.6,.16,.06,.28,.25,.5,.46h0Z"/><path class="cls-2" d="M263.34,363.79c-.2,.24-.32,.48-.5,.57-.19,.09-.43-.24-.4-.52,.04-.3,.18-.54,.45-.49,.14,.02,.25,.24,.44,.44h0Z"/><path class="cls-2" d="M467.81,279.93c-.1-.17-.24-.3-.24-.42,0-.19,.07-.4,.15-.58,.02-.03,.19-.05,.26,0,.23,.17,.29,.44,.18,.72-.05,.11-.2,.18-.34,.28h-.01Z"/><path class="cls-2" d="M52.2,280.76c-.16,.25-.24,.47-.38,.57-.19,.14-.5-.16-.44-.47,.03-.18,.19-.41,.33-.46,.11-.03,.28,.19,.5,.35h-.01Z"/><path class="cls-2" d="M132.4,170.24c-.2-.33-.38-.51-.42-.72-.02-.11,.19-.39,.31-.4,.26-.03,.45,.19,.43,.49,0,.17-.16,.32-.33,.63h.01Z"/><path class="cls-2" d="M365.8,286.05c-.17-.06-.31-.06-.34-.13-.07-.18-.16-.42-.12-.59s.23-.32,.37-.44c.05-.03,.23,.01,.25,.07,.07,.19,.14,.41,.11,.6-.03,.18-.19,.34-.27,.49Z"/><path class="cls-2" d="M415.99,455.96l-.47,.59c-.11-.16-.27-.3-.31-.47-.06-.28,.06-.56,.34-.57,.12,0,.25,.24,.43,.44h.01Z"/><path class="cls-2" d="M2.03,459.59c-.1-.15-.31-.31-.36-.51-.06-.27,.05-.57,.35-.62,.29-.05,.44,.18,.48,.48,.04,.31-.08,.54-.47,.65Z"/><path class="cls-2" d="M127.15,286.17c-.26,.19-.47,.39-.7,.48-.07,.02-.32-.25-.33-.4-.03-.36,.37-.64,.72-.5,.11,.05,.17,.22,.32,.42h-.01Z"/><path class="cls-2" d="M58.96,407.71c-.29,.22-.46,.42-.64,.44-.27,.03-.42-.22-.44-.51-.02-.27,.22-.54,.46-.44,.19,.07,.34,.27,.62,.51Z"/><path class="cls-2" d="M250.8,158.2c-.23-.28-.44-.43-.5-.65-.1-.33,.18-.63,.51-.6,.3,.01,.47,.24,.43,.54-.03,.22-.23,.4-.44,.72Z"/><path class="cls-2" d="M198.65,291.58c-.2,.24-.33,.47-.51,.56-.07,.03-.33-.21-.38-.36-.1-.34,.18-.75,.43-.66,.15,.05,.26,.25,.46,.47Z"/><path class="cls-2" d="M224.06,295.01c-.3,.19-.46,.39-.59,.36-.15-.02-.34-.19-.4-.36-.08-.23,.08-.46,.29-.42,.19,.03,.37,.22,.71,.42h-.01Z"/><path class="cls-2" d="M358.55,217.84c.26,.28,.47,.43,.56,.64,.12,.27-.1,.63-.34,.59-.28-.03-.47-.22-.47-.52,0-.18,.12-.36,.25-.71Z"/><path class="cls-2" d="M382.71,307.79c.35,.03,.6,.55,.44,.89-.02,.05-.09,.11-.11,.1-.16-.09-.38-.16-.46-.32-.08-.16,0-.4,0-.62,0-.02,.08-.03,.12-.06h0Z"/><path class="cls-2" d="M331.08,398.19c.24,.28,.44,.43,.53,.64,.1,.22-.16,.5-.42,.51-.27,0-.5-.15-.49-.44,0-.21,.2-.4,.38-.71Z"/><path class="cls-2" d="M463.06,191.34c.17-.25,.27-.54,.44-.62,.28-.11,.42,.18,.48,.46,.07,.34-.19,.81-.4,.72-.18-.07-.31-.32-.52-.56h0Z"/><path class="cls-2" d="M452.41,473.54c-.08,.05-.19,.18-.3,.18-.36-.02-.61-.35-.54-.77,.03-.14,.27-.34,.39-.33,.35,.05,.55,.47,.45,.92h0Z"/><path class="cls-2" d="M445.27,156.05c-.23,.22-.35,.41-.51,.46-.22,.06-.47-.28-.41-.56,.04-.18,.29-.47,.34-.43,.19,.09,.33,.3,.57,.55h.01Z"/><path class="cls-2" d="M138.88,474.26c-.23,.22-.35,.4-.51,.46-.2,.08-.45-.28-.37-.55,.05-.17,.28-.44,.34-.42,.18,.08,.31,.28,.53,.51h0Z"/><path class="cls-2" d="M107.72,399.07c-.17-.21-.34-.33-.39-.5-.06-.24,.11-.46,.31-.41,.13,.03,.27,.26,.33,.43,.03,.08-.12,.24-.25,.47h0Z"/><path class="cls-2" d="M160.67,216.47c-.24,.16-.38,.33-.54,.33-.25,.01-.33-.25-.26-.47,.05-.16,.24-.38,.37-.38,.12,0,.23,.26,.43,.5h0Z"/><path class="cls-2" d="M291.51,436.43c.13,.31,.29,.5,.26,.67-.02,.16-.22,.38-.37,.41-.24,.06-.48-.31-.37-.57,.07-.17,.25-.27,.47-.51h0Z"/><path class="cls-2" d="M84.61,141.04c-.21,.23-.31,.42-.46,.48-.25,.1-.57-.3-.48-.6,.05-.16,.28-.38,.39-.35,.18,.05,.32,.26,.55,.48Z"/><path class="cls-2" d="M253.23,471.09c-.23,.17-.4,.33-.59,.41-.07,.02-.27-.15-.3-.26-.08-.3,.27-.67,.55-.57,.11,.03,.18,.22,.35,.43h-.01Z"/><path class="cls-2" d="M213,140.5c.4,.13,.48,.4,.4,.67-.05,.17-.23,.38-.38,.42-.26,.07-.5-.4-.36-.73,.07-.17,.25-.27,.34-.36h0Z"/><path class="cls-2" d="M242.88,475.35c-.19-.3-.39-.51-.36-.6,.09-.23,.29-.4,.45-.58,.11,.15,.34,.32,.32,.46-.03,.22-.21,.4-.41,.74h0Z"/><path class="cls-2" d="M402.97,219.72c-.27,.22-.43,.41-.63,.47-.06,.02-.3-.28-.3-.44,0-.28,.17-.55,.46-.48,.14,.03,.26,.24,.47,.46h0Z"/><path class="cls-2" d="M299.87,468.76c-.3,0-.52,.03-.72-.02-.06-.02-.15-.32-.1-.41,.15-.28,.41-.3,.63-.13,.09,.07,.1,.27,.2,.56h-.01Z"/><path class="cls-2" d="M167.58,440.53c-.19,.23-.29,.44-.44,.51-.21,.09-.37-.08-.42-.33-.05-.31,.15-.66,.37-.6,.16,.05,.28,.23,.5,.42h0Z"/><path class="cls-2" d="M209.29,440.87c.4,.14,.47,.41,.39,.67-.05,.17-.23,.34-.38,.4-.2,.06-.47-.32-.38-.56,.08-.21,.26-.36,.37-.51h0Z"/><path class="cls-2" d="M272.87,133.18l-.59,.51c-.11-.17-.27-.32-.3-.51-.06-.31,.2-.6,.42-.5,.15,.07,.26,.27,.47,.5h0Z"/><path class="cls-2" d="M374.22,335.51c-.26,.19-.39,.35-.55,.39-.07,.01-.28-.23-.26-.31,.04-.18,.17-.33,.27-.5l.54,.42Z"/><path class="cls-2" d="M476.64,173.08c.39,.01,.64,.32,.53,.54-.08,.15-.3,.32-.44,.3s-.33-.26-.34-.43c-.01-.15,.19-.31,.25-.4h0Z"/><path class="cls-2" d="M457.19,430.04c.3-.18,.48-.39,.67-.4,.27-.02,.4,.24,.4,.55,0,.27-.28,.55-.48,.43-.19-.1-.33-.32-.59-.58Z"/><path class="cls-2" d="M238,364.48c-.11,.1-.26,.33-.44,.39-.09,.02-.31-.22-.37-.39-.08-.22,.03-.42,.24-.5,.24-.09,.51,.09,.57,.5h0Z"/><path class="cls-2" d="M419.07,251.1c-.27,.19-.4,.36-.55,.39-.22,.03-.43-.33-.34-.58,.04-.13,.23-.31,.28-.27,.18,.08,.33,.25,.61,.48h0Z"/><path class="cls-2" d="M197.56,420.28c-.15,.62-.64,1.11-1.47,1.46l1.5-1.45h-.03Z"/><path class="cls-2" d="M457.84,332.04c-.23,.19-.36,.39-.51,.41-.23,.02-.36-.23-.3-.46,.05-.17,.23-.3,.35-.44l.46,.49h0Z"/><path class="cls-2" d="M398.61,196.93c-.21,.18-.33,.38-.49,.42-.21,.06-.42-.33-.32-.62,.06-.15,.29-.33,.41-.31,.13,.02,.23,.28,.39,.51h0Z"/><path class="cls-2" d="M205.47,199.78l-.46,.6c-.09-.11-.24-.21-.27-.34-.08-.32,.1-.63,.33-.59,.12,.02,.22,.17,.4,.33h0Z"/><path class="cls-2" d="M311.51,168.48l.52,1.38c-.41-.07-.59-.53-.52-1.38Z"/><path class="cls-2" d="M123.17,243.55c-.34,.13-.54,.24-.74,.25-.07,0-.21-.22-.22-.35-.02-.27,.26-.55,.48-.44,.14,.06,.24,.26,.47,.54h.01Z"/><path class="cls-2" d="M13.34,328.83c.11-.1,.15-.17,.18-.17,.22,.03,.43,.08,.65,.14,.01,0,0,.15,0,.15-.22,.03-.43,.06-.65,.07-.03,0-.07-.07-.19-.18h.01Z"/><path class="cls-2" d="M295.85,453.89c.22,.26,.38,.39,.43,.55,.09,.27-.14,.67-.31,.59-.15-.07-.3-.27-.33-.46-.03-.16,.1-.35,.21-.68Z"/><path class="cls-2" d="M416.64,380.43c-.18,.21-.28,.4-.42,.47-.21,.1-.49-.21-.42-.46,.05-.17,.22-.38,.36-.4,.13-.01,.27,.21,.48,.39h0Z"/><path class="cls-2" d="M450.94,235.43c-.22,.23-.38,.41-.56,.54-.03,.02-.26-.17-.27-.28-.02-.31,.14-.55,.41-.58,.1-.01,.22,.16,.42,.32h0Z"/><path class="cls-2" d="M412.87,160.41c-.07,.13-.16,.38-.22,.36-.16-.02-.35-.1-.45-.24-.07-.09-.05-.31-.04-.47,.01-.09,.1-.24,.15-.24,.13,0,.28,.03,.37,.13,.09,.1,.12,.28,.19,.47h0Z"/><path class="cls-2" d="M372.13,205c-.14-.3-.3-.49-.27-.63,.03-.15,.27-.34,.38-.32,.13,.02,.3,.27,.3,.43,0,.14-.2,.27-.41,.52h0Z"/><path class="cls-2" d="M200.42,160.74c-.12-.32-.23-.49-.23-.67,0-.28,.32-.51,.5-.35,.11,.1,.2,.36,.17,.51-.03,.15-.22,.26-.44,.5h0Z"/><path class="cls-2" d="M257.47,161.04c-.26,.14-.43,.31-.54,.27-.13-.05-.26-.27-.28-.44-.03-.25,.17-.4,.37-.33,.14,.06,.24,.25,.46,.49h0Z"/><path class="cls-2" d="M240.78,201.41c-.18,.17-.29,.34-.44,.4-.07,.02-.3-.22-.28-.26,.07-.17,.18-.34,.31-.46,.03-.03,.2,.15,.41,.31h0Z"/><path class="cls-2" d="M320.13,385.81c-.18,.05-.33,.15-.43,.1-.21-.09-.26-.33-.11-.51,.06-.08,.28-.1,.37-.05,.09,.07,.11,.26,.18,.46h-.01Z"/><path class="cls-2" d="M467.5,387.56c.19,.19,.35,.27,.37,.39,.06,.26-.09,.42-.32,.42-.08,0-.25-.11-.24-.14,.03-.19,.1-.38,.19-.67Z"/><path class="cls-2" d="M13.48,141.61c.12,.23,.23,.38,.26,.55,.01,.06-.24,.27-.28,.24-.14-.1-.25-.26-.33-.43-.01-.03,.17-.18,.35-.36h0Z"/><path class="cls-2" d="M200.44,415.99c0-.22-.02-.43-.02-.66,0-.54,.28-.77,.73-.81h0c-.07,.24-.14,.5-.2,.75-.08,.34-.26,.56-.55,.66l.04,.05h0Z"/><path class="cls-2" d="M252.71,367.91c-.03-.13-.15-.34-.1-.48,.06-.17,.25-.27,.39-.41,.11,.15,.3,.3,.32,.46,.04,.28-.24,.5-.61,.43h0Z"/><path class="cls-2" d="M442.02,273.83c-.05,.1-.09,.3-.2,.38-.08,.06-.35,0-.36-.03-.04-.26-.05-.52-.04-.8,0-.07,.16-.19,.21-.17,.12,.05,.24,.14,.32,.25,.05,.07,.03,.22,.05,.38h.02Z"/><path class="cls-2" d="M263.98,477.55c-.12-.15-.29-.32-.27-.35,.08-.15,.22-.26,.33-.39,.07,.11,.21,.24,.2,.35,0,.11-.15,.23-.26,.39Z"/><path class="cls-2" d="M27.25,209.56c.11,.17,.26,.31,.24,.41-.02,.11-.17,.22-.27,.32-.09-.1-.25-.22-.25-.32,0-.11,.15-.24,.28-.41Z"/><path class="cls-2" d="M226.69,249.56l-.56,.35c-.08-.18-.2-.35-.21-.55,0-.09,.22-.31,.28-.28,.15,.07,.26,.24,.49,.48Z"/><path class="cls-2" d="M422.24,228.76l-.46,.48c-.11-.16-.3-.32-.3-.49,0-.15,.2-.3,.31-.44l.45,.46h0Z"/><path class="cls-2" d="M317.15,424.65c-.27-.32-.48-.47-.55-.67-.07-.21,.08-.44,.3-.4,.15,.03,.33,.19,.39,.35,.05,.14-.06,.35-.14,.73h0Z"/><path class="cls-2" d="M203.56,457.04c-.28,.19-.41,.34-.56,.36-.09,.01-.29-.22-.28-.26,.06-.17,.16-.4,.29-.43,.11-.03,.27,.16,.55,.34h0Z"/><path class="cls-2" d="M356.36,476.27c-.14-.34-.26-.52-.27-.71-.02-.28,.18-.38,.39-.35,.24,.02,.35,.25,.29,.48-.04,.17-.2,.3-.41,.58h0Z"/><path class="cls-2" d="M167.2,226.22c-.13,.16-.23,.34-.38,.43-.07,.05-.29-.08-.32-.17-.07-.24,.21-.56,.44-.52,.07,.01,.13,.13,.26,.26h0Z"/><path class="cls-2" d="M16.89,188.16c.38,.15,.44,.42,.37,.68-.04,.16-.26,.36-.38,.35-.31-.02-.33-.36-.28-.63,.04-.17,.2-.3,.29-.41Z"/><path class="cls-2" d="M159.97,187.24l-.52,.5c-.1-.16-.27-.3-.3-.47-.06-.31,.18-.62,.38-.52,.14,.07,.24,.25,.45,.48h0Z"/><path class="cls-2" d="M162.19,157.69c.16,.19,.35,.32,.38,.48,.06,.24-.12,.46-.32,.4-.14-.03-.27-.25-.33-.42-.03-.08,.13-.24,.27-.46h0Z"/><path class="cls-2" d="M427.17,173.67c-.21,.22-.32,.43-.46,.46-.24,.05-.31-.22-.31-.46s.07-.49,.31-.46c.14,.02,.26,.24,.47,.44h-.01Z"/><path class="cls-2" d="M254.66,475.26l-.48,.38c-.07-.13-.22-.26-.2-.36,.03-.17,.16-.33,.25-.49l.44,.48h0Z"/><path class="cls-2" d="M94.58,147.8l-.45,.49c-.1-.16-.28-.33-.28-.5s.15-.35,.24-.54l.5,.54h-.01Z"/><path class="cls-2" d="M374.7,256.53c-.17,.18-.28,.35-.42,.42-.05,.02-.29-.23-.27-.28,.05-.17,.17-.34,.3-.47,.02-.02,.2,.16,.39,.32h0Z"/><path class="cls-2" d="M381.47,310.15c.29-.15,.44-.28,.59-.3,.09,0,.27,.25,.25,.32-.06,.18-.21,.32-.32,.48l-.52-.51h0Z"/><path class="cls-2" d="M196.91,213.09c-.21,.25-.31,.43-.45,.51-.22,.13-.52-.16-.46-.42,.04-.17,.22-.38,.36-.4,.13-.02,.3,.16,.55,.31Z"/><path class="cls-2" d="M129.56,261.96l-.39-.57c.13-.11,.26-.27,.41-.34,.05-.02,.26,.18,.26,.26-.02,.17-.13,.33-.27,.64h0Z"/><path class="cls-2" d="M161.48,354.49c-.21,.18-.32,.34-.44,.35-.23,.02-.37-.18-.33-.42,.02-.11,.2-.3,.28-.28,.15,.03,.28,.19,.48,.35h.01Z"/><path class="cls-2" d="M330.15,431.57c-.19,.11-.31,.21-.44,.25-.2,.07-.42-.16-.35-.38,.04-.13,.2-.27,.3-.27,.11,0,.22,.16,.49,.4h0Z"/><path class="cls-2" d="M162.05,472.74c.05,.21,.11,.39,.13,.58,0,.03-.16,.15-.23,.13-.23-.07-.29-.27-.22-.51,.02-.07,.15-.1,.31-.21h0Z"/><path class="cls-2" d="M165.43,259.51l-.45,.4c-.07-.11-.21-.25-.19-.35,0-.13,.14-.28,.25-.33,.08-.02,.2,.14,.4,.28h0Z"/><path class="cls-2" d="M137.67,360.25v-1.29c.17,.37,.17,.8,0,1.29Z"/><path class="cls-2" d="M115.29,440c-.05-.22-.11-.4-.13-.58,0-.05,.14-.1,.22-.16,.07,.18,.16,.35,.21,.54,0,.02-.14,.1-.3,.21h0Z"/><path class="cls-2" d="M340.76,259.55c-.12-.27-.25-.43-.26-.6,0-.1,.17-.23,.26-.34,.1,.15,.25,.28,.3,.47,.02,.09-.14,.24-.3,.48h0Z"/><path class="cls-2" d="M52.86,212.92c.14,.13,.27,.18,.32,.3,.1,.19-.07,.5-.24,.44-.11-.03-.24-.18-.26-.31-.02-.11,.09-.25,.17-.43h.01Z"/><path class="cls-2" d="M15.84,313.9c-.11-.17-.24-.3-.23-.41,0-.11,.16-.21,.24-.31,.09,.1,.23,.21,.24,.32,0,.1-.13,.23-.25,.4h0Z"/><path class="cls-2" d="M122.09,184.21c.14,.22,.27,.33,.28,.46,.02,.24-.12,.41-.34,.35-.11-.02-.27-.23-.26-.3,.04-.16,.17-.3,.32-.51h0Z"/><path class="cls-2" d="M71.1,443.3c.13,.41,.23,.58,.22,.75,0,.22-.13,.43-.36,.33-.1-.05-.2-.26-.19-.38,.02-.17,.14-.32,.33-.69h0Z"/><path class="cls-2" d="M56.07,382.99c-.14-.23-.29-.42-.27-.47,.1-.15,.24-.27,.39-.34,.05-.02,.26,.25,.24,.32-.06,.16-.2,.28-.36,.48h0Z"/><path class="cls-2" d="M25.24,166.45c-.23,.13-.37,.26-.52,.26-.09,0-.18-.21-.27-.32,.14-.11,.26-.27,.42-.32,.07-.02,.19,.18,.38,.38h0Z"/><path class="cls-2" d="M213.41,349.62c-.12,.23-.16,.4-.26,.49-.12,.1-.37-.15-.35-.38,0-.15,.12-.27,.18-.41l.43,.31h0Z"/><path class="cls-2" d="M421.67,398.28c-.21,.16-.38,.33-.42,.3-.13-.1-.24-.27-.31-.46-.01-.05,.22-.28,.29-.26,.15,.06,.26,.23,.44,.41h0Z"/><path class="cls-2" d="M180.15,348.05c-.28,.15-.45,.33-.57,.28-.13-.05-.21-.28-.32-.43,.13-.11,.27-.31,.4-.31s.25,.22,.49,.44h0Z"/><path class="cls-2" d="M78.51,184.31c-.17,.18-.28,.35-.43,.43-.04,.02-.28-.23-.26-.28,.05-.18,.19-.33,.29-.49l.4,.33h0Z"/><path class="cls-2" d="M186.71,215.3c-.23,.08-.41,.18-.46,.14-.12-.14-.18-.33-.26-.5,.11-.06,.27-.18,.32-.14,.14,.1,.23,.28,.4,.51h0Z"/><path class="cls-2" d="M462.09,181.56c-.2,.02-.36,.1-.44,.03-.08-.07-.08-.26-.12-.41,.12-.03,.28-.13,.37-.08s.11,.24,.19,.46h0Z"/><path class="cls-2" d="M275.69,342.72c-.17,.17-.27,.33-.42,.39-.06,.02-.28-.22-.27-.27,.06-.18,.19-.32,.29-.48l.39,.35h0Z"/><path class="cls-2" d="M252.82,341.09c.21,.16,.37,.22,.42,.33,.1,.23,.02,.44-.2,.5-.09,.02-.3-.1-.32-.19-.03-.17,.05-.35,.1-.64Z"/><path class="cls-2" d="M227.5,342.25c-.2-.35-.38-.54-.36-.68,0-.15,.22-.28,.34-.42,.09,.11,.25,.23,.26,.35,0,.18-.1,.36-.23,.75h0Z"/><path class="cls-2" d="M146.55,274.95c-.14,.09-.23,.19-.29,.17-.13-.06-.28-.14-.35-.26-.07-.11-.05-.3-.07-.44,.13,0,.29-.05,.37,.03,.14,.13,.22,.33,.33,.5h.01Z"/><path class="cls-2" d="M222.43,155.36c.11,.28,.18,.42,.22,.57,.06,.24-.12,.55-.27,.47-.11-.06-.23-.23-.25-.36,0-.13,.11-.26,.29-.67h.01Z"/><path class="cls-2" d="M465.26,359.27c-.23,.21-.37,.43-.5,.42s-.34-.26-.34-.41,.21-.39,.34-.41c.12-.02,.27,.21,.5,.4h0Z"/><path class="cls-2" d="M200.4,415.94l-.28,1.18c-.2-.45-.09-.83,.32-1.14l-.04-.05h0Z"/><path class="cls-2" d="M160.62,219.71c-.18,.28-.23,.44-.34,.51-.15,.1-.37-.15-.31-.39,.03-.14,.16-.32,.26-.34,.11-.02,.25,.13,.39,.21h0Z"/><path class="cls-2" d="M423.74,380c-.08-.17-.18-.34-.24-.54-.02-.07,.09-.27,.11-.27,.13,.03,.29,.08,.37,.18s.09,.3,.08,.44c0,.05-.16,.09-.32,.17h0Z"/><path class="cls-2" d="M370.54,373.55l-.41,.4c-.11-.16-.25-.3-.31-.47-.02-.06,.2-.32,.27-.3,.15,.05,.27,.21,.45,.38h0Z"/><path class="cls-2" d="M285.83,372.84l-.35,.34c-.09-.11-.25-.23-.24-.34,0-.11,.16-.3,.26-.31,.09,0,.2,.17,.33,.31Z"/><path class="cls-2" d="M201.76,239.31c-.12-.18-.27-.31-.26-.42,0-.11,.17-.22,.27-.33,.09,.11,.25,.22,.25,.34,0,.11-.14,.24-.26,.41h0Z"/><path class="cls-2" d="M455.82,404.92c-.16,.08-.3,.16-.46,.22-.01,0-.11-.17-.11-.27,0-.25,.24-.43,.4-.32,.07,.05,.09,.18,.17,.38h0Z"/><path class="cls-2" d="M465.06,459.45c-.12-.16-.26-.25-.29-.39-.06-.23,.15-.47,.34-.36,.11,.06,.23,.23,.23,.35s-.16,.24-.28,.4Z"/><path class="cls-2" d="M443.64,184.79c-.11-.08-.25-.13-.25-.18-.01-.15,.03-.3,.05-.46,.1,.06,.27,.1,.28,.18,.03,.14-.04,.3-.08,.46Z"/><path class="cls-2" d="M345.94,129.33c.06,.3,.15,.49,.13,.67-.01,.09-.21,.25-.29,.24-.23-.05-.29-.28-.21-.51,.04-.11,.18-.19,.38-.4h-.01Z"/><path class="cls-2" d="M390.26,282.32c.14,.13,.28,.19,.34,.32,.09,.19-.09,.49-.27,.43-.11-.03-.24-.19-.26-.32-.02-.11,.1-.25,.19-.43Z"/><path class="cls-2" d="M91.66,363.77l.32,.21-.26,.51c-.08-.06-.23-.13-.23-.16,.03-.18,.1-.36,.16-.56h.01Z"/><path class="cls-2" d="M444.58,410.58l-.39,.54c-.12-.14-.33-.26-.34-.4,0-.16,.16-.33,.26-.49l.47,.35Z"/><path class="cls-2" d="M461.4,168.61l-.49,.15c-.03-.18-.08-.36-.09-.55,0-.03,.2-.14,.22-.11,.12,.13,.2,.28,.36,.51Z"/><path class="cls-2" d="M226.04,410.99c-.21,.1-.35,.22-.42,.18-.1-.05-.22-.22-.21-.34,0-.1,.15-.21,.24-.32l.4,.47h0Z"/><path class="cls-2" d="M73.11,360.09c.13,.34,.28,.54,.24,.68-.03,.15-.24,.24-.37,.35-.09-.16-.24-.32-.24-.49,0-.14,.17-.28,.36-.56h.01Z"/><path class="cls-2" d="M421.41,196.97c-.29,.06-.46,.13-.6,.09-.07-.01-.1-.25-.14-.38,.12-.05,.26-.16,.37-.14,.1,.02,.18,.19,.37,.42h0Z"/><path class="cls-2" d="M427.09,138.75l-.34,.33c-.08-.11-.18-.23-.22-.35-.02-.06,.12-.23,.16-.22,.12,.03,.22,.13,.4,.24Z"/><path class="cls-2" d="M205.07,190.59c.16,.23,.33,.39,.3,.47-.05,.17-.2,.31-.31,.46-.1-.11-.28-.23-.27-.33,.02-.17,.15-.33,.28-.58h0Z"/><path class="cls-2" d="M6.2,285.23c-.11-.17-.25-.3-.24-.4,.01-.11,.17-.21,.26-.31,.09,.1,.24,.21,.24,.31,0,.11-.14,.23-.26,.4Z"/><path class="cls-2" d="M264.24,367.59c.14,.06,.31,.1,.3,.13-.02,.15-.07,.28-.12,.42-.09-.03-.24-.06-.24-.1-.01-.14,.03-.28,.05-.44h.01Z"/><path class="cls-2" d="M318.01,135.45l-.3,.39c-.08-.13-.18-.23-.22-.36-.02-.06,.11-.25,.14-.24,.11,.02,.21,.11,.37,.22h0Z"/><path class="cls-2" d="M401.18,186.6c-.11-.16-.25-.25-.26-.38-.03-.23,.09-.42,.31-.38,.09,.02,.21,.23,.2,.34,0,.13-.14,.24-.25,.41Z"/><path class="cls-2" d="M430.98,178.33c-.29,.25-.39,.39-.51,.41-.18,.05-.4-.27-.3-.43,.07-.11,.23-.21,.35-.21,.13,0,.25,.11,.46,.23Z"/><path class="cls-2" d="M153.87,408.26c-.02-.19-.08-.39-.06-.58,0-.07,.21-.11,.33-.16,.05,.15,.14,.3,.13,.43,0,.15-.11,.3-.17,.44l-.23-.14h0Z"/><path class="cls-2" d="M114.14,466.2c-.23-.54-.38-.73-.34-.87,.03-.15,.24-.25,.37-.38,.07,.18,.18,.36,.2,.56,.01,.14-.09,.3-.22,.68h-.01Z"/><path class="cls-2" d="M246.64,407.28c-.04-.14-.12-.27-.1-.39,.02-.08,.18-.13,.27-.18,.03,.14,.08,.27,.08,.41,0,.05-.14,.09-.25,.16Z"/><path class="cls-2" d="M68.04,143.03c-.08-.05-.16-.09-.23-.14l.2-.33c.06,.08,.16,.15,.17,.23,0,.08-.09,.17-.14,.25h0Z"/><path class="cls-2" d="M33.67,406.57c.09,.22,.17,.34,.18,.48,0,.08-.09,.17-.15,.25-.1-.09-.26-.17-.28-.28-.02-.1,.12-.24,.24-.44h0Z"/><path class="cls-2" d="M451.68,156.96c-.14-.25-.27-.41-.29-.58-.01-.1,.15-.23,.24-.35,.11,.14,.27,.26,.32,.43,.03,.09-.13,.25-.27,.5h0Z"/><path class="cls-2" d="M141.83,451.49l-.31,.35c-.08-.11-.18-.21-.22-.33-.02-.06,.11-.25,.13-.24,.12,.03,.22,.13,.4,.23h0Z"/><path class="cls-2" d="M243.25,448.8l-.34,.32c-.07-.13-.16-.24-.19-.38,0-.06,.13-.23,.16-.21,.11,.05,.21,.14,.37,.26h0Z"/><path class="cls-2" d="M419.87,246.52c-.38,.31-.51,.46-.66,.5-.05,.01-.23-.22-.23-.34,0-.22,.07-.47,.34-.41,.14,.02,.27,.11,.56,.25h0Z"/><path class="cls-2" d="M130.13,145.1c-.03-.21-.09-.39-.07-.56,0-.07,.2-.11,.31-.17,.03,.19,.07,.39,.07,.57,0,.03-.15,.08-.31,.16Z"/><path class="cls-2" d="M331.35,275.15l-.28,.35c-.09-.1-.2-.18-.25-.3-.02-.05,.09-.24,.13-.24,.11,.01,.22,.09,.4,.18Z"/><path class="cls-2" d="M117.97,416.83c.09,.18,.19,.31,.2,.44,.01,.22-.26,.39-.4,.26-.08-.08-.15-.28-.12-.4s.19-.18,.33-.3h0Z"/><path class="cls-2" d="M169.47,201.38c.14,.13,.29,.19,.34,.32,.09,.19-.11,.48-.3,.42-.11-.03-.25-.19-.27-.32,0-.11,.13-.25,.23-.42h0Z"/><path class="cls-2" d="M165.52,250.78c-.17,.16-.28,.31-.42,.35-.05,.02-.23-.17-.25-.28-.04-.22,.05-.43,.29-.4,.11,.01,.2,.17,.38,.33Z"/><path class="cls-2" d="M430.87,250.7c-.1,.16-.16,.32-.26,.39-.16,.1-.4-.13-.36-.36,.03-.13,.17-.31,.27-.32,.1,0,.21,.17,.35,.28h0Z"/><path class="cls-2" d="M444.53,171.18c-.14,.14-.24,.32-.33,.32s-.25-.19-.24-.31c0-.11,.15-.3,.25-.31,.08-.01,.19,.17,.33,.3h-.01Z"/><path class="cls-2" d="M438.59,443.93c.11,.18,.25,.3,.24,.41,0,.11-.16,.22-.24,.32-.09-.1-.23-.21-.24-.32,0-.11,.13-.24,.24-.41Z"/><path class="cls-2" d="M129,133.45c-.05,.08-.1,.15-.14,.23l-.24-.27c.07-.06,.14-.16,.21-.15,.06,0,.12,.13,.17,.19h0Z"/><path class="cls-2" d="M252.11,435.46l-.29,.39c-.09-.1-.2-.19-.24-.32-.02-.06,.09-.26,.13-.25,.12,.01,.23,.1,.4,.18Z"/><path class="cls-2" d="M406.52,300.98c-.12,.15-.18,.32-.28,.35-.21,.06-.38-.07-.36-.33,0-.1,.17-.26,.27-.27,.1,0,.22,.14,.37,.25Z"/><path class="cls-2" d="M17.04,396.47c.08,.18,.2,.33,.18,.44-.02,.13-.16,.28-.27,.31-.18,.05-.36-.26-.26-.46,.06-.11,.2-.17,.35-.3Z"/><path class="cls-2" d="M285.74,264.43c-.18,.13-.31,.26-.47,.3-.05,.01-.23-.28-.2-.34,.08-.16,.24-.27,.36-.4l.31,.44h0Z"/><path class="cls-2" d="M152.35,478.16c-.14,.11-.26,.27-.34,.25-.1-.02-.22-.22-.21-.33,0-.1,.17-.19,.26-.3l.29,.36h0Z"/><path class="cls-2" d="M216.9,395.96c-.07-.05-.14-.09-.2-.15l.21-.28c.05,.07,.14,.15,.14,.22s-.09,.15-.15,.22h0Z"/><path class="cls-2" d="M52.59,394.87l-.26,.05v-.4c.08,.02,.21,0,.25,.07,.04,.06,0,.19,0,.3h0Z"/><path class="cls-2" d="M284.96,253.75l-.17,.3c-.09-.09-.2-.16-.25-.26-.02-.03,.08-.16,.12-.24l.3,.22h0Z"/><path class="cls-2" d="M224.31,388.61c-.1-.19-.23-.33-.22-.44,0-.1,.17-.19,.27-.28,.08,.11,.22,.23,.22,.34,0,.1-.15,.22-.27,.38h0Z"/><path class="cls-2" d="M204.25,394.22c.17,.08,.32,.11,.32,.14-.02,.19-.06,.38-.1,.57-.08-.03-.23-.07-.23-.13-.02-.18,0-.36,0-.58Z"/><path class="cls-2" d="M112.12,212.78c-.19,.13-.31,.26-.4,.24-.09-.02-.15-.22-.2-.34,0-.02,.15-.17,.22-.16,.11,.02,.21,.14,.38,.25h0Z"/><path class="cls-2" d="M474.94,477.06c-.15,.11-.26,.26-.35,.25s-.23-.22-.21-.31c.02-.11,.17-.26,.27-.27,.08,0,.17,.18,.29,.33h0Z"/><path class="cls-2" d="M159.62,141.51c-.14,.02-.26,.07-.38,.06-.04,0-.06-.17-.09-.27,.12-.05,.24-.1,.36-.11,.03,0,.06,.18,.11,.33h0Z"/><path class="cls-2" d="M433.78,212.65l-.24,.14c-.03-.09-.11-.21-.09-.27s.14-.09,.22-.15c.03,.09,.07,.18,.1,.27h0Z"/><path class="cls-2" d="M61.76,308.27c.06,.08,.18,.19,.17,.22-.06,.11-.15,.19-.24,.3-.04-.09-.12-.19-.12-.27s.11-.15,.19-.23h0Z"/><path class="cls-2" d="M40.22,208.02l-.31,.21c-.05-.09-.15-.23-.13-.26,.07-.11,.19-.19,.28-.3l.16,.35Z"/><path class="cls-2" d="M372.78,154.9l-.28,.14c-.03-.14-.07-.27-.08-.41,0-.02,.19-.1,.21-.09,.07,.11,.11,.24,.16,.36h-.01Z"/><path class="cls-2" d="M115.95,155.79c-.04-.15-.12-.28-.1-.42,0-.07,.18-.1,.28-.16,.03,.15,.08,.28,.08,.43,0,.05-.15,.08-.26,.14h0Z"/><path class="cls-2" d="M417.67,299.8c-.14,.14-.25,.33-.34,.32-.1-.01-.26-.21-.26-.32s.16-.31,.26-.32c.1,0,.21,.18,.35,.32h-.01Z"/><path class="cls-2" d="M205,397.58c-.18,.13-.3,.26-.38,.24-.09-.03-.15-.21-.2-.33,0-.02,.14-.17,.21-.16,.11,.02,.2,.13,.37,.25h0Z"/><path class="cls-2" d="M176.66,298.03l-.36,.26c-.05-.13-.14-.24-.15-.38,0-.06,.15-.21,.18-.19,.11,.06,.19,.16,.34,.3h0Z"/><path class="cls-2" d="M472.87,259.59c-.03,.09-.07,.17-.1,.26-.07-.05-.18-.09-.19-.16-.02-.07,.06-.17,.09-.26,.07,.06,.14,.1,.21,.16h0Z"/><path class="cls-2" d="M440.05,170.84c-.06-.07-.12-.15-.17-.22l.31-.22c.03,.09,.11,.21,.09,.27-.03,.08-.15,.1-.23,.16h0Z"/><path class="cls-2" d="M407.41,292.92c.09,.22,.2,.36,.17,.46-.04,.11-.2,.17-.31,.26-.05-.09-.16-.19-.14-.26,.04-.14,.14-.25,.27-.46h.01Z"/><path class="cls-2" d="M233.39,378.06l-.28,.38c-.08-.11-.19-.22-.23-.34-.02-.06,.1-.25,.14-.24,.11,.02,.22,.11,.38,.21h-.01Z"/><path class="cls-2" d="M470.61,148.79l-.27,.41c-.09-.1-.2-.18-.25-.3-.02-.06,.08-.26,.12-.26,.11,0,.22,.08,.4,.15h0Z"/><path class="cls-2" d="M413.83,142.14c-.03,.09-.06,.19-.09,.28l-.3-.22c.06-.08,.11-.19,.18-.22,.05-.01,.13,.09,.2,.15h0Z"/><path class="cls-2" d="M315.75,465.14c.14,.06,.3,.1,.3,.14,0,.15-.06,.28-.1,.43-.09-.03-.25-.07-.25-.11-.02-.14,.03-.28,.05-.46h0Z"/><path class="cls-2" d="M188,402.57l-.65,.32c-.05-.14-.12-.26-.13-.4,0-.05,.15-.16,.22-.15,.13,.01,.25,.1,.56,.23Z"/><path class="cls-2" d="M364.57,223.26c.03,.09,.1,.21,.08,.28-.02,.07-.14,.1-.22,.16-.03-.1-.1-.21-.07-.28,.02-.07,.14-.1,.21-.15h0Z"/><path class="cls-2" d="M438.52,370.13c.12,.17,.27,.31,.27,.42s-.17,.23-.26,.34c-.1-.11-.26-.22-.27-.34-.01-.11,.14-.24,.26-.42Z"/><path class="cls-2" d="M454.69,148.19c.11,.17,.26,.3,.25,.41,0,.11-.16,.22-.25,.32-.09-.11-.24-.22-.25-.33,0-.11,.13-.24,.24-.4h.01Z"/><path class="cls-2" d="M170.33,324.47l-.24,.06v-.41c.08,.02,.19,0,.23,.07s0,.19,0,.28h.01Z"/><path class="cls-2" d="M420.36,463.97l.28,.26-.27,.28-.25-.34,.24-.21h0Z"/><path class="cls-2" d="M15.85,455.3l-.32,.23c-.04-.09-.14-.22-.12-.26,.06-.11,.18-.18,.27-.27l.17,.31Z"/><path class="cls-2" d="M230.17,408.28l-.26,.34c-.05-.08-.13-.16-.13-.25s.08-.18,.12-.27l.26,.18h.01Z"/><path class="cls-2" d="M383.78,283.23c-.02-.16-.05-.31-.03-.46,0-.05,.15-.07,.23-.1,.03,.14,.08,.27,.08,.42,0,.03-.15,.08-.28,.14Z"/><path class="cls-2" d="M312.22,137.04c.08,.23,.19,.38,.16,.48-.03,.09-.19,.14-.29,.21-.04-.09-.13-.19-.11-.26,.03-.11,.12-.22,.24-.41h0Z"/><path class="cls-2" d="M279.21,232.99c.02,.15,.06,.3,.05,.43,0,.05-.15,.07-.23,.1-.04-.14-.09-.27-.11-.41,0-.02,.16-.07,.29-.13h0Z"/><path class="cls-2" d="M425.22,158.66c-.07,.06-.14,.15-.2,.14-.06,0-.1-.14-.15-.21,.07-.05,.14-.14,.2-.14,.05,0,.1,.13,.14,.19h0Z"/><path class="cls-2" d="M43.33,335.59l-.18,.32c-.09-.09-.21-.17-.26-.28-.02-.06,.08-.18,.12-.27l.32,.25h0Z"/><path class="cls-2" d="M405.14,136.83l-.13,.25-.26-.27,.28-.25,.11,.26h0Z"/><path class="cls-2" d="M75.92,161.54c.07-.06,.13-.13,.2-.18l.14,.35c-.08,.03-.18,.1-.23,.08-.06-.03-.08-.16-.11-.25Z"/><path class="cls-2" d="M217.21,448.79c.07-.07,.14-.13,.21-.19l.17,.36c-.09,.03-.19,.13-.25,.09s-.08-.17-.12-.27h-.01Z"/><path class="cls-2" d="M256.23,246.94c-.05,.08-.1,.16-.14,.24-.07-.06-.18-.1-.2-.18-.02-.06,.09-.15,.13-.23l.21,.17h0Z"/><path class="cls-2" d="M226.9,273.99c-.12-.18-.26-.31-.25-.43,0-.11,.16-.23,.25-.34,.09,.11,.24,.23,.25,.35,0,.11-.13,.25-.25,.42Z"/><path class="cls-2" d="M142.81,134.86c-.08,0-.2,.03-.24,0-.04-.06-.02-.18-.03-.28,.08,0,.2-.02,.24,.02,.04,.06,.02,.18,.03,.27h0Z"/><path class="cls-2" d="M86.45,191.16c-.12,.15-.19,.31-.3,.36-.16,.08-.39-.17-.32-.38,.04-.13,.19-.28,.28-.28,.1,0,.2,.17,.34,.31h0Z"/><path class="cls-2" d="M141.13,134.57l-.27,.28c-.05-.08-.14-.17-.13-.24,0-.08,.08-.21,.15-.23,.05-.02,.14,.09,.25,.18h0Z"/><path class="cls-2" d="M278.28,164.57c.09,.03,.17,.07,.26,.1l-.16,.35c-.07-.07-.18-.11-.2-.19-.02-.07,.07-.17,.11-.26h0Z"/><path class="cls-2" d="M379.16,261.82l-.29,.39c-.09-.1-.2-.18-.26-.3-.02-.05,.09-.25,.14-.25,.11,0,.23,.08,.41,.16Z"/><path class="cls-2" d="M251.17,356.06c-.06,.08-.12,.15-.19,.23l-.18-.35c.08-.05,.17-.15,.24-.13,.06,.02,.09,.17,.13,.26h0Z"/><path class="cls-2" d="M219.66,334.11l-.3,.38c-.08-.11-.19-.21-.23-.33-.02-.06,.1-.24,.15-.24,.11,.01,.22,.1,.39,.19h0Z"/><path class="cls-2" d="M325.45,145.16c-.04,.09-.07,.18-.11,.27-.07-.06-.19-.09-.2-.16-.01-.09,.06-.19,.09-.28,.07,.06,.15,.11,.22,.17Z"/><path class="cls-2" d="M76.23,352.68c-.05,.05-.11,.09-.16,.15-.02-.03-.07-.1-.06-.11,.05-.06,.1-.1,.16-.16l.06,.13h0Z"/><path class="cls-2" d="M437.84,179.97l.1,.08c-.05,.06-.09,.13-.14,.18,0,0-.06-.05-.09-.08,.05-.06,.09-.13,.14-.18h-.01Z"/><path class="cls-2" d="M228.58,355.18h-.13l.06-.23s.1,.05,.11,.08-.02,.09-.04,.15Z"/><path class="cls-2" d="M217.23,179.12s-.09,.06-.13,.05c-.03,0-.06-.08-.08-.11l.2-.08v.15h.01Z"/><path class="cls-2" d="M37.54,199.06c-.07-.06-.13-.1-.2-.16,.06-.06,.12-.13,.19-.17,.02,0,.11,.06,.1,.08-.02,.09-.06,.17-.09,.25h0Z"/><path class="cls-2" d="M270.22,205.33l.08-.13c.06,.06,.12,.1,.17,.17,0,0-.05,.08-.07,.11-.06-.06-.11-.1-.17-.16h0Z"/><path class="cls-2" d="M138.5,357.51c-.06,.05-.13,.09-.19,.13,0-.1-.03-.22-.02-.32,0-.03,.07-.07,.1-.1,.03,.1,.07,.19,.1,.3h0Z"/><path class="cls-2" d="M367.07,206.94c-.05,.06-.1,.13-.15,.18-.04-.07-.09-.14-.12-.22,0-.02,.06-.1,.08-.1,.07,.03,.13,.08,.2,.13h-.01Z"/><path class="cls-2" d="M396.8,209.75c-.07-.05-.14-.09-.22-.13l.19-.31c.06,.07,.16,.14,.16,.21s-.09,.15-.14,.23h.01Z"/><path class="cls-2" d="M409.83,173.62l.07-.13c.05,.06,.11,.1,.15,.17,0,.01-.04,.08-.07,.11-.05-.06-.11-.11-.16-.16h.01Z"/><path class="cls-2" d="M394.98,209.52c.08,.03,.19,.06,.21,.13,.02,.06-.05,.17-.08,.25-.07-.03-.19-.06-.21-.13-.02-.06,.05-.17,.08-.25Z"/><path class="cls-2" d="M11.97,337.12c-.03,.08-.06,.17-.1,.25l-.31-.16c.06-.07,.11-.18,.18-.19,.06-.01,.15,.07,.22,.1h.01Z"/><path class="cls-2" d="M62.98,190.25c.07,.03,.15,.08,.22,.11-.05,.07-.1,.15-.16,.19-.02,.01-.11-.05-.11-.06,0-.08,.03-.17,.05-.25Z"/><path class="cls-2" d="M140.87,473.73c.05,.07,.09,.13,.14,.19-.06,.05-.13,.09-.19,.13,0,0-.07-.09-.06-.11,.03-.08,.08-.14,.12-.21h0Z"/><path class="cls-2" d="M401.88,171.62c-.07-.05-.19-.08-.2-.16-.02-.09,.03-.19,.05-.3l.3,.19c-.05,.09-.1,.17-.15,.26h0Z"/><path class="cls-2" d="M290.31,333.24s.09-.06,.13-.05c.03,0,.05,.07,.08,.11l-.2,.09v-.15h0Z"/><path class="cls-2" d="M414.63,363.74l.28-.35c.07,.11,.16,.21,.19,.33,.02,.07-.07,.17-.12,.26l-.35-.24h0Z"/><path class="cls-2" d="M112.92,217.16l-.05,.14s-.1-.03-.11-.07,.03-.09,.05-.14l.12,.07h-.01Z"/><path class="cls-2" d="M128.48,364.64l-.16-.23,.21-.16s.08,.1,.07,.14c-.03,.09-.08,.17-.12,.25h0Z"/><path class="cls-2" d="M365.33,470.83c-.05,.07-.11,.14-.16,.21l-.2-.31c.08-.05,.16-.13,.22-.11,.06,.01,.09,.14,.14,.22Z"/><path class="cls-2" d="M361.93,467.68c.06,.06,.13,.11,.19,.17l-.22,.28c-.05-.08-.14-.16-.14-.24s.11-.15,.17-.22Z"/><path class="cls-2" d="M419.35,189.57l-.05,.13s-.09-.03-.1-.06c0-.03,.03-.08,.04-.13l.11,.06Z"/><path class="cls-2" d="M8.15,466.72l.07-.11c.05,.06,.11,.1,.16,.17,0,.01-.04,.08-.06,.11-.06-.06-.11-.11-.17-.17Z"/><path class="cls-2" d="M253.58,325.27l.16,.19c-.06,.06-.12,.11-.19,.15-.01,0-.09-.08-.08-.09,.03-.08,.07-.16,.11-.25h0Z"/><path class="cls-2" d="M429.82,322.85c-.04-.15-.12-.3-.09-.42,.01-.07,.19-.11,.29-.16,.03,.15,.08,.3,.07,.43,0,.05-.15,.08-.27,.15h0Z"/><path class="cls-2" d="M457.45,321.34l-.14,.31c-.09-.08-.2-.14-.27-.23-.02-.03,.09-.24,.11-.24,.11,.03,.21,.1,.31,.16h0Z"/><path class="cls-2" d="M454.82,222.51l.1,.08c-.05,.07-.09,.13-.14,.18,0,0-.06-.06-.09-.08,.05-.07,.09-.13,.14-.19h-.01Z"/><path class="cls-2" d="M125.26,223.46c.07,.05,.18,.07,.2,.13,.02,.07-.05,.17-.08,.25-.07-.03-.18-.07-.2-.13-.02-.07,.04-.17,.07-.26h0Z"/><path class="cls-2" d="M240.84,463.38s-.09,.06-.12,.05c-.03,0-.05-.07-.08-.11l.19-.08v.14h0Z"/><path class="cls-2" d="M343.21,373.96c.08,.05,.19,.07,.22,.14,.02,.06-.05,.17-.08,.26-.08-.05-.2-.07-.22-.13-.02-.07,.05-.18,.08-.27h0Z"/><path class="cls-2" d="M289.25,317.19l.04,.14s-.09,.06-.11,.05c-.03-.01-.03-.08-.05-.13l.12-.05h0Z"/><path class="cls-2" d="M217.97,462.39c.07-.07,.14-.14,.2-.19l.14,.39c-.08,.03-.19,.11-.23,.08-.06-.05-.08-.17-.12-.27h0Z"/><path class="cls-2" d="M375.9,128.96s.08,.02,.1,.06c.01,.03,0,.08-.01,.13l-.16-.08,.07-.09h0Z"/><path class="cls-2" d="M424.67,150.92l-.1-.09,.18-.11s.04,.11,.03,.15c-.02,.03-.07,.05-.11,.07h0Z"/><path class="cls-2" d="M289.18,459.08c-.04,.08-.09,.16-.13,.24-.06-.06-.17-.11-.18-.18,0-.07,.08-.15,.13-.23l.18,.17h0Z"/><path class="cls-2" d="M234.4,379.25c-.08,.03-.19,.13-.25,.09s-.08-.17-.12-.27c.09-.03,.19-.11,.26-.09,.06,.02,.08,.17,.11,.26h0Z"/><path class="cls-2" d="M91.7,227.05s-.02,.1-.05,.13c-.03,.02-.08,0-.12-.01l.08-.21,.09,.09h0Z"/><path class="cls-2" d="M157.14,313.96l-.11,.09c-.05-.08-.1-.15-.14-.23,0,0,.07-.06,.1-.09,.05,.08,.1,.15,.15,.23Z"/><path class="cls-2" d="M462.89,456.33l.15,.21c-.07,.05-.14,.09-.21,.13-.01,0-.08-.09-.07-.11,.03-.08,.09-.15,.13-.22h0Z"/><path class="cls-2" d="M274.29,313.38l.15,.21-.28,.21c-.03-.09-.1-.19-.08-.26,.02-.07,.13-.1,.2-.15h0Z"/><path class="cls-2" d="M292.66,151.55c.03-.09,.05-.23,.11-.25s.15,.06,.23,.1l-.1,.27c-.08-.05-.16-.08-.24-.13Z"/><path class="cls-2" d="M199.55,313.1l.05,.15-.11,.05,.06-.19Z"/><path class="cls-2" d="M373.96,129.78c.04-.09,.05-.23,.11-.25s.15,.06,.23,.1c-.04,.09-.05,.23-.11,.25-.05,.02-.15-.07-.23-.1Z"/><path class="cls-2" d="M97.51,385.92s.09,.03,.11,.07c.02,.03,0,.09,0,.14l-.17-.09,.08-.1h-.02Z"/><path class="cls-2" d="M180.61,386.42l.07-.11c.06,.06,.11,.1,.16,.16,0,0-.05,.07-.07,.11-.06-.06-.11-.1-.17-.16h0Z"/><path class="cls-2" d="M332.77,238.98c.06,.06,.13,.13,.19,.18l-.25,.26c-.04-.09-.11-.18-.1-.26,0-.07,.11-.13,.17-.18h-.01Z"/><path class="cls-2" d="M469.1,130.67l.2,.21-.26,.27c-.04-.09-.11-.18-.1-.27,0-.07,.1-.14,.15-.21h.01Z"/><path class="cls-2" d="M455.58,310.77c-.04,.09-.05,.22-.11,.25-.05,.02-.15-.06-.23-.09,.03-.09,.05-.22,.11-.26,.05-.02,.15,.06,.23,.1Z"/><path class="cls-2" d="M319.65,310.24c.08,.03,.16,.07,.23,.11-.04,.08-.05,.22-.11,.24s-.15-.06-.22-.1c.03-.08,.07-.17,.1-.25h0Z"/><path class="cls-2" d="M127.85,448.23s.08,.11,.07,.13c-.06,.07-.12,.11-.19,.17-.03-.05-.08-.11-.07-.13,.06-.07,.12-.11,.19-.17Z"/><path class="cls-2" d="M119.76,166.69c0,.08,.02,.17,.01,.25,0,0-.08,.01-.12,.02,0-.08-.02-.17-.01-.25,0,0,.08-.01,.12-.02Z"/><path class="cls-2" d="M232.48,308.61c-.06,.06-.12,.13-.17,.18-.03-.08-.08-.16-.09-.24,0-.02,.07-.11,.08-.1,.07,.05,.13,.1,.19,.16h-.01Z"/><path class="cls-2" d="M404.47,251.4c-.08,.01-.17,.02-.25,.03,0-.09,0-.18,.03-.27,0-.02,.12-.05,.12-.03,.04,.08,.07,.17,.09,.26h.01Z"/><path class="cls-2" d="M419.4,130.92c.08-.03,.18-.1,.25-.08,.05,.02,.07,.16,.1,.25-.08,.03-.18,.11-.24,.08s-.08-.16-.11-.25h0Z"/><path class="cls-2" d="M205.15,132.2l-.15,.16c-.03-.09-.08-.18-.07-.27,0-.06,.1-.1,.15-.16l.07,.27Z"/><path class="cls-2" d="M22.61,164.3c-.08-.03-.21-.06-.23-.13s.06-.18,.09-.27c.08,.03,.21,.06,.23,.13s-.06,.18-.09,.27Z"/><path class="cls-2" d="M240.56,263.99s.07,.11,.07,.13c-.06,.06-.12,.11-.18,.16-.02-.05-.07-.11-.07-.13,.06-.06,.12-.11,.18-.16Z"/><path class="cls-2" d="M173.46,396.68c-.03,.09-.06,.18-.1,.26-.07-.05-.19-.08-.21-.15s.06-.17,.09-.25l.21,.14h.01Z"/><path class="cls-2" d="M87.93,298.91c-.05-.07-.1-.15-.14-.22,.07-.05,.13-.09,.2-.13,.01,0,.08,.09,.08,.11-.03,.08-.08,.15-.13,.23h-.01Z"/><path class="cls-2" d="M359.66,271.62s.08-.05,.11-.03c.03,0,.05,.06,.07,.09l-.17,.07v-.13h0Z"/><path class="cls-2" d="M81.87,272.08c-.08-.01-.16-.03-.24-.05,0-.06,.02-.15,.02-.15,.08,0,.16,.02,.24,.03l-.03,.16h.01Z"/><path class="cls-2" d="M83.55,187.15l-.15-.24,.3-.19c.03,.1,.09,.22,.07,.3-.02,.07-.14,.09-.22,.14h0Z"/><path class="cls-2" d="M122.98,186.7l-.08,.28-.29-.23c.06-.08,.1-.19,.17-.23,.04-.02,.13,.1,.19,.16h0Z"/><path class="cls-2" d="M351.9,295.69c.06-.07,.13-.13,.19-.19,.04,.08,.08,.16,.11,.25,0,.02-.08,.11-.09,.1-.07-.05-.14-.1-.21-.16h0Z"/><path class="cls-2" d="M285.25,274.59c.04-.09,.07-.18,.11-.27,.07,.06,.18,.09,.19,.16,.01,.08-.06,.18-.09,.27l-.21-.17h0Z"/><path class="cls-2" d="M120.11,276.12c.06-.07,.11-.14,.17-.21,.05,.08,.1,.16,.14,.24,0,.02-.07,.13-.08,.11-.08-.03-.15-.1-.22-.15h0Z"/><path class="cls-2" d="M295.28,156.23c.06,.07,.16,.13,.17,.19,0,.08-.06,.18-.1,.27l-.26-.26c.06-.07,.13-.14,.19-.21h0Z"/><path class="cls-2" d="M357.4,134.43l-.38,.3c-.07-.11-.15-.22-.19-.34-.01-.03,.12-.18,.18-.18,.11,.02,.21,.11,.39,.23h0Z"/><path class="cls-2" d="M449.74,275.92c.05,.07,.1,.14,.16,.21-.07,.05-.14,.1-.22,.13-.01,0-.09-.09-.08-.11,.03-.08,.09-.15,.14-.22h0Z"/><path class="cls-2" d="M5.89,412.64l-.11,.05s-.05-.1-.04-.13c.01-.03,.07-.03,.11-.06l.04,.14h0Z"/><path class="cls-2" d="M436.46,412.3c-.04,.08-.06,.21-.11,.22-.07,.02-.15-.05-.23-.08,.04-.08,.06-.21,.12-.23,.06-.02,.15,.06,.22,.09h0Z"/><path class="cls-2" d="M75.43,278.38s.1,.03,.11,.07c0,.03-.03,.08-.05,.13-.04-.02-.1-.03-.11-.07,0-.03,.03-.08,.05-.13Z"/><path class="cls-2" d="M53.17,288.66c-.06,.06-.11,.11-.17,.17-.04-.08-.08-.15-.1-.23,0-.01,.08-.09,.09-.09,.07,.03,.12,.09,.18,.15Z"/><path class="cls-2" d="M97.88,408.29c-.05-.07-.1-.15-.15-.22,.04-.02,.11-.09,.11-.08,.06,.07,.1,.14,.15,.22l-.12,.08h.01Z"/><path class="cls-2" d="M434.74,410.7c.08,.03,.15,.08,.23,.11-.03,.09-.05,.22-.11,.24-.05,.02-.19-.05-.21-.1-.02-.07,.06-.17,.09-.25h0Z"/><path class="cls-2" d="M102.44,137.41c-.05,.08-.1,.17-.15,.25-.06-.06-.17-.11-.18-.18,0-.08,.08-.17,.12-.25,.07,.06,.14,.13,.2,.18h.01Z"/><path class="cls-2" d="M352.73,283.36c-.08,0-.16,.02-.24,.01,0,0-.01-.09-.02-.15,.08,0,.16-.02,.24-.01,0,0,.01,.09,.02,.15Z"/><path class="cls-2" d="M208.73,283.62c-.05-.07-.15-.14-.15-.19,0-.07,.11-.18,.16-.17,.06,0,.12,.11,.18,.18-.06,.07-.12,.13-.18,.19h-.01Z"/><path class="cls-2" d="M418.8,282.21c-.07,0-.15-.02-.22-.03,0-.05,.01-.14,.02-.14,.08,0,.16,.01,.23,.02l-.03,.15Z"/><path class="cls-2" d="M375.01,193.76s.07-.06,.1-.05c.03,0,.04,.06,.07,.09l-.16,.07v-.13h-.01Z"/><path class="cls-2" d="M452.25,144.65c.06,.06,.17,.11,.17,.16-.01,.08-.08,.16-.13,.24-.03-.03-.1-.07-.1-.1,0-.09,.04-.18,.06-.28h0Z"/><path class="cls-2" d="M221.33,350.1l-.12,.24s-.09-.09-.09-.11c.02-.08,.07-.16,.11-.24l.1,.11h0Z"/><path class="cls-2" d="M137.84,362.09l-.08,.1,.02-.24,.06,.13h0Z"/><path class="cls-2" d="M262.24,332.94s.1,.03,.12,.07c.01,.02-.02,.11-.05,.13-.04,0-.08-.03-.12-.06l.05-.14Z"/><path class="cls-2" d="M281,289.94l-.05,.14s-.1-.03-.11-.07c0-.03,.03-.09,.05-.13l.12,.07h-.01Z"/><polygon class="cls-2" points="274.83 329.68 274.75 329.59 274.85 329.55 274.83 329.68"/><path class="cls-2" d="M115.58,405.92c-.08,.01-.16,.02-.24,.05,0-.1,0-.19,.01-.3,0-.01,.11-.03,.12-.01,.05,.08,.07,.17,.11,.26Z"/><path class="cls-2" d="M327.05,217.59l.07,.13-.18,.1s-.02-.11,0-.15c.01-.03,.07-.06,.1-.08h0Z"/><path class="cls-2" d="M25.74,319.81v.16l-.18-.08s.04-.1,.07-.13c.02-.01,.07,.03,.11,.05h0Z"/><path class="cls-2" d="M154.7,156.46c-.07,0-.14-.02-.21-.02,0-.05,0-.13,.02-.13,.07,0,.13,.01,.2,.02l-.02,.13h.01Z"/><path class="cls-2" d="M168.22,464.36l-.1-.09,.17-.13s.04,.1,.03,.14-.07,.05-.1,.08h0Z"/><path class="cls-2" d="M296.64,274.66l-.08,.1c-.04-.06-.08-.11-.11-.18,0-.01,.05-.06,.08-.09,.04,.06,.08,.13,.12,.18h-.01Z"/><path class="cls-2" d="M85.48,376.47l.07,.14-.18,.1s-.01-.11,0-.16c.02-.03,.07-.06,.1-.08h.01Z"/><path class="cls-2" d="M438.14,272.8c-.08,.05-.16,.08-.24,.13-.03-.1-.09-.21-.07-.28,.01-.06,.14-.09,.22-.13,.03,.09,.06,.19,.09,.3h0Z"/><path class="cls-2" d="M357.01,225.96c-.05,.07-.11,.14-.16,.19-.05-.08-.1-.15-.14-.24,0-.01,.07-.1,.09-.1,.07,.03,.14,.09,.21,.14h0Z"/><path class="cls-2" d="M435.08,188.63h-.13l.06-.24s.1,.05,.11,.08c.01,.03-.03,.1-.05,.15h.01Z"/><path class="cls-2" d="M197.59,420.3c.09-.02,.19-.05,.28-.07,.05-.01,.09-.03,.14-.06-.05,.06-.09,.16-.14,.17-.09,.01-.19-.02-.3-.05h.02Z"/><path class="cls-2" d="M6.46,312.92c-.05,.07-.11,.13-.16,.19-.04-.08-.09-.15-.11-.24,0-.03,.05-.08,.07-.13,.07,.06,.13,.11,.2,.17h0Z"/><path class="cls-2" d="M208.25,449.21s-.09,.05-.13,.03c-.03,0-.05-.07-.08-.11l.2-.07v.14h.01Z"/><path class="cls-2" d="M331.58,307.5l-.06,.14c-.06-.06-.12-.1-.16-.17,0-.01,.04-.08,.06-.13,.05,.06,.11,.11,.16,.16h0Z"/><path class="cls-2" d="M459.37,423.05s-.11,.1-.16,.15c-.02-.03-.07-.1-.06-.11,.05-.06,.1-.1,.16-.15l.07,.11h-.01Z"/><path class="cls-2" d="M124.54,295.91c.08,.03,.21,.06,.22,.11,.02,.08-.05,.18-.09,.27-.08-.05-.19-.07-.22-.14-.02-.06,.05-.16,.08-.25h0Z"/><path class="cls-2" d="M168.99,447.56s-.04,.09-.08,.11c-.02,0-.06-.05-.09-.07l.12-.17,.05,.13Z"/><path class="cls-2" d="M103.93,394.55s.1,.02,.12,.06c.02,.03,0,.1,0,.15l-.2-.09,.09-.11h-.01Z"/><path class="cls-2" d="M354.63,131.52c-.05,.06-.11,.11-.16,.17-.04-.08-.08-.15-.1-.24,0-.02,.08-.1,.09-.09,.06,.05,.12,.1,.17,.16h0Z"/><path class="cls-2" d="M398.14,307.02s.07,.1,.06,.11c-.05,.06-.1,.1-.16,.16,0-.08-.02-.16-.01-.24,0-.01,.07-.02,.11-.03h0Z"/><polygon class="cls-2" points="423.59 163.32 423.63 163.42 423.54 163.41 423.59 163.32"/><polygon class="cls-2" points="267.19 437.1 267.26 436.98 267.3 437.11 267.19 437.1"/><path class="cls-2" d="M145.83,438.7s.1,.03,.1,.05c0,.05-.02,.09-.04,.14l-.11-.05,.05-.14h0Z"/><path class="cls-2" d="M386.3,439.25l-.08,.09s-.05-.08-.05-.13c0-.03,.05-.07,.08-.09l.06,.13h-.01Z"/><polygon class="cls-2" points="196.99 254.22 197.02 254.32 196.94 254.31 196.99 254.22"/><path class="cls-2" d="M304.67,253.31l-.07,.09s-.05-.07-.05-.1,.04-.06,.07-.09l.05,.1Z"/><polygon class="cls-2" points="401.26 151.96 401.34 152.02 401.25 152.05 401.26 151.96"/><path class="cls-2" d="M404.98,180.59l-.03,.11s-.08-.02-.1-.05c-.01-.02,.02-.07,.03-.1l.1,.05h0Z"/><path class="cls-2" d="M244.24,448.99s.06,.08,.06,.13c0,.03-.04,.08-.07,.11-.02-.05-.06-.08-.06-.13,0-.03,.04-.08,.07-.11Z"/><path class="cls-2" d="M272.95,449.17s-.08-.02-.08-.05c0-.03,.02-.07,.03-.11l.09,.05-.04,.11Z"/><polygon class="cls-2" points="79.77 238.08 79.74 237.97 79.83 237.98 79.77 238.08"/><path class="cls-2" d="M266.66,235.11s.05,.08,.05,.11-.05,.07-.07,.1c0-.07,.01-.15,.02-.22h0Z"/><polygon class="cls-2" points="77.46 420.18 77.36 420.18 77.41 420.07 77.46 420.18"/><polygon class="cls-2" points="199.44 418.05 199.33 418.05 199.38 417.92 199.44 418.05"/><polygon class="cls-2" points="420.51 459.08 420.42 459.12 420.43 459.02 420.51 459.08"/><polygon class="cls-2" points="302.85 139.62 302.77 139.61 302.81 139.52 302.85 139.62"/><path class="cls-2" d="M201.15,414.52l-.02-.28c0,.09,.02,.17,.02,.27v.02h0Z"/><polygon class="cls-2" points="357.57 142.26 357.6 142.37 357.51 142.35 357.57 142.26"/><polygon class="cls-2" points="429.86 368.77 429.84 368.66 429.92 368.68 429.86 368.77"/><polygon class="cls-2" points="73.39 329.4 73.3 329.35 73.4 329.3 73.39 329.4"/><polygon class="cls-2" points="132.72 414.07 132.68 413.94 132.79 413.96 132.72 414.07"/><polygon class="cls-2" points="181.39 471.53 181.44 471.44 181.47 471.55 181.39 471.53"/><polygon class="cls-2" points="4.41 289.82 4.47 289.68 4.52 289.83 4.41 289.82"/><polygon class="cls-2" points="29.99 361.4 30 361.32 30.08 361.37 29.99 361.4"/><path class="cls-2" d="M57.98,173.85c-.04-.13-.07-.25-.04-.13-.02-.15,0-.03,.02,.09l.02,.03Z"/><polygon class="cls-2" points="182.24 339.28 182.15 339.31 182.16 339.21 182.24 339.28"/><path class="cls-2" d="M278.66,411.47l-.02,.39s-.08-.07-.07-.08c.04-.09,.08-.17,.12-.26l-.04-.03h.01Z"/><polygon class="cls-2" points="113.57 358.02 113.61 358.14 113.51 358.12 113.57 358.02"/><polygon class="cls-2" points="358.9 278.7 358.82 278.64 358.91 278.6 358.9 278.7"/><polygon class="cls-2" points="423.65 177.66 423.6 177.77 423.56 177.66 423.65 177.66"/><path class="cls-2" d="M81.05,199.64l.1-.05,.03,.18s-.08,0-.11-.03c-.02-.01-.02-.07-.02-.1h0Z"/><path class="cls-2" d="M421.9,194.5l-.05,.13-.13-.17s.08-.07,.11-.06c.03,0,.05,.07,.08,.1h0Z"/><polygon class="cls-2" points="148.31 280.22 148.22 280.22 148.27 280.1 148.31 280.22"/></g></svg>