<?xml version="1.0" encoding="utf-8"?>
<svg version="1.1" id="Layer_1" xmlns="http://www.w3.org/2000/svg" xmlns:xlink="http://www.w3.org/1999/xlink" x="0px" y="0px"
	 viewBox="0 0 100 100" style="enable-background:new 0 0 100 100;" xml:space="preserve">
<style type="text/css">
	.st0{fill:#FFFFFF;}
</style>
<g>
	<g>
		<path fill="currentColor" d="M58.8,48.9c-5.3,0-10.7,0-16,0c-0.7,0-0.7,0-0.7-0.7c0-7.8,0-15.6,0-23.3c0-0.5,0.1-0.7,0.7-0.7
			c3.1-0.4,6.2-0.8,9.2-1.3c2.3-0.4,4.5-0.6,6.8-1c3-0.4,5.9-0.8,8.7-1.2c2.5-0.4,4.9-0.7,7.4-1.1c0.6-0.1,0.6-0.1,0.6,0.5
			c0,9.5,0,18.7,0,28.1c0,0.7,0,0.7-0.7,0.7C69.5,48.9,64.1,48.9,58.8,48.9z"/>
		<path fill="currentColor" d="M58.7,52c5.4,0,10.7,0,16,0c0.7,0,0.7,0,0.7,0.7c0,9.2,0,18.4,0,27.6c0,0.6,0,0.7-0.6,0.6
			c-1.3-0.1-2.8-0.4-4.2-0.5c-3-0.4-5.9-0.8-9-1.2c-3.6-0.5-7.2-1-10.8-1.6c-2.9-0.4-5.7-0.7-8.6-1.2c-0.5-0.1-0.5-0.4-0.5-0.7
			c0-5.6,0-11.2,0-16.9c0-2,0-4.2,0-6.2c0-0.7,0-0.7,0.7-0.7C48,52,53.4,52,58.7,52z"/>
		<path fill="currentColor" d="M26.6,48.9c-4.1,0-8,0-12,0c-0.7,0-0.7,0-0.7-0.7c0-6.5,0-13.2,0-19.6c0-0.6,0.1-0.6,0.7-0.7
			c1.4-0.1,2.9-0.4,4.3-0.6c3-0.4,5.9-0.7,8.7-1.2c2.2-0.4,4.2-0.6,6.3-1c1.4-0.2,3-0.4,4.4-0.6c0.6-0.1,0.6-0.1,0.6,0.5
			c0,6.5,0,13,0,19.6c0,1.2,0,2.4,0,3.5c0,0.7,0,0.7-0.7,0.7C34.6,48.9,30.6,48.9,26.6,48.9z"/>
		<path fill="currentColor" d="M26.6,52c3.9,0,8,0,11.8,0c0.7,0,0.7,0,0.7,0.7c0,7.5,0,15.1,0,22.6c0,0.6,0,0.7-0.6,0.6
			c-1.4-0.1-3-0.4-4.4-0.6c-3.5-0.5-6.9-1-10.4-1.4c-2.3-0.4-4.5-0.6-6.8-1c-0.8-0.1-1.8-0.2-2.6-0.4c-0.4,0-0.5-0.1-0.5-0.5
			c0-0.1,0-0.2,0-0.4c0-6.3,0-12.7,0-19.1c0-0.7,0-0.7,0.7-0.7C18.7,52,22.7,52,26.6,52z"/>
		<path fill="currentColor" d="M83,80.2c0.4-0.7,0.6-1.4,1-2c0.1-0.2,0.2-0.4,0.5-0.4c0.4,0,0.5,0.1,0.5,0.4c0,0.8,0,1.7,0,2.5
			c0,0.1,0,0.4-0.2,0.4c-0.4,0-0.4-0.1-0.4-0.4c0-0.6,0-1.2-0.1-1.9c-0.2,0.5-0.5,1.2-0.7,1.7c-0.1,0.1-0.1,0.2-0.1,0.4
			c-0.1,0.1-0.1,0.4-0.4,0.4c-0.1,0-0.2-0.1-0.4-0.4c-0.4-0.7-0.6-1.3-1-2.2c-0.1,0.6-0.1,1.1-0.1,1.6c0,0.1,0,0.4,0,0.5
			S81.4,81,81.3,81s-0.2-0.1-0.4-0.2c0-0.2-0.1-0.4-0.1-0.6c0-0.6,0-1.2,0-1.8c0-0.2-0.1-0.5,0.4-0.6c0.4-0.1,0.6,0.1,0.7,0.4
			c0.2,0.5,0.4,1,0.6,1.4C82.9,79.8,82.9,79.9,83,80.2z"/>
		<path fill="currentColor" d="M79.4,77.7c0.4,0,0.6,0,1,0c0.1,0,0.4,0.1,0.4,0.2c0,0.2-0.1,0.2-0.4,0.4c-0.7,0.1-0.7,0.1-0.7,0.8
			c0,0.5,0,1,0,1.4c0,0.2,0,0.4-0.4,0.4s-0.4-0.2-0.4-0.4c0-0.6,0-1.2,0-1.8c0-0.4-0.1-0.5-0.5-0.5c-0.2,0-0.5,0-0.5-0.4
			s0.4-0.4,0.5-0.4C78.9,77.7,79.1,77.7,79.4,77.7L79.4,77.7z"/>
	</g>
</g>
</svg>
